<svg width="32" height="25" viewBox="0 0 32 25" fill="none" xmlns="http://www.w3.org/2000/svg">
<path d="M4.32312 24.7347H27.1255C30.0245 24.7347 31.4486 23.3106 31.4486 20.4624V4.28886C31.4486 1.44069 30.0245 0.0166016 27.1255 0.0166016H4.32312C1.44104 0.0166016 0 1.44069 0 4.28886V20.4624C0 23.3106 1.44104 24.7347 4.32312 24.7347ZM4.35703 22.2764C3.13638 22.2764 2.44129 21.6153 2.44129 20.3437V4.40754C2.44129 3.11908 3.13638 2.47485 4.35703 2.47485H27.0916C28.3122 2.47485 29.0073 3.11908 29.0073 4.40754V20.3437C29.0073 21.6153 28.3122 22.2764 27.0916 22.2764H4.35703Z" fill="white"/>
<path d="M2.44141 13.6465H5.73037C6.32374 13.6465 6.61195 13.3583 6.81539 12.8666L8.29033 9.23857L11.1724 18.5969C11.4098 19.3937 12.7321 19.3767 12.9864 18.546L14.5292 13.6465H17.496C18.0894 13.6465 18.3776 13.3583 18.5811 12.8666L20.1408 9.23857L23.0059 18.5969C23.2602 19.3937 24.5656 19.3767 24.8369 18.546L26.3796 13.6465H29.0074V11.7138H25.8202C25.2268 11.7138 24.9216 12.002 24.7351 12.4936L23.9044 14.7654L21.0393 6.03438C20.785 5.23757 19.5813 5.25452 19.2422 6.08524L16.9366 11.7138H13.9697C13.3764 11.7138 13.0712 12.002 12.9017 12.4936L12.0709 14.7654L9.20582 6.03438C8.93456 5.23757 7.73087 5.25452 7.3918 6.08524L5.08614 11.7138H2.44141V13.6465Z" fill="white"/>
</svg>
