<svg width="39" height="25" viewBox="0 0 39 25" fill="none" xmlns="http://www.w3.org/2000/svg">
<path d="M19.4469 24.3162C31.0035 24.3162 38.8937 15.0601 38.8937 12.1664C38.8937 9.25475 31.0035 0.0166016 19.4469 0.0166016C8.0699 0.0166016 0 9.25475 0 12.1664C0 15.0601 8.0699 24.3162 19.4469 24.3162ZM19.4469 21.8C10.3705 21.8 2.78582 14.1075 2.78582 12.1664C2.78582 10.6027 10.3705 2.53283 19.4469 2.53283C28.5053 2.53283 36.0899 10.6027 36.0899 12.1664C36.0899 14.1075 28.5053 21.8 19.4469 21.8ZM19.4469 20.0386C23.8143 20.0386 27.355 16.4979 27.355 12.1304C27.355 7.76299 23.8143 4.2223 19.4469 4.2223C15.0794 4.2223 11.5387 7.76299 11.5387 12.1304C11.5387 16.4979 15.0794 20.0386 19.4469 20.0386ZM19.4469 14.8264C17.9731 14.8264 16.7689 13.6222 16.7689 12.1484C16.7689 10.6746 17.9731 9.47043 19.4469 9.47043C20.9386 9.47043 22.1248 10.6746 22.1248 12.1484C22.1248 13.6222 20.9386 14.8264 19.4469 14.8264Z" fill="white"/>
</svg>
