<svg width="35" height="30" viewBox="0 0 35 30" fill="none" xmlns="http://www.w3.org/2000/svg">
<path d="M13.3893 27.3905V19.2382C13.3893 18.5543 13.8572 18.1044 14.5411 18.1044H19.832C20.5339 18.1044 20.9658 18.5543 20.9658 19.2382V27.3905H13.3893ZM4.62508 26.7247C4.62508 28.7762 5.86683 29.982 7.95441 29.982H26.4187C28.5063 29.982 29.7481 28.7762 29.7481 26.7247V16.0888L18.0144 6.26275C17.5105 5.83083 16.8446 5.84883 16.3587 6.26275L4.62508 16.0888V26.7247ZM1.40372 15.5309C1.85363 15.5309 2.23155 15.2789 2.55549 15.009L16.7187 3.11338C16.8626 2.9874 17.0426 2.93341 17.1866 2.93341C17.3305 2.93341 17.4925 2.9874 17.6365 3.11338L31.8176 15.009C32.1416 15.2789 32.5195 15.5309 32.9694 15.5309C33.8512 15.5309 34.3731 14.901 34.3731 14.2352C34.3731 13.8752 34.2112 13.4793 33.8692 13.1914L18.9862 0.70186C18.4103 0.233953 17.7984 0 17.1866 0C16.5747 0 15.9448 0.233953 15.3869 0.70186L0.503899 13.1914C0.161968 13.4793 0 13.8752 0 14.2352C0 14.901 0.521896 15.5309 1.40372 15.5309ZM26.2028 7.41452L30.09 10.6899V4.17517C30.09 3.4913 29.6401 3.05939 28.9562 3.05939H27.3365C26.6707 3.05939 26.2028 3.4913 26.2028 4.17517V7.41452Z" fill="white"/>
</svg>
