<svg width="155" height="36" viewBox="0 0 155 36" fill="none" xmlns="http://www.w3.org/2000/svg">
<path d="M49.2811 28C48.2308 28 47.6007 27.3399 47.6007 26.2596V7.85079C47.6007 6.77057 48.2308 6.11043 49.2811 6.11043C50.3163 6.11043 50.9614 6.77057 50.9614 7.85079V25.0894H59.7232C60.6534 25.0894 61.2836 25.6595 61.2836 26.5447C61.2836 27.4299 60.6534 28 59.7232 28H49.2811ZM65.8739 9.83121C64.8387 9.83121 63.9985 8.99103 63.9985 7.97082C63.9985 6.9356 64.8387 6.12543 65.8739 6.12543C66.9241 6.12543 67.7643 6.9356 67.7643 7.97082C67.7643 8.99103 66.9241 9.83121 65.8739 9.83121ZM65.8739 28.2851C64.8987 28.2851 64.2536 27.6099 64.2536 26.5747V13.657C64.2536 12.6068 64.8987 11.9316 65.8739 11.9316C66.8491 11.9316 67.4943 12.6068 67.4943 13.657V26.5747C67.4943 27.6099 66.8491 28.2851 65.8739 28.2851ZM74.005 28.2851C73.0148 28.2851 72.3697 27.6699 72.3697 26.5897V14.7822H71.2445C70.4793 14.7822 69.9542 14.3321 69.9542 13.522C69.9542 12.7418 70.4793 12.2467 71.2445 12.2467H72.3697V10.7014C72.3697 7.64075 73.855 6.21545 76.5706 6.20045C78.2959 6.20045 79.1211 6.75556 79.1211 7.62574C79.1211 8.15085 78.866 8.46592 78.3409 8.61595C78.1159 8.67596 77.8458 8.72097 77.5158 8.72097C76.1505 8.73598 75.5804 9.38111 75.5804 10.8214V12.2467H77.7108C78.476 12.2467 79.0011 12.7418 79.0011 13.522C79.0011 14.3321 78.476 14.7822 77.7108 14.7822H75.6254V26.5897C75.6254 27.6699 74.9802 28.2851 74.005 28.2851ZM88.1224 28.3001C83.3664 28.3001 80.5758 25.2844 80.5758 20.1834C80.5758 15.1723 83.4264 11.9316 87.8973 11.9316C92.0982 11.9316 94.9938 14.9623 94.9938 19.2682C94.9938 20.3184 94.3937 20.9185 93.3885 20.9185H83.8465V20.9935C83.8465 23.8741 85.4668 25.6745 88.0474 25.6745C89.8177 25.6745 90.928 25.0594 92.1282 23.424C92.4733 23.019 92.8034 22.8539 93.2684 22.8539C94.0486 22.8539 94.6187 23.364 94.6187 24.1742C94.6187 24.4293 94.5287 24.7293 94.3937 25.0444C93.3585 27.1148 91.063 28.3001 88.1224 28.3001ZM83.8615 18.653H91.7531C91.6781 16.1775 90.1328 14.5422 87.8823 14.5422C85.6469 14.5422 84.0265 16.1925 83.8615 18.653ZM107.506 28.3451C101.475 28.3451 97.6788 24.0392 97.6788 17.1827C97.6788 10.3263 101.475 6.00541 107.506 6.00541C113.537 6.00541 117.348 10.3263 117.348 17.1827C117.348 24.0392 113.552 28.3451 107.506 28.3451ZM107.506 26.4397C112.247 26.4397 115.247 22.8539 115.247 17.1827C115.247 11.4966 112.247 7.9108 107.506 7.9108C102.765 7.9108 99.7792 11.4966 99.7792 17.1827C99.7792 22.8539 102.765 26.4397 107.506 26.4397ZM128.12 28.3451C124.039 28.3451 121.128 26.4097 120.393 23.6791C120.303 23.394 120.258 23.124 120.258 22.8539C120.258 22.1938 120.618 21.7737 121.203 21.7737C121.728 21.7737 122.058 22.0438 122.193 22.6139C122.748 25.1044 125.119 26.4847 128.225 26.4847C131.48 26.4847 133.791 24.7593 133.791 22.2988C133.791 20.2584 132.44 19.0281 129.11 18.263L126.754 17.7379C122.463 16.7777 120.663 14.9323 120.663 11.9466C120.663 8.45092 123.814 6.00541 128.06 6.00541C131.645 6.00541 134.556 7.83579 135.291 10.6864C135.336 10.8664 135.351 11.0765 135.351 11.3315C135.351 11.9016 134.976 12.2767 134.421 12.2767C133.881 12.2767 133.566 11.9917 133.401 11.4515C132.786 9.14106 130.715 7.86579 128 7.86579C125.074 7.86579 122.763 9.39611 122.763 11.8566C122.763 13.822 124.099 15.0673 127.309 15.7874L129.665 16.3276C134.106 17.3328 135.891 19.0131 135.891 22.0288C135.891 25.8696 132.801 28.3451 128.12 28.3451Z" fill="white"/>
<rect x="7.44156" y="32.1348" width="17.5318" height="17.5318" rx="8.76592" transform="rotate(-120 7.44156 32.1348)" stroke="url(#paint0_linear_537_1553)" stroke-width="1.9388"/>
<rect x="28.6004" y="31.5917" width="17.5318" height="17.5318" rx="8.76592" transform="rotate(165 28.6004 31.5917)" stroke="url(#paint1_linear_537_1553)" stroke-width="1.9388"/>
<rect x="2.17675" y="7.65201" width="17.5318" height="17.5318" rx="8.76592" transform="rotate(-30 2.17675 7.65201)" stroke="url(#paint2_linear_537_1553)" stroke-width="1.9388"/>
<rect x="37.1919" y="16.9518" width="17.5318" height="17.5318" rx="8.76592" transform="rotate(120 37.1919 16.9518)" stroke="url(#paint3_linear_537_1553)" stroke-width="1.9388"/>
<rect x="18.5441" y="-1.11231" width="17.5318" height="17.5318" rx="8.76592" transform="rotate(30 18.5441 -1.11231)" stroke="url(#paint4_linear_537_1553)" stroke-width="1.9388"/>
<ellipse cx="17.9453" cy="17.7853" rx="3.27928" ry="3.26184" fill="url(#paint5_radial_537_1553)"/>
<defs>
<linearGradient id="paint0_linear_537_1553" x1="15.5929" y1="30.8105" x2="15.5929" y2="46.4036" gradientUnits="userSpaceOnUse">
<stop offset="0.413462" stop-color="white"/>
<stop offset="0.850962" stop-color="white" stop-opacity="0"/>
</linearGradient>
<linearGradient id="paint1_linear_537_1553" x1="35.2096" y1="30.9062" x2="35.2096" y2="46.4993" gradientUnits="userSpaceOnUse">
<stop offset="0.413462" stop-color="white"/>
<stop offset="0.850962" stop-color="white" stop-opacity="0"/>
</linearGradient>
<linearGradient id="paint2_linear_537_1553" x1="11.2975" y1="8.00684" x2="11.2975" y2="23.5999" gradientUnits="userSpaceOnUse">
<stop offset="0.413462" stop-color="white"/>
<stop offset="0.850962" stop-color="white" stop-opacity="0"/>
</linearGradient>
<linearGradient id="paint3_linear_537_1553" x1="43.6642" y1="17.3066" x2="43.6642" y2="32.8997" gradientUnits="userSpaceOnUse">
<stop offset="0.413462" stop-color="white"/>
<stop offset="0.850962" stop-color="white" stop-opacity="0"/>
</linearGradient>
<linearGradient id="paint4_linear_537_1553" x1="26.6954" y1="0.211914" x2="26.6954" y2="15.805" gradientUnits="userSpaceOnUse">
<stop offset="0.413462" stop-color="white"/>
<stop offset="0.850962" stop-color="white" stop-opacity="0"/>
</linearGradient>
<radialGradient id="paint5_radial_537_1553" cx="0" cy="0" r="1" gradientUnits="userSpaceOnUse" gradientTransform="translate(17.9453 17.7853) rotate(90) scale(3.26245 3.27989)">
<stop offset="0.3125" stop-color="white"/>
<stop offset="1" stop-color="#D5D5D5"/>
</radialGradient>
</defs>
</svg>
