<svg width="917" height="917" viewBox="0 0 917 917" fill="none" xmlns="http://www.w3.org/2000/svg">
<g filter="url(#filter0_i_567_1101)">
<g filter="url(#filter1_d_567_1101)">
<mask id="path-1-inside-1_567_1101" fill="white">
<path d="M602.335 47.182C621.764 39.2875 643.915 48.6385 651.809 68.068L868.948 602.476C876.843 621.906 867.492 644.057 848.062 651.951L313.654 869.09C294.224 876.984 272.073 867.633 264.179 848.204L47.0404 313.795C39.1459 294.366 48.4969 272.215 67.9264 264.321L602.335 47.182Z"/>
</mask>
<path d="M654.306 67.0536C652.642 67.7299 650.977 68.4062 649.313 69.0824C665.008 108.507 680.718 147.925 696.441 187.338C751.966 326.521 807.664 465.634 863.535 604.676C870.292 620.403 861.702 640.4 845.78 646.334C667.388 718.085 489.112 790.12 310.952 862.441C295.912 868.984 276.629 860.837 270.837 845.498C198.457 667.362 125.793 489.342 52.8436 311.437C46.039 295.984 54.3333 276.016 70.2089 269.938C227.229 205.492 384.159 140.824 540.999 75.9334C561.836 67.3127 582.671 58.688 603.504 50.0594C620.471 42.518 642.522 51.5497 649.313 69.0824C650.977 68.4062 652.642 67.7299 654.306 67.0536C646.78 46.7377 621.307 35.7066 601.166 44.3046C580.218 52.6521 559.272 61.0037 538.328 69.359C380.677 132.252 223.115 195.367 65.644 258.703C43.671 266.942 31.9025 294.498 41.2372 316.153C113.047 494.521 185.142 672.773 257.521 850.909C257.521 850.909 257.521 850.909 257.521 850.909C266.046 873.419 294.287 885.334 316.355 875.738C494.467 803.3 672.464 730.576 850.344 657.568C872.271 649.185 883.743 621.658 874.361 600.277C817.419 461.67 760.304 323.133 703.015 184.667C686.793 145.457 670.556 106.252 654.306 67.0536ZM649.313 69.0824L654.306 67.0536L649.313 69.0824Z" fill="#FEFEFE" mask="url(#path-1-inside-1_567_1101)"/>
<mask id="path-3-inside-2_567_1101" fill="white">
<path d="M377.561 29.9695C390.441 13.4178 414.299 10.4407 430.851 23.3199L886.102 377.562C902.654 390.441 905.631 414.299 892.752 430.851L538.51 886.102C525.631 902.654 501.772 905.631 485.221 892.752L29.9693 538.51C13.4177 525.631 10.4405 501.772 23.3197 485.221L377.561 29.9695Z"/>
</mask>
<path d="M432.506 21.1931C431.402 22.6109 430.299 24.0288 429.196 25.4467C462.501 51.7413 495.814 78.024 529.138 104.295C646.815 197.068 764.607 289.694 882.514 382.173C896.23 392.414 898.789 414.028 887.966 427.127C769.35 578.461 650.977 729.984 532.846 881.695C523.093 894.882 502.32 897.468 489.634 887.08C337.883 769 185.944 651.162 33.8161 533.566C20.1965 523.586 17.3955 502.146 28.1051 488.944C131.866 354.622 235.437 220.153 338.819 85.5365C352.554 67.6525 366.285 49.7661 380.013 31.8768C390.936 16.8623 414.548 13.6584 429.196 25.4467C430.299 24.0288 431.402 22.6109 432.506 21.1931C415.83 7.3618 388.254 10.5455 375.11 28.0621C361.143 45.7651 347.179 63.4704 333.219 81.1786C228.135 214.471 123.24 347.911 18.5344 481.497C3.62441 499.619 7.21099 529.367 26.1225 543.454C177.495 662.02 329.057 780.343 480.808 898.423C499.445 913.655 529.86 909.854 544.174 890.509C662.204 738.72 779.992 586.742 897.537 434.574C912.334 416.351 908.506 386.776 889.69 372.95C771.073 281.384 652.342 189.966 533.496 98.6944C499.841 72.8488 466.178 47.015 432.506 21.1931ZM429.196 25.4467L432.506 21.1931L429.196 25.4467Z" fill="#FEFEFE" mask="url(#path-3-inside-2_567_1101)"/>
<mask id="path-5-inside-3_567_1101" fill="white">
<path d="M173.592 129.258C176.469 108.484 195.643 93.9769 216.417 96.8548L787.797 176.011C808.57 178.889 823.078 198.063 820.2 218.837L741.043 790.216C738.166 810.99 718.992 825.498 698.218 822.62L126.838 743.463C106.065 740.585 91.557 721.412 94.435 700.638L173.592 129.258Z"/>
</mask>
<path d="M216.786 94.1854C216.54 95.965 216.293 97.7446 216.047 99.5241C258.037 105.644 300.029 111.748 342.023 117.838C490.321 139.343 638.645 160.664 786.995 181.799C803.994 183.811 817.017 201.249 814.194 218.004C787.136 408.371 760.383 598.78 733.935 789.232C732.082 805.528 715.384 818.154 699.204 815.501C699.204 815.501 699.204 815.501 699.204 815.501C508.744 789.116 318.242 763.035 127.698 737.258C110.913 735.425 97.7671 718.258 100.441 701.47C123.139 533.263 145.6 365.024 167.823 196.752C170.776 174.396 173.724 152.041 176.668 129.684C178.621 111.22 197.468 96.639 216.047 99.5241C216.293 97.7446 216.54 95.965 216.786 94.1854C195.429 90.5449 173.14 107.09 170.515 128.832C167.271 151.147 164.03 173.462 160.794 195.778C136.435 363.754 112.313 531.764 88.4289 699.806C84.5772 722.954 102.558 746.924 125.979 749.668C316.354 776.662 506.772 803.352 697.232 829.738C697.232 829.738 697.232 829.738 697.232 829.738C720.989 833.611 745.428 815.111 748.152 791.201C774.474 600.732 800.492 410.222 826.206 219.669C829.909 196.488 811.806 172.789 788.598 170.224C640.09 150.234 491.556 130.429 342.997 110.809C300.929 105.253 258.859 99.7117 216.786 94.1854ZM216.047 99.5241L216.786 94.1854L216.047 99.5241Z" fill="#FEFEFE" mask="url(#path-5-inside-3_567_1101)"/>
<mask id="path-7-inside-4_567_1101" fill="white">
<path d="M269.228 66.054C277.385 46.7329 299.66 37.6822 318.981 45.8387L850.404 270.182C869.725 278.339 878.776 300.614 870.619 319.935L646.276 851.358C638.119 870.679 615.845 879.73 596.523 871.574L65.0999 647.23C45.7789 639.074 36.7282 616.799 44.8847 597.478L269.228 66.054Z"/>
</mask>
<path d="M320.029 43.356C319.33 45.0111 318.631 46.6663 317.933 48.3214C356.908 65.1001 395.889 81.865 434.876 98.6161C572.556 157.771 710.307 216.754 848.132 275.565C864.031 281.908 872.097 302.122 865.033 317.577C789.627 494.454 714.504 671.451 639.665 848.567C633.657 863.829 614.26 871.703 599.318 864.953C599.318 864.953 599.318 864.953 599.318 864.953C422.177 790.172 244.916 715.674 67.5361 641.459C51.7975 635.344 43.5429 615.359 50.4707 599.836C115.93 443.235 181.169 286.542 246.188 129.755C254.826 108.925 263.46 88.0946 272.09 67.2619C278.754 49.9319 300.733 40.7259 317.933 48.3214C318.631 46.6663 319.33 45.0111 320.029 43.356C300.342 34.312 274.529 44.5244 266.367 64.846C257.457 85.5608 248.552 106.277 239.65 126.995C172.646 282.943 105.862 438.985 39.2987 595.119C29.5868 616.482 40.7508 644.289 62.6638 653.001C239.566 728.348 416.587 803.413 593.729 878.194C615.673 888.083 644.068 876.539 652.887 854.149C727.61 676.983 802.049 499.698 876.205 322.293C885.782 300.86 874.429 273.284 852.677 264.799C714.402 207.054 576.056 149.48 437.636 92.0784C398.44 75.8238 359.237 59.583 320.029 43.356ZM317.933 48.3214L320.029 43.356L317.933 48.3214Z" fill="#FEFEFE" mask="url(#path-7-inside-4_567_1101)"/>
<mask id="path-9-inside-5_567_1101" fill="white">
<path d="M98.6032 211.869C96.0064 191.058 110.772 172.083 131.582 169.486L703.98 98.0612C724.791 95.4644 743.767 110.23 746.364 131.04L817.788 703.438C820.385 724.249 805.62 743.225 784.809 745.821L212.411 817.246C191.6 819.843 172.624 805.078 170.028 784.267L98.6032 211.869Z"/>
</mask>
<path d="M131.249 166.812C131.471 168.594 131.694 170.377 131.916 172.16C174.059 167.203 216.2 162.231 258.34 157.244C407.151 139.635 555.939 121.84 704.704 103.859C721.644 101.402 738.737 114.876 740.347 131.791C763.482 322.675 786.922 513.52 810.667 704.327C813.095 720.548 800.234 737.066 783.919 738.691C593.12 762.499 402.358 786.612 211.635 811.03C194.948 813.603 177.807 800.424 176.044 783.516C154.434 615.166 132.586 446.846 110.5 278.556C107.566 256.198 104.628 233.841 101.685 211.484C98.7921 193.144 113.223 174.182 131.916 172.16C131.694 170.377 131.471 168.594 131.249 166.812C109.677 168.823 92.4291 190.573 95.5212 212.253C98.1627 234.648 100.808 257.041 103.458 279.434C123.405 447.992 143.589 616.519 164.011 785.018C166.282 808.374 189.853 826.874 213.186 823.462C404.062 800.264 594.899 776.761 785.699 752.952C785.699 752.952 785.699 752.952 785.699 752.952C809.648 750.544 828.467 726.35 824.909 702.55C801.038 511.758 776.862 321.005 752.38 130.29C749.958 106.94 726.338 88.7348 703.257 92.2631C554.635 111.391 406.037 130.704 257.461 150.203C215.388 155.724 173.318 161.26 131.249 166.812ZM131.916 172.16L131.249 166.812L131.916 172.16Z" fill="#FEFEFE" mask="url(#path-9-inside-5_567_1101)"/>
<mask id="path-11-inside-6_567_1101" fill="white">
<path d="M23.9756 424.386C11.3213 407.661 14.6207 383.845 31.3449 371.191L491.344 23.1364C508.068 10.4822 531.884 13.7815 544.538 30.5057L892.593 490.505C905.247 507.229 901.948 531.045 885.224 543.699L425.225 891.754C408.501 904.408 384.684 901.109 372.03 884.385L23.9756 424.386Z"/>
</mask>
<path d="M29.7189 369.042C30.8029 370.475 31.8869 371.907 32.9709 373.34C66.9894 347.976 100.999 322.599 134.999 297.211C255.069 207.555 375.025 117.75 494.869 27.796C508.312 17.1982 529.851 20.3204 539.703 34.1643C655.18 187.907 770.903 341.463 886.87 494.835C897.083 507.669 894.205 528.404 880.888 537.969C880.888 537.969 880.888 537.969 880.888 537.969C727.555 653.987 574.407 770.25 421.445 886.759C408.28 897.331 386.845 894.487 376.865 880.726C273.975 745.736 170.894 610.89 67.6221 476.189C53.9022 458.294 40.1791 440.402 26.4524 422.512C14.7766 408.075 17.7933 384.437 32.9709 373.34C31.8869 371.907 30.8029 370.475 29.7189 369.042C12.043 381.569 7.98094 409.03 21.4988 426.26C34.9836 444.333 48.4716 462.403 61.963 480.471C163.516 616.473 265.26 752.33 367.195 888.043C380.84 907.135 410.503 911.37 429.004 896.749C582.708 781.221 736.227 665.448 889.56 549.43C889.56 549.43 889.56 549.43 889.56 549.43C909.096 535.37 913.296 505.007 898.316 486.175C782.247 332.88 665.933 179.771 549.374 26.8472C535.601 7.83753 506.043 3.88092 487.818 18.4769C368.672 109.353 249.638 200.378 130.718 291.552C97.0423 317.37 63.3761 343.2 29.7189 369.042ZM32.9709 373.34L29.7189 369.042L32.9709 373.34Z" fill="#FEFEFE" mask="url(#path-11-inside-6_567_1101)"/>
</g>
<circle cx="460.296" cy="459.234" r="304.747" transform="rotate(-1.22953 460.296 459.234)" fill="#FEFEFE"/>
</g>
<defs>
<filter id="filter0_i_567_1101" x="15.314" y="15.3141" width="885.893" height="885.893" filterUnits="userSpaceOnUse" color-interpolation-filters="sRGB">
<feFlood flood-opacity="0" result="BackgroundImageFix"/>
<feBlend mode="normal" in="SourceGraphic" in2="BackgroundImageFix" result="shape"/>
<feColorMatrix in="SourceAlpha" type="matrix" values="0 0 0 0 0 0 0 0 0 0 0 0 0 0 0 0 0 0 127 0" result="hardAlpha"/>
<feOffset dx="0.449086" dy="0.449086"/>
<feGaussianBlur stdDeviation="1.61671"/>
<feComposite in2="hardAlpha" operator="arithmetic" k2="-1" k3="1"/>
<feColorMatrix type="matrix" values="0 0 0 0 0 0 0 0 0 0 0 0 0 0 0 0 0 0 0.1 0"/>
<feBlend mode="normal" in2="shape" result="effect1_innerShadow_567_1101"/>
</filter>
<filter id="filter1_d_567_1101" x="12.6194" y="12.6196" width="890.833" height="890.832" filterUnits="userSpaceOnUse" color-interpolation-filters="sRGB">
<feFlood flood-opacity="0" result="BackgroundImageFix"/>
<feColorMatrix in="SourceAlpha" type="matrix" values="0 0 0 0 0 0 0 0 0 0 0 0 0 0 0 0 0 0 127 0" result="hardAlpha"/>
<feOffset/>
<feGaussianBlur stdDeviation="1.34726"/>
<feColorMatrix type="matrix" values="0 0 0 0 0 0 0 0 0 0 0 0 0 0 0 0 0 0 0.05 0"/>
<feBlend mode="normal" in2="BackgroundImageFix" result="effect1_dropShadow_567_1101"/>
<feBlend mode="normal" in="SourceGraphic" in2="effect1_dropShadow_567_1101" result="shape"/>
</filter>
</defs>
</svg>
