<svg width="813" height="815" viewBox="0 0 813 815" fill="none" xmlns="http://www.w3.org/2000/svg">
<g filter="url(#filter0_d_56_1211)">
<rect width="407.721" height="405.561" rx="199.972" transform="matrix(0.999054 -0.0434853 0.0439506 0.999034 0 295.237)" fill="url(#paint0_radial_56_1211)" shape-rendering="crispEdges"/>
<rect x="0.806767" y="0.73912" width="406.174" height="404.014" rx="199.199" transform="matrix(0.999054 -0.0434853 0.0439506 0.999034 -0.0317216 295.273)" stroke="white" stroke-opacity="0.6" stroke-width="1.54701" style="mix-blend-mode:soft-light" shape-rendering="crispEdges"/>
</g>
<g filter="url(#filter1_d_56_1211)">
<rect width="407.721" height="405.561" rx="198.01" transform="matrix(0.999054 -0.0434853 0.0439506 0.999034 223.548 399.853)" fill="url(#paint1_radial_56_1211)" shape-rendering="crispEdges"/>
<rect x="0.806767" y="0.73912" width="406.174" height="404.014" rx="197.237" transform="matrix(0.999054 -0.0434853 0.0439506 0.999034 223.516 399.889)" stroke="white" stroke-opacity="0.6" stroke-width="1.54701" style="mix-blend-mode:soft-light" shape-rendering="crispEdges"/>
</g>
<g filter="url(#filter2_d_56_1211)">
<rect width="407.721" height="405.561" rx="198.448" transform="matrix(0.999054 -0.0434853 0.0439506 0.999034 379.921 233.569)" fill="url(#paint2_radial_56_1211)" shape-rendering="crispEdges"/>
<rect x="0.627956" y="0.575302" width="406.517" height="404.357" rx="197.846" transform="matrix(0.999054 -0.0434853 0.0439506 0.999034 379.896 233.597)" stroke="white" stroke-opacity="0.6" stroke-width="1.20413" style="mix-blend-mode:soft-light" shape-rendering="crispEdges"/>
</g>
<g filter="url(#filter3_d_56_1211)">
<rect width="407.721" height="405.561" rx="198.72" transform="matrix(0.999054 -0.0434853 0.0439506 0.999034 264.293 17.7301)" fill="url(#paint3_radial_56_1211)" shape-rendering="crispEdges"/>
<rect x="0.627956" y="0.575302" width="406.517" height="404.357" rx="198.118" transform="matrix(0.999054 -0.0434853 0.0439506 0.999034 264.268 17.758)" stroke="white" stroke-opacity="0.6" stroke-width="1.20413" style="mix-blend-mode:soft-light" shape-rendering="crispEdges"/>
</g>
<g filter="url(#filter4_d_56_1211)">
<rect width="407.721" height="405.561" rx="198.359" transform="matrix(0.999054 -0.0434853 0.0439506 0.999034 33.0366 66.1839)" fill="url(#paint4_radial_56_1211)" shape-rendering="crispEdges"/>
<rect x="0.627956" y="0.575302" width="406.517" height="404.357" rx="197.757" transform="matrix(0.999054 -0.0434853 0.0439506 0.999034 33.0119 66.2118)" stroke="white" stroke-opacity="0.6" stroke-width="1.20413" style="mix-blend-mode:soft-light" shape-rendering="crispEdges"/>
</g>
<g filter="url(#filter5_di_56_1211)">
<rect x="551.711" y="385.537" width="82.8665" height="82.4258" rx="41.2129" fill="#FF9500" shape-rendering="crispEdges"/>
<path d="M584.173 412.708C584.841 412.708 585.376 412.195 585.376 411.526C585.376 410.858 584.841 410.345 584.173 410.345C583.526 410.345 582.991 410.858 582.991 411.526C582.991 412.195 583.526 412.708 584.173 412.708ZM590.146 412.708C590.815 412.708 591.35 412.195 591.35 411.526C591.35 410.858 590.815 410.345 590.146 410.345C589.5 410.345 588.965 410.858 588.965 411.526C588.965 412.195 589.5 412.708 590.146 412.708ZM596.12 412.708C596.789 412.708 597.324 412.195 597.324 411.526C597.324 410.858 596.789 410.345 596.12 410.345C595.474 410.345 594.939 410.858 594.939 411.526C594.939 412.195 595.474 412.708 596.12 412.708ZM602.094 412.708C602.763 412.708 603.298 412.195 603.298 411.526C603.298 410.858 602.763 410.345 602.094 410.345C601.447 410.345 600.913 410.858 600.913 411.526C600.913 412.195 601.447 412.708 602.094 412.708ZM578.199 418.793C578.868 418.793 579.403 418.28 579.403 417.612C579.403 416.943 578.868 416.43 578.199 416.43C577.553 416.43 577.018 416.943 577.018 417.612C577.018 418.28 577.553 418.793 578.199 418.793ZM584.173 419.105C585.02 419.105 585.689 418.459 585.689 417.612C585.689 416.764 585.02 416.118 584.173 416.118C583.348 416.118 582.679 416.764 582.679 417.612C582.679 418.459 583.348 419.105 584.173 419.105ZM590.146 419.551C591.216 419.551 592.086 418.659 592.086 417.612C592.086 416.564 591.216 415.672 590.146 415.672C589.099 415.672 588.23 416.564 588.23 417.612C588.23 418.659 589.099 419.551 590.146 419.551ZM596.12 419.551C597.19 419.551 598.059 418.659 598.059 417.612C598.059 416.564 597.19 415.672 596.12 415.672C595.073 415.672 594.203 416.564 594.203 417.612C594.203 418.659 595.073 419.551 596.12 419.551ZM602.094 419.105C602.941 419.105 603.61 418.459 603.61 417.612C603.61 416.764 602.941 416.118 602.094 416.118C601.269 416.118 600.6 416.764 600.6 417.612C600.6 418.459 601.269 419.105 602.094 419.105ZM608.068 418.793C608.736 418.793 609.271 418.28 609.271 417.612C609.271 416.943 608.736 416.43 608.068 416.43C607.421 416.43 606.886 416.943 606.886 417.612C606.886 418.28 607.421 418.793 608.068 418.793ZM578.199 424.9C578.868 424.9 579.403 424.365 579.403 423.697C579.403 423.028 578.868 422.515 578.199 422.515C577.553 422.515 577.018 423.028 577.018 423.697C577.018 424.365 577.553 424.9 578.199 424.9ZM584.173 425.636C585.243 425.636 586.112 424.744 586.112 423.697C586.112 422.649 585.243 421.757 584.173 421.757C583.125 421.757 582.256 422.649 582.256 423.697C582.256 424.744 583.125 425.636 584.173 425.636ZM602.094 425.636C603.164 425.636 604.033 424.744 604.033 423.697C604.033 422.649 603.164 421.757 602.094 421.757C601.046 421.757 600.177 422.649 600.177 423.697C600.177 424.744 601.046 425.636 602.094 425.636ZM608.068 424.9C608.736 424.9 609.271 424.365 609.271 423.697C609.271 423.028 608.736 422.515 608.068 422.515C607.421 422.515 606.886 423.028 606.886 423.697C606.886 424.365 607.421 424.9 608.068 424.9ZM578.199 430.963C578.868 430.963 579.403 430.451 579.403 429.782C579.403 429.113 578.868 428.6 578.199 428.6C577.553 428.6 577.018 429.113 577.018 429.782C577.018 430.451 577.553 430.963 578.199 430.963ZM584.173 431.721C585.243 431.721 586.112 430.829 586.112 429.782C586.112 428.734 585.243 427.843 584.173 427.843C583.125 427.843 582.256 428.734 582.256 429.782C582.256 430.829 583.125 431.721 584.173 431.721ZM602.094 431.721C603.164 431.721 604.033 430.829 604.033 429.782C604.033 428.734 603.164 427.843 602.094 427.843C601.046 427.843 600.177 428.734 600.177 429.782C600.177 430.829 601.046 431.721 602.094 431.721ZM608.068 430.963C608.736 430.963 609.271 430.451 609.271 429.782C609.271 429.113 608.736 428.6 608.068 428.6C607.421 428.6 606.886 429.113 606.886 429.782C606.886 430.451 607.421 430.963 608.068 430.963ZM578.199 437.071C578.868 437.071 579.403 436.536 579.403 435.867C579.403 435.198 578.868 434.686 578.199 434.686C577.553 434.686 577.018 435.198 577.018 435.867C577.018 436.536 577.553 437.071 578.199 437.071ZM584.173 437.36C585.02 437.36 585.689 436.714 585.689 435.867C585.689 435.042 585.02 434.374 584.173 434.374C583.348 434.374 582.679 435.042 582.679 435.867C582.679 436.714 583.348 437.36 584.173 437.36ZM590.146 437.806C591.216 437.806 592.086 436.915 592.086 435.867C592.086 434.819 591.216 433.928 590.146 433.928C589.099 433.928 588.23 434.819 588.23 435.867C588.23 436.915 589.099 437.806 590.146 437.806ZM596.12 437.806C597.19 437.806 598.059 436.915 598.059 435.867C598.059 434.819 597.19 433.928 596.12 433.928C595.073 433.928 594.203 434.819 594.203 435.867C594.203 436.915 595.073 437.806 596.12 437.806ZM602.094 437.36C602.941 437.36 603.61 436.714 603.61 435.867C603.61 435.042 602.941 434.374 602.094 434.374C601.269 434.374 600.6 435.042 600.6 435.867C600.6 436.714 601.269 437.36 602.094 437.36ZM608.068 437.071C608.736 437.071 609.271 436.536 609.271 435.867C609.271 435.198 608.736 434.686 608.068 434.686C607.421 434.686 606.886 435.198 606.886 435.867C606.886 436.536 607.421 437.071 608.068 437.071ZM584.173 443.156C584.841 443.156 585.376 442.621 585.376 441.952C585.376 441.283 584.841 440.771 584.173 440.771C583.526 440.771 582.991 441.283 582.991 441.952C582.991 442.621 583.526 443.156 584.173 443.156ZM590.146 443.156C590.815 443.156 591.35 442.621 591.35 441.952C591.35 441.283 590.815 440.771 590.146 440.771C589.5 440.771 588.965 441.283 588.965 441.952C588.965 442.621 589.5 443.156 590.146 443.156ZM596.12 443.156C596.789 443.156 597.324 442.621 597.324 441.952C597.324 441.283 596.789 440.771 596.12 440.771C595.474 440.771 594.939 441.283 594.939 441.952C594.939 442.621 595.474 443.156 596.12 443.156ZM602.094 443.156C602.763 443.156 603.298 442.621 603.298 441.952C603.298 441.283 602.763 440.771 602.094 440.771C601.447 440.771 600.913 441.283 600.913 441.952C600.913 442.621 601.447 443.156 602.094 443.156ZM590.146 425.636C591.216 425.636 592.086 424.744 592.086 423.697C592.086 422.649 591.216 421.757 590.146 421.757C589.099 421.757 588.23 422.649 588.23 423.697C588.23 424.744 589.099 425.636 590.146 425.636ZM596.12 425.636C597.19 425.636 598.059 424.744 598.059 423.697C598.059 422.649 597.19 421.757 596.12 421.757C595.073 421.757 594.203 422.649 594.203 423.697C594.203 424.744 595.073 425.636 596.12 425.636ZM590.146 431.721C591.216 431.721 592.086 430.829 592.086 429.782C592.086 428.734 591.216 427.843 590.146 427.843C589.099 427.843 588.23 428.734 588.23 429.782C588.23 430.829 589.099 431.721 590.146 431.721ZM596.12 431.721C597.19 431.721 598.059 430.829 598.059 429.782C598.059 428.734 597.19 427.843 596.12 427.843C595.073 427.843 594.203 428.734 594.203 429.782C594.203 430.829 595.073 431.721 596.12 431.721Z" fill="white"/>
</g>
<g filter="url(#filter6_di_56_1211)">
<ellipse cx="212.122" cy="489.52" rx="41.4332" ry="41.2129" fill="#5856D6"/>
</g>
<path d="M204.538 471.067C199.802 471.067 195.968 474.881 195.968 479.571C195.968 481.613 196.68 483.489 197.875 484.948C198.168 485.323 198.545 485.469 198.901 485.469C199.823 485.469 200.578 484.406 199.823 483.468C198.922 482.426 198.399 481.071 198.399 479.571C198.399 476.215 201.123 473.484 204.538 473.484C207.912 473.484 210.657 476.215 210.657 479.571C210.657 479.675 210.657 479.779 210.657 479.967C210.657 480.78 211.244 481.155 211.81 481.155C212.396 481.155 213.004 480.759 213.046 480.113C213.067 479.967 213.067 479.821 213.067 479.571C213.067 474.881 209.253 471.067 204.538 471.067Z" fill="white"/>
<path d="M220.844 506.938C227.633 504.479 229.896 498.747 227.298 491.639L226.167 488.575C225.182 485.845 223.275 484.657 221.808 485.199C221.473 485.324 221.347 485.553 221.473 485.866L221.934 487.116C222.164 487.804 221.955 488.263 221.535 488.408C221.095 488.554 220.634 488.367 220.383 487.679L220.09 486.866C219.524 485.282 218.12 484.615 216.737 485.115C216.108 485.344 215.92 485.699 216.108 486.241L216.737 487.95C216.988 488.638 216.758 489.075 216.36 489.242C215.92 489.388 215.459 489.2 215.207 488.513L214.641 486.929C213.971 485.136 212.63 484.677 211.289 485.157C210.702 485.365 210.492 485.761 210.66 486.282L211.917 489.701C212.169 490.389 211.938 490.826 211.54 490.972C211.1 491.139 210.639 490.93 210.388 490.264L206.071 478.445C205.652 477.299 204.604 476.82 203.64 477.174C202.592 477.549 202.152 478.57 202.572 479.696L208.984 497.246C209.151 497.705 208.963 498.017 208.69 498.121C208.418 498.226 208.145 498.121 207.789 497.746L203.535 493.182C202.907 492.515 202.257 492.348 201.545 492.619C200.497 492.994 200.036 493.974 200.371 494.849C200.497 495.203 200.686 495.474 200.853 495.683L206.008 502.102C210.639 507.813 215.815 508.772 220.844 506.938Z" fill="white"/>
<g filter="url(#filter7_di_56_1211)">
<ellipse cx="435.67" cy="594.136" rx="41.4332" ry="41.2129" fill="#FF2D55"/>
</g>
<path d="M449.22 594.255C449.22 586.546 446.798 579.387 442.531 573.491C441.009 571.403 437.964 573.215 439.579 575.395C443.546 580.764 445.691 587.28 445.691 594.255C445.691 601.23 443.546 607.746 439.579 613.092C437.987 615.249 440.939 617.176 442.531 615.019C446.798 609.123 449.22 601.964 449.22 594.255Z" fill="white"/>
<path d="M439.279 594.254C439.279 588.518 437.457 583.172 434.228 578.836C432.567 576.61 429.66 578.744 431.229 580.786C434.158 584.572 435.727 589.253 435.727 594.254C435.727 599.256 434.158 603.914 431.229 607.723C429.66 609.742 432.567 611.875 434.228 609.673C437.457 605.336 439.279 599.99 439.279 594.254Z" fill="white"/>
<path d="M429.335 594.254C429.335 590.515 428.067 587.004 425.783 584.297C424.076 582.278 421.562 584.549 422.831 586.178C425.022 589 425.806 591.111 425.806 594.254C425.806 597.375 425.022 599.509 422.831 602.331C421.562 603.96 424.099 606.231 425.783 604.212C428.067 601.505 429.335 597.994 429.335 594.254Z" fill="white"/>
<g filter="url(#filter8_di_56_1211)">
<rect x="434.982" y="170.8" width="82.8665" height="82.4258" rx="41.2129" fill="#AEEA00" shape-rendering="crispEdges"/>
<path d="M465.721 221.456C465.721 225.843 468.396 228.617 472.665 228.617C475.774 228.617 478.095 227.299 479.59 224.702L481.105 222.026C484.351 216.341 489.722 215.318 489.722 207.626C489.722 200.307 484.981 195.409 477.879 195.409C470.6 195.409 465.721 200.307 465.721 207.626V221.456Z" fill="white"/>
<path d="M469.854 214.806V207.055C469.854 202.668 472.923 199.737 477.88 199.737C482.641 199.737 485.573 202.668 485.573 207.055C485.573 207.763 484.963 208.373 484.254 208.373C483.527 208.373 482.917 207.763 482.917 207.055C482.917 204.222 481.087 202.392 477.88 202.392C474.477 202.392 472.51 204.222 472.51 207.055V209.022H476.975C479.553 209.022 481.284 210.596 481.284 212.957C481.284 213.941 480.851 215.16 480.202 215.987L478.195 218.524C477.9 218.898 477.507 219.095 477.113 219.095C476.385 219.095 475.775 218.505 475.775 217.777C475.775 217.462 475.893 217.128 476.129 216.852L477.979 214.531C478.313 214.098 478.569 213.508 478.569 213.055C478.569 212.209 477.959 211.659 477.015 211.659H472.51V214.806C472.51 215.514 471.9 216.124 471.172 216.124C470.464 216.124 469.854 215.514 469.854 214.806Z" fill="#AEEA00"/>
</g>
<g filter="url(#filter9_di_56_1211)">
<rect x="204.827" y="219.254" width="82.8665" height="82.4258" rx="41.2129" fill="#007AFF" shape-rendering="crispEdges"/>
<path d="M246.268 270.733C256.028 270.733 262.704 262.922 262.704 260.466C262.704 257.996 256.028 250.2 246.268 250.2C236.646 250.2 229.816 257.996 229.816 260.466C229.816 262.922 236.646 270.733 246.268 270.733ZM246.268 267.204C242.539 267.204 239.515 264.196 239.515 260.466C239.515 256.737 242.539 253.729 246.268 253.729C249.997 253.729 253.005 256.737 253.005 260.466C253.005 264.196 249.997 267.204 246.268 267.204ZM246.268 263.014C247.68 263.014 248.815 261.878 248.815 260.466C248.815 259.055 247.68 257.919 246.268 257.919C244.856 257.919 243.72 259.055 243.72 260.466C243.72 261.878 244.856 263.014 246.268 263.014Z" fill="white"/>
</g>
<g filter="url(#filter10_di_56_1211)">
<ellipse cx="387.596" cy="402.326" rx="30.8672" ry="30.7031" fill="white"/>
</g>
<path d="M376.359 416.17H399.173C401.096 416.17 402.232 415.311 402.232 413.872C402.232 409.511 396.682 403.497 387.766 403.497C378.872 403.497 373.322 409.511 373.322 413.872C373.322 415.311 374.458 416.17 376.359 416.17ZM387.766 400.489C391.437 400.489 394.672 397.246 394.672 393.014C394.672 388.804 391.437 385.754 387.766 385.754C384.117 385.754 380.883 388.89 380.883 393.057C380.883 397.246 384.117 400.489 387.766 400.489Z" fill="black" fill-opacity="0.55"/>
<defs>
<filter id="filter0_d_56_1211" x="-7.73503" y="272.093" width="448.365" height="446.104" filterUnits="userSpaceOnUse" color-interpolation-filters="sRGB">
<feFlood flood-opacity="0" result="BackgroundImageFix"/>
<feColorMatrix in="SourceAlpha" type="matrix" values="0 0 0 0 0 0 0 0 0 0 0 0 0 0 0 0 0 0 127 0" result="hardAlpha"/>
<feOffset dx="3.86752" dy="6.18802"/>
<feGaussianBlur stdDeviation="5.80127"/>
<feComposite in2="hardAlpha" operator="out"/>
<feColorMatrix type="matrix" values="0 0 0 0 0 0 0 0 0 0 0 0 0 0 0 0 0 0 0.1 0"/>
<feBlend mode="normal" in2="BackgroundImageFix" result="effect1_dropShadow_56_1211"/>
<feBlend mode="normal" in="SourceGraphic" in2="effect1_dropShadow_56_1211" result="shape"/>
</filter>
<filter id="filter1_d_56_1211" x="215.813" y="376.709" width="448.365" height="446.104" filterUnits="userSpaceOnUse" color-interpolation-filters="sRGB">
<feFlood flood-opacity="0" result="BackgroundImageFix"/>
<feColorMatrix in="SourceAlpha" type="matrix" values="0 0 0 0 0 0 0 0 0 0 0 0 0 0 0 0 0 0 127 0" result="hardAlpha"/>
<feOffset dx="3.86752" dy="6.18802"/>
<feGaussianBlur stdDeviation="5.80127"/>
<feComposite in2="hardAlpha" operator="out"/>
<feColorMatrix type="matrix" values="0 0 0 0 0 0 0 0 0 0 0 0 0 0 0 0 0 0 0.1 0"/>
<feBlend mode="normal" in2="BackgroundImageFix" result="effect1_dropShadow_56_1211"/>
<feBlend mode="normal" in="SourceGraphic" in2="effect1_dropShadow_56_1211" result="shape"/>
</filter>
<filter id="filter2_d_56_1211" x="372.186" y="210.424" width="448.365" height="446.104" filterUnits="userSpaceOnUse" color-interpolation-filters="sRGB">
<feFlood flood-opacity="0" result="BackgroundImageFix"/>
<feColorMatrix in="SourceAlpha" type="matrix" values="0 0 0 0 0 0 0 0 0 0 0 0 0 0 0 0 0 0 127 0" result="hardAlpha"/>
<feOffset dx="3.86752" dy="6.18802"/>
<feGaussianBlur stdDeviation="5.80127"/>
<feComposite in2="hardAlpha" operator="out"/>
<feColorMatrix type="matrix" values="0 0 0 0 0 0 0 0 0 0 0 0 0 0 0 0 0 0 0.1 0"/>
<feBlend mode="normal" in2="BackgroundImageFix" result="effect1_dropShadow_56_1211"/>
<feBlend mode="normal" in="SourceGraphic" in2="effect1_dropShadow_56_1211" result="shape"/>
</filter>
<filter id="filter3_d_56_1211" x="256.558" y="-5.41428" width="448.365" height="446.104" filterUnits="userSpaceOnUse" color-interpolation-filters="sRGB">
<feFlood flood-opacity="0" result="BackgroundImageFix"/>
<feColorMatrix in="SourceAlpha" type="matrix" values="0 0 0 0 0 0 0 0 0 0 0 0 0 0 0 0 0 0 127 0" result="hardAlpha"/>
<feOffset dx="3.86752" dy="6.18802"/>
<feGaussianBlur stdDeviation="5.80127"/>
<feComposite in2="hardAlpha" operator="out"/>
<feColorMatrix type="matrix" values="0 0 0 0 0 0 0 0 0 0 0 0 0 0 0 0 0 0 0.1 0"/>
<feBlend mode="normal" in2="BackgroundImageFix" result="effect1_dropShadow_56_1211"/>
<feBlend mode="normal" in="SourceGraphic" in2="effect1_dropShadow_56_1211" result="shape"/>
</filter>
<filter id="filter4_d_56_1211" x="25.3015" y="43.0395" width="448.365" height="446.104" filterUnits="userSpaceOnUse" color-interpolation-filters="sRGB">
<feFlood flood-opacity="0" result="BackgroundImageFix"/>
<feColorMatrix in="SourceAlpha" type="matrix" values="0 0 0 0 0 0 0 0 0 0 0 0 0 0 0 0 0 0 127 0" result="hardAlpha"/>
<feOffset dx="3.86752" dy="6.18802"/>
<feGaussianBlur stdDeviation="5.80127"/>
<feComposite in2="hardAlpha" operator="out"/>
<feColorMatrix type="matrix" values="0 0 0 0 0 0 0 0 0 0 0 0 0 0 0 0 0 0 0.1 0"/>
<feBlend mode="normal" in2="BackgroundImageFix" result="effect1_dropShadow_56_1211"/>
<feBlend mode="normal" in="SourceGraphic" in2="effect1_dropShadow_56_1211" result="shape"/>
</filter>
<filter id="filter5_di_56_1211" x="488.68" y="322.506" width="211.306" height="210.865" filterUnits="userSpaceOnUse" color-interpolation-filters="sRGB">
<feFlood flood-opacity="0" result="BackgroundImageFix"/>
<feColorMatrix in="SourceAlpha" type="matrix" values="0 0 0 0 0 0 0 0 0 0 0 0 0 0 0 0 0 0 127 0" result="hardAlpha"/>
<feOffset dx="1.18815" dy="1.18815"/>
<feGaussianBlur stdDeviation="32.1098"/>
<feComposite in2="hardAlpha" operator="out"/>
<feColorMatrix type="matrix" values="0 0 0 0 0 0 0 0 0 0 0 0 0 0 0 0 0 0 1 0"/>
<feBlend mode="overlay" in2="BackgroundImageFix" result="effect1_dropShadow_56_1211"/>
<feBlend mode="normal" in="SourceGraphic" in2="effect1_dropShadow_56_1211" result="shape"/>
<feColorMatrix in="SourceAlpha" type="matrix" values="0 0 0 0 0 0 0 0 0 0 0 0 0 0 0 0 0 0 127 0" result="hardAlpha"/>
<feMorphology radius="0.71041" operator="erode" in="SourceAlpha" result="effect2_innerShadow_56_1211"/>
<feOffset/>
<feGaussianBlur stdDeviation="6.60207"/>
<feComposite in2="hardAlpha" operator="arithmetic" k2="-1" k3="1"/>
<feColorMatrix type="matrix" values="0 0 0 0 0 0 0 0 0 0 0 0 0 0 0 0 0 0 0.2 0"/>
<feBlend mode="multiply" in2="shape" result="effect2_innerShadow_56_1211"/>
</filter>
<filter id="filter6_di_56_1211" x="140.985" y="418.603" width="144.65" height="144.21" filterUnits="userSpaceOnUse" color-interpolation-filters="sRGB">
<feFlood flood-opacity="0" result="BackgroundImageFix"/>
<feColorMatrix in="SourceAlpha" type="matrix" values="0 0 0 0 0 0 0 0 0 0 0 0 0 0 0 0 0 0 127 0" result="hardAlpha"/>
<feOffset dx="1.18815" dy="1.18815"/>
<feGaussianBlur stdDeviation="15.446"/>
<feComposite in2="hardAlpha" operator="out"/>
<feColorMatrix type="matrix" values="0 0 0 0 0 0 0 0 0 0 0 0 0 0 0 0 0 0 0.6 0"/>
<feBlend mode="overlay" in2="BackgroundImageFix" result="effect1_dropShadow_56_1211"/>
<feBlend mode="normal" in="SourceGraphic" in2="effect1_dropShadow_56_1211" result="shape"/>
<feColorMatrix in="SourceAlpha" type="matrix" values="0 0 0 0 0 0 0 0 0 0 0 0 0 0 0 0 0 0 127 0" result="hardAlpha"/>
<feMorphology radius="5.94076" operator="dilate" in="SourceAlpha" result="effect2_innerShadow_56_1211"/>
<feOffset/>
<feGaussianBlur stdDeviation="10.7825"/>
<feComposite in2="hardAlpha" operator="arithmetic" k2="-1" k3="1"/>
<feColorMatrix type="matrix" values="0 0 0 0 0.0775639 0 0 0 0 0.0775639 0 0 0 0 0.0775639 0 0 0 1 0"/>
<feBlend mode="overlay" in2="shape" result="effect2_innerShadow_56_1211"/>
</filter>
<filter id="filter7_di_56_1211" x="375.82" y="534.506" width="122.076" height="121.635" filterUnits="userSpaceOnUse" color-interpolation-filters="sRGB">
<feFlood flood-opacity="0" result="BackgroundImageFix"/>
<feColorMatrix in="SourceAlpha" type="matrix" values="0 0 0 0 0 0 0 0 0 0 0 0 0 0 0 0 0 0 127 0" result="hardAlpha"/>
<feOffset dx="1.18815" dy="1.18815"/>
<feGaussianBlur stdDeviation="9.80226"/>
<feComposite in2="hardAlpha" operator="out"/>
<feColorMatrix type="matrix" values="0 0 0 0 0 0 0 0 0 0 0 0 0 0 0 0 0 0 0.6 0"/>
<feBlend mode="overlay" in2="BackgroundImageFix" result="effect1_dropShadow_56_1211"/>
<feBlend mode="normal" in="SourceGraphic" in2="effect1_dropShadow_56_1211" result="shape"/>
<feColorMatrix in="SourceAlpha" type="matrix" values="0 0 0 0 0 0 0 0 0 0 0 0 0 0 0 0 0 0 127 0" result="hardAlpha"/>
<feMorphology radius="5.34669" operator="dilate" in="SourceAlpha" result="effect2_innerShadow_56_1211"/>
<feOffset/>
<feGaussianBlur stdDeviation="11.8815"/>
<feComposite in2="hardAlpha" operator="arithmetic" k2="-1" k3="1"/>
<feColorMatrix type="matrix" values="0 0 0 0 0 0 0 0 0 0 0 0 0 0 0 0 0 0 0.5 0"/>
<feBlend mode="normal" in2="shape" result="effect2_innerShadow_56_1211"/>
</filter>
<filter id="filter8_di_56_1211" x="375.634" y="111.451" width="203.939" height="203.499" filterUnits="userSpaceOnUse" color-interpolation-filters="sRGB">
<feFlood flood-opacity="0" result="BackgroundImageFix"/>
<feColorMatrix in="SourceAlpha" type="matrix" values="0 0 0 0 0 0 0 0 0 0 0 0 0 0 0 0 0 0 127 0" result="hardAlpha"/>
<feOffset dx="1.18815" dy="1.18815"/>
<feGaussianBlur stdDeviation="30.2682"/>
<feComposite in2="hardAlpha" operator="out"/>
<feColorMatrix type="matrix" values="0 0 0 0 0 0 0 0 0 0 0 0 0 0 0 0 0 0 1 0"/>
<feBlend mode="overlay" in2="BackgroundImageFix" result="effect1_dropShadow_56_1211"/>
<feBlend mode="normal" in="SourceGraphic" in2="effect1_dropShadow_56_1211" result="shape"/>
<feColorMatrix in="SourceAlpha" type="matrix" values="0 0 0 0 0 0 0 0 0 0 0 0 0 0 0 0 0 0 127 0" result="hardAlpha"/>
<feMorphology radius="1.05731" operator="erode" in="SourceAlpha" result="effect2_innerShadow_56_1211"/>
<feOffset/>
<feGaussianBlur stdDeviation="8.10914"/>
<feComposite in2="hardAlpha" operator="arithmetic" k2="-1" k3="1"/>
<feColorMatrix type="matrix" values="0 0 0 0 0 0 0 0 0 0 0 0 0 0 0 0 0 0 0.22 0"/>
<feBlend mode="multiply" in2="shape" result="effect2_innerShadow_56_1211"/>
</filter>
<filter id="filter9_di_56_1211" x="159.855" y="174.282" width="175.186" height="174.745" filterUnits="userSpaceOnUse" color-interpolation-filters="sRGB">
<feFlood flood-opacity="0" result="BackgroundImageFix"/>
<feColorMatrix in="SourceAlpha" type="matrix" values="0 0 0 0 0 0 0 0 0 0 0 0 0 0 0 0 0 0 127 0" result="hardAlpha"/>
<feOffset dx="1.18815" dy="1.18815"/>
<feGaussianBlur stdDeviation="23.0799"/>
<feComposite in2="hardAlpha" operator="out"/>
<feColorMatrix type="matrix" values="0 0 0 0 0 0 0 0 0 0 0 0 0 0 0 0 0 0 0.6 0"/>
<feBlend mode="overlay" in2="BackgroundImageFix" result="effect1_dropShadow_56_1211"/>
<feBlend mode="normal" in="SourceGraphic" in2="effect1_dropShadow_56_1211" result="shape"/>
<feColorMatrix in="SourceAlpha" type="matrix" values="0 0 0 0 0 0 0 0 0 0 0 0 0 0 0 0 0 0 127 0" result="hardAlpha"/>
<feMorphology radius="0.704134" operator="erode" in="SourceAlpha" result="effect2_innerShadow_56_1211"/>
<feOffset/>
<feGaussianBlur stdDeviation="8.91115"/>
<feComposite in2="hardAlpha" operator="arithmetic" k2="-1" k3="1"/>
<feColorMatrix type="matrix" values="0 0 0 0 0 0 0 0 0 0 0 0 0 0 0 0 0 0 0.25 0"/>
<feBlend mode="normal" in2="shape" result="effect2_innerShadow_56_1211"/>
</filter>
<filter id="filter10_di_56_1211" x="327.163" y="342.057" width="123.233" height="122.905" filterUnits="userSpaceOnUse" color-interpolation-filters="sRGB">
<feFlood flood-opacity="0" result="BackgroundImageFix"/>
<feColorMatrix in="SourceAlpha" type="matrix" values="0 0 0 0 0 0 0 0 0 0 0 0 0 0 0 0 0 0 127 0" result="hardAlpha"/>
<feOffset dx="1.18266" dy="1.18266"/>
<feGaussianBlur stdDeviation="15.3746"/>
<feComposite in2="hardAlpha" operator="out"/>
<feColorMatrix type="matrix" values="0 0 0 0 0 0 0 0 0 0 0 0 0 0 0 0 0 0 0.6 0"/>
<feBlend mode="overlay" in2="BackgroundImageFix" result="effect1_dropShadow_56_1211"/>
<feBlend mode="normal" in="SourceGraphic" in2="effect1_dropShadow_56_1211" result="shape"/>
<feColorMatrix in="SourceAlpha" type="matrix" values="0 0 0 0 0 0 0 0 0 0 0 0 0 0 0 0 0 0 127 0" result="hardAlpha"/>
<feMorphology radius="3.49542" operator="dilate" in="SourceAlpha" result="effect2_innerShadow_56_1211"/>
<feOffset/>
<feGaussianBlur stdDeviation="5.89228"/>
<feComposite in2="hardAlpha" operator="arithmetic" k2="-1" k3="1"/>
<feColorMatrix type="matrix" values="0 0 0 0 0.0775639 0 0 0 0 0.0775639 0 0 0 0 0.0775639 0 0 0 0.7 0"/>
<feBlend mode="normal" in2="shape" result="effect2_innerShadow_56_1211"/>
</filter>
<radialGradient id="paint0_radial_56_1211" cx="0" cy="0" r="1" gradientUnits="userSpaceOnUse" gradientTransform="translate(203.861 202.781) rotate(90) scale(202.781 203.861)">
<stop stop-color="#5856D6" stop-opacity="0.7"/>
<stop offset="0.8" stop-color="#5856D6" stop-opacity="0.4"/>
</radialGradient>
<radialGradient id="paint1_radial_56_1211" cx="0" cy="0" r="1" gradientUnits="userSpaceOnUse" gradientTransform="translate(203.861 202.781) rotate(90) scale(202.781 203.861)">
<stop stop-color="#FF2D55" stop-opacity="0.7"/>
<stop offset="0.8" stop-color="#FF2D55" stop-opacity="0.4"/>
</radialGradient>
<radialGradient id="paint2_radial_56_1211" cx="0" cy="0" r="1" gradientUnits="userSpaceOnUse" gradientTransform="translate(203.861 202.781) rotate(90) scale(202.781 203.861)">
<stop stop-color="#FF9500" stop-opacity="0.83"/>
<stop offset="0.8" stop-color="#FF9500" stop-opacity="0.43"/>
</radialGradient>
<radialGradient id="paint3_radial_56_1211" cx="0" cy="0" r="1" gradientUnits="userSpaceOnUse" gradientTransform="translate(203.861 202.781) rotate(90) scale(202.781 203.861)">
<stop stop-color="#AEEA00" stop-opacity="0.8"/>
<stop offset="0.8" stop-color="#AEEA00" stop-opacity="0.42"/>
</radialGradient>
<radialGradient id="paint4_radial_56_1211" cx="0" cy="0" r="1" gradientUnits="userSpaceOnUse" gradientTransform="translate(203.861 202.781) rotate(90) scale(202.781 203.861)">
<stop stop-color="#007AFF" stop-opacity="0.7"/>
<stop offset="0.8" stop-color="#007AFF" stop-opacity="0.3"/>
</radialGradient>
</defs>
</svg>
