<svg width="675" height="669" viewBox="0 0 675 669" fill="none" xmlns="http://www.w3.org/2000/svg">
<g filter="url(#filter0_d_583_1273)">
<circle cx="43.1117" cy="335.118" r="36.7757" fill="url(#paint0_linear_583_1273)"/>
<circle cx="43.1117" cy="335.118" r="36.7757" fill="url(#paint1_radial_583_1273)"/>
</g>
<path d="M43.9577 352.313C44.327 352.313 44.8604 352.067 45.2296 351.821C54.4408 345.994 60.1029 339.184 60.1029 332.229C60.1029 326.444 56.123 322.341 51.0148 322.341C47.794 322.341 45.4553 324.105 43.9577 326.772C42.4806 324.126 40.1214 322.341 36.9006 322.341C31.7924 322.341 27.8125 326.444 27.8125 332.229C27.8125 339.184 33.4746 345.994 42.6858 351.821C43.055 352.067 43.609 352.313 43.9577 352.313Z" fill="white"/>
<g filter="url(#filter1_d_583_1273)">
<circle cx="418.394" cy="484.299" r="56.3771" fill="url(#paint2_linear_583_1273)"/>
<circle cx="418.394" cy="484.299" r="56.3771" fill="url(#paint3_radial_583_1273)"/>
</g>
<g clip-path="url(#clip0_583_1273)">
<path d="M419.208 512.417C429.791 512.417 438.795 507.125 438.795 496.858C438.795 487.42 431.568 484.064 422.762 481.892L416.799 480.47C411.468 479.127 407.203 476.758 407.203 471.743C407.203 466.057 413.206 463.213 419.208 463.213C425.408 463.213 429.317 466.017 431.252 471.23C431.805 472.888 432.95 473.994 434.727 473.994C436.583 473.994 437.965 472.691 437.965 470.835C437.965 468.307 436.228 464.872 434.056 462.74C430.305 458.949 424.855 457.132 419.208 457.132C409.296 457.132 400.372 462.345 400.372 472.256C400.372 481.023 407.717 485.011 415.733 486.867L421.696 488.249C427.382 489.553 432.003 491.645 432.003 497.411C432.003 503.966 426.198 506.375 419.287 506.375C412.771 506.375 407.796 503.966 405.979 498.201C405.426 496.463 404.4 495.476 402.623 495.476C400.648 495.476 399.306 496.858 399.306 498.596C399.306 501.557 401.28 504.914 403.452 506.928C407.677 510.837 413.561 512.417 419.208 512.417ZM419.05 519.841C420.314 519.841 421.341 518.814 421.341 517.59V452.038C421.341 450.814 420.314 449.787 419.05 449.787C417.787 449.787 416.76 450.814 416.76 452.038V517.59C416.76 518.814 417.787 519.841 419.05 519.841Z" fill="white"/>
</g>
<g filter="url(#filter2_d_583_1273)">
<circle cx="503.324" cy="368.403" r="56.3771" fill="url(#paint4_linear_583_1273)"/>
<circle cx="503.324" cy="368.403" r="56.3771" fill="url(#paint5_radial_583_1273)"/>
</g>
<path d="M506.626 400.74C516.445 400.74 522.442 397.247 522.442 391.151V378.598C526.495 374.973 528.867 369.207 528.867 362.914C528.867 348.054 519.18 338.136 504.781 338.136C490.415 338.136 480.794 347.856 480.794 362.354C480.794 363.144 480.827 363.803 480.893 364.429L477.73 370.064C476.84 371.678 476.379 373.293 476.379 374.743C476.379 377.477 478.026 379.718 480.794 380.542V385.451C480.794 390.393 484.353 392.799 488.768 392.305L494.435 391.744L491.074 388.153V391.151C491.074 397.214 496.939 400.74 506.626 400.74ZM506.626 395.995C499.674 395.995 495.555 393.853 495.555 390.328V387.263C495.555 386.934 495.391 386.769 495.094 386.802L488.109 387.593C486.461 387.758 485.539 387.099 485.539 385.155V377.016C485.539 376.785 485.374 376.621 485.045 376.621H483.595C482.046 376.621 481.157 375.863 481.157 374.677C481.157 374.018 481.387 373.26 481.849 372.436L485.802 365.385C485.638 364.363 485.539 363.309 485.539 362.288C485.539 350.657 493.216 342.913 504.781 342.913C516.347 342.913 524.123 350.887 524.123 362.914C524.123 368.68 521.684 373.754 517.664 376.258V390.328C517.664 393.853 513.546 395.995 506.626 395.995Z" fill="white"/>
<path d="M496.313 365.947C499.246 365.947 501.289 363.97 501.289 361.202C501.289 360.214 501.025 359.489 500.564 358.994C500.07 358.533 499.872 358.039 499.872 357.709C499.872 356.985 500.498 356.457 501.223 356.457C501.519 356.457 501.915 356.523 502.211 356.82C502.277 356.886 502.343 356.985 502.376 357.05C504.386 356.82 505.407 355.667 505.407 353.788C505.407 353.064 506.001 352.438 506.725 352.438C507.45 352.438 508.076 353.097 508.076 353.788C508.109 356.787 506.594 358.665 503.694 359.324C503.892 359.917 503.958 360.576 503.958 361.235C503.958 363.739 502.739 365.782 500.729 366.935C501.849 367.462 503.134 367.726 504.518 367.726C505.177 367.726 505.869 367.66 506.561 367.528C506.429 367.199 506.396 366.836 506.396 366.54C506.396 359.851 515.984 358.731 515.984 352.833C515.984 349.867 513.744 347.594 510.943 347.594C509.856 347.594 509.658 347.627 509.427 347.66C508.34 346.507 506.791 345.848 505.473 345.848C503.068 345.848 501.421 347.363 501.421 349.604C501.421 350.395 500.86 350.922 500.07 350.922C499.279 350.922 498.719 350.329 498.752 349.538C498.752 348.484 499.081 347.825 499.279 347.199C498.883 347.133 498.488 347.1 498.126 347.1C495.028 347.1 492.623 349.011 492.623 351.35C492.623 352.866 493.644 354.085 494.995 354.085C495.753 354.085 496.346 354.678 496.346 355.37C496.346 356.128 495.72 356.754 494.995 356.754C492.92 356.754 491.305 355.798 490.514 354.283C489.756 355.502 489.328 356.919 489.328 358.368C489.328 362.619 492.063 365.947 496.313 365.947ZM515.457 372.603C518.225 372.603 520.235 369.505 520.235 365.321C520.235 365.024 520.235 364.695 520.235 364.332C519.213 364.794 517.994 364.991 516.61 364.892C515.885 364.794 515.325 364.233 515.325 363.509C515.325 362.784 515.951 362.125 516.676 362.191C519.378 362.421 521.157 360.938 521.157 358.533C521.157 356.326 520.136 354.48 518.389 353.327C517.599 360.51 508.735 361.466 508.735 366.441C508.735 367.792 509.625 368.747 511.174 368.747H511.536C511.964 371.021 513.546 372.603 515.457 372.603Z" fill="white"/>
<g filter="url(#filter3_d_583_1273)">
<circle cx="336.115" cy="165.808" r="56.3771" fill="url(#paint6_linear_583_1273)"/>
<circle cx="336.115" cy="165.808" r="56.3771" fill="url(#paint7_radial_583_1273)"/>
<circle cx="336.115" cy="165.808" r="56.3771" fill="url(#paint8_radial_583_1273)"/>
</g>
<g clip-path="url(#clip1_583_1273)">
<path d="M317.876 191.429H353.705C359.496 191.429 362.341 188.584 362.341 182.895V150.588C362.341 144.898 359.496 142.054 353.705 142.054H317.876C312.119 142.054 309.24 144.898 309.24 150.588V182.895C309.24 188.584 312.119 191.429 317.876 191.429ZM317.402 186.519C315.302 186.519 314.117 185.401 314.117 183.2V157.733C314.117 155.532 315.302 154.414 317.402 154.414H354.145C356.245 154.414 357.464 155.532 357.464 157.733V183.2C357.464 185.401 356.245 186.519 354.145 186.519H317.402ZM330.643 163.998H332.201C333.217 163.998 333.555 163.66 333.555 162.678V161.12C333.555 160.138 333.217 159.799 332.201 159.799H330.643C329.661 159.799 329.322 160.138 329.322 161.12V162.678C329.322 163.66 329.661 163.998 330.643 163.998ZM339.38 163.998H340.938C341.92 163.998 342.259 163.66 342.259 162.678V161.12C342.259 160.138 341.92 159.799 340.938 159.799H339.38C338.364 159.799 338.026 160.138 338.026 161.12V162.678C338.026 163.66 338.364 163.998 339.38 163.998ZM348.083 163.998H349.641C350.623 163.998 350.996 163.66 350.996 162.678V161.12C350.996 160.138 350.623 159.799 349.641 159.799H348.083C347.068 159.799 346.729 160.138 346.729 161.12V162.678C346.729 163.66 347.068 163.998 348.083 163.998ZM321.94 172.566H323.497C324.513 172.566 324.852 172.227 324.852 171.245V169.688C324.852 168.706 324.513 168.367 323.497 168.367H321.94C320.958 168.367 320.585 168.706 320.585 169.688V171.245C320.585 172.227 320.958 172.566 321.94 172.566ZM330.643 172.566H332.201C333.217 172.566 333.555 172.227 333.555 171.245V169.688C333.555 168.706 333.217 168.367 332.201 168.367H330.643C329.661 168.367 329.322 168.706 329.322 169.688V171.245C329.322 172.227 329.661 172.566 330.643 172.566ZM339.38 172.566H340.938C341.92 172.566 342.259 172.227 342.259 171.245V169.688C342.259 168.706 341.92 168.367 340.938 168.367H339.38C338.364 168.367 338.026 168.706 338.026 169.688V171.245C338.026 172.227 338.364 172.566 339.38 172.566ZM348.083 172.566H349.641C350.623 172.566 350.996 172.227 350.996 171.245V169.688C350.996 168.706 350.623 168.367 349.641 168.367H348.083C347.068 168.367 346.729 168.706 346.729 169.688V171.245C346.729 172.227 347.068 172.566 348.083 172.566ZM321.94 181.134H323.497C324.513 181.134 324.852 180.795 324.852 179.813V178.255C324.852 177.273 324.513 176.935 323.497 176.935H321.94C320.958 176.935 320.585 177.273 320.585 178.255V179.813C320.585 180.795 320.958 181.134 321.94 181.134ZM330.643 181.134H332.201C333.217 181.134 333.555 180.795 333.555 179.813V178.255C333.555 177.273 333.217 176.935 332.201 176.935H330.643C329.661 176.935 329.322 177.273 329.322 178.255V179.813C329.322 180.795 329.661 181.134 330.643 181.134ZM339.38 181.134H340.938C341.92 181.134 342.259 180.795 342.259 179.813V178.255C342.259 177.273 341.92 176.935 340.938 176.935H339.38C338.364 176.935 338.026 177.273 338.026 178.255V179.813C338.026 180.795 338.364 181.134 339.38 181.134Z" fill="white"/>
</g>
<g filter="url(#filter4_d_583_1273)">
<circle cx="170.678" cy="372.827" r="56.3771" fill="url(#paint9_linear_583_1273)"/>
<circle cx="170.678" cy="372.827" r="56.3771" fill="url(#paint10_radial_583_1273)"/>
</g>
<path d="M177.588 352.828C181.259 352.828 184.173 349.876 184.173 346.243C184.173 342.573 181.259 339.659 177.588 339.659C173.956 339.659 171.004 342.573 171.004 346.243C171.004 349.876 173.956 352.828 177.588 352.828ZM167.296 379.013L178.761 385.484L171.345 391.804C169.717 393.241 169.831 395.02 170.777 396.08C171.761 397.177 173.539 397.517 175.242 396.042L185.61 387.187C187.048 386.014 186.821 383.365 185.081 382.23L173.842 374.851L176.037 367.094C176.34 365.996 177.626 365.845 178.269 366.791L181.562 371.635C182.356 372.77 183.794 373.224 185.081 372.618L194.617 368.38C196.357 367.623 197 366.11 196.244 364.558C195.487 363.045 194.011 362.591 192.346 363.347L184.778 366.677L179.594 359.488C176.869 355.779 173.539 354.228 167.977 354.644L157.381 355.401C155.679 355.514 154.543 356.65 154.316 358.352L152.878 369.099C152.614 370.953 153.56 372.278 155.225 372.467C156.927 372.618 158.025 371.635 158.29 369.78L159.576 361.039L163.776 360.736C164.685 360.661 165.593 361.266 165.252 362.439L162.83 371.067C161.355 376.175 164.685 377.538 167.296 379.013ZM147.127 405.01C148.262 405.956 149.965 406.145 151.554 404.594L161.279 394.944C162.111 394.112 162.301 393.923 162.793 392.674L166.842 382.192L165.82 381.624C163.587 380.376 161.96 379.165 160.863 377.803L157.306 390.328L147.202 400.393C145.575 401.983 145.954 403.95 147.127 405.01Z" fill="white"/>
<g filter="url(#filter5_d_583_1273)">
<circle cx="264.455" cy="487.838" r="56.3771" fill="url(#paint11_linear_583_1273)"/>
<circle cx="264.455" cy="487.838" r="56.3771" fill="url(#paint12_radial_583_1273)"/>
</g>
<g clip-path="url(#clip2_583_1273)">
<path d="M261.597 494.881C259.805 494.881 258.767 493.874 258.767 492.082V490.069C251.471 489.566 244.206 488.056 236.596 485.163V480.54C246.062 484.723 255.402 486.201 265.466 486.201C275.529 486.201 284.901 484.723 294.367 480.54V485.163C286.756 488.056 279.46 489.566 272.196 490.069V492.082C272.196 493.874 271.158 494.881 269.365 494.881H261.597ZM244.584 511.171H286.348C291.725 511.171 294.367 508.592 294.367 503.309V479.534C294.367 474.25 291.725 471.671 286.348 471.671H244.584C239.269 471.671 236.596 474.25 236.596 479.534V503.309C236.596 508.592 239.269 511.171 244.584 511.171ZM252.76 474.093H257.1V469.879C257.1 468.055 258.17 467.017 259.994 467.017H270.938C272.793 467.017 273.831 468.055 273.831 469.879V474.03H278.202V470.225C278.202 465.193 275.624 462.929 270.875 462.929H260.056C255.622 462.929 252.76 465.193 252.76 470.225V474.093Z" fill="white"/>
</g>
<g filter="url(#filter6_d_583_1273)">
<circle cx="201.642" cy="229.507" r="56.3771" fill="url(#paint13_linear_583_1273)"/>
<circle cx="201.642" cy="229.507" r="56.3771" fill="url(#paint14_radial_583_1273)"/>
</g>
<g clip-path="url(#clip3_583_1273)">
<path d="M210.404 209.054L213.684 221.321C211.22 224.181 208.73 227.265 206.354 230.324C206.547 229.682 206.663 229.007 206.701 228.307C206.792 227.205 205.813 226.869 204.895 227.511C203.242 228.705 201.283 229.623 197.946 230.542C194.549 231.429 192.406 231.613 190.386 231.399C189.254 231.307 188.58 232.103 189.223 232.96C191.396 236.327 195.345 237.704 199.538 236.602C201.165 236.163 202.576 235.415 203.702 234.428C202.94 236.096 202.537 237.846 202.477 239.755C200.701 240.245 199.048 241.163 197.671 242.571C196.207 244.035 195.393 245.78 194.947 247.36C188.096 246.365 182.548 241.194 180.377 233.174L176.367 218.145C175.174 213.737 176.857 210.891 181.326 209.697L201.895 204.157C206.333 202.994 209.21 204.616 210.404 209.054ZM187.754 219.369C185.672 219.92 184.509 221.971 185.06 223.93C185.275 224.787 185.734 225.277 186.223 225.154C186.897 224.94 187.142 223.838 188.825 223.379C190.509 222.951 191.274 223.777 191.978 223.593C192.468 223.471 192.621 222.828 192.376 221.971C191.855 220.012 189.835 218.818 187.754 219.369ZM201.13 215.788C199.048 216.339 197.885 218.39 198.406 220.349C198.65 221.206 199.11 221.665 199.599 221.573C200.303 221.359 200.548 220.257 202.232 219.798C203.885 219.369 204.65 220.196 205.354 220.012C205.874 219.89 205.997 219.247 205.782 218.39C205.231 216.4 203.242 215.237 201.13 215.788Z" fill="white"/>
<path d="M225.891 213.891C224.605 214.993 217.229 221.818 210.831 230.328C216.555 231.185 221.514 234.674 224.299 239.786C230.054 230.389 232.533 221.114 233.145 219.4C235.043 213.983 229.839 210.585 225.891 213.891ZM212.729 241.99C214.749 243.398 216.494 245.54 217.137 247.315C219.096 246.673 220.565 245.51 221.851 243.642C222.095 243.306 222.34 242.938 222.555 242.571C220.443 237.031 214.719 233.021 208.811 232.96C208.536 233.297 208.291 233.664 208.046 234.001C206.76 235.868 206.179 237.643 206.209 239.663C208.107 239.663 210.709 240.582 212.729 241.99ZM192.742 259.13C197.761 264.211 206.975 264.609 211.964 259.651C216.219 255.427 216.372 249.948 212.331 245.907C208.689 242.234 203.21 241.99 200.21 245.081C196.721 248.57 199.047 252.213 196.874 254.355C195.099 256.192 193.538 255.519 192.497 256.498C191.793 257.141 191.732 258.12 192.742 259.13Z" fill="white"/>
</g>
<g filter="url(#filter7_d_583_1273)">
<circle cx="469.705" cy="229.507" r="56.3771" fill="url(#paint15_linear_583_1273)"/>
<circle cx="469.705" cy="229.507" r="56.3771" fill="url(#paint16_radial_583_1273)"/>
<circle cx="469.705" cy="229.507" r="56.3771" fill="url(#paint17_radial_583_1273)"/>
</g>
<path d="M484.539 215.175H472.201C464.6 215.175 460.235 219.687 460.235 227.141V236.949C460.235 239.378 460.702 241.499 461.605 243.245L457.465 246.952C456.141 248.154 455.405 248.718 454.326 248.718C452.782 248.718 451.923 247.639 451.923 245.972V241.068H451.212C445.181 241.068 442.018 237.831 442.018 231.873V217.627C442.018 211.669 445.181 208.433 451.212 208.433H475.56C480.698 208.433 483.755 210.799 484.539 215.175Z" fill="white"/>
<path d="M473.697 230.033C472.692 230.033 471.98 229.273 471.98 228.317C471.98 227.311 472.692 226.6 473.697 226.6H488.212C489.193 226.6 489.953 227.311 489.953 228.317C489.953 229.273 489.193 230.033 488.212 230.033H473.697ZM473.697 237.683C472.692 237.683 471.98 236.996 471.98 236.016C471.98 235.059 472.692 234.275 473.697 234.275H484.289C485.27 234.275 486.03 235.059 486.03 236.016C486.03 236.996 485.27 237.683 484.289 237.683H473.697ZM472.201 246.044H477.35L483.897 251.634C485.27 252.811 485.981 253.4 487.06 253.4C488.58 253.4 489.438 252.321 489.438 250.654V246.044H489.561C495.544 246.044 498.682 242.832 498.682 236.947V227.14C498.682 221.255 495.544 218.043 489.561 218.043H472.201C466.218 218.043 463.104 221.255 463.104 227.14V236.947C463.104 242.832 466.218 246.044 472.201 246.044Z" fill="white"/>
<g filter="url(#filter8_d_583_1273)">
<circle cx="53.387" cy="426.153" r="36.7757" fill="url(#paint18_linear_583_1273)"/>
<circle cx="53.387" cy="426.153" r="36.7757" fill="url(#paint19_radial_583_1273)"/>
</g>
<path d="M59.5623 414.669C61.7591 414.669 63.544 412.884 63.544 410.688C63.544 408.468 61.7591 406.706 59.5623 406.706C57.3427 406.706 55.5807 408.468 55.5807 410.688C55.5807 412.884 57.3427 414.669 59.5623 414.669ZM52.9034 446.5C60.798 446.5 66.084 441.214 66.084 433.342C66.084 429.2 64.1161 426.752 60.3861 426.752H57.9834C57.5715 426.752 57.3198 426.5 57.48 425.996L59.1276 420.962C59.8827 418.651 58.8072 416.546 56.2214 415.882L48.7615 414.006C48.0293 413.823 47.4801 413.96 46.8394 414.326L39.5854 418.399C38.7159 418.903 38.5328 420.161 39.1278 420.962C39.7227 421.786 40.7754 421.946 41.6678 421.466L48.3268 417.942L52.194 418.971C52.9491 419.177 53.2466 419.704 52.9949 420.39L50.9583 426.111C49.9972 428.834 51.6219 431.122 54.2077 431.122H60.798C62.171 431.122 63.155 431.946 63.155 433.342C63.155 439.475 59.0818 443.571 52.9263 443.571C46.7936 443.571 42.6746 439.475 42.6746 433.319C42.6746 431.099 43.3611 429.154 44.4824 427.553C45.7639 425.745 43.3382 424.097 41.9653 426.065C40.6152 428.056 39.7685 430.527 39.7685 433.319C39.7685 441.214 45.0087 446.5 52.9034 446.5ZM66.0611 446.5C67.1824 446.5 68.0748 445.607 68.0748 444.486C68.0748 443.365 67.1824 442.495 66.0611 442.495C64.9627 442.495 64.0703 443.365 64.0703 444.486C64.0703 445.607 64.9627 446.5 66.0611 446.5Z" fill="white"/>
<g filter="url(#filter9_d_583_1273)">
<circle cx="56.5599" cy="245.084" r="36.7757" fill="url(#paint20_linear_583_1273)"/>
<circle cx="56.5599" cy="245.084" r="36.7757" fill="url(#paint21_radial_583_1273)"/>
<circle cx="56.5599" cy="245.084" r="36.7757" fill="url(#paint22_radial_583_1273)"/>
</g>
<path d="M44.7472 240.271C44.7472 239.404 45.2636 238.869 46.1674 238.869H48.5836V236.582C48.5836 235.697 49.0816 235.162 49.9485 235.162C50.797 235.162 51.295 235.697 51.295 236.582V238.869H53.5268C54.5043 238.869 55.0577 239.404 55.0577 240.271C55.0577 241.175 54.5043 241.71 53.5268 241.71H51.295V244.015C51.295 244.901 50.797 245.436 49.9485 245.436C49.0816 245.436 48.5836 244.901 48.5836 244.015V241.71H46.1674C45.2636 241.71 44.7472 241.175 44.7472 240.271ZM66.3089 240.197C65.073 240.197 64.0217 239.183 64.0217 237.929C64.0217 236.674 65.073 235.66 66.3089 235.66C67.563 235.66 68.5775 236.674 68.5775 237.929C68.5775 239.183 67.563 240.197 66.3089 240.197ZM61.9928 244.624C60.757 244.624 59.7057 243.591 59.7057 242.337C59.7057 241.101 60.757 240.068 61.9928 240.068C63.2471 240.068 64.2615 241.101 64.2615 242.337C64.2615 243.591 63.2471 244.624 61.9928 244.624ZM41.5931 256.41C43.6958 256.41 45.0238 255.672 46.2781 254.141L48.8603 251.006C49.2107 250.582 49.6534 250.36 50.0592 250.36H63.8188C64.2431 250.36 64.6857 250.582 65.0362 251.006L67.6183 254.141C68.8543 255.672 70.1821 256.41 72.2848 256.41C75.6972 256.41 77.9658 254.16 77.9658 250.674C77.9658 249.217 77.6337 247.52 77.0803 245.657C76.1952 242.706 74.6459 238.666 73.1702 235.568C71.9161 232.912 71.2519 231.658 68.1163 230.957C65.4235 230.348 61.6608 229.905 56.939 229.905C52.2357 229.905 48.473 230.348 45.7801 230.957C42.6445 231.658 41.9805 232.912 40.7078 235.568C39.2507 238.666 37.7013 242.706 36.816 245.657C36.2627 247.52 35.9307 249.217 35.9307 250.674C35.9307 254.16 38.1993 256.41 41.5931 256.41Z" fill="white"/>
<g filter="url(#filter10_d_583_1273)">
<circle cx="574.765" cy="497.497" r="36.7757" fill="url(#paint23_linear_583_1273)"/>
<circle cx="574.765" cy="497.497" r="36.7757" fill="url(#paint24_radial_583_1273)"/>
<circle cx="574.765" cy="497.497" r="36.7757" fill="url(#paint25_radial_583_1273)"/>
<circle cx="574.765" cy="497.497" r="36.7757" fill="url(#paint26_radial_583_1273)"/>
</g>
<path d="M564.494 505.642C563.667 505.642 563.109 505.085 563.109 504.293V501.685C563.109 500.894 563.667 500.336 564.494 500.336H567.948C568.776 500.336 569.333 500.894 569.333 501.685V504.293C569.333 505.085 568.776 505.642 567.948 505.642H564.494ZM558.648 494.832V491.594H591.998V494.832H558.648ZM563.235 510.103H587.411C590.487 510.103 591.998 508.61 591.998 505.588V490.227C591.998 487.205 590.487 485.712 587.411 485.712H563.235C560.177 485.712 558.648 487.205 558.648 490.227V505.588C558.648 508.61 560.177 510.103 563.235 510.103Z" fill="white"/>
<g filter="url(#filter11_d_583_1273)">
<circle cx="514.799" cy="565.773" r="36.7757" fill="url(#paint27_linear_583_1273)"/>
<circle cx="514.799" cy="565.773" r="36.7757" fill="url(#paint28_radial_583_1273)"/>
<circle cx="514.799" cy="565.773" r="36.7757" fill="url(#paint29_radial_583_1273)"/>
<circle cx="514.799" cy="565.773" r="36.7757" fill="url(#paint30_radial_583_1273)"/>
</g>
<path d="M495.832 553.147C495.832 553.859 496.445 554.473 497.138 554.473H502.183L504.597 571.113C504.953 573.448 506.2 574.932 508.594 574.932H526.521C527.213 574.932 527.807 574.358 527.807 573.606C527.807 572.834 527.213 572.261 526.521 572.261H508.851C508.04 572.261 507.506 571.647 507.387 570.777L507.17 569.391H526.659C529.014 569.391 530.26 567.908 530.616 565.573L531.823 557.5C531.863 557.302 531.883 557.045 531.883 556.906C531.883 556.095 531.269 555.541 530.339 555.541H505.171L504.934 553.879C504.736 552.494 504.261 551.821 502.46 551.821H497.138C496.445 551.821 495.832 552.415 495.832 553.147ZM506.991 579.938C506.991 581.382 508.139 582.51 509.564 582.51C511.008 582.51 512.136 581.382 512.136 579.938C512.136 578.513 511.008 577.365 509.564 577.365C508.139 577.365 506.991 578.513 506.991 579.938ZM521.653 579.938C521.653 581.382 522.801 582.51 524.245 582.51C525.67 582.51 526.817 581.382 526.817 579.938C526.817 578.513 525.67 577.365 524.245 577.365C522.801 577.365 521.653 578.513 521.653 579.938Z" fill="white"/>
<g filter="url(#filter12_d_583_1273)">
<circle cx="97.8353" cy="163.395" r="36.7757" fill="url(#paint31_linear_583_1273)"/>
<circle cx="97.8353" cy="163.395" r="36.7757" fill="url(#paint32_radial_583_1273)"/>
<circle cx="97.8353" cy="163.395" r="36.7757" fill="url(#paint33_radial_583_1273)"/>
</g>
<path d="M80.043 163.627H91.2868C89.2677 162.697 88.0008 161.014 88.0008 158.975C88.0008 156.481 89.8813 154.58 92.3756 154.58C94.4145 154.58 96.1565 155.709 97.2651 157.708V150.384H99.5614V157.708C100.65 155.709 102.412 154.58 104.451 154.58C106.945 154.58 108.826 156.481 108.826 158.975C108.826 161.014 107.539 162.697 105.54 163.627H116.744V165.725H101.402C102.174 167.329 105.163 170.278 107.519 170.476C108.45 170.555 109.004 171.169 109.004 172.099C109.004 172.931 108.331 173.683 107.262 173.545C104.609 173.208 100.512 170.08 99.6801 166.933H99.5614V177.226H97.2651V166.933H97.1265C96.3149 170.08 92.2172 173.208 89.5448 173.545C88.4759 173.683 87.8226 172.931 87.8226 172.099C87.8226 171.169 88.3769 170.575 89.3073 170.476C91.6629 170.239 94.652 167.329 95.4241 165.725H80.043V163.627ZM96.4336 163.33H96.9285V162.855C96.9285 159.866 94.9292 157.273 92.5339 157.273C91.366 157.273 90.6732 158.005 90.6732 159.173C90.6732 161.153 93.2664 163.33 96.4336 163.33ZM100.393 163.33C103.56 163.33 106.153 161.153 106.153 159.173C106.153 158.005 105.441 157.273 104.292 157.273C101.877 157.273 99.8781 159.866 99.8781 162.855V163.33H100.393ZM85.0908 177.226H111.696C115.081 177.226 116.744 175.583 116.744 172.258V155.352C116.744 152.027 115.081 150.384 111.696 150.384H85.0908C81.7256 150.384 80.043 152.027 80.043 155.352V172.258C80.043 175.583 81.7256 177.226 85.0908 177.226Z" fill="white"/>
<g filter="url(#filter13_d_583_1273)">
<circle cx="434.11" cy="607.187" r="36.7757" fill="url(#paint34_linear_583_1273)"/>
<circle cx="434.11" cy="607.187" r="36.7757" fill="url(#paint35_radial_583_1273)"/>
<circle cx="434.11" cy="607.187" r="36.7757" fill="url(#paint36_radial_583_1273)"/>
<circle cx="434.11" cy="607.187" r="36.7757" fill="url(#paint37_radial_583_1273)"/>
</g>
<path d="M415.4 604.242C415.4 605.816 416.396 606.811 417.989 606.811H450.168C451.761 606.811 452.777 605.816 452.777 604.242V603.526C452.777 601.952 451.761 600.917 450.168 600.917H417.989C416.396 600.917 415.4 601.952 415.4 603.526V604.242ZM425.835 624.195H442.342C446.305 624.195 447.44 621.865 447.918 619.496L450.068 609.141H418.128L420.239 619.496C420.737 621.865 421.872 624.195 425.835 624.195ZM426.552 621.447C425.875 621.547 425.377 621.208 425.277 620.611L423.963 613.064C423.863 612.466 424.262 611.989 424.919 611.869C425.596 611.77 426.113 612.108 426.213 612.705L427.487 620.252C427.587 620.85 427.229 621.328 426.552 621.447ZM431.609 621.407C430.932 621.447 430.454 621.049 430.415 620.432L429.957 613.024C429.917 612.407 430.355 611.969 431.012 611.929C431.709 611.869 432.167 612.287 432.207 612.905L432.665 620.312C432.705 620.929 432.267 621.367 431.609 621.407ZM436.607 621.407C435.93 621.367 435.492 620.929 435.532 620.312L435.99 612.905C436.03 612.287 436.488 611.869 437.185 611.929C437.822 611.969 438.28 612.407 438.24 613.024L437.782 620.432C437.743 621.049 437.265 621.447 436.607 621.407ZM441.626 621.447C440.929 621.328 440.59 620.85 440.69 620.252L441.964 612.705C442.044 612.108 442.561 611.77 443.238 611.869C443.915 611.989 444.294 612.466 444.194 613.064L442.9 620.611C442.8 621.208 442.283 621.547 441.626 621.447ZM420.498 601.714H424.082L429.558 592.235C430.056 591.379 429.638 590.602 428.981 590.264C428.344 589.925 427.468 589.965 426.99 590.781L420.498 601.714ZM444.075 601.714H447.679L441.187 590.781C440.729 589.985 439.833 589.925 439.196 590.264C438.539 590.602 438.121 591.379 438.619 592.235L444.075 601.714Z" fill="white"/>
<g filter="url(#filter14_d_583_1273)">
<circle cx="242.663" cy="58.8789" r="36.7422" fill="url(#paint38_linear_583_1273)"/>
<circle cx="242.663" cy="58.8789" r="36.7422" fill="url(#paint39_radial_583_1273)"/>
<circle cx="242.663" cy="58.8789" r="36.7422" fill="url(#paint40_radial_583_1273)"/>
</g>
<path d="M225.513 69.0617C225.513 69.7982 226.004 70.3067 226.758 70.3067H227.634C228.371 70.3067 228.862 69.7982 228.862 69.0617V67.0804C229.037 67.133 229.563 67.168 229.931 67.168H256.338C256.706 67.168 257.232 67.133 257.407 67.0804V69.0617C257.407 69.7982 257.898 70.3067 258.635 70.3067H259.511C260.265 70.3067 260.756 69.7982 260.756 69.0617V61.0486C260.756 58.2081 259.213 56.6826 256.338 56.6826H229.931C227.056 56.6826 225.513 58.2081 225.513 61.0486V69.0617Z" fill="white"/>
<path d="M228.792 54.5258H232.439V52.4568C232.439 51.1417 233.158 50.4404 234.508 50.4404H239.505C240.873 50.4404 241.574 51.1417 241.574 52.4568V54.5258H244.731V52.4568C244.731 51.1417 245.449 50.4404 246.817 50.4404H251.744C253.112 50.4404 253.831 51.1417 253.831 52.4568V54.5258H257.478V50.528C257.478 47.8979 256.058 46.5127 253.427 46.5127H232.842C230.212 46.5127 228.792 47.8979 228.792 50.528V54.5258Z" fill="white"/>
<g filter="url(#filter15_d_583_1273)">
<circle cx="332.697" cy="40.2588" r="36.7422" fill="url(#paint41_linear_583_1273)"/>
<circle cx="332.697" cy="40.2588" r="36.7422" fill="url(#paint42_radial_583_1273)"/>
<circle cx="332.697" cy="40.2588" r="36.7422" fill="url(#paint43_radial_583_1273)"/>
</g>
<path d="M324.2 50.5365H341.138C343.528 50.5365 345.072 48.8427 345.072 46.3585V35.4992C345.072 31.8105 344.639 28.1405 344.055 25.6563C343.434 23.0215 341.703 21.0265 338.936 20.763C338.146 20.6689 335.68 20.4619 332.669 20.4619C329.658 20.4619 327.192 20.6689 326.402 20.763C323.635 21.0265 321.904 23.0215 321.283 25.6563C320.699 28.1405 320.267 31.8105 320.267 35.4992V46.3585C320.267 48.8427 321.791 50.5365 324.2 50.5365ZM328.943 25.0728C328.359 25.0728 327.964 24.6776 327.964 24.0942C327.964 23.5108 328.359 23.1344 328.943 23.1344H336.395C336.979 23.1344 337.374 23.5108 337.374 24.0942C337.374 24.6776 336.979 25.0728 336.395 25.0728H328.943ZM332.669 40.6371C329.169 40.6183 325.856 40.4489 324.332 40.2419C323.485 40.129 323.203 39.5832 323.203 38.7927V35.4804C323.203 32.3939 323.522 29.9473 323.748 29.0815C323.899 28.4793 324.238 28.0464 324.859 27.9711C326.496 27.7641 328.529 27.6512 332.669 27.6324C336.81 27.6136 338.823 27.7641 340.461 27.9711C341.082 28.0464 341.439 28.4793 341.59 29.0815C341.797 29.9473 342.136 32.3939 342.136 35.4804V38.7927C342.136 39.602 341.853 40.1478 341.006 40.2419C338.522 40.5242 335.229 40.6559 332.669 40.6371ZM325.837 47.4877C324.614 47.4877 323.748 46.6219 323.748 45.3798C323.748 44.1753 324.614 43.3096 325.837 43.3096C327.061 43.3096 327.926 44.1753 327.926 45.3798C327.926 46.6219 327.023 47.4877 325.837 47.4877ZM339.463 47.5065C338.259 47.5065 337.355 46.6031 337.355 45.3798C337.355 44.1941 338.259 43.2908 339.463 43.2908C340.668 43.2908 341.571 44.1941 341.571 45.3798C341.571 46.6031 340.649 47.5065 339.463 47.5065ZM322.469 57.3307H323.353C323.786 57.3307 324.049 57.18 324.275 56.785L328.66 49.7273H325.593L321.735 55.9191C321.321 56.5966 321.716 57.3307 322.469 57.3307ZM323.711 55.411H341.684V53.0209H323.711V55.411ZM342.06 57.3307H342.945C343.698 57.3307 344.036 56.5777 343.641 55.9191L339.821 49.7273H336.734L341.119 56.785C341.364 57.18 341.609 57.3307 342.06 57.3307Z" fill="white"/>
<g filter="url(#filter16_d_583_1273)">
<circle cx="423.697" cy="55.7754" r="36.7422" fill="url(#paint44_linear_583_1273)"/>
<circle cx="423.697" cy="55.7754" r="36.7422" fill="url(#paint45_radial_583_1273)"/>
<circle cx="423.697" cy="55.7754" r="36.7422" fill="url(#paint46_radial_583_1273)"/>
</g>
<path d="M438.945 61.2625L441.015 63.333C441.551 63.8691 441.551 64.7564 441.015 65.274C440.479 65.7916 439.592 65.8101 439.074 65.2925L436.985 63.222C436.468 62.6859 436.468 61.7986 436.985 61.2625C437.521 60.7449 438.409 60.7449 438.945 61.2625ZM437.559 54.5521C437.559 57.0961 436.21 59.3675 434.194 60.6678C433.829 56.2978 430.377 52.99 425.82 52.5186C425.362 51.8052 424.837 51.1553 424.252 50.5801C425.554 48.6041 427.791 47.2871 430.293 47.2871C434.268 47.2871 437.559 50.5776 437.559 54.5521ZM445.396 54.5521C445.396 55.3285 444.786 55.9386 444.029 55.9386H441.145C440.405 55.9386 439.758 55.3285 439.758 54.5521C439.758 53.8126 440.405 53.1656 441.145 53.1656H444.029C444.786 53.1656 445.396 53.8126 445.396 54.5521ZM441.015 43.8487C441.551 44.3848 441.551 45.2721 441.015 45.8082L438.963 47.8602C438.409 48.4147 437.521 48.3962 436.985 47.8602C436.468 47.3241 436.468 46.4367 436.985 45.9376L439.074 43.8487C439.592 43.3126 440.479 43.3126 441.015 43.8487ZM421.531 43.8487L423.601 45.9376C424.119 46.4367 424.119 47.3425 423.583 47.8602C423.065 48.3962 422.178 48.3962 421.642 47.8602L419.59 45.7897C419.072 45.2721 419.072 44.3848 419.609 43.8487C420.145 43.3126 421.032 43.3311 421.531 43.8487ZM431.68 40.78V43.6823C431.68 44.4402 431.051 45.0503 430.293 45.0503C429.554 45.0503 428.907 44.4402 428.907 43.6823V40.78C428.907 40.0406 429.554 39.3936 430.293 39.3936C431.051 39.3936 431.68 40.0406 431.68 40.78Z" fill="white"/>
<path d="M409.405 68.7127H425.026C429.203 68.7127 432.42 65.5516 432.42 61.4477C432.42 57.3808 429.148 54.3121 424.748 54.2751C423.085 51.114 420.034 49.21 416.522 49.21C411.734 49.21 407.686 52.8702 407.242 57.6396C404.82 58.3975 403.249 60.5049 403.249 63.093C403.249 66.4204 405.726 68.7127 409.405 68.7127Z" fill="white"/>
<g filter="url(#filter17_d_583_1273)">
<circle cx="503.353" cy="98.1553" r="36.7422" fill="url(#paint47_linear_583_1273)"/>
<circle cx="503.353" cy="98.1553" r="36.7422" fill="url(#paint48_radial_583_1273)"/>
<circle cx="503.353" cy="98.1553" r="36.7422" fill="url(#paint49_radial_583_1273)"/>
<circle cx="503.353" cy="98.1553" r="36.7422" fill="url(#paint50_radial_583_1273)"/>
</g>
<path d="M522.368 97.9497C522.368 106.481 514.932 112.688 504.652 112.688C501.347 112.688 498.311 112.073 495.678 110.901C494.102 112.054 491.97 112.688 489.837 112.688C488.722 112.688 488.299 111.881 489.03 111.208C489.971 110.344 490.317 109.556 490.317 108.403C490.317 105.732 486.974 104.06 486.974 97.9497C486.974 89.3797 494.41 83.1924 504.652 83.1924C514.913 83.1924 522.368 89.3797 522.368 97.9497ZM509.667 97.9497C509.667 99.2564 510.724 100.332 512.03 100.332C513.318 100.332 514.394 99.2564 514.394 97.9497C514.394 96.6431 513.318 95.5862 512.03 95.5862C510.724 95.5862 509.667 96.6431 509.667 97.9497ZM502.307 97.9497C502.307 99.2564 503.364 100.332 504.671 100.332C505.978 100.332 507.054 99.2564 507.054 97.9497C507.054 96.6431 505.978 95.5862 504.671 95.5862C503.364 95.5862 502.307 96.6431 502.307 97.9497ZM494.967 97.9497C494.967 99.2564 496.043 100.332 497.331 100.332C498.637 100.332 499.694 99.2564 499.694 97.9497C499.694 96.6431 498.618 95.5862 497.331 95.5862C496.043 95.5862 494.967 96.6431 494.967 97.9497Z" fill="white"/>
<g filter="url(#filter18_d_583_1273)">
<circle cx="571.662" cy="158.189" r="36.7422" fill="url(#paint51_linear_583_1273)"/>
<circle cx="571.662" cy="158.189" r="36.7422" fill="url(#paint52_radial_583_1273)"/>
<circle cx="571.662" cy="158.189" r="36.7422" fill="url(#paint53_radial_583_1273)"/>
<circle cx="571.662" cy="158.189" r="36.7422" fill="url(#paint54_radial_583_1273)"/>
</g>
<path d="M564.003 168.145C569.275 173.417 575.565 177.444 580.634 177.444C583.032 177.444 585.114 176.494 586.471 174.956C587.761 173.485 588.213 172.399 588.213 171.426C588.213 170.679 587.738 170 586.584 169.163L582.195 166.018C581.109 165.249 580.611 165.113 579.978 165.113C579.435 165.113 578.959 165.204 578.032 165.724L575.158 167.308C574.819 167.489 574.66 167.534 574.412 167.534C574.072 167.534 573.846 167.444 573.506 167.308C572.149 166.674 570.226 165.158 568.529 163.484C566.832 161.787 565.497 160.022 564.841 158.687C564.75 158.506 564.637 158.235 564.637 157.941C564.637 157.714 564.773 157.511 564.908 157.262L566.583 154.366C567.035 153.574 567.171 153.144 567.171 152.533C567.171 151.832 566.945 151.085 566.266 150.157L563.279 145.949C562.42 144.75 561.763 144.003 560.791 144.003C559.591 144.003 558.166 144.931 557.125 145.926C555.632 147.374 554.84 149.388 554.84 151.628C554.84 156.741 558.754 162.918 564.003 168.145Z" fill="white"/>
<path d="M576.152 157.125L576.672 150.043L576.695 147.825C576.672 147.033 576.084 146.423 575.292 146.377C574.5 146.332 573.799 146.988 573.799 147.825V157.917C573.821 158.98 574.342 159.523 575.405 159.523H585.519C586.334 159.523 586.99 158.844 586.922 158.03C586.877 157.238 586.288 156.672 585.519 156.695L583.257 156.672L576.152 157.125ZM575.451 156.061C574.998 156.582 574.975 157.351 575.451 157.826C575.926 158.324 576.718 158.301 577.215 157.826L581.13 154.274L588.393 146.966C588.709 146.649 588.891 146.287 588.891 145.857C588.868 145.065 588.234 144.454 587.397 144.454C586.967 144.454 586.651 144.59 586.334 144.907L579.048 152.192L575.451 156.061Z" fill="white"/>
<g filter="url(#filter19_d_583_1273)">
<circle cx="163.249" cy="569.049" r="36.7757" fill="url(#paint55_linear_583_1273)"/>
<circle cx="163.249" cy="569.049" r="36.7757" fill="url(#paint56_radial_583_1273)"/>
<circle cx="163.249" cy="569.049" r="36.7757" fill="url(#paint57_radial_583_1273)"/>
<circle cx="163.249" cy="569.049" r="36.7757" fill="url(#paint58_radial_583_1273)"/>
<circle cx="163.249" cy="569.049" r="36.7757" fill="url(#paint59_radial_583_1273)"/>
</g>
<path d="M147.343 583.088H179.721C180.465 583.088 181.095 582.459 181.095 581.715C181.095 580.951 180.465 580.341 179.721 580.341H147.343C146.58 580.341 145.97 580.951 145.97 581.715C145.97 582.459 146.58 583.088 147.343 583.088Z" fill="white"/>
<path d="M152.763 572.655L178.578 565.748C181.401 564.985 183.672 562.791 182.889 560.596C182.145 558.612 179.112 558.135 176.593 558.994L167.359 562.142C166.691 562.371 166.233 562.352 165.451 561.989L153.03 556.132C152.591 555.922 152.114 555.884 151.676 556.017L150.588 556.342C150.226 556.456 150.111 556.895 150.455 557.277L159.059 566.492L159.384 564.87L151.637 567.522L155.014 567.637L146.028 564.45C145.589 564.298 145.227 564.374 144.807 564.756L144.33 565.195C144.006 565.481 144.006 565.862 144.273 566.148L149.481 572.025C150.245 572.864 151.37 573.017 152.763 572.655Z" fill="white"/>
<g filter="url(#filter20_d_583_1273)">
<circle cx="342.111" cy="621.669" r="36.7757" fill="url(#paint60_linear_583_1273)"/>
<circle cx="342.111" cy="621.669" r="36.7757" fill="url(#paint61_radial_583_1273)"/>
<circle cx="342.111" cy="621.669" r="36.7757" fill="url(#paint62_radial_583_1273)"/>
<circle cx="342.111" cy="621.669" r="36.7757" fill="url(#paint63_radial_583_1273)"/>
<circle cx="342.111" cy="621.669" r="36.7757" fill="url(#paint64_radial_583_1273)"/>
</g>
<path d="M328.13 626.673C328.146 626.674 328.162 626.675 328.178 626.675H337.84C338.746 626.675 339.169 627.359 339.169 628.064V628.124C339.169 629.775 340.497 631.707 342.671 631.707C344.845 631.707 346.154 629.775 346.154 628.124V628.064C346.154 627.359 346.596 626.675 347.482 626.675H357.164C357.231 626.675 357.294 626.672 357.352 626.666C358.817 626.639 360.077 626.224 361.075 625.49C361.295 626.137 361.331 626.909 361.331 627.842V634.082C361.331 637.223 359.64 638.873 356.198 638.873H329.124C325.702 638.873 323.991 637.202 323.991 634.082V627.842C323.991 626.904 324.028 626.128 324.255 625.479C325.292 626.243 326.607 626.666 328.13 626.673Z" fill="white"/>
<path d="M329.124 624.319H356.198C359.64 624.319 361.331 622.669 361.331 619.529V613.289C361.331 611.718 361.23 610.631 360.365 609.806L354.85 604.713C353.078 603.063 351.83 602.56 349.435 602.56H335.908C333.512 602.56 332.244 603.063 330.473 604.713L324.978 609.806C324.092 610.631 323.991 611.718 323.991 613.289V619.529C323.991 622.649 325.702 624.319 329.124 624.319ZM342.671 617.153C340.497 617.153 339.169 615.221 339.169 613.57V613.51C339.169 612.805 338.746 612.101 337.84 612.101H327.433C326.97 612.101 326.85 611.658 327.172 611.336L332.707 606.243C333.593 605.418 334.116 605.076 335.606 605.076H349.717C351.206 605.076 351.729 605.418 352.635 606.243L358.151 611.336C358.493 611.658 358.372 612.101 357.889 612.101H347.482C346.596 612.101 346.154 612.805 346.154 613.51V613.57C346.154 615.221 344.845 617.153 342.671 617.153Z" fill="white"/>
<g filter="url(#filter21_d_583_1273)">
<circle cx="614.041" cy="237.844" r="36.7422" fill="url(#paint65_linear_583_1273)"/>
<circle cx="614.041" cy="237.844" r="36.7422" fill="url(#paint66_radial_583_1273)"/>
<circle cx="614.041" cy="237.844" r="36.7422" fill="url(#paint67_radial_583_1273)"/>
<circle cx="614.041" cy="237.844" r="36.7422" fill="url(#paint68_radial_583_1273)"/>
</g>
<path d="M618.327 229.617V230.346H617.986C617.253 230.346 616.579 230.435 615.977 230.612V229.682C615.977 227.38 614.664 226.164 612.508 226.164H600.61C598.471 226.164 597.142 227.38 597.142 229.682V236.83C597.142 239.131 598.471 240.315 600.61 240.315H601.972C602.588 240.315 603.09 240.687 603.09 241.514V244.756L607.305 240.979C607.856 240.493 608.196 240.315 608.974 240.315H612.297V242.503H608.893L604.565 246.198C603.674 246.977 603.204 247.366 602.491 247.366C601.469 247.366 600.918 246.652 600.918 245.55V242.503H600.497C597.109 242.503 594.808 240.428 594.808 236.862V229.617C594.808 226.067 597.109 223.992 600.497 223.992H612.621C616.009 223.992 618.327 226.067 618.327 229.617Z" fill="white"/>
<path d="M608.1 228.677L611.18 236.944C611.472 237.754 611.034 238.484 610.191 238.484C609.64 238.484 609.3 238.192 609.105 237.576L608.392 235.485H604.761L604.064 237.576C603.853 238.192 603.513 238.484 602.962 238.484C602.135 238.484 601.681 237.754 601.989 236.944L605.037 228.677C605.296 227.964 605.831 227.575 606.56 227.575C607.306 227.575 607.841 227.964 608.1 228.677ZM605.345 233.735H607.808L606.569 230.078L605.345 233.735Z" fill="white"/>
<path d="M635.801 235.97V243.216C635.801 246.782 633.499 248.856 630.112 248.856H629.706V251.904C629.706 253.006 629.139 253.719 628.134 253.719C627.421 253.719 626.951 253.33 626.043 252.552L621.715 248.856H617.987C614.437 248.856 612.298 246.782 612.298 243.232V235.97C612.298 232.42 614.437 230.346 617.987 230.346H630.112C633.499 230.346 635.801 232.42 635.801 235.97ZM619.835 236.586C619.252 236.586 618.814 236.991 618.814 237.542C618.814 238.094 619.252 238.499 619.835 238.499H620.759C621.116 239.747 621.748 240.914 622.623 241.903C621.78 242.438 620.775 242.843 619.641 243.118C619.089 243.248 618.749 243.783 618.862 244.366C619.025 244.918 619.576 245.177 620.175 245.015C621.586 244.707 622.931 244.123 624.098 243.264C625.216 244.107 626.546 244.707 627.842 245.015C628.539 245.161 629.106 244.95 629.253 244.366C629.431 243.734 629.139 243.248 628.507 243.118C627.388 242.859 626.4 242.454 625.541 241.903C626.416 240.946 627.048 239.779 627.388 238.499H628.312C628.912 238.499 629.35 238.094 629.35 237.542C629.35 236.991 628.912 236.586 628.312 236.586H619.835ZM624.098 240.687C623.531 240.039 623.077 239.309 622.769 238.499H625.378C625.087 239.293 624.649 240.022 624.098 240.687ZM622.769 233.117C622.283 233.344 622.056 233.928 622.315 234.463L622.882 235.662C623.109 236.165 623.693 236.375 624.195 236.149C624.73 235.889 624.941 235.306 624.698 234.803L624.114 233.62C623.839 233.069 623.288 232.826 622.769 233.117Z" fill="white"/>
<g filter="url(#filter22_d_583_1273)">
<circle cx="247.973" cy="611.393" r="36.7757" fill="url(#paint69_linear_583_1273)"/>
<circle cx="247.973" cy="611.393" r="36.7757" fill="url(#paint70_radial_583_1273)"/>
<circle cx="247.973" cy="611.393" r="36.7757" fill="url(#paint71_radial_583_1273)"/>
<circle cx="247.973" cy="611.393" r="36.7757" fill="url(#paint72_radial_583_1273)"/>
<circle cx="247.973" cy="611.393" r="36.7757" fill="url(#paint73_radial_583_1273)"/>
</g>
<path d="M258.048 602.195H234.918C234.748 602.195 234.587 602.207 234.435 602.23L247.17 613.691C247.597 614.098 248.081 614.292 248.566 614.292C249.07 614.292 249.555 614.098 249.981 613.691L258.88 605.682C259.26 606.448 259.771 607.137 260.381 607.724L255.493 612.127L264.405 621.039V609.788C264.832 609.871 265.273 609.911 265.723 609.911C266.179 609.911 266.627 609.87 267.06 609.785V621.174C267.06 624.431 265.413 626.04 262.66 626.04H235.034C231.739 626.04 230.091 624.431 230.091 621.174V604.425C230.091 601.168 231.719 599.559 234.491 599.559H258.54C258.222 600.378 258.05 601.267 258.048 602.195ZM251.454 615.765C250.582 616.58 249.593 616.948 248.566 616.948C247.558 616.948 246.569 616.58 245.677 615.765L243.536 613.834L234.07 623.284C234.319 623.364 234.603 623.404 234.918 623.404H262.214C262.53 623.404 262.815 623.365 263.065 623.286L253.606 613.827L251.454 615.765ZM232.747 604.405V621.036L241.642 612.125L232.759 604.113C232.751 604.206 232.747 604.304 232.747 604.405Z" fill="white"/>
<path d="M265.722 607.682C268.689 607.682 271.15 605.239 271.15 602.253C271.15 599.268 268.689 596.845 265.722 596.845C262.756 596.845 260.313 599.268 260.313 602.253C260.313 605.239 262.756 607.682 265.722 607.682Z" fill="white"/>
<g filter="url(#filter23_d_583_1273)">
<circle cx="629.559" cy="325.81" r="36.7422" fill="url(#paint74_linear_583_1273)"/>
<circle cx="629.559" cy="325.81" r="36.7422" fill="url(#paint75_radial_583_1273)"/>
<circle cx="629.559" cy="325.81" r="36.7422" fill="url(#paint76_radial_583_1273)"/>
<circle cx="629.559" cy="325.81" r="36.7422" fill="url(#paint77_radial_583_1273)"/>
<circle cx="629.559" cy="325.81" r="36.7422" fill="url(#paint78_radial_583_1273)"/>
</g>
<path d="M625.535 338.866V329.531C625.535 328.748 626.07 328.233 626.853 328.233H632.912C633.715 328.233 634.21 328.748 634.21 329.531V338.866H625.535ZM615.499 338.104C615.499 340.453 616.921 341.834 619.311 341.834H640.454C642.844 341.834 644.266 340.453 644.266 338.104V325.925L630.83 314.674C630.253 314.18 629.491 314.2 628.935 314.674L615.499 325.925V338.104ZM611.81 325.287C612.326 325.287 612.758 324.998 613.129 324.689L629.347 311.068C629.512 310.924 629.718 310.862 629.883 310.862C630.047 310.862 630.233 310.924 630.398 311.068L646.636 324.689C647.007 324.998 647.439 325.287 647.955 325.287C648.964 325.287 649.562 324.565 649.562 323.803C649.562 323.391 649.376 322.937 648.985 322.608L631.943 308.307C631.284 307.771 630.583 307.503 629.883 307.503C629.182 307.503 628.461 307.771 627.822 308.307L610.78 322.608C610.389 322.937 610.203 323.391 610.203 323.803C610.203 324.565 610.801 325.287 611.81 325.287ZM640.206 315.993L644.658 319.743V312.284C644.658 311.501 644.142 311.006 643.359 311.006H641.505C640.742 311.006 640.206 311.501 640.206 312.284V315.993Z" fill="white"/>
<g filter="url(#filter24_d_583_1273)">
<circle cx="616.11" cy="415.774" r="36.7422" fill="url(#paint79_linear_583_1273)"/>
<circle cx="616.11" cy="415.774" r="36.7422" fill="url(#paint80_radial_583_1273)"/>
<circle cx="616.11" cy="415.774" r="36.7422" fill="url(#paint81_radial_583_1273)"/>
<circle cx="616.11" cy="415.774" r="36.7422" fill="url(#paint82_radial_583_1273)"/>
<circle cx="616.11" cy="415.774" r="36.7422" fill="url(#paint83_radial_583_1273)"/>
</g>
<path d="M616.868 401.008C618.136 401.008 619.128 399.888 619.128 398.431C619.128 396.953 618.685 395.96 617.903 395.073C617.312 394.355 616.509 394.333 615.918 394.946C615.136 395.896 614.587 396.889 614.587 398.431C614.587 399.888 615.622 401.008 616.868 401.008ZM615.833 408.717H617.882V399.044H615.833V408.717ZM605.864 413.554H627.873V412.857C627.873 409.33 626.099 407.598 622.529 407.598H611.208C607.659 407.598 605.864 409.33 605.864 412.857V413.554ZM600.182 431.296H633.555V421.285C633.555 417.758 631.78 416.026 628.211 416.026H605.526C601.956 416.026 600.182 417.758 600.182 421.285V431.296ZM616.868 424.411C615.2 424.411 614.017 426.375 611.63 426.375C609.328 426.375 608.251 424.411 606.709 424.411C605.146 424.411 604.048 426.375 600.879 426.375H600.182V423.904H600.879C603.224 423.904 604.449 421.94 606.709 421.94C608.948 421.94 609.856 423.904 611.63 423.904C613.785 423.904 614.587 421.94 616.868 421.94C619.15 421.94 619.931 423.904 622.128 423.904C623.902 423.904 624.789 421.94 627.028 421.94C629.288 421.94 630.513 423.904 632.858 423.904H633.555V426.375H632.858C629.668 426.375 628.57 424.411 627.028 424.411C625.486 424.411 624.409 426.375 622.128 426.375C619.699 426.375 618.516 424.411 616.868 424.411ZM599.063 432.585H634.674C635.498 432.585 636.195 431.909 636.195 431.064C636.195 430.241 635.498 429.544 634.674 429.544H599.063C598.239 429.544 597.542 430.241 597.542 431.064C597.542 431.909 598.239 432.585 599.063 432.585Z" fill="white"/>
<g filter="url(#filter25_d_583_1273)">
<circle cx="161.939" cy="99.223" r="36.7757" fill="url(#paint84_linear_583_1273)"/>
<circle cx="161.939" cy="99.223" r="36.7757" fill="url(#paint85_radial_583_1273)"/>
<circle cx="161.939" cy="99.223" r="36.7757" fill="url(#paint86_radial_583_1273)"/>
</g>
<path d="M143.962 98.6375C145.624 96.4598 147.591 94.4929 149.769 92.8069C149.746 92.7601 149.746 92.6898 149.746 92.6196C149.675 91.2849 148.856 88.7559 147.357 88.4749C145.343 91.3317 144.126 94.7504 143.962 98.4267C143.962 98.5204 143.962 98.5672 143.962 98.6375ZM151.923 91.3083C152.485 90.957 153.024 90.6292 153.609 90.3014C153.235 87.07 153.375 84.3771 153.914 82.5741C151.947 83.6512 150.214 85.0562 148.739 86.6953C150.448 87.2105 151.525 89.4818 151.923 91.3083ZM155.787 89.2476C156.607 88.873 157.45 88.5452 158.316 88.2408C158.269 87.8895 158.246 87.5383 158.246 87.1636C158.246 84.2835 159.721 81.8482 162.086 80.3027C162.039 80.3027 162.016 80.3027 161.969 80.3027C159.978 80.373 158.058 80.7945 156.255 81.4735C155.881 82.9487 155.436 85.5245 155.787 89.2476ZM160.634 87.5617C162.905 86.9997 165.271 86.6953 167.753 86.6953C171.499 86.6953 175.246 87.4446 178.571 88.7793C175.878 84.7518 171.71 81.7779 166.863 80.7008C162.952 81.8716 160.494 83.8854 160.611 87.1636C160.611 87.2807 160.634 87.4446 160.634 87.5617ZM149.722 95.8744C147.662 97.7477 145.765 99.9254 144.243 102.384C144.969 106.505 147.053 110.182 150.05 112.968C147.919 107.793 149.418 101.401 149.722 95.8744ZM152.158 93.9777C152.204 102.665 148.224 112.617 157.122 117.16C158.925 117.745 160.868 118.073 162.859 118.073C163.889 118.073 164.872 118.003 165.832 117.839C158.808 109.292 155.248 99.9956 153.961 92.8069C153.352 93.1581 152.743 93.5328 152.158 93.9777ZM158.948 90.4887C157.965 90.8165 157.005 91.238 156.068 91.6595C157.215 98.6609 160.775 108.332 168.385 117.23C172.295 116.012 175.667 113.554 178.056 110.322C178.056 101.143 162.484 98.4267 158.948 90.4887ZM179.929 107.231C181.123 104.772 181.779 102.033 181.779 99.176C181.779 96.7408 181.287 94.3992 180.421 92.2449C176.417 90.114 172.319 89.0369 167.753 89.0369C165.505 89.0369 163.327 89.2945 161.266 89.8097C164.334 95.7573 177.166 98.497 179.929 107.231Z" fill="white"/>
<g filter="url(#filter26_d_583_1273)">
<circle cx="97.9388" cy="505.876" r="36.7757" fill="url(#paint87_linear_583_1273)"/>
<circle cx="97.9388" cy="505.876" r="36.7757" fill="url(#paint88_radial_583_1273)"/>
</g>
<path d="M85.4798 521.063H111.844C115.195 521.063 116.842 519.417 116.842 516.124V497.424C116.842 494.131 115.195 492.484 111.844 492.484H85.4798C82.1476 492.484 80.4814 494.131 80.4814 497.424V516.124C80.4814 519.417 82.1476 521.063 85.4798 521.063ZM85.519 518.221C84.1077 518.221 83.304 517.457 83.304 515.986V497.561C83.304 496.071 84.1077 495.327 85.519 495.327H111.804C113.216 495.327 114.019 496.071 114.019 497.561V515.986C114.019 517.457 113.216 518.221 111.804 518.221H85.519Z" fill="white"/>
<path d="M83.3037 508.244H87.1064C87.7924 508.244 88.1257 507.911 88.3609 507.343L90.0662 503.148L93.3984 513.968C93.6728 514.889 95.2018 514.869 95.4958 513.909L97.2795 508.244H100.71C101.396 508.244 101.729 507.911 101.964 507.343L103.768 503.148L107.08 513.968C107.374 514.889 108.884 514.869 109.197 513.909L110.981 508.244H114.019V506.01H110.334C109.648 506.01 109.295 506.343 109.08 506.911L108.119 509.538L104.806 499.443C104.512 498.522 103.121 498.541 102.729 499.502L100.063 506.01H96.6327C95.9466 506.01 95.5938 506.343 95.3978 506.911L94.4373 509.538L91.1247 499.443C90.811 498.522 89.4193 498.541 89.0273 499.502L86.3615 506.01H83.3037V508.244Z" fill="white"/>
<g filter="url(#filter27_d_583_1273)">
<circle cx="336.301" cy="333.431" r="82" fill="url(#paint89_linear_583_1273)"/>
<circle cx="336.301" cy="333.431" r="82" fill="url(#paint90_radial_583_1273)"/>
<circle cx="336.301" cy="333.431" r="82" fill="url(#paint91_radial_583_1273)"/>
</g>
<rect x="304.844" y="381.087" width="55.9255" height="55.9255" rx="27.9627" transform="rotate(-120 304.844 381.087)" fill="white" fill-opacity="0.89"/>
<rect x="304.844" y="381.087" width="55.9255" height="55.9255" rx="27.9627" transform="rotate(-120 304.844 381.087)" stroke="url(#paint92_linear_583_1273)" stroke-width="6.93928"/>
<rect x="371.987" y="379.103" width="55.9255" height="55.9255" rx="27.9627" transform="rotate(165 371.987 379.103)" fill="white" fill-opacity="0.89"/>
<rect x="371.987" y="379.103" width="55.9255" height="55.9255" rx="27.9627" transform="rotate(165 371.987 379.103)" stroke="url(#paint93_linear_583_1273)" stroke-width="6.93928"/>
<rect x="287.878" y="303.439" width="55.9255" height="55.9255" rx="27.9627" transform="rotate(-30 287.878 303.439)" fill="white" fill-opacity="0.89"/>
<rect x="287.878" y="303.439" width="55.9255" height="55.9255" rx="27.9627" transform="rotate(-30 287.878 303.439)" stroke="url(#paint94_linear_583_1273)" stroke-width="6.93928"/>
<rect x="399.04" y="332.658" width="55.9255" height="55.9255" rx="27.9627" transform="rotate(120 399.04 332.658)" fill="white" fill-opacity="0.89"/>
<rect x="399.04" y="332.658" width="55.9255" height="55.9255" rx="27.9627" transform="rotate(120 399.04 332.658)" stroke="url(#paint95_linear_583_1273)" stroke-width="6.93928"/>
<rect x="339.719" y="275.481" width="55.9255" height="55.9255" rx="27.9627" transform="rotate(30 339.719 275.481)" fill="white" fill-opacity="0.89"/>
<rect x="339.719" y="275.481" width="55.9255" height="55.9255" rx="27.9627" transform="rotate(30 339.719 275.481)" stroke="url(#paint96_linear_583_1273)" stroke-width="6.93928"/>
<path d="M337.996 321.801C345.538 321.801 351.683 327.887 351.683 335.433C351.683 342.978 345.538 349.064 337.996 349.064C330.454 349.064 324.31 342.978 324.31 335.433C324.31 327.887 330.454 321.801 337.996 321.801Z" fill="url(#paint97_radial_583_1273)"/>
<path d="M337.996 321.801C345.538 321.801 351.683 327.887 351.683 335.433C351.683 342.978 345.538 349.064 337.996 349.064C330.454 349.064 324.31 342.978 324.31 335.433C324.31 327.887 330.454 321.801 337.996 321.801Z" fill="url(#paint98_radial_583_1273)"/>
<path d="M337.996 321.801C345.538 321.801 351.683 327.887 351.683 335.433C351.683 342.978 345.538 349.064 337.996 349.064C330.454 349.064 324.31 342.978 324.31 335.433C324.31 327.887 330.454 321.801 337.996 321.801Z" stroke="white" stroke-width="6.76891"/>
<defs>
<filter id="filter0_d_583_1273" x="0.000295997" y="294.823" width="87.631" height="87.631" filterUnits="userSpaceOnUse" color-interpolation-filters="sRGB">
<feFlood flood-opacity="0" result="BackgroundImageFix"/>
<feColorMatrix in="SourceAlpha" type="matrix" values="0 0 0 0 0 0 0 0 0 0 0 0 0 0 0 0 0 0 127 0" result="hardAlpha"/>
<feOffset dx="0.70396" dy="3.5198"/>
<feGaussianBlur stdDeviation="3.5198"/>
<feComposite in2="hardAlpha" operator="out"/>
<feColorMatrix type="matrix" values="0 0 0 0 0 0 0 0 0 0 0 0 0 0 0 0 0 0 0.1 0"/>
<feBlend mode="normal" in2="BackgroundImageFix" result="effect1_dropShadow_583_1273"/>
<feBlend mode="normal" in="SourceGraphic" in2="effect1_dropShadow_583_1273" result="shape"/>
</filter>
<filter id="filter1_d_583_1273" x="351.969" y="422.34" width="135.081" height="135.081" filterUnits="userSpaceOnUse" color-interpolation-filters="sRGB">
<feFlood flood-opacity="0" result="BackgroundImageFix"/>
<feColorMatrix in="SourceAlpha" type="matrix" values="0 0 0 0 0 0 0 0 0 0 0 0 0 0 0 0 0 0 127 0" result="hardAlpha"/>
<feOffset dx="1.11638" dy="5.58189"/>
<feGaussianBlur stdDeviation="5.58189"/>
<feComposite in2="hardAlpha" operator="out"/>
<feColorMatrix type="matrix" values="0 0 0 0 0 0 0 0 0 0 0 0 0 0 0 0 0 0 0.1 0"/>
<feBlend mode="normal" in2="BackgroundImageFix" result="effect1_dropShadow_583_1273"/>
<feBlend mode="normal" in="SourceGraphic" in2="effect1_dropShadow_583_1273" result="shape"/>
</filter>
<filter id="filter2_d_583_1273" x="436.9" y="306.444" width="135.081" height="135.081" filterUnits="userSpaceOnUse" color-interpolation-filters="sRGB">
<feFlood flood-opacity="0" result="BackgroundImageFix"/>
<feColorMatrix in="SourceAlpha" type="matrix" values="0 0 0 0 0 0 0 0 0 0 0 0 0 0 0 0 0 0 127 0" result="hardAlpha"/>
<feOffset dx="1.11638" dy="5.58189"/>
<feGaussianBlur stdDeviation="5.58189"/>
<feComposite in2="hardAlpha" operator="out"/>
<feColorMatrix type="matrix" values="0 0 0 0 0 0 0 0 0 0 0 0 0 0 0 0 0 0 0.1 0"/>
<feBlend mode="normal" in2="BackgroundImageFix" result="effect1_dropShadow_583_1273"/>
<feBlend mode="normal" in="SourceGraphic" in2="effect1_dropShadow_583_1273" result="shape"/>
</filter>
<filter id="filter3_d_583_1273" x="269.691" y="103.849" width="135.081" height="135.081" filterUnits="userSpaceOnUse" color-interpolation-filters="sRGB">
<feFlood flood-opacity="0" result="BackgroundImageFix"/>
<feColorMatrix in="SourceAlpha" type="matrix" values="0 0 0 0 0 0 0 0 0 0 0 0 0 0 0 0 0 0 127 0" result="hardAlpha"/>
<feOffset dx="1.11638" dy="5.58189"/>
<feGaussianBlur stdDeviation="5.58189"/>
<feComposite in2="hardAlpha" operator="out"/>
<feColorMatrix type="matrix" values="0 0 0 0 0 0 0 0 0 0 0 0 0 0 0 0 0 0 0.1 0"/>
<feBlend mode="normal" in2="BackgroundImageFix" result="effect1_dropShadow_583_1273"/>
<feBlend mode="normal" in="SourceGraphic" in2="effect1_dropShadow_583_1273" result="shape"/>
</filter>
<filter id="filter4_d_583_1273" x="104.253" y="310.868" width="135.081" height="135.081" filterUnits="userSpaceOnUse" color-interpolation-filters="sRGB">
<feFlood flood-opacity="0" result="BackgroundImageFix"/>
<feColorMatrix in="SourceAlpha" type="matrix" values="0 0 0 0 0 0 0 0 0 0 0 0 0 0 0 0 0 0 127 0" result="hardAlpha"/>
<feOffset dx="1.11638" dy="5.58189"/>
<feGaussianBlur stdDeviation="5.58189"/>
<feComposite in2="hardAlpha" operator="out"/>
<feColorMatrix type="matrix" values="0 0 0 0 0 0 0 0 0 0 0 0 0 0 0 0 0 0 0.1 0"/>
<feBlend mode="normal" in2="BackgroundImageFix" result="effect1_dropShadow_583_1273"/>
<feBlend mode="normal" in="SourceGraphic" in2="effect1_dropShadow_583_1273" result="shape"/>
</filter>
<filter id="filter5_d_583_1273" x="198.031" y="425.879" width="135.081" height="135.081" filterUnits="userSpaceOnUse" color-interpolation-filters="sRGB">
<feFlood flood-opacity="0" result="BackgroundImageFix"/>
<feColorMatrix in="SourceAlpha" type="matrix" values="0 0 0 0 0 0 0 0 0 0 0 0 0 0 0 0 0 0 127 0" result="hardAlpha"/>
<feOffset dx="1.11638" dy="5.58189"/>
<feGaussianBlur stdDeviation="5.58189"/>
<feComposite in2="hardAlpha" operator="out"/>
<feColorMatrix type="matrix" values="0 0 0 0 0 0 0 0 0 0 0 0 0 0 0 0 0 0 0.1 0"/>
<feBlend mode="normal" in2="BackgroundImageFix" result="effect1_dropShadow_583_1273"/>
<feBlend mode="normal" in="SourceGraphic" in2="effect1_dropShadow_583_1273" result="shape"/>
</filter>
<filter id="filter6_d_583_1273" x="135.217" y="167.548" width="135.081" height="135.081" filterUnits="userSpaceOnUse" color-interpolation-filters="sRGB">
<feFlood flood-opacity="0" result="BackgroundImageFix"/>
<feColorMatrix in="SourceAlpha" type="matrix" values="0 0 0 0 0 0 0 0 0 0 0 0 0 0 0 0 0 0 127 0" result="hardAlpha"/>
<feOffset dx="1.11638" dy="5.58189"/>
<feGaussianBlur stdDeviation="5.58189"/>
<feComposite in2="hardAlpha" operator="out"/>
<feColorMatrix type="matrix" values="0 0 0 0 0 0 0 0 0 0 0 0 0 0 0 0 0 0 0.1 0"/>
<feBlend mode="normal" in2="BackgroundImageFix" result="effect1_dropShadow_583_1273"/>
<feBlend mode="normal" in="SourceGraphic" in2="effect1_dropShadow_583_1273" result="shape"/>
</filter>
<filter id="filter7_d_583_1273" x="403.281" y="167.548" width="135.081" height="135.081" filterUnits="userSpaceOnUse" color-interpolation-filters="sRGB">
<feFlood flood-opacity="0" result="BackgroundImageFix"/>
<feColorMatrix in="SourceAlpha" type="matrix" values="0 0 0 0 0 0 0 0 0 0 0 0 0 0 0 0 0 0 127 0" result="hardAlpha"/>
<feOffset dx="1.11638" dy="5.58189"/>
<feGaussianBlur stdDeviation="5.58189"/>
<feComposite in2="hardAlpha" operator="out"/>
<feColorMatrix type="matrix" values="0 0 0 0 0 0 0 0 0 0 0 0 0 0 0 0 0 0 0.1 0"/>
<feBlend mode="normal" in2="BackgroundImageFix" result="effect1_dropShadow_583_1273"/>
<feBlend mode="normal" in="SourceGraphic" in2="effect1_dropShadow_583_1273" result="shape"/>
</filter>
<filter id="filter8_d_583_1273" x="10.2757" y="385.857" width="87.631" height="87.631" filterUnits="userSpaceOnUse" color-interpolation-filters="sRGB">
<feFlood flood-opacity="0" result="BackgroundImageFix"/>
<feColorMatrix in="SourceAlpha" type="matrix" values="0 0 0 0 0 0 0 0 0 0 0 0 0 0 0 0 0 0 127 0" result="hardAlpha"/>
<feOffset dx="0.70396" dy="3.5198"/>
<feGaussianBlur stdDeviation="3.5198"/>
<feComposite in2="hardAlpha" operator="out"/>
<feColorMatrix type="matrix" values="0 0 0 0 0 0 0 0 0 0 0 0 0 0 0 0 0 0 0.1 0"/>
<feBlend mode="normal" in2="BackgroundImageFix" result="effect1_dropShadow_583_1273"/>
<feBlend mode="normal" in="SourceGraphic" in2="effect1_dropShadow_583_1273" result="shape"/>
</filter>
<filter id="filter9_d_583_1273" x="13.4485" y="204.789" width="87.631" height="87.631" filterUnits="userSpaceOnUse" color-interpolation-filters="sRGB">
<feFlood flood-opacity="0" result="BackgroundImageFix"/>
<feColorMatrix in="SourceAlpha" type="matrix" values="0 0 0 0 0 0 0 0 0 0 0 0 0 0 0 0 0 0 127 0" result="hardAlpha"/>
<feOffset dx="0.70396" dy="3.5198"/>
<feGaussianBlur stdDeviation="3.5198"/>
<feComposite in2="hardAlpha" operator="out"/>
<feColorMatrix type="matrix" values="0 0 0 0 0 0 0 0 0 0 0 0 0 0 0 0 0 0 0.1 0"/>
<feBlend mode="normal" in2="BackgroundImageFix" result="effect1_dropShadow_583_1273"/>
<feBlend mode="normal" in="SourceGraphic" in2="effect1_dropShadow_583_1273" result="shape"/>
</filter>
<filter id="filter10_d_583_1273" x="531.654" y="457.202" width="87.631" height="87.631" filterUnits="userSpaceOnUse" color-interpolation-filters="sRGB">
<feFlood flood-opacity="0" result="BackgroundImageFix"/>
<feColorMatrix in="SourceAlpha" type="matrix" values="0 0 0 0 0 0 0 0 0 0 0 0 0 0 0 0 0 0 127 0" result="hardAlpha"/>
<feOffset dx="0.70396" dy="3.5198"/>
<feGaussianBlur stdDeviation="3.5198"/>
<feComposite in2="hardAlpha" operator="out"/>
<feColorMatrix type="matrix" values="0 0 0 0 0 0 0 0 0 0 0 0 0 0 0 0 0 0 0.1 0"/>
<feBlend mode="normal" in2="BackgroundImageFix" result="effect1_dropShadow_583_1273"/>
<feBlend mode="normal" in="SourceGraphic" in2="effect1_dropShadow_583_1273" result="shape"/>
</filter>
<filter id="filter11_d_583_1273" x="471.688" y="525.477" width="87.631" height="87.631" filterUnits="userSpaceOnUse" color-interpolation-filters="sRGB">
<feFlood flood-opacity="0" result="BackgroundImageFix"/>
<feColorMatrix in="SourceAlpha" type="matrix" values="0 0 0 0 0 0 0 0 0 0 0 0 0 0 0 0 0 0 127 0" result="hardAlpha"/>
<feOffset dx="0.70396" dy="3.5198"/>
<feGaussianBlur stdDeviation="3.5198"/>
<feComposite in2="hardAlpha" operator="out"/>
<feColorMatrix type="matrix" values="0 0 0 0 0 0 0 0 0 0 0 0 0 0 0 0 0 0 0.1 0"/>
<feBlend mode="normal" in2="BackgroundImageFix" result="effect1_dropShadow_583_1273"/>
<feBlend mode="normal" in="SourceGraphic" in2="effect1_dropShadow_583_1273" result="shape"/>
</filter>
<filter id="filter12_d_583_1273" x="54.7239" y="123.099" width="87.631" height="87.631" filterUnits="userSpaceOnUse" color-interpolation-filters="sRGB">
<feFlood flood-opacity="0" result="BackgroundImageFix"/>
<feColorMatrix in="SourceAlpha" type="matrix" values="0 0 0 0 0 0 0 0 0 0 0 0 0 0 0 0 0 0 127 0" result="hardAlpha"/>
<feOffset dx="0.70396" dy="3.5198"/>
<feGaussianBlur stdDeviation="3.5198"/>
<feComposite in2="hardAlpha" operator="out"/>
<feColorMatrix type="matrix" values="0 0 0 0 0 0 0 0 0 0 0 0 0 0 0 0 0 0 0.1 0"/>
<feBlend mode="normal" in2="BackgroundImageFix" result="effect1_dropShadow_583_1273"/>
<feBlend mode="normal" in="SourceGraphic" in2="effect1_dropShadow_583_1273" result="shape"/>
</filter>
<filter id="filter13_d_583_1273" x="390.998" y="566.891" width="87.631" height="87.631" filterUnits="userSpaceOnUse" color-interpolation-filters="sRGB">
<feFlood flood-opacity="0" result="BackgroundImageFix"/>
<feColorMatrix in="SourceAlpha" type="matrix" values="0 0 0 0 0 0 0 0 0 0 0 0 0 0 0 0 0 0 127 0" result="hardAlpha"/>
<feOffset dx="0.70396" dy="3.5198"/>
<feGaussianBlur stdDeviation="3.5198"/>
<feComposite in2="hardAlpha" operator="out"/>
<feColorMatrix type="matrix" values="0 0 0 0 0 0 0 0 0 0 0 0 0 0 0 0 0 0 0.1 0"/>
<feBlend mode="normal" in2="BackgroundImageFix" result="effect1_dropShadow_583_1273"/>
<feBlend mode="normal" in="SourceGraphic" in2="effect1_dropShadow_583_1273" result="shape"/>
</filter>
<filter id="filter14_d_583_1273" x="199.591" y="18.6201" width="87.5507" height="87.5507" filterUnits="userSpaceOnUse" color-interpolation-filters="sRGB">
<feFlood flood-opacity="0" result="BackgroundImageFix"/>
<feColorMatrix in="SourceAlpha" type="matrix" values="0 0 0 0 0 0 0 0 0 0 0 0 0 0 0 0 0 0 127 0" result="hardAlpha"/>
<feOffset dx="0.703318" dy="3.51659"/>
<feGaussianBlur stdDeviation="3.51659"/>
<feComposite in2="hardAlpha" operator="out"/>
<feColorMatrix type="matrix" values="0 0 0 0 0 0 0 0 0 0 0 0 0 0 0 0 0 0 0.1 0"/>
<feBlend mode="normal" in2="BackgroundImageFix" result="effect1_dropShadow_583_1273"/>
<feBlend mode="normal" in="SourceGraphic" in2="effect1_dropShadow_583_1273" result="shape"/>
</filter>
<filter id="filter15_d_583_1273" x="289.625" y="1.14441e-05" width="87.5507" height="87.5507" filterUnits="userSpaceOnUse" color-interpolation-filters="sRGB">
<feFlood flood-opacity="0" result="BackgroundImageFix"/>
<feColorMatrix in="SourceAlpha" type="matrix" values="0 0 0 0 0 0 0 0 0 0 0 0 0 0 0 0 0 0 127 0" result="hardAlpha"/>
<feOffset dx="0.703318" dy="3.51659"/>
<feGaussianBlur stdDeviation="3.51659"/>
<feComposite in2="hardAlpha" operator="out"/>
<feColorMatrix type="matrix" values="0 0 0 0 0 0 0 0 0 0 0 0 0 0 0 0 0 0 0.1 0"/>
<feBlend mode="normal" in2="BackgroundImageFix" result="effect1_dropShadow_583_1273"/>
<feBlend mode="normal" in="SourceGraphic" in2="effect1_dropShadow_583_1273" result="shape"/>
</filter>
<filter id="filter16_d_583_1273" x="380.625" y="15.5166" width="87.5507" height="87.5507" filterUnits="userSpaceOnUse" color-interpolation-filters="sRGB">
<feFlood flood-opacity="0" result="BackgroundImageFix"/>
<feColorMatrix in="SourceAlpha" type="matrix" values="0 0 0 0 0 0 0 0 0 0 0 0 0 0 0 0 0 0 127 0" result="hardAlpha"/>
<feOffset dx="0.703318" dy="3.51659"/>
<feGaussianBlur stdDeviation="3.51659"/>
<feComposite in2="hardAlpha" operator="out"/>
<feColorMatrix type="matrix" values="0 0 0 0 0 0 0 0 0 0 0 0 0 0 0 0 0 0 0.1 0"/>
<feBlend mode="normal" in2="BackgroundImageFix" result="effect1_dropShadow_583_1273"/>
<feBlend mode="normal" in="SourceGraphic" in2="effect1_dropShadow_583_1273" result="shape"/>
</filter>
<filter id="filter17_d_583_1273" x="460.28" y="57.8965" width="87.5507" height="87.5507" filterUnits="userSpaceOnUse" color-interpolation-filters="sRGB">
<feFlood flood-opacity="0" result="BackgroundImageFix"/>
<feColorMatrix in="SourceAlpha" type="matrix" values="0 0 0 0 0 0 0 0 0 0 0 0 0 0 0 0 0 0 127 0" result="hardAlpha"/>
<feOffset dx="0.703318" dy="3.51659"/>
<feGaussianBlur stdDeviation="3.51659"/>
<feComposite in2="hardAlpha" operator="out"/>
<feColorMatrix type="matrix" values="0 0 0 0 0 0 0 0 0 0 0 0 0 0 0 0 0 0 0.1 0"/>
<feBlend mode="normal" in2="BackgroundImageFix" result="effect1_dropShadow_583_1273"/>
<feBlend mode="normal" in="SourceGraphic" in2="effect1_dropShadow_583_1273" result="shape"/>
</filter>
<filter id="filter18_d_583_1273" x="528.59" y="117.931" width="87.5507" height="87.5507" filterUnits="userSpaceOnUse" color-interpolation-filters="sRGB">
<feFlood flood-opacity="0" result="BackgroundImageFix"/>
<feColorMatrix in="SourceAlpha" type="matrix" values="0 0 0 0 0 0 0 0 0 0 0 0 0 0 0 0 0 0 127 0" result="hardAlpha"/>
<feOffset dx="0.703318" dy="3.51659"/>
<feGaussianBlur stdDeviation="3.51659"/>
<feComposite in2="hardAlpha" operator="out"/>
<feColorMatrix type="matrix" values="0 0 0 0 0 0 0 0 0 0 0 0 0 0 0 0 0 0 0.1 0"/>
<feBlend mode="normal" in2="BackgroundImageFix" result="effect1_dropShadow_583_1273"/>
<feBlend mode="normal" in="SourceGraphic" in2="effect1_dropShadow_583_1273" result="shape"/>
</filter>
<filter id="filter19_d_583_1273" x="120.138" y="528.754" width="87.631" height="87.631" filterUnits="userSpaceOnUse" color-interpolation-filters="sRGB">
<feFlood flood-opacity="0" result="BackgroundImageFix"/>
<feColorMatrix in="SourceAlpha" type="matrix" values="0 0 0 0 0 0 0 0 0 0 0 0 0 0 0 0 0 0 127 0" result="hardAlpha"/>
<feOffset dx="0.70396" dy="3.5198"/>
<feGaussianBlur stdDeviation="3.5198"/>
<feComposite in2="hardAlpha" operator="out"/>
<feColorMatrix type="matrix" values="0 0 0 0 0 0 0 0 0 0 0 0 0 0 0 0 0 0 0.1 0"/>
<feBlend mode="normal" in2="BackgroundImageFix" result="effect1_dropShadow_583_1273"/>
<feBlend mode="normal" in="SourceGraphic" in2="effect1_dropShadow_583_1273" result="shape"/>
</filter>
<filter id="filter20_d_583_1273" x="298.999" y="581.374" width="87.631" height="87.631" filterUnits="userSpaceOnUse" color-interpolation-filters="sRGB">
<feFlood flood-opacity="0" result="BackgroundImageFix"/>
<feColorMatrix in="SourceAlpha" type="matrix" values="0 0 0 0 0 0 0 0 0 0 0 0 0 0 0 0 0 0 127 0" result="hardAlpha"/>
<feOffset dx="0.70396" dy="3.5198"/>
<feGaussianBlur stdDeviation="3.5198"/>
<feComposite in2="hardAlpha" operator="out"/>
<feColorMatrix type="matrix" values="0 0 0 0 0 0 0 0 0 0 0 0 0 0 0 0 0 0 0.1 0"/>
<feBlend mode="normal" in2="BackgroundImageFix" result="effect1_dropShadow_583_1273"/>
<feBlend mode="normal" in="SourceGraphic" in2="effect1_dropShadow_583_1273" result="shape"/>
</filter>
<filter id="filter21_d_583_1273" x="570.969" y="197.585" width="87.5507" height="87.5507" filterUnits="userSpaceOnUse" color-interpolation-filters="sRGB">
<feFlood flood-opacity="0" result="BackgroundImageFix"/>
<feColorMatrix in="SourceAlpha" type="matrix" values="0 0 0 0 0 0 0 0 0 0 0 0 0 0 0 0 0 0 127 0" result="hardAlpha"/>
<feOffset dx="0.703318" dy="3.51659"/>
<feGaussianBlur stdDeviation="3.51659"/>
<feComposite in2="hardAlpha" operator="out"/>
<feColorMatrix type="matrix" values="0 0 0 0 0 0 0 0 0 0 0 0 0 0 0 0 0 0 0.1 0"/>
<feBlend mode="normal" in2="BackgroundImageFix" result="effect1_dropShadow_583_1273"/>
<feBlend mode="normal" in="SourceGraphic" in2="effect1_dropShadow_583_1273" result="shape"/>
</filter>
<filter id="filter22_d_583_1273" x="204.862" y="571.097" width="87.631" height="87.631" filterUnits="userSpaceOnUse" color-interpolation-filters="sRGB">
<feFlood flood-opacity="0" result="BackgroundImageFix"/>
<feColorMatrix in="SourceAlpha" type="matrix" values="0 0 0 0 0 0 0 0 0 0 0 0 0 0 0 0 0 0 127 0" result="hardAlpha"/>
<feOffset dx="0.70396" dy="3.5198"/>
<feGaussianBlur stdDeviation="3.5198"/>
<feComposite in2="hardAlpha" operator="out"/>
<feColorMatrix type="matrix" values="0 0 0 0 0 0 0 0 0 0 0 0 0 0 0 0 0 0 0.1 0"/>
<feBlend mode="normal" in2="BackgroundImageFix" result="effect1_dropShadow_583_1273"/>
<feBlend mode="normal" in="SourceGraphic" in2="effect1_dropShadow_583_1273" result="shape"/>
</filter>
<filter id="filter23_d_583_1273" x="586.487" y="285.551" width="87.5507" height="87.5507" filterUnits="userSpaceOnUse" color-interpolation-filters="sRGB">
<feFlood flood-opacity="0" result="BackgroundImageFix"/>
<feColorMatrix in="SourceAlpha" type="matrix" values="0 0 0 0 0 0 0 0 0 0 0 0 0 0 0 0 0 0 127 0" result="hardAlpha"/>
<feOffset dx="0.703318" dy="3.51659"/>
<feGaussianBlur stdDeviation="3.51659"/>
<feComposite in2="hardAlpha" operator="out"/>
<feColorMatrix type="matrix" values="0 0 0 0 0 0 0 0 0 0 0 0 0 0 0 0 0 0 0.1 0"/>
<feBlend mode="normal" in2="BackgroundImageFix" result="effect1_dropShadow_583_1273"/>
<feBlend mode="normal" in="SourceGraphic" in2="effect1_dropShadow_583_1273" result="shape"/>
</filter>
<filter id="filter24_d_583_1273" x="573.038" y="375.516" width="87.5507" height="87.5507" filterUnits="userSpaceOnUse" color-interpolation-filters="sRGB">
<feFlood flood-opacity="0" result="BackgroundImageFix"/>
<feColorMatrix in="SourceAlpha" type="matrix" values="0 0 0 0 0 0 0 0 0 0 0 0 0 0 0 0 0 0 127 0" result="hardAlpha"/>
<feOffset dx="0.703318" dy="3.51659"/>
<feGaussianBlur stdDeviation="3.51659"/>
<feComposite in2="hardAlpha" operator="out"/>
<feColorMatrix type="matrix" values="0 0 0 0 0 0 0 0 0 0 0 0 0 0 0 0 0 0 0.1 0"/>
<feBlend mode="normal" in2="BackgroundImageFix" result="effect1_dropShadow_583_1273"/>
<feBlend mode="normal" in="SourceGraphic" in2="effect1_dropShadow_583_1273" result="shape"/>
</filter>
<filter id="filter25_d_583_1273" x="118.827" y="58.9275" width="87.631" height="87.631" filterUnits="userSpaceOnUse" color-interpolation-filters="sRGB">
<feFlood flood-opacity="0" result="BackgroundImageFix"/>
<feColorMatrix in="SourceAlpha" type="matrix" values="0 0 0 0 0 0 0 0 0 0 0 0 0 0 0 0 0 0 127 0" result="hardAlpha"/>
<feOffset dx="0.70396" dy="3.5198"/>
<feGaussianBlur stdDeviation="3.5198"/>
<feComposite in2="hardAlpha" operator="out"/>
<feColorMatrix type="matrix" values="0 0 0 0 0 0 0 0 0 0 0 0 0 0 0 0 0 0 0.1 0"/>
<feBlend mode="normal" in2="BackgroundImageFix" result="effect1_dropShadow_583_1273"/>
<feBlend mode="normal" in="SourceGraphic" in2="effect1_dropShadow_583_1273" result="shape"/>
</filter>
<filter id="filter26_d_583_1273" x="54.8274" y="465.581" width="87.631" height="87.631" filterUnits="userSpaceOnUse" color-interpolation-filters="sRGB">
<feFlood flood-opacity="0" result="BackgroundImageFix"/>
<feColorMatrix in="SourceAlpha" type="matrix" values="0 0 0 0 0 0 0 0 0 0 0 0 0 0 0 0 0 0 127 0" result="hardAlpha"/>
<feOffset dx="0.70396" dy="3.5198"/>
<feGaussianBlur stdDeviation="3.5198"/>
<feComposite in2="hardAlpha" operator="out"/>
<feColorMatrix type="matrix" values="0 0 0 0 0 0 0 0 0 0 0 0 0 0 0 0 0 0 0.1 0"/>
<feBlend mode="normal" in2="BackgroundImageFix" result="effect1_dropShadow_583_1273"/>
<feBlend mode="normal" in="SourceGraphic" in2="effect1_dropShadow_583_1273" result="shape"/>
</filter>
<filter id="filter27_d_583_1273" x="240.177" y="243.584" width="195.386" height="195.386" filterUnits="userSpaceOnUse" color-interpolation-filters="sRGB">
<feFlood flood-opacity="0" result="BackgroundImageFix"/>
<feColorMatrix in="SourceAlpha" type="matrix" values="0 0 0 0 0 0 0 0 0 0 0 0 0 0 0 0 0 0 127 0" result="hardAlpha"/>
<feOffset dx="1.56931" dy="7.84655"/>
<feGaussianBlur stdDeviation="7.84655"/>
<feComposite in2="hardAlpha" operator="out"/>
<feColorMatrix type="matrix" values="0 0 0 0 0 0 0 0 0 0 0 0 0 0 0 0 0 0 0.1 0"/>
<feBlend mode="normal" in2="BackgroundImageFix" result="effect1_dropShadow_583_1273"/>
<feBlend mode="normal" in="SourceGraphic" in2="effect1_dropShadow_583_1273" result="shape"/>
</filter>
<linearGradient id="paint0_linear_583_1273" x1="15.1951" y1="298.547" x2="43.1117" y2="371.894" gradientUnits="userSpaceOnUse">
<stop stop-color="#FDFDFD"/>
<stop offset="1" stop-color="#979797"/>
</linearGradient>
<radialGradient id="paint1_radial_583_1273" cx="0" cy="0" r="1" gradientUnits="userSpaceOnUse" gradientTransform="translate(43.0101 335.794) rotate(68.471) scale(70.9129)">
<stop offset="0.302885" stop-color="#F160BC"/>
<stop offset="0.802885" stop-color="#E6238B"/>
</radialGradient>
<linearGradient id="paint2_linear_583_1273" x1="375.598" y1="428.235" x2="418.394" y2="540.676" gradientUnits="userSpaceOnUse">
<stop stop-color="#FDFDFD"/>
<stop offset="1" stop-color="#979797"/>
</linearGradient>
<radialGradient id="paint3_radial_583_1273" cx="0" cy="0" r="1" gradientUnits="userSpaceOnUse" gradientTransform="translate(418.238 485.334) rotate(68.471) scale(108.709)">
<stop offset="0.302885" stop-color="#FFCE48"/>
<stop offset="0.802885" stop-color="#FFAE00"/>
</radialGradient>
<linearGradient id="paint4_linear_583_1273" x1="460.528" y1="312.339" x2="503.324" y2="424.781" gradientUnits="userSpaceOnUse">
<stop stop-color="#FDFDFD"/>
<stop offset="1" stop-color="#979797"/>
</linearGradient>
<radialGradient id="paint5_radial_583_1273" cx="0" cy="0" r="1" gradientUnits="userSpaceOnUse" gradientTransform="translate(503.169 369.438) rotate(68.471) scale(108.709)">
<stop offset="0.302885" stop-color="#AAF539"/>
<stop offset="0.802885" stop-color="#51DE00"/>
</radialGradient>
<linearGradient id="paint6_linear_583_1273" x1="293.319" y1="109.744" x2="336.115" y2="222.185" gradientUnits="userSpaceOnUse">
<stop stop-color="#FDFDFD"/>
<stop offset="1" stop-color="#979797"/>
</linearGradient>
<radialGradient id="paint7_radial_583_1273" cx="0" cy="0" r="1" gradientUnits="userSpaceOnUse" gradientTransform="translate(335.96 166.843) rotate(68.471) scale(108.709)">
<stop offset="0.302885" stop-color="#FFAF1A"/>
<stop offset="0.802885" stop-color="#FF7700"/>
</radialGradient>
<radialGradient id="paint8_radial_583_1273" cx="0" cy="0" r="1" gradientUnits="userSpaceOnUse" gradientTransform="translate(335.96 166.843) rotate(68.471) scale(108.709)">
<stop offset="0.302885" stop-color="#63C6FF"/>
<stop offset="0.802885" stop-color="#005EFF"/>
</radialGradient>
<linearGradient id="paint9_linear_583_1273" x1="127.882" y1="316.763" x2="170.678" y2="429.204" gradientUnits="userSpaceOnUse">
<stop stop-color="#FDFDFD"/>
<stop offset="1" stop-color="#979797"/>
</linearGradient>
<radialGradient id="paint10_radial_583_1273" cx="0" cy="0" r="1" gradientUnits="userSpaceOnUse" gradientTransform="translate(170.522 373.862) rotate(68.471) scale(108.709)">
<stop offset="0.302885" stop-color="#F1608E"/>
<stop offset="0.802885" stop-color="#FF4245"/>
</radialGradient>
<linearGradient id="paint11_linear_583_1273" x1="221.659" y1="431.774" x2="264.455" y2="544.215" gradientUnits="userSpaceOnUse">
<stop stop-color="#FDFDFD"/>
<stop offset="1" stop-color="#979797"/>
</linearGradient>
<radialGradient id="paint12_radial_583_1273" cx="0" cy="0" r="1" gradientUnits="userSpaceOnUse" gradientTransform="translate(264.3 488.873) rotate(68.471) scale(108.709)">
<stop offset="0.302885" stop-color="#FFAF1A"/>
<stop offset="0.802885" stop-color="#FF7700"/>
</radialGradient>
<linearGradient id="paint13_linear_583_1273" x1="158.846" y1="173.443" x2="201.642" y2="285.884" gradientUnits="userSpaceOnUse">
<stop stop-color="#FDFDFD"/>
<stop offset="1" stop-color="#979797"/>
</linearGradient>
<radialGradient id="paint14_radial_583_1273" cx="0" cy="0" r="1" gradientUnits="userSpaceOnUse" gradientTransform="translate(201.486 230.542) rotate(68.471) scale(108.709)">
<stop offset="0.302885" stop-color="#9860F1"/>
<stop offset="0.802885" stop-color="#5522D8"/>
</radialGradient>
<linearGradient id="paint15_linear_583_1273" x1="426.909" y1="173.443" x2="469.705" y2="285.884" gradientUnits="userSpaceOnUse">
<stop stop-color="#FDFDFD"/>
<stop offset="1" stop-color="#979797"/>
</linearGradient>
<radialGradient id="paint16_radial_583_1273" cx="0" cy="0" r="1" gradientUnits="userSpaceOnUse" gradientTransform="translate(469.55 230.542) rotate(68.471) scale(108.709)">
<stop offset="0.302885" stop-color="#FFAF1A"/>
<stop offset="0.802885" stop-color="#FF7700"/>
</radialGradient>
<radialGradient id="paint17_radial_583_1273" cx="0" cy="0" r="1" gradientUnits="userSpaceOnUse" gradientTransform="translate(469.55 230.542) rotate(68.471) scale(108.709)">
<stop offset="0.29213" stop-color="#78DAC3"/>
<stop offset="0.802885" stop-color="#00B5A6"/>
</radialGradient>
<linearGradient id="paint18_linear_583_1273" x1="25.4705" y1="389.581" x2="53.387" y2="462.928" gradientUnits="userSpaceOnUse">
<stop stop-color="#FDFDFD"/>
<stop offset="1" stop-color="#979797"/>
</linearGradient>
<radialGradient id="paint19_radial_583_1273" cx="0" cy="0" r="1" gradientUnits="userSpaceOnUse" gradientTransform="translate(53.2855 426.828) rotate(68.471) scale(70.9129)">
<stop offset="0.302885" stop-color="#F1608E"/>
<stop offset="0.802885" stop-color="#FF4245"/>
</radialGradient>
<linearGradient id="paint20_linear_583_1273" x1="28.6434" y1="208.513" x2="56.5599" y2="281.86" gradientUnits="userSpaceOnUse">
<stop stop-color="#FDFDFD"/>
<stop offset="1" stop-color="#979797"/>
</linearGradient>
<radialGradient id="paint21_radial_583_1273" cx="0" cy="0" r="1" gradientUnits="userSpaceOnUse" gradientTransform="translate(56.4583 245.759) rotate(68.471) scale(70.9129)">
<stop offset="0.302885" stop-color="#F1608E"/>
<stop offset="0.802885" stop-color="#FF4245"/>
</radialGradient>
<radialGradient id="paint22_radial_583_1273" cx="0" cy="0" r="1" gradientUnits="userSpaceOnUse" gradientTransform="translate(56.4583 245.759) rotate(68.471) scale(70.9129)">
<stop offset="0.302885" stop-color="#BC60F1"/>
<stop offset="0.802885" stop-color="#A931FF"/>
</radialGradient>
<linearGradient id="paint23_linear_583_1273" x1="546.848" y1="460.926" x2="574.765" y2="534.273" gradientUnits="userSpaceOnUse">
<stop stop-color="#FDFDFD"/>
<stop offset="1" stop-color="#979797"/>
</linearGradient>
<radialGradient id="paint24_radial_583_1273" cx="0" cy="0" r="1" gradientUnits="userSpaceOnUse" gradientTransform="translate(574.663 498.172) rotate(68.471) scale(70.9129)">
<stop offset="0.302885" stop-color="#F1608E"/>
<stop offset="0.802885" stop-color="#FF4245"/>
</radialGradient>
<radialGradient id="paint25_radial_583_1273" cx="0" cy="0" r="1" gradientUnits="userSpaceOnUse" gradientTransform="translate(574.663 498.172) rotate(68.471) scale(70.9129)">
<stop offset="0.302885" stop-color="#9860F1"/>
<stop offset="0.802885" stop-color="#5522D8"/>
</radialGradient>
<radialGradient id="paint26_radial_583_1273" cx="0" cy="0" r="1" gradientUnits="userSpaceOnUse" gradientTransform="translate(574.663 498.172) rotate(68.471) scale(70.9129)">
<stop offset="0.302885" stop-color="#D5E875"/>
<stop offset="0.802885" stop-color="#CBD719"/>
</radialGradient>
<linearGradient id="paint27_linear_583_1273" x1="486.883" y1="529.201" x2="514.799" y2="602.549" gradientUnits="userSpaceOnUse">
<stop stop-color="#FDFDFD"/>
<stop offset="1" stop-color="#979797"/>
</linearGradient>
<radialGradient id="paint28_radial_583_1273" cx="0" cy="0" r="1" gradientUnits="userSpaceOnUse" gradientTransform="translate(514.698 566.448) rotate(68.471) scale(70.9129)">
<stop offset="0.302885" stop-color="#F1608E"/>
<stop offset="0.802885" stop-color="#FF4245"/>
</radialGradient>
<radialGradient id="paint29_radial_583_1273" cx="0" cy="0" r="1" gradientUnits="userSpaceOnUse" gradientTransform="translate(514.698 566.448) rotate(68.471) scale(70.9129)">
<stop offset="0.302885" stop-color="#9860F1"/>
<stop offset="0.802885" stop-color="#5522D8"/>
</radialGradient>
<radialGradient id="paint30_radial_583_1273" cx="0" cy="0" r="1" gradientUnits="userSpaceOnUse" gradientTransform="translate(514.698 566.448) rotate(68.471) scale(70.9129)">
<stop offset="0.302885" stop-color="#F7DD37"/>
<stop offset="0.802885" stop-color="#FFCC00"/>
</radialGradient>
<linearGradient id="paint31_linear_583_1273" x1="69.9187" y1="126.823" x2="97.8353" y2="200.171" gradientUnits="userSpaceOnUse">
<stop stop-color="#FDFDFD"/>
<stop offset="1" stop-color="#979797"/>
</linearGradient>
<radialGradient id="paint32_radial_583_1273" cx="0" cy="0" r="1" gradientUnits="userSpaceOnUse" gradientTransform="translate(97.7337 164.07) rotate(68.471) scale(70.9129)">
<stop offset="0.302885" stop-color="#F1608E"/>
<stop offset="0.802885" stop-color="#FF4245"/>
</radialGradient>
<radialGradient id="paint33_radial_583_1273" cx="0" cy="0" r="1" gradientUnits="userSpaceOnUse" gradientTransform="translate(97.7337 164.07) rotate(68.471) scale(70.9129)">
<stop offset="0.302885" stop-color="#9860F1"/>
<stop offset="0.802885" stop-color="#5522D8"/>
</radialGradient>
<linearGradient id="paint34_linear_583_1273" x1="406.193" y1="570.615" x2="434.11" y2="643.963" gradientUnits="userSpaceOnUse">
<stop stop-color="#FDFDFD"/>
<stop offset="1" stop-color="#979797"/>
</linearGradient>
<radialGradient id="paint35_radial_583_1273" cx="0" cy="0" r="1" gradientUnits="userSpaceOnUse" gradientTransform="translate(434.008 607.862) rotate(68.471) scale(70.9129)">
<stop offset="0.302885" stop-color="#F1608E"/>
<stop offset="0.802885" stop-color="#FF4245"/>
</radialGradient>
<radialGradient id="paint36_radial_583_1273" cx="0" cy="0" r="1" gradientUnits="userSpaceOnUse" gradientTransform="translate(434.008 607.862) rotate(68.471) scale(70.9129)">
<stop offset="0.302885" stop-color="#9860F1"/>
<stop offset="0.802885" stop-color="#5522D8"/>
</radialGradient>
<radialGradient id="paint37_radial_583_1273" cx="0" cy="0" r="1" gradientUnits="userSpaceOnUse" gradientTransform="translate(434.008 607.862) rotate(68.471) scale(70.9129)">
<stop offset="0.302885" stop-color="#FFC248"/>
<stop offset="0.802885" stop-color="#FFB957"/>
</radialGradient>
<linearGradient id="paint38_linear_583_1273" x1="214.772" y1="22.3407" x2="242.663" y2="95.6211" gradientUnits="userSpaceOnUse">
<stop stop-color="#FDFDFD"/>
<stop offset="1" stop-color="#979797"/>
</linearGradient>
<radialGradient id="paint39_radial_583_1273" cx="0" cy="0" r="1" gradientUnits="userSpaceOnUse" gradientTransform="translate(242.562 59.5533) rotate(68.471) scale(70.8483)">
<stop offset="0.302885" stop-color="#FFAF1A"/>
<stop offset="0.802885" stop-color="#FF7700"/>
</radialGradient>
<radialGradient id="paint40_radial_583_1273" cx="0" cy="0" r="1" gradientUnits="userSpaceOnUse" gradientTransform="translate(242.562 59.5533) rotate(68.471) scale(70.8483)">
<stop offset="0.302885" stop-color="#639FFF"/>
<stop offset="0.802885" stop-color="#2E55FF"/>
</radialGradient>
<linearGradient id="paint41_linear_583_1273" x1="304.806" y1="3.7206" x2="332.697" y2="77.001" gradientUnits="userSpaceOnUse">
<stop stop-color="#FDFDFD"/>
<stop offset="1" stop-color="#979797"/>
</linearGradient>
<radialGradient id="paint42_radial_583_1273" cx="0" cy="0" r="1" gradientUnits="userSpaceOnUse" gradientTransform="translate(332.596 40.9332) rotate(68.471) scale(70.8483)">
<stop offset="0.302885" stop-color="#FFAF1A"/>
<stop offset="0.802885" stop-color="#FF7700"/>
</radialGradient>
<radialGradient id="paint43_radial_583_1273" cx="0" cy="0" r="1" gradientUnits="userSpaceOnUse" gradientTransform="translate(332.596 40.9332) rotate(68.471) scale(70.8483)">
<stop offset="0.302885" stop-color="#47BCFF"/>
<stop offset="0.802885" stop-color="#2A78FF"/>
</radialGradient>
<linearGradient id="paint44_linear_583_1273" x1="395.806" y1="19.2372" x2="423.697" y2="92.5176" gradientUnits="userSpaceOnUse">
<stop stop-color="#FDFDFD"/>
<stop offset="1" stop-color="#979797"/>
</linearGradient>
<radialGradient id="paint45_radial_583_1273" cx="0" cy="0" r="1" gradientUnits="userSpaceOnUse" gradientTransform="translate(423.596 56.4498) rotate(68.471) scale(70.8483)">
<stop offset="0.302885" stop-color="#FFAF1A"/>
<stop offset="0.802885" stop-color="#FF7700"/>
</radialGradient>
<radialGradient id="paint46_radial_583_1273" cx="0" cy="0" r="1" gradientUnits="userSpaceOnUse" gradientTransform="translate(423.596 56.4498) rotate(68.471) scale(70.8483)">
<stop offset="0.302885" stop-color="#63C8FF"/>
<stop offset="0.802885" stop-color="#00A2FF"/>
</radialGradient>
<linearGradient id="paint47_linear_583_1273" x1="475.461" y1="61.6171" x2="503.353" y2="134.897" gradientUnits="userSpaceOnUse">
<stop stop-color="#FDFDFD"/>
<stop offset="1" stop-color="#979797"/>
</linearGradient>
<radialGradient id="paint48_radial_583_1273" cx="0" cy="0" r="1" gradientUnits="userSpaceOnUse" gradientTransform="translate(503.251 98.8297) rotate(68.471) scale(70.8483)">
<stop offset="0.302885" stop-color="#FFAF1A"/>
<stop offset="0.802885" stop-color="#FF7700"/>
</radialGradient>
<radialGradient id="paint49_radial_583_1273" cx="0" cy="0" r="1" gradientUnits="userSpaceOnUse" gradientTransform="translate(503.251 98.8297) rotate(68.471) scale(70.8483)">
<stop offset="0.302885" stop-color="#63C6FF"/>
<stop offset="0.802885" stop-color="#005EFF"/>
</radialGradient>
<radialGradient id="paint50_radial_583_1273" cx="0" cy="0" r="1" gradientUnits="userSpaceOnUse" gradientTransform="translate(503.251 98.8297) rotate(68.471) scale(70.8483)">
<stop offset="0.29213" stop-color="#6ED9F1"/>
<stop offset="0.802885" stop-color="#00A8FC"/>
</radialGradient>
<linearGradient id="paint51_linear_583_1273" x1="543.771" y1="121.651" x2="571.662" y2="194.932" gradientUnits="userSpaceOnUse">
<stop stop-color="#FDFDFD"/>
<stop offset="1" stop-color="#979797"/>
</linearGradient>
<radialGradient id="paint52_radial_583_1273" cx="0" cy="0" r="1" gradientUnits="userSpaceOnUse" gradientTransform="translate(571.561 158.864) rotate(68.471) scale(70.8483)">
<stop offset="0.302885" stop-color="#FFAF1A"/>
<stop offset="0.802885" stop-color="#FF7700"/>
</radialGradient>
<radialGradient id="paint53_radial_583_1273" cx="0" cy="0" r="1" gradientUnits="userSpaceOnUse" gradientTransform="translate(571.561 158.864) rotate(68.471) scale(70.8483)">
<stop offset="0.302885" stop-color="#63C6FF"/>
<stop offset="0.802885" stop-color="#005EFF"/>
</radialGradient>
<radialGradient id="paint54_radial_583_1273" cx="0" cy="0" r="1" gradientUnits="userSpaceOnUse" gradientTransform="translate(571.561 158.864) rotate(68.471) scale(70.8483)">
<stop offset="0.29213" stop-color="#78DAC3"/>
<stop offset="0.802885" stop-color="#00B5A6"/>
</radialGradient>
<linearGradient id="paint55_linear_583_1273" x1="135.333" y1="532.478" x2="163.249" y2="605.825" gradientUnits="userSpaceOnUse">
<stop stop-color="#FDFDFD"/>
<stop offset="1" stop-color="#979797"/>
</linearGradient>
<radialGradient id="paint56_radial_583_1273" cx="0" cy="0" r="1" gradientUnits="userSpaceOnUse" gradientTransform="translate(163.148 569.724) rotate(68.471) scale(70.9129)">
<stop offset="0.302885" stop-color="#F1608E"/>
<stop offset="0.802885" stop-color="#FF4245"/>
</radialGradient>
<radialGradient id="paint57_radial_583_1273" cx="0" cy="0" r="1" gradientUnits="userSpaceOnUse" gradientTransform="translate(163.148 569.724) rotate(68.471) scale(70.9129)">
<stop offset="0.302885" stop-color="#9860F1"/>
<stop offset="0.802885" stop-color="#5522D8"/>
</radialGradient>
<radialGradient id="paint58_radial_583_1273" cx="0" cy="0" r="1" gradientUnits="userSpaceOnUse" gradientTransform="translate(163.148 569.724) rotate(68.471) scale(70.9129)">
<stop offset="0.302885" stop-color="#FFCE48"/>
<stop offset="0.802885" stop-color="#FFAE00"/>
</radialGradient>
<radialGradient id="paint59_radial_583_1273" cx="0" cy="0" r="1" gradientUnits="userSpaceOnUse" gradientTransform="translate(163.148 569.724) rotate(68.471) scale(70.9129)">
<stop offset="0.302885" stop-color="#FF981A"/>
<stop offset="1" stop-color="#FF7118"/>
</radialGradient>
<linearGradient id="paint60_linear_583_1273" x1="314.194" y1="585.098" x2="342.111" y2="658.445" gradientUnits="userSpaceOnUse">
<stop stop-color="#FDFDFD"/>
<stop offset="1" stop-color="#979797"/>
</linearGradient>
<radialGradient id="paint61_radial_583_1273" cx="0" cy="0" r="1" gradientUnits="userSpaceOnUse" gradientTransform="translate(342.009 622.344) rotate(68.471) scale(70.9129)">
<stop offset="0.302885" stop-color="#F1608E"/>
<stop offset="0.802885" stop-color="#FF4245"/>
</radialGradient>
<radialGradient id="paint62_radial_583_1273" cx="0" cy="0" r="1" gradientUnits="userSpaceOnUse" gradientTransform="translate(342.009 622.344) rotate(68.471) scale(70.9129)">
<stop offset="0.302885" stop-color="#9860F1"/>
<stop offset="0.802885" stop-color="#5522D8"/>
</radialGradient>
<radialGradient id="paint63_radial_583_1273" cx="0" cy="0" r="1" gradientUnits="userSpaceOnUse" gradientTransform="translate(342.009 622.344) rotate(68.471) scale(70.9129)">
<stop offset="0.302885" stop-color="#FFCE48"/>
<stop offset="0.802885" stop-color="#FFAE00"/>
</radialGradient>
<radialGradient id="paint64_radial_583_1273" cx="0" cy="0" r="1" gradientUnits="userSpaceOnUse" gradientTransform="translate(342.009 622.344) rotate(68.471) scale(70.9129)">
<stop offset="0.302885" stop-color="#FFAF1A"/>
<stop offset="0.802885" stop-color="#FF9538"/>
</radialGradient>
<linearGradient id="paint65_linear_583_1273" x1="586.15" y1="201.306" x2="614.041" y2="274.586" gradientUnits="userSpaceOnUse">
<stop stop-color="#FDFDFD"/>
<stop offset="1" stop-color="#979797"/>
</linearGradient>
<radialGradient id="paint66_radial_583_1273" cx="0" cy="0" r="1" gradientUnits="userSpaceOnUse" gradientTransform="translate(613.94 238.518) rotate(68.471) scale(70.8483)">
<stop offset="0.302885" stop-color="#FFAF1A"/>
<stop offset="0.802885" stop-color="#FF7700"/>
</radialGradient>
<radialGradient id="paint67_radial_583_1273" cx="0" cy="0" r="1" gradientUnits="userSpaceOnUse" gradientTransform="translate(613.94 238.518) rotate(68.471) scale(70.8483)">
<stop offset="0.302885" stop-color="#63C6FF"/>
<stop offset="0.802885" stop-color="#005EFF"/>
</radialGradient>
<radialGradient id="paint68_radial_583_1273" cx="0" cy="0" r="1" gradientUnits="userSpaceOnUse" gradientTransform="translate(613.94 238.518) rotate(68.471) scale(70.8483)">
<stop offset="0.29213" stop-color="#78DA97"/>
<stop offset="0.802885" stop-color="#00B588"/>
</radialGradient>
<linearGradient id="paint69_linear_583_1273" x1="220.056" y1="574.821" x2="247.973" y2="648.169" gradientUnits="userSpaceOnUse">
<stop stop-color="#FDFDFD"/>
<stop offset="1" stop-color="#979797"/>
</linearGradient>
<radialGradient id="paint70_radial_583_1273" cx="0" cy="0" r="1" gradientUnits="userSpaceOnUse" gradientTransform="translate(247.871 612.068) rotate(68.471) scale(70.9129)">
<stop offset="0.302885" stop-color="#F1608E"/>
<stop offset="0.802885" stop-color="#FF4245"/>
</radialGradient>
<radialGradient id="paint71_radial_583_1273" cx="0" cy="0" r="1" gradientUnits="userSpaceOnUse" gradientTransform="translate(247.871 612.068) rotate(68.471) scale(70.9129)">
<stop offset="0.302885" stop-color="#9860F1"/>
<stop offset="0.802885" stop-color="#5522D8"/>
</radialGradient>
<radialGradient id="paint72_radial_583_1273" cx="0" cy="0" r="1" gradientUnits="userSpaceOnUse" gradientTransform="translate(247.871 612.068) rotate(68.471) scale(70.9129)">
<stop offset="0.302885" stop-color="#FFCE48"/>
<stop offset="0.802885" stop-color="#FFAE00"/>
</radialGradient>
<radialGradient id="paint73_radial_583_1273" cx="0" cy="0" r="1" gradientUnits="userSpaceOnUse" gradientTransform="translate(247.871 612.068) rotate(68.471) scale(70.9129)">
<stop offset="0.302885" stop-color="#FFAF1A"/>
<stop offset="0.802885" stop-color="#FF9130"/>
</radialGradient>
<linearGradient id="paint74_linear_583_1273" x1="601.667" y1="289.271" x2="629.559" y2="362.552" gradientUnits="userSpaceOnUse">
<stop stop-color="#FDFDFD"/>
<stop offset="1" stop-color="#979797"/>
</linearGradient>
<radialGradient id="paint75_radial_583_1273" cx="0" cy="0" r="1" gradientUnits="userSpaceOnUse" gradientTransform="translate(629.457 326.484) rotate(68.471) scale(70.8483)">
<stop offset="0.302885" stop-color="#FFAF1A"/>
<stop offset="0.802885" stop-color="#FF7700"/>
</radialGradient>
<radialGradient id="paint76_radial_583_1273" cx="0" cy="0" r="1" gradientUnits="userSpaceOnUse" gradientTransform="translate(629.457 326.484) rotate(68.471) scale(70.8483)">
<stop offset="0.302885" stop-color="#63C6FF"/>
<stop offset="0.802885" stop-color="#005EFF"/>
</radialGradient>
<radialGradient id="paint77_radial_583_1273" cx="0" cy="0" r="1" gradientUnits="userSpaceOnUse" gradientTransform="translate(629.457 326.484) rotate(68.471) scale(70.8483)">
<stop offset="0.29213" stop-color="#78DAC3"/>
<stop offset="0.802885" stop-color="#00B5A6"/>
</radialGradient>
<radialGradient id="paint78_radial_583_1273" cx="0" cy="0" r="1" gradientUnits="userSpaceOnUse" gradientTransform="translate(629.457 326.484) rotate(68.471) scale(70.8483)">
<stop offset="0.302885" stop-color="#AAF539"/>
<stop offset="0.802885" stop-color="#51DE00"/>
</radialGradient>
<linearGradient id="paint79_linear_583_1273" x1="588.219" y1="379.236" x2="616.11" y2="452.517" gradientUnits="userSpaceOnUse">
<stop stop-color="#FDFDFD"/>
<stop offset="1" stop-color="#979797"/>
</linearGradient>
<radialGradient id="paint80_radial_583_1273" cx="0" cy="0" r="1" gradientUnits="userSpaceOnUse" gradientTransform="translate(616.009 416.449) rotate(68.471) scale(70.8483)">
<stop offset="0.302885" stop-color="#FFAF1A"/>
<stop offset="0.802885" stop-color="#FF7700"/>
</radialGradient>
<radialGradient id="paint81_radial_583_1273" cx="0" cy="0" r="1" gradientUnits="userSpaceOnUse" gradientTransform="translate(616.009 416.449) rotate(68.471) scale(70.8483)">
<stop offset="0.302885" stop-color="#63C6FF"/>
<stop offset="0.802885" stop-color="#005EFF"/>
</radialGradient>
<radialGradient id="paint82_radial_583_1273" cx="0" cy="0" r="1" gradientUnits="userSpaceOnUse" gradientTransform="translate(616.009 416.449) rotate(68.471) scale(70.8483)">
<stop offset="0.29213" stop-color="#78DAC3"/>
<stop offset="0.802885" stop-color="#00B5A6"/>
</radialGradient>
<radialGradient id="paint83_radial_583_1273" cx="0" cy="0" r="1" gradientUnits="userSpaceOnUse" gradientTransform="translate(616.009 416.449) rotate(68.471) scale(70.8483)">
<stop offset="0.302885" stop-color="#A2EF50"/>
<stop offset="0.802885" stop-color="#56E900"/>
</radialGradient>
<linearGradient id="paint84_linear_583_1273" x1="134.022" y1="62.6514" x2="161.939" y2="135.999" gradientUnits="userSpaceOnUse">
<stop stop-color="#FDFDFD"/>
<stop offset="1" stop-color="#979797"/>
</linearGradient>
<radialGradient id="paint85_radial_583_1273" cx="0" cy="0" r="1" gradientUnits="userSpaceOnUse" gradientTransform="translate(161.837 99.898) rotate(68.471) scale(70.9129)">
<stop offset="0.302885" stop-color="#F1608E"/>
<stop offset="0.802885" stop-color="#FF4245"/>
</radialGradient>
<radialGradient id="paint86_radial_583_1273" cx="0" cy="0" r="1" gradientUnits="userSpaceOnUse" gradientTransform="translate(161.837 99.898) rotate(68.471) scale(70.9129)">
<stop offset="0.302885" stop-color="#6074F1"/>
<stop offset="0.802885" stop-color="#2B22D8"/>
</radialGradient>
<linearGradient id="paint87_linear_583_1273" x1="70.0223" y1="469.305" x2="97.9388" y2="542.652" gradientUnits="userSpaceOnUse">
<stop stop-color="#FDFDFD"/>
<stop offset="1" stop-color="#979797"/>
</linearGradient>
<radialGradient id="paint88_radial_583_1273" cx="0" cy="0" r="1" gradientUnits="userSpaceOnUse" gradientTransform="translate(97.8372 506.551) rotate(68.471) scale(70.9129)">
<stop offset="0.302885" stop-color="#F16063"/>
<stop offset="0.802885" stop-color="#FF7A42"/>
</radialGradient>
<linearGradient id="paint89_linear_583_1273" x1="274.054" y1="251.886" x2="336.301" y2="415.431" gradientUnits="userSpaceOnUse">
<stop stop-color="#FDFDFD"/>
<stop offset="1" stop-color="#979797"/>
</linearGradient>
<radialGradient id="paint90_radial_583_1273" cx="0" cy="0" r="1" gradientUnits="userSpaceOnUse" gradientTransform="translate(336.074 334.936) rotate(68.471) scale(158.117)">
<stop offset="0.302885" stop-color="#63C8FF"/>
<stop offset="0.802885" stop-color="#007BFF"/>
</radialGradient>
<radialGradient id="paint91_radial_583_1273" cx="0" cy="0" r="1" gradientUnits="userSpaceOnUse" gradientTransform="translate(336.074 334.936) rotate(68.471) scale(158.117)">
<stop offset="0.408654" stop-color="#F2F2F2"/>
<stop offset="0.649038" stop-color="#CECECE"/>
</radialGradient>
<linearGradient id="paint92_linear_583_1273" x1="330.607" y1="376.348" x2="330.607" y2="425.334" gradientUnits="userSpaceOnUse">
<stop stop-color="#474747"/>
<stop offset="1" stop-color="white"/>
</linearGradient>
<linearGradient id="paint93_linear_583_1273" x1="392.23" y1="376.649" x2="392.23" y2="425.636" gradientUnits="userSpaceOnUse">
<stop stop-color="#474747"/>
<stop offset="1" stop-color="white"/>
</linearGradient>
<linearGradient id="paint94_linear_583_1273" x1="317.11" y1="304.709" x2="317.11" y2="353.695" gradientUnits="userSpaceOnUse">
<stop stop-color="#474747"/>
<stop offset="1" stop-color="white"/>
</linearGradient>
<linearGradient id="paint95_linear_583_1273" x1="418.794" y1="333.928" x2="418.794" y2="382.914" gradientUnits="userSpaceOnUse">
<stop stop-color="#474747"/>
<stop offset="1" stop-color="white"/>
</linearGradient>
<linearGradient id="paint96_linear_583_1273" x1="365.482" y1="280.221" x2="365.482" y2="329.207" gradientUnits="userSpaceOnUse">
<stop stop-color="#474747"/>
<stop offset="1" stop-color="white"/>
</linearGradient>
<radialGradient id="paint97_radial_583_1273" cx="0" cy="0" r="1" gradientUnits="userSpaceOnUse" gradientTransform="translate(337.996 335.433) rotate(90) scale(10.2491 10.3039)">
<stop offset="0.3125" stop-color="#838383"/>
<stop offset="1" stop-color="#1D1D1D"/>
</radialGradient>
<radialGradient id="paint98_radial_583_1273" cx="0" cy="0" r="1" gradientUnits="userSpaceOnUse" gradientTransform="translate(337.996 335.433) rotate(90) scale(10.2491 10.3039)">
<stop offset="0.3125" stop-color="#5EBCFF"/>
<stop offset="1" stop-color="#1A78DF"/>
</radialGradient>
<clipPath id="clip0_583_1273">
<rect width="39.489" height="70.093" fill="white" transform="translate(399.306 449.787)"/>
</clipPath>
<clipPath id="clip1_583_1273">
<rect width="53.1004" height="49.4091" fill="white" transform="translate(309.24 142.021)"/>
</clipPath>
<clipPath id="clip2_583_1273">
<rect width="57.7713" height="48.2738" fill="white" transform="translate(236.596 462.929)"/>
</clipPath>
<clipPath id="clip3_583_1273">
<rect width="64.7383" height="65.4418" fill="white" transform="translate(172.389 201.295)"/>
</clipPath>
</defs>
</svg>
