<svg width="612" height="785" viewBox="0 0 612 785" fill="none" xmlns="http://www.w3.org/2000/svg">
<rect width="612" height="785" fill="url(#paint0_radial_598_1366)"/>
<g filter="url(#filter0_d_598_1366)">
<g filter="url(#filter1_d_598_1366)">
<circle cx="387.093" cy="539.868" r="56.3771" fill="url(#paint1_linear_598_1366)"/>
<circle cx="387.093" cy="539.868" r="56.3771" fill="url(#paint2_radial_598_1366)"/>
</g>
</g>
<g clip-path="url(#clip0_598_1366)">
<path d="M387.907 567.986C398.49 567.986 407.494 562.695 407.494 552.427C407.494 542.989 400.267 539.633 391.461 537.461L385.499 536.039C380.167 534.697 375.903 532.327 375.903 527.312C375.903 521.626 381.905 518.783 387.907 518.783C394.107 518.783 398.017 521.586 399.951 526.799C400.504 528.458 401.65 529.563 403.427 529.563C405.283 529.563 406.665 528.26 406.665 526.404C406.665 523.877 404.927 520.441 402.755 518.309C399.004 514.518 393.554 512.701 387.907 512.701C377.996 512.701 369.071 517.914 369.071 527.826C369.071 536.592 376.416 540.581 384.432 542.437L390.395 543.819C396.082 545.122 400.702 547.215 400.702 552.98C400.702 559.535 394.897 561.944 387.986 561.944C381.471 561.944 376.495 559.535 374.679 553.77C374.126 552.032 373.099 551.045 371.322 551.045C369.348 551.045 368.005 552.427 368.005 554.165C368.005 557.127 369.979 560.483 372.151 562.497C376.377 566.406 382.26 567.986 387.907 567.986ZM387.749 575.41C389.013 575.41 390.04 574.383 390.04 573.159V507.607C390.04 506.383 389.013 505.356 387.749 505.356C386.486 505.356 385.459 506.383 385.459 507.607V573.159C385.459 574.383 386.486 575.41 387.749 575.41Z" fill="white"/>
</g>
<g filter="url(#filter2_d_598_1366)">
<circle cx="472.024" cy="423.973" r="56.3771" fill="url(#paint3_linear_598_1366)"/>
<circle cx="472.024" cy="423.973" r="56.3771" fill="url(#paint4_radial_598_1366)"/>
</g>
<path d="M475.326 456.309C485.145 456.309 491.141 452.816 491.141 446.721V434.167C495.194 430.542 497.567 424.776 497.567 418.483C497.567 403.623 487.879 393.705 473.481 393.705C459.115 393.705 449.493 403.425 449.493 417.923C449.493 418.714 449.526 419.373 449.592 419.999L446.429 425.633C445.539 427.248 445.078 428.862 445.078 430.312C445.078 433.047 446.726 435.287 449.493 436.111V441.02C449.493 445.963 453.052 448.368 457.467 447.874L463.134 447.314L459.774 443.722V446.721C459.774 452.783 465.639 456.309 475.326 456.309ZM475.326 451.564C468.373 451.564 464.255 449.422 464.255 445.897V442.833C464.255 442.503 464.09 442.338 463.793 442.371L456.808 443.162C455.161 443.327 454.238 442.668 454.238 440.724V432.585C454.238 432.355 454.073 432.19 453.744 432.19H452.294C450.745 432.19 449.856 431.432 449.856 430.246C449.856 429.587 450.086 428.829 450.548 428.005L454.502 420.954C454.337 419.933 454.238 418.878 454.238 417.857C454.238 406.226 461.915 398.483 473.481 398.483C485.046 398.483 492.822 406.456 492.822 418.483C492.822 424.249 490.384 429.323 486.364 431.828V445.897C486.364 449.422 482.245 451.564 475.326 451.564Z" fill="white"/>
<path d="M465.013 421.516C467.945 421.516 469.988 419.539 469.988 416.771C469.988 415.783 469.724 415.058 469.263 414.564C468.769 414.103 468.571 413.608 468.571 413.279C468.571 412.554 469.197 412.027 469.922 412.027C470.219 412.027 470.614 412.093 470.911 412.389C470.976 412.455 471.042 412.554 471.075 412.62C473.085 412.389 474.107 411.236 474.107 409.358C474.107 408.633 474.7 408.007 475.425 408.007C476.15 408.007 476.776 408.666 476.776 409.358C476.808 412.356 475.293 414.234 472.393 414.893C472.591 415.486 472.657 416.145 472.657 416.804C472.657 419.309 471.438 421.351 469.428 422.505C470.548 423.032 471.833 423.295 473.217 423.295C473.876 423.295 474.568 423.229 475.26 423.098C475.128 422.768 475.095 422.406 475.095 422.109C475.095 415.42 484.683 414.3 484.683 408.402C484.683 405.437 482.443 403.163 479.642 403.163C478.555 403.163 478.357 403.196 478.126 403.229C477.039 402.076 475.491 401.417 474.173 401.417C471.767 401.417 470.12 402.933 470.12 405.173C470.12 405.964 469.56 406.491 468.769 406.491C467.978 406.491 467.418 405.898 467.451 405.107C467.451 404.053 467.78 403.394 467.978 402.768C467.583 402.702 467.187 402.669 466.825 402.669C463.728 402.669 461.322 404.58 461.322 406.92C461.322 408.435 462.344 409.654 463.695 409.654C464.452 409.654 465.046 410.247 465.046 410.939C465.046 411.697 464.42 412.323 463.695 412.323C461.619 412.323 460.004 411.368 459.214 409.852C458.456 411.071 458.027 412.488 458.027 413.938C458.027 418.188 460.762 421.516 465.013 421.516ZM484.156 428.172C486.924 428.172 488.934 425.075 488.934 420.89C488.934 420.594 488.934 420.264 488.934 419.902C487.912 420.363 486.693 420.561 485.309 420.462C484.585 420.363 484.024 419.803 484.024 419.078C484.024 418.353 484.65 417.694 485.375 417.76C488.077 417.991 489.856 416.508 489.856 414.103C489.856 411.895 488.835 410.05 487.089 408.897C486.298 416.079 477.435 417.035 477.435 422.01C477.435 423.361 478.324 424.317 479.873 424.317H480.235C480.664 426.59 482.245 428.172 484.156 428.172Z" fill="white"/>
<g filter="url(#filter3_d_598_1366)">
<g filter="url(#filter4_d_598_1366)">
<circle cx="304.815" cy="221.377" r="56.3771" fill="url(#paint5_linear_598_1366)"/>
<circle cx="304.815" cy="221.377" r="56.3771" fill="url(#paint6_radial_598_1366)"/>
<circle cx="304.815" cy="221.377" r="56.3771" fill="url(#paint7_radial_598_1366)"/>
</g>
</g>
<g clip-path="url(#clip1_598_1366)">
<path d="M286.575 246.998H322.404C328.195 246.998 331.04 244.154 331.04 238.464V206.157C331.04 200.468 328.195 197.623 322.404 197.623H286.575C280.818 197.623 277.939 200.468 277.939 206.157V238.464C277.939 244.154 280.818 246.998 286.575 246.998ZM286.101 242.088C284.001 242.088 282.816 240.97 282.816 238.769V213.303C282.816 211.101 284.001 209.984 286.101 209.984H322.845C324.944 209.984 326.163 211.101 326.163 213.303V238.769C326.163 240.97 324.944 242.088 322.845 242.088H286.101ZM299.342 219.568H300.9C301.916 219.568 302.255 219.229 302.255 218.247V216.689C302.255 215.707 301.916 215.368 300.9 215.368H299.342C298.36 215.368 298.021 215.707 298.021 216.689V218.247C298.021 219.229 298.36 219.568 299.342 219.568ZM308.079 219.568H309.637C310.619 219.568 310.958 219.229 310.958 218.247V216.689C310.958 215.707 310.619 215.368 309.637 215.368H308.079C307.063 215.368 306.725 215.707 306.725 216.689V218.247C306.725 219.229 307.063 219.568 308.079 219.568ZM316.783 219.568H318.34C319.323 219.568 319.695 219.229 319.695 218.247V216.689C319.695 215.707 319.323 215.368 318.34 215.368H316.783C315.767 215.368 315.428 215.707 315.428 216.689V218.247C315.428 219.229 315.767 219.568 316.783 219.568ZM290.639 228.135H292.197C293.213 228.135 293.551 227.797 293.551 226.815V225.257C293.551 224.275 293.213 223.936 292.197 223.936H290.639C289.657 223.936 289.284 224.275 289.284 225.257V226.815C289.284 227.797 289.657 228.135 290.639 228.135ZM299.342 228.135H300.9C301.916 228.135 302.255 227.797 302.255 226.815V225.257C302.255 224.275 301.916 223.936 300.9 223.936H299.342C298.36 223.936 298.021 224.275 298.021 225.257V226.815C298.021 227.797 298.36 228.135 299.342 228.135ZM308.079 228.135H309.637C310.619 228.135 310.958 227.797 310.958 226.815V225.257C310.958 224.275 310.619 223.936 309.637 223.936H308.079C307.063 223.936 306.725 224.275 306.725 225.257V226.815C306.725 227.797 307.063 228.135 308.079 228.135ZM316.783 228.135H318.34C319.323 228.135 319.695 227.797 319.695 226.815V225.257C319.695 224.275 319.323 223.936 318.34 223.936H316.783C315.767 223.936 315.428 224.275 315.428 225.257V226.815C315.428 227.797 315.767 228.135 316.783 228.135ZM290.639 236.703H292.197C293.213 236.703 293.551 236.365 293.551 235.383V233.825C293.551 232.843 293.213 232.504 292.197 232.504H290.639C289.657 232.504 289.284 232.843 289.284 233.825V235.383C289.284 236.365 289.657 236.703 290.639 236.703ZM299.342 236.703H300.9C301.916 236.703 302.255 236.365 302.255 235.383V233.825C302.255 232.843 301.916 232.504 300.9 232.504H299.342C298.36 232.504 298.021 232.843 298.021 233.825V235.383C298.021 236.365 298.36 236.703 299.342 236.703ZM308.079 236.703H309.637C310.619 236.703 310.958 236.365 310.958 235.383V233.825C310.958 232.843 310.619 232.504 309.637 232.504H308.079C307.063 232.504 306.725 232.843 306.725 233.825V235.383C306.725 236.365 307.063 236.703 308.079 236.703Z" fill="white"/>
</g>
<g filter="url(#filter5_d_598_1366)">
<g filter="url(#filter6_d_598_1366)">
<circle cx="139.377" cy="428.397" r="56.3771" fill="url(#paint8_linear_598_1366)"/>
<circle cx="139.377" cy="428.397" r="56.3771" fill="url(#paint9_radial_598_1366)"/>
</g>
</g>
<path d="M146.287 408.397C149.958 408.397 152.872 405.445 152.872 401.813C152.872 398.142 149.958 395.229 146.287 395.229C142.655 395.229 139.703 398.142 139.703 401.813C139.703 405.445 142.655 408.397 146.287 408.397ZM135.995 434.583L147.461 441.054L140.044 447.373C138.417 448.811 138.53 450.589 139.476 451.649C140.46 452.746 142.239 453.087 143.941 451.611L154.31 442.756C155.748 441.583 155.521 438.934 153.78 437.799L142.541 430.42L144.736 422.663C145.039 421.566 146.325 421.414 146.969 422.36L150.261 427.204C151.055 428.339 152.493 428.793 153.78 428.188L163.316 423.95C165.056 423.193 165.7 421.679 164.943 420.128C164.186 418.614 162.71 418.16 161.045 418.917L153.477 422.247L148.293 415.057C145.568 411.349 142.239 409.797 136.676 410.213L126.081 410.97C124.378 411.084 123.243 412.219 123.016 413.922L121.578 424.669C121.313 426.523 122.259 427.847 123.924 428.036C125.627 428.188 126.724 427.204 126.989 425.35L128.275 416.608L132.476 416.306C133.384 416.23 134.292 416.836 133.951 418.009L131.53 426.636C130.054 431.745 133.384 433.107 135.995 434.583ZM115.826 460.579C116.961 461.525 118.664 461.714 120.253 460.163L129.978 450.514C130.811 449.681 131 449.492 131.492 448.243L135.541 437.761L134.519 437.194C132.286 435.945 130.659 434.734 129.562 433.372L126.005 445.897L115.902 455.963C114.274 457.552 114.653 459.52 115.826 460.579Z" fill="white"/>
<g filter="url(#filter7_d_598_1366)">
<g filter="url(#filter8_d_598_1366)">
<circle cx="233.154" cy="543.407" r="56.3771" fill="url(#paint10_linear_598_1366)"/>
<circle cx="233.154" cy="543.407" r="56.3771" fill="url(#paint11_radial_598_1366)"/>
</g>
</g>
<g clip-path="url(#clip2_598_1366)">
<path d="M230.297 550.45C228.504 550.45 227.466 549.444 227.466 547.651V545.638C220.17 545.135 212.906 543.626 205.295 540.732V536.109C214.761 540.292 224.101 541.77 234.165 541.77C244.228 541.77 253.6 540.292 263.066 536.109V540.732C255.456 543.626 248.16 545.135 240.895 545.638V547.651C240.895 549.444 239.857 550.45 238.064 550.45H230.297ZM213.283 566.74H255.047C260.425 566.74 263.066 564.162 263.066 558.878V535.103C263.066 529.82 260.425 527.241 255.047 527.241H213.283C207.968 527.241 205.295 529.82 205.295 535.103V558.878C205.295 564.162 207.968 566.74 213.283 566.74ZM221.46 529.662H225.799V525.448C225.799 523.624 226.869 522.586 228.693 522.586H239.637C241.492 522.586 242.53 523.624 242.53 525.448V529.599H246.902V525.794C246.902 520.762 244.323 518.498 239.574 518.498H228.756C224.321 518.498 221.46 520.762 221.46 525.794V529.662Z" fill="white"/>
</g>
<g filter="url(#filter9_d_598_1366)">
<circle cx="170.341" cy="285.076" r="56.3771" fill="url(#paint12_linear_598_1366)"/>
<circle cx="170.341" cy="285.076" r="56.3771" fill="url(#paint13_radial_598_1366)"/>
</g>
<g clip-path="url(#clip3_598_1366)">
<path d="M179.103 264.624L182.383 276.89C179.919 279.751 177.429 282.834 175.053 285.894C175.246 285.252 175.362 284.576 175.4 283.877C175.492 282.775 174.512 282.438 173.594 283.081C171.941 284.274 169.982 285.193 166.646 286.111C163.248 286.999 161.106 287.182 159.085 286.968C157.953 286.876 157.279 287.672 157.922 288.529C160.095 291.896 164.044 293.273 168.237 292.171C169.864 291.732 171.275 290.984 172.401 289.997C171.639 291.666 171.236 293.416 171.176 295.324C169.4 295.814 167.748 296.732 166.37 298.14C164.906 299.604 164.092 301.35 163.646 302.929C156.795 301.935 151.247 296.763 149.076 288.743L145.067 273.714C143.873 269.307 145.556 266.46 150.025 265.266L170.594 259.726C175.032 258.563 177.91 260.185 179.103 264.624ZM156.453 274.939C154.372 275.49 153.209 277.541 153.759 279.499C153.974 280.357 154.433 280.846 154.923 280.724C155.596 280.51 155.841 279.408 157.524 278.949C159.208 278.52 159.973 279.346 160.677 279.163C161.167 279.04 161.32 278.398 161.075 277.541C160.555 275.582 158.534 274.388 156.453 274.939ZM169.829 271.358C167.748 271.909 166.584 273.959 167.105 275.918C167.35 276.775 167.809 277.234 168.299 277.143C169.003 276.928 169.247 275.826 170.931 275.367C172.584 274.939 173.349 275.765 174.053 275.582C174.573 275.459 174.696 274.816 174.482 273.959C173.931 271.97 171.941 270.807 169.829 271.358Z" fill="white"/>
<path d="M194.59 269.46C193.305 270.562 185.928 277.388 179.531 285.897C185.254 286.754 190.213 290.243 192.998 295.355C198.753 285.958 201.232 276.684 201.844 274.97C203.742 269.552 198.539 266.154 194.59 269.46ZM181.428 297.559C183.449 298.967 185.193 301.109 185.836 302.885C187.795 302.242 189.264 301.079 190.55 299.212C190.795 298.875 191.039 298.508 191.254 298.14C189.142 292.6 183.418 288.591 177.51 288.529C177.235 288.866 176.99 289.233 176.745 289.57C175.46 291.437 174.878 293.212 174.909 295.233C176.806 295.233 179.408 296.151 181.428 297.559ZM161.441 314.7C166.461 319.781 175.674 320.179 180.663 315.22C184.918 310.996 185.071 305.517 181.03 301.477C177.388 297.804 171.909 297.559 168.909 300.65C165.42 304.14 167.746 307.782 165.573 309.925C163.798 311.761 162.237 311.088 161.196 312.067C160.492 312.71 160.431 313.69 161.441 314.7Z" fill="white"/>
</g>
<g filter="url(#filter10_d_598_1366)">
<circle cx="438.404" cy="285.076" r="56.3771" fill="url(#paint14_linear_598_1366)"/>
<circle cx="438.404" cy="285.076" r="56.3771" fill="url(#paint15_radial_598_1366)"/>
<circle cx="438.404" cy="285.076" r="56.3771" fill="url(#paint16_radial_598_1366)"/>
</g>
<path d="M453.238 270.745H440.9C433.299 270.745 428.935 275.256 428.935 282.71V292.518C428.935 294.948 429.401 297.068 430.304 298.814L426.164 302.522C424.84 303.723 424.104 304.287 423.025 304.287C421.481 304.287 420.623 303.208 420.623 301.541V296.637H419.912C413.88 296.637 410.717 293.401 410.717 287.442V273.197C410.717 267.239 413.88 264.002 419.912 264.002H444.259C449.397 264.002 452.454 266.368 453.238 270.745Z" fill="white"/>
<path d="M442.396 285.602C441.391 285.602 440.68 284.842 440.68 283.886C440.68 282.881 441.391 282.17 442.396 282.17H456.911C457.892 282.17 458.652 282.881 458.652 283.886C458.652 284.842 457.892 285.602 456.911 285.602H442.396ZM442.396 293.252C441.391 293.252 440.68 292.566 440.68 291.585C440.68 290.629 441.391 289.844 442.396 289.844H452.988C453.969 289.844 454.729 290.629 454.729 291.585C454.729 292.566 453.969 293.252 452.988 293.252H442.396ZM440.9 301.613H446.049L452.596 307.204C453.969 308.381 454.68 308.969 455.759 308.969C457.279 308.969 458.137 307.89 458.137 306.223V301.613H458.26C464.243 301.613 467.381 298.401 467.381 292.517V282.709C467.381 276.824 464.243 273.612 458.26 273.612H440.9C434.918 273.612 431.804 276.824 431.804 282.709V292.517C431.804 298.401 434.918 301.613 440.9 301.613Z" fill="white"/>
<g filter="url(#filter11_d_598_1366)">
<circle cx="305" cy="389" r="82" fill="url(#paint17_linear_598_1366)"/>
<circle cx="305" cy="389" r="82" fill="url(#paint18_radial_598_1366)"/>
<circle cx="305" cy="389" r="82" fill="url(#paint19_radial_598_1366)"/>
</g>
<rect x="273.544" y="436.657" width="55.9255" height="55.9255" rx="27.9627" transform="rotate(-120 273.544 436.657)" fill="white" fill-opacity="0.89"/>
<rect x="273.544" y="436.657" width="55.9255" height="55.9255" rx="27.9627" transform="rotate(-120 273.544 436.657)" stroke="url(#paint20_linear_598_1366)" stroke-width="6.93928"/>
<rect x="340.686" y="434.672" width="55.9255" height="55.9255" rx="27.9627" transform="rotate(165 340.686 434.672)" fill="white" fill-opacity="0.89"/>
<rect x="340.686" y="434.672" width="55.9255" height="55.9255" rx="27.9627" transform="rotate(165 340.686 434.672)" stroke="url(#paint21_linear_598_1366)" stroke-width="6.93928"/>
<rect x="256.577" y="359.008" width="55.9255" height="55.9255" rx="27.9627" transform="rotate(-30 256.577 359.008)" fill="white" fill-opacity="0.89"/>
<rect x="256.577" y="359.008" width="55.9255" height="55.9255" rx="27.9627" transform="rotate(-30 256.577 359.008)" stroke="url(#paint22_linear_598_1366)" stroke-width="6.93928"/>
<rect x="367.74" y="388.227" width="55.9255" height="55.9255" rx="27.9627" transform="rotate(120 367.74 388.227)" fill="white" fill-opacity="0.89"/>
<rect x="367.74" y="388.227" width="55.9255" height="55.9255" rx="27.9627" transform="rotate(120 367.74 388.227)" stroke="url(#paint23_linear_598_1366)" stroke-width="6.93928"/>
<rect x="308.419" y="331.05" width="55.9255" height="55.9255" rx="27.9627" transform="rotate(30 308.419 331.05)" fill="white" fill-opacity="0.89"/>
<rect x="308.419" y="331.05" width="55.9255" height="55.9255" rx="27.9627" transform="rotate(30 308.419 331.05)" stroke="url(#paint24_linear_598_1366)" stroke-width="6.93928"/>
<path d="M306.695 377.37C314.237 377.37 320.382 383.456 320.382 391.002C320.382 398.548 314.237 404.634 306.695 404.634C299.154 404.634 293.009 398.547 293.009 391.002C293.009 383.457 299.154 377.37 306.695 377.37Z" fill="url(#paint25_radial_598_1366)"/>
<path d="M306.695 377.37C314.237 377.37 320.382 383.456 320.382 391.002C320.382 398.548 314.237 404.634 306.695 404.634C299.154 404.634 293.009 398.547 293.009 391.002C293.009 383.457 299.154 377.37 306.695 377.37Z" fill="url(#paint26_radial_598_1366)"/>
<path d="M306.695 377.37C314.237 377.37 320.382 383.456 320.382 391.002C320.382 398.548 314.237 404.634 306.695 404.634C299.154 404.634 293.009 398.547 293.009 391.002C293.009 383.457 299.154 377.37 306.695 377.37Z" stroke="white" stroke-width="6.76891"/>
<defs>
<filter id="filter0_d_598_1366" x="309.516" y="465.291" width="157.154" height="157.154" filterUnits="userSpaceOnUse" color-interpolation-filters="sRGB">
<feFlood flood-opacity="0" result="BackgroundImageFix"/>
<feColorMatrix in="SourceAlpha" type="matrix" values="0 0 0 0 0 0 0 0 0 0 0 0 0 0 0 0 0 0 127 0" result="hardAlpha"/>
<feOffset dx="1" dy="4"/>
<feGaussianBlur stdDeviation="11.1"/>
<feComposite in2="hardAlpha" operator="out"/>
<feColorMatrix type="matrix" values="0 0 0 0 0 0 0 0 0 0.325302 0 0 0 0 0.673039 0 0 0 0.15 0"/>
<feBlend mode="normal" in2="BackgroundImageFix" result="effect1_dropShadow_598_1366"/>
<feBlend mode="normal" in="SourceGraphic" in2="effect1_dropShadow_598_1366" result="shape"/>
</filter>
<filter id="filter1_d_598_1366" x="320.668" y="477.909" width="135.081" height="135.081" filterUnits="userSpaceOnUse" color-interpolation-filters="sRGB">
<feFlood flood-opacity="0" result="BackgroundImageFix"/>
<feColorMatrix in="SourceAlpha" type="matrix" values="0 0 0 0 0 0 0 0 0 0 0 0 0 0 0 0 0 0 127 0" result="hardAlpha"/>
<feOffset dx="1.11638" dy="5.58189"/>
<feGaussianBlur stdDeviation="5.58189"/>
<feComposite in2="hardAlpha" operator="out"/>
<feColorMatrix type="matrix" values="0 0 0 0 0 0 0 0 0 0 0 0 0 0 0 0 0 0 0.1 0"/>
<feBlend mode="normal" in2="BackgroundImageFix" result="effect1_dropShadow_598_1366"/>
<feBlend mode="normal" in="SourceGraphic" in2="effect1_dropShadow_598_1366" result="shape"/>
</filter>
<filter id="filter2_d_598_1366" x="394.446" y="349.396" width="157.154" height="157.154" filterUnits="userSpaceOnUse" color-interpolation-filters="sRGB">
<feFlood flood-opacity="0" result="BackgroundImageFix"/>
<feColorMatrix in="SourceAlpha" type="matrix" values="0 0 0 0 0 0 0 0 0 0 0 0 0 0 0 0 0 0 127 0" result="hardAlpha"/>
<feOffset dx="1" dy="4"/>
<feGaussianBlur stdDeviation="11.1"/>
<feComposite in2="hardAlpha" operator="out"/>
<feColorMatrix type="matrix" values="0 0 0 0 0 0 0 0 0 0.325302 0 0 0 0 0.673039 0 0 0 0.15 0"/>
<feBlend mode="normal" in2="BackgroundImageFix" result="effect1_dropShadow_598_1366"/>
<feBlend mode="normal" in="SourceGraphic" in2="effect1_dropShadow_598_1366" result="shape"/>
</filter>
<filter id="filter3_d_598_1366" x="227.237" y="146.8" width="157.154" height="157.154" filterUnits="userSpaceOnUse" color-interpolation-filters="sRGB">
<feFlood flood-opacity="0" result="BackgroundImageFix"/>
<feColorMatrix in="SourceAlpha" type="matrix" values="0 0 0 0 0 0 0 0 0 0 0 0 0 0 0 0 0 0 127 0" result="hardAlpha"/>
<feOffset dx="1" dy="4"/>
<feGaussianBlur stdDeviation="11.1"/>
<feComposite in2="hardAlpha" operator="out"/>
<feColorMatrix type="matrix" values="0 0 0 0 0 0 0 0 0 0.325302 0 0 0 0 0.673039 0 0 0 0.15 0"/>
<feBlend mode="normal" in2="BackgroundImageFix" result="effect1_dropShadow_598_1366"/>
<feBlend mode="normal" in="SourceGraphic" in2="effect1_dropShadow_598_1366" result="shape"/>
</filter>
<filter id="filter4_d_598_1366" x="238.39" y="159.418" width="135.081" height="135.081" filterUnits="userSpaceOnUse" color-interpolation-filters="sRGB">
<feFlood flood-opacity="0" result="BackgroundImageFix"/>
<feColorMatrix in="SourceAlpha" type="matrix" values="0 0 0 0 0 0 0 0 0 0 0 0 0 0 0 0 0 0 127 0" result="hardAlpha"/>
<feOffset dx="1.11638" dy="5.58189"/>
<feGaussianBlur stdDeviation="5.58189"/>
<feComposite in2="hardAlpha" operator="out"/>
<feColorMatrix type="matrix" values="0 0 0 0 0 0 0 0 0 0 0 0 0 0 0 0 0 0 0.1 0"/>
<feBlend mode="normal" in2="BackgroundImageFix" result="effect1_dropShadow_598_1366"/>
<feBlend mode="normal" in="SourceGraphic" in2="effect1_dropShadow_598_1366" result="shape"/>
</filter>
<filter id="filter5_d_598_1366" x="61.8" y="353.82" width="157.154" height="157.154" filterUnits="userSpaceOnUse" color-interpolation-filters="sRGB">
<feFlood flood-opacity="0" result="BackgroundImageFix"/>
<feColorMatrix in="SourceAlpha" type="matrix" values="0 0 0 0 0 0 0 0 0 0 0 0 0 0 0 0 0 0 127 0" result="hardAlpha"/>
<feOffset dx="1" dy="4"/>
<feGaussianBlur stdDeviation="11.1"/>
<feComposite in2="hardAlpha" operator="out"/>
<feColorMatrix type="matrix" values="0 0 0 0 0 0 0 0 0 0.325302 0 0 0 0 0.673039 0 0 0 0.15 0"/>
<feBlend mode="normal" in2="BackgroundImageFix" result="effect1_dropShadow_598_1366"/>
<feBlend mode="normal" in="SourceGraphic" in2="effect1_dropShadow_598_1366" result="shape"/>
</filter>
<filter id="filter6_d_598_1366" x="72.9526" y="366.438" width="135.081" height="135.081" filterUnits="userSpaceOnUse" color-interpolation-filters="sRGB">
<feFlood flood-opacity="0" result="BackgroundImageFix"/>
<feColorMatrix in="SourceAlpha" type="matrix" values="0 0 0 0 0 0 0 0 0 0 0 0 0 0 0 0 0 0 127 0" result="hardAlpha"/>
<feOffset dx="1.11638" dy="5.58189"/>
<feGaussianBlur stdDeviation="5.58189"/>
<feComposite in2="hardAlpha" operator="out"/>
<feColorMatrix type="matrix" values="0 0 0 0 0 0 0 0 0 0 0 0 0 0 0 0 0 0 0.1 0"/>
<feBlend mode="normal" in2="BackgroundImageFix" result="effect1_dropShadow_598_1366"/>
<feBlend mode="normal" in="SourceGraphic" in2="effect1_dropShadow_598_1366" result="shape"/>
</filter>
<filter id="filter7_d_598_1366" x="155.577" y="468.83" width="157.154" height="157.154" filterUnits="userSpaceOnUse" color-interpolation-filters="sRGB">
<feFlood flood-opacity="0" result="BackgroundImageFix"/>
<feColorMatrix in="SourceAlpha" type="matrix" values="0 0 0 0 0 0 0 0 0 0 0 0 0 0 0 0 0 0 127 0" result="hardAlpha"/>
<feOffset dx="1" dy="4"/>
<feGaussianBlur stdDeviation="11.1"/>
<feComposite in2="hardAlpha" operator="out"/>
<feColorMatrix type="matrix" values="0 0 0 0 0 0 0 0 0 0.325302 0 0 0 0 0.673039 0 0 0 0.15 0"/>
<feBlend mode="normal" in2="BackgroundImageFix" result="effect1_dropShadow_598_1366"/>
<feBlend mode="normal" in="SourceGraphic" in2="effect1_dropShadow_598_1366" result="shape"/>
</filter>
<filter id="filter8_d_598_1366" x="166.73" y="481.448" width="135.081" height="135.081" filterUnits="userSpaceOnUse" color-interpolation-filters="sRGB">
<feFlood flood-opacity="0" result="BackgroundImageFix"/>
<feColorMatrix in="SourceAlpha" type="matrix" values="0 0 0 0 0 0 0 0 0 0 0 0 0 0 0 0 0 0 127 0" result="hardAlpha"/>
<feOffset dx="1.11638" dy="5.58189"/>
<feGaussianBlur stdDeviation="5.58189"/>
<feComposite in2="hardAlpha" operator="out"/>
<feColorMatrix type="matrix" values="0 0 0 0 0 0 0 0 0 0 0 0 0 0 0 0 0 0 0.1 0"/>
<feBlend mode="normal" in2="BackgroundImageFix" result="effect1_dropShadow_598_1366"/>
<feBlend mode="normal" in="SourceGraphic" in2="effect1_dropShadow_598_1366" result="shape"/>
</filter>
<filter id="filter9_d_598_1366" x="92.7639" y="210.499" width="157.154" height="157.154" filterUnits="userSpaceOnUse" color-interpolation-filters="sRGB">
<feFlood flood-opacity="0" result="BackgroundImageFix"/>
<feColorMatrix in="SourceAlpha" type="matrix" values="0 0 0 0 0 0 0 0 0 0 0 0 0 0 0 0 0 0 127 0" result="hardAlpha"/>
<feOffset dx="1" dy="4"/>
<feGaussianBlur stdDeviation="11.1"/>
<feComposite in2="hardAlpha" operator="out"/>
<feColorMatrix type="matrix" values="0 0 0 0 0 0 0 0 0 0.325302 0 0 0 0 0.673039 0 0 0 0.15 0"/>
<feBlend mode="normal" in2="BackgroundImageFix" result="effect1_dropShadow_598_1366"/>
<feBlend mode="normal" in="SourceGraphic" in2="effect1_dropShadow_598_1366" result="shape"/>
</filter>
<filter id="filter10_d_598_1366" x="360.827" y="210.499" width="157.154" height="157.154" filterUnits="userSpaceOnUse" color-interpolation-filters="sRGB">
<feFlood flood-opacity="0" result="BackgroundImageFix"/>
<feColorMatrix in="SourceAlpha" type="matrix" values="0 0 0 0 0 0 0 0 0 0 0 0 0 0 0 0 0 0 127 0" result="hardAlpha"/>
<feOffset dx="1" dy="4"/>
<feGaussianBlur stdDeviation="11.1"/>
<feComposite in2="hardAlpha" operator="out"/>
<feColorMatrix type="matrix" values="0 0 0 0 0 0 0 0 0 0.325302 0 0 0 0 0.673039 0 0 0 0.15 0"/>
<feBlend mode="normal" in2="BackgroundImageFix" result="effect1_dropShadow_598_1366"/>
<feBlend mode="normal" in="SourceGraphic" in2="effect1_dropShadow_598_1366" result="shape"/>
</filter>
<filter id="filter11_d_598_1366" x="208.876" y="299.153" width="195.386" height="195.386" filterUnits="userSpaceOnUse" color-interpolation-filters="sRGB">
<feFlood flood-opacity="0" result="BackgroundImageFix"/>
<feColorMatrix in="SourceAlpha" type="matrix" values="0 0 0 0 0 0 0 0 0 0 0 0 0 0 0 0 0 0 127 0" result="hardAlpha"/>
<feOffset dx="1.56931" dy="7.84655"/>
<feGaussianBlur stdDeviation="7.84655"/>
<feComposite in2="hardAlpha" operator="out"/>
<feColorMatrix type="matrix" values="0 0 0 0 0 0 0 0 0 0 0 0 0 0 0 0 0 0 0.1 0"/>
<feBlend mode="normal" in2="BackgroundImageFix" result="effect1_dropShadow_598_1366"/>
<feBlend mode="normal" in="SourceGraphic" in2="effect1_dropShadow_598_1366" result="shape"/>
</filter>
<radialGradient id="paint0_radial_598_1366" cx="0" cy="0" r="1" gradientUnits="userSpaceOnUse" gradientTransform="translate(306 393) rotate(90) scale(392 392)">
<stop stop-color="#FBFFC0"/>
<stop offset="0.451923" stop-color="#FFE8E0"/>
<stop offset="0.629708" stop-color="#EAF1FA"/>
<stop offset="0.682692" stop-color="#E7E9FF"/>
<stop offset="0.975962" stop-color="white"/>
</radialGradient>
<linearGradient id="paint1_linear_598_1366" x1="344.297" y1="483.804" x2="387.093" y2="596.245" gradientUnits="userSpaceOnUse">
<stop stop-color="#FDFDFD"/>
<stop offset="1" stop-color="#979797"/>
</linearGradient>
<radialGradient id="paint2_radial_598_1366" cx="0" cy="0" r="1" gradientUnits="userSpaceOnUse" gradientTransform="translate(386.937 540.903) rotate(68.471) scale(108.709)">
<stop offset="0.302885" stop-color="#FFCE48"/>
<stop offset="0.802885" stop-color="#FFAE00"/>
</radialGradient>
<linearGradient id="paint3_linear_598_1366" x1="429.228" y1="367.909" x2="472.024" y2="480.35" gradientUnits="userSpaceOnUse">
<stop stop-color="#FDFDFD"/>
<stop offset="1" stop-color="#979797"/>
</linearGradient>
<radialGradient id="paint4_radial_598_1366" cx="0" cy="0" r="1" gradientUnits="userSpaceOnUse" gradientTransform="translate(471.868 425.008) rotate(68.471) scale(108.709)">
<stop offset="0.302885" stop-color="#AAF539"/>
<stop offset="0.802885" stop-color="#51DE00"/>
</radialGradient>
<linearGradient id="paint5_linear_598_1366" x1="262.019" y1="165.313" x2="304.815" y2="277.754" gradientUnits="userSpaceOnUse">
<stop stop-color="#FDFDFD"/>
<stop offset="1" stop-color="#979797"/>
</linearGradient>
<radialGradient id="paint6_radial_598_1366" cx="0" cy="0" r="1" gradientUnits="userSpaceOnUse" gradientTransform="translate(304.659 222.412) rotate(68.471) scale(108.709)">
<stop offset="0.302885" stop-color="#FFAF1A"/>
<stop offset="0.802885" stop-color="#FF7700"/>
</radialGradient>
<radialGradient id="paint7_radial_598_1366" cx="0" cy="0" r="1" gradientUnits="userSpaceOnUse" gradientTransform="translate(304.659 222.412) rotate(68.471) scale(108.709)">
<stop offset="0.302885" stop-color="#63C6FF"/>
<stop offset="0.802885" stop-color="#005EFF"/>
</radialGradient>
<linearGradient id="paint8_linear_598_1366" x1="96.5811" y1="372.333" x2="139.377" y2="484.774" gradientUnits="userSpaceOnUse">
<stop stop-color="#FDFDFD"/>
<stop offset="1" stop-color="#979797"/>
</linearGradient>
<radialGradient id="paint9_radial_598_1366" cx="0" cy="0" r="1" gradientUnits="userSpaceOnUse" gradientTransform="translate(139.221 429.431) rotate(68.471) scale(108.709)">
<stop offset="0.302885" stop-color="#F1608E"/>
<stop offset="0.802885" stop-color="#FF4245"/>
</radialGradient>
<linearGradient id="paint10_linear_598_1366" x1="190.358" y1="487.343" x2="233.154" y2="599.784" gradientUnits="userSpaceOnUse">
<stop stop-color="#FDFDFD"/>
<stop offset="1" stop-color="#979797"/>
</linearGradient>
<radialGradient id="paint11_radial_598_1366" cx="0" cy="0" r="1" gradientUnits="userSpaceOnUse" gradientTransform="translate(232.999 544.442) rotate(68.471) scale(108.709)">
<stop offset="0.302885" stop-color="#FFAF1A"/>
<stop offset="0.802885" stop-color="#FF7700"/>
</radialGradient>
<linearGradient id="paint12_linear_598_1366" x1="127.545" y1="229.012" x2="170.341" y2="341.453" gradientUnits="userSpaceOnUse">
<stop stop-color="#FDFDFD"/>
<stop offset="1" stop-color="#979797"/>
</linearGradient>
<radialGradient id="paint13_radial_598_1366" cx="0" cy="0" r="1" gradientUnits="userSpaceOnUse" gradientTransform="translate(170.185 286.111) rotate(68.471) scale(108.709)">
<stop offset="0.302885" stop-color="#9860F1"/>
<stop offset="0.802885" stop-color="#5522D8"/>
</radialGradient>
<linearGradient id="paint14_linear_598_1366" x1="395.608" y1="229.012" x2="438.404" y2="341.453" gradientUnits="userSpaceOnUse">
<stop stop-color="#FDFDFD"/>
<stop offset="1" stop-color="#979797"/>
</linearGradient>
<radialGradient id="paint15_radial_598_1366" cx="0" cy="0" r="1" gradientUnits="userSpaceOnUse" gradientTransform="translate(438.249 286.111) rotate(68.471) scale(108.709)">
<stop offset="0.302885" stop-color="#FFAF1A"/>
<stop offset="0.802885" stop-color="#FF7700"/>
</radialGradient>
<radialGradient id="paint16_radial_598_1366" cx="0" cy="0" r="1" gradientUnits="userSpaceOnUse" gradientTransform="translate(438.249 286.111) rotate(68.471) scale(108.709)">
<stop offset="0.29213" stop-color="#78DAC3"/>
<stop offset="0.802885" stop-color="#00B5A6"/>
</radialGradient>
<linearGradient id="paint17_linear_598_1366" x1="242.754" y1="307.455" x2="305" y2="471" gradientUnits="userSpaceOnUse">
<stop stop-color="#FDFDFD"/>
<stop offset="1" stop-color="#979797"/>
</linearGradient>
<radialGradient id="paint18_radial_598_1366" cx="0" cy="0" r="1" gradientUnits="userSpaceOnUse" gradientTransform="translate(304.774 390.505) rotate(68.471) scale(158.117)">
<stop offset="0.302885" stop-color="#63C8FF"/>
<stop offset="0.802885" stop-color="#007BFF"/>
</radialGradient>
<radialGradient id="paint19_radial_598_1366" cx="0" cy="0" r="1" gradientUnits="userSpaceOnUse" gradientTransform="translate(304.774 390.505) rotate(68.471) scale(158.117)">
<stop offset="0.408654" stop-color="#F2F2F2"/>
<stop offset="0.649038" stop-color="#CECECE"/>
</radialGradient>
<linearGradient id="paint20_linear_598_1366" x1="299.307" y1="431.917" x2="299.307" y2="480.903" gradientUnits="userSpaceOnUse">
<stop stop-color="#474747"/>
<stop offset="1" stop-color="white"/>
</linearGradient>
<linearGradient id="paint21_linear_598_1366" x1="360.93" y1="432.219" x2="360.93" y2="481.205" gradientUnits="userSpaceOnUse">
<stop stop-color="#474747"/>
<stop offset="1" stop-color="white"/>
</linearGradient>
<linearGradient id="paint22_linear_598_1366" x1="285.809" y1="360.278" x2="285.809" y2="409.264" gradientUnits="userSpaceOnUse">
<stop stop-color="#474747"/>
<stop offset="1" stop-color="white"/>
</linearGradient>
<linearGradient id="paint23_linear_598_1366" x1="387.493" y1="389.497" x2="387.493" y2="438.483" gradientUnits="userSpaceOnUse">
<stop stop-color="#474747"/>
<stop offset="1" stop-color="white"/>
</linearGradient>
<linearGradient id="paint24_linear_598_1366" x1="334.182" y1="335.79" x2="334.182" y2="384.776" gradientUnits="userSpaceOnUse">
<stop stop-color="#474747"/>
<stop offset="1" stop-color="white"/>
</linearGradient>
<radialGradient id="paint25_radial_598_1366" cx="0" cy="0" r="1" gradientUnits="userSpaceOnUse" gradientTransform="translate(306.696 391.002) rotate(90) scale(10.2491 10.3039)">
<stop offset="0.3125" stop-color="#838383"/>
<stop offset="1" stop-color="#1D1D1D"/>
</radialGradient>
<radialGradient id="paint26_radial_598_1366" cx="0" cy="0" r="1" gradientUnits="userSpaceOnUse" gradientTransform="translate(306.696 391.002) rotate(90) scale(10.2491 10.3039)">
<stop offset="0.3125" stop-color="#5EBCFF"/>
<stop offset="1" stop-color="#1A78DF"/>
</radialGradient>
<clipPath id="clip0_598_1366">
<rect width="39.489" height="70.093" fill="white" transform="translate(368.005 505.356)"/>
</clipPath>
<clipPath id="clip1_598_1366">
<rect width="53.1004" height="49.4091" fill="white" transform="translate(277.939 197.591)"/>
</clipPath>
<clipPath id="clip2_598_1366">
<rect width="57.7713" height="48.2738" fill="white" transform="translate(205.295 518.498)"/>
</clipPath>
<clipPath id="clip3_598_1366">
<rect width="64.7383" height="65.4418" fill="white" transform="translate(141.088 256.864)"/>
</clipPath>
</defs>
</svg>
