<svg width="42" height="24" viewBox="0 0 42 24" fill="none" xmlns="http://www.w3.org/2000/svg">
<path d="M12.8701 14.6401C10.9968 16.2761 9.94038 18.3663 9.94038 20.2507C9.94038 20.803 10.0731 21.3203 10.326 21.7701H2.07328C0.553821 21.7701 0 21.1737 0 20.1655C0 17.0982 3.15252 13.3634 8.17951 13.3634C10.0151 13.3634 11.6002 13.8586 12.8701 14.6401ZM12.0847 7.3566C12.0847 9.77069 10.2528 11.6594 8.17951 11.6594C6.12043 11.6594 4.27436 9.77069 4.27436 7.3708C4.27436 4.97091 6.12043 3.18164 8.17951 3.18164C10.2528 3.18164 12.0847 4.91411 12.0847 7.3566Z" fill="white"/>
<path d="M42.0062 20.1655C42.0062 21.1737 41.4523 21.7701 39.9329 21.7701H31.666C31.9189 21.3203 32.0516 20.803 32.0516 20.2507C32.0516 18.3675 30.9964 16.2787 29.127 14.6432C30.3957 13.8599 31.9795 13.3634 33.8124 13.3634C38.8536 13.3634 42.0062 17.0982 42.0062 20.1655ZM37.7176 7.3566C37.7176 9.77069 35.8857 11.6594 33.8124 11.6594C31.7534 11.6594 29.9073 9.77069 29.9073 7.3708C29.9073 4.97091 31.7534 3.18164 33.8124 3.18164C35.8715 3.18164 37.7176 4.91411 37.7176 7.3566Z" fill="white"/>
<path d="M21.0033 11.4037C23.3748 11.4037 25.4765 9.2452 25.4765 6.46189C25.4765 3.67859 23.3748 1.66211 21.0033 1.66211C18.6318 1.66211 16.5159 3.72119 16.5159 6.49029C16.5159 9.2452 18.6176 11.4037 21.0033 11.4037ZM13.5764 21.7701H28.416C29.6514 21.7701 30.3899 21.2021 30.3899 20.2506C30.3899 17.3679 26.7829 13.3918 21.0033 13.3918C15.2095 13.3918 11.6025 17.3679 11.6025 20.2506C11.6025 21.2021 12.341 21.7701 13.5764 21.7701Z" fill="white"/>
</svg>
