<svg width="936" height="237" viewBox="0 0 936 237" fill="none" xmlns="http://www.w3.org/2000/svg">
<mask id="path-1-inside-1_2238_739" fill="white">
<path d="M0 80.5083C0 52.3278 0 38.2375 5.4843 27.474C10.3084 18.0061 18.0061 10.3084 27.474 5.4843C38.2375 0 52.3278 0 80.5084 0H854.913C883.094 0 897.184 0 907.948 5.4843C917.416 10.3084 925.113 18.0061 929.937 27.474C935.422 38.2375 935.422 52.3278 935.422 80.5084V156.148C935.422 184.328 935.422 198.419 929.937 209.182C925.113 218.65 917.416 226.348 907.948 231.172C897.184 236.656 883.094 236.656 854.913 236.656H80.5083C52.3278 236.656 38.2375 236.656 27.474 231.172C18.0061 226.348 10.3084 218.65 5.4843 209.182C0 198.419 0 184.328 0 156.148V80.5083Z"/>
</mask>
<path d="M0 80.5083C0 52.3278 0 38.2375 5.4843 27.474C10.3084 18.0061 18.0061 10.3084 27.474 5.4843C38.2375 0 52.3278 0 80.5084 0H854.913C883.094 0 897.184 0 907.948 5.4843C917.416 10.3084 925.113 18.0061 929.937 27.474C935.422 38.2375 935.422 52.3278 935.422 80.5084V156.148C935.422 184.328 935.422 198.419 929.937 209.182C925.113 218.65 917.416 226.348 907.948 231.172C897.184 236.656 883.094 236.656 854.913 236.656H80.5083C52.3278 236.656 38.2375 236.656 27.474 231.172C18.0061 226.348 10.3084 218.65 5.4843 209.182C0 198.419 0 184.328 0 156.148V80.5083Z" fill="white"/>
<path d="M0 0H935.422H0ZM939.447 186.338C939.447 215.795 915.567 239.675 886.11 239.675H53.3368C23.8797 239.675 0 215.795 0 186.338C0 212.461 22.528 233.637 50.3177 233.637H885.104C910.67 233.637 931.396 212.461 931.396 186.338H939.447ZM0 236.656V0V236.656ZM885.104 0C915.117 0 939.447 24.3303 939.447 54.3432V186.338C939.447 215.795 915.567 239.675 886.11 239.675L885.104 233.637C910.67 233.637 931.396 212.461 931.396 186.338V50.3177C931.396 22.528 910.67 0 885.104 0Z" fill="white" style="mix-blend-mode:overlay" mask="url(#path-1-inside-1_2238_739)"/>
<g opacity="0.8">
<path d="M223.121 83.8887L216.506 59.2222H221.087L225.378 77.8374H225.463L230.403 59.2222H234.403L239.343 77.8374H239.429L243.72 59.2222H248.284L241.685 83.8887H237.429L232.455 66.1794H232.352L227.378 83.8887H223.121ZM251.249 83.8887V59.2222H255.505V68.8119H255.591C256.07 67.7178 256.782 66.8745 257.728 66.282C258.685 65.6894 259.836 65.3931 261.181 65.3931C262.491 65.3931 263.625 65.6951 264.582 66.2991C265.54 66.8916 266.28 67.7292 266.804 68.8119C267.329 69.8831 267.591 71.148 267.591 72.6067V83.8887H263.334V73.4443C263.334 72.054 262.998 70.9657 262.326 70.1794C261.654 69.3817 260.708 68.9828 259.488 68.9828C258.691 68.9828 257.99 69.1765 257.386 69.564C256.793 69.9401 256.332 70.4643 256.001 71.1366C255.671 71.7976 255.505 72.5668 255.505 73.4443V83.8887H251.249ZM279.343 84.2476C277.531 84.2476 275.969 83.8659 274.659 83.1024C273.36 82.3388 272.363 81.2562 271.667 79.8545C270.972 78.4528 270.625 76.7947 270.625 74.8802V74.8631C270.625 72.96 270.972 71.3019 271.667 69.8888C272.374 68.4643 273.36 67.3589 274.625 66.5726C275.901 65.7862 277.405 65.3931 279.137 65.3931C280.858 65.3931 282.345 65.7748 283.599 66.5384C284.864 67.2905 285.832 68.3503 286.505 69.7178C287.189 71.0853 287.53 72.6808 287.53 74.5041V75.8716H272.727V73.034H285.496L283.445 75.6836V74.0426C283.445 72.8574 283.263 71.8717 282.898 71.0853C282.533 70.299 282.032 69.7121 281.394 69.3247C280.756 68.9258 280.021 68.7264 279.189 68.7264C278.345 68.7264 277.593 68.9315 276.932 69.3418C276.283 69.7406 275.77 70.3389 275.394 71.1366C275.029 71.9343 274.847 72.903 274.847 74.0426V75.6836C274.847 76.789 275.029 77.7349 275.394 78.5212C275.77 79.2961 276.3 79.8944 276.984 80.316C277.667 80.7263 278.482 80.9314 279.428 80.9314C280.135 80.9314 280.756 80.8232 281.291 80.6066C281.827 80.3787 282.266 80.0881 282.607 79.7349C282.961 79.3816 283.206 78.9998 283.342 78.5896L283.377 78.4699H287.342L287.308 78.6579C287.16 79.3531 286.887 80.0368 286.488 80.7092C286.089 81.3702 285.553 81.9685 284.881 82.5041C284.209 83.0397 283.411 83.467 282.488 83.7861C281.565 84.0938 280.516 84.2476 279.343 84.2476ZM297.316 84.2476C295.436 84.2476 294.034 83.8374 293.111 83.0169C292.2 82.1964 291.744 80.8517 291.744 78.9827V69.0512H289.18V65.7691H291.744V61.1709H296.069V65.7691H299.436V69.0512H296.069V78.6408C296.069 79.5183 296.262 80.128 296.65 80.4699C297.049 80.8004 297.63 80.9656 298.393 80.9656C298.61 80.9656 298.798 80.9599 298.957 80.9485C299.128 80.9257 299.288 80.9086 299.436 80.8972V84.0938C299.185 84.128 298.878 84.1622 298.513 84.1964C298.16 84.2305 297.761 84.2476 297.316 84.2476ZM302.829 83.8887V59.2222H307.085V68.8119H307.171C307.649 67.7178 308.362 66.8745 309.307 66.282C310.265 65.6894 311.416 65.3931 312.76 65.3931C314.071 65.3931 315.205 65.6951 316.162 66.2991C317.119 66.8916 317.86 67.7292 318.384 68.8119C318.908 69.8831 319.171 71.148 319.171 72.6067V83.8887H314.914V73.4443C314.914 72.054 314.578 70.9657 313.906 70.1794C313.233 69.3817 312.287 68.9828 311.068 68.9828C310.27 68.9828 309.57 69.1765 308.966 69.564C308.373 69.9401 307.911 70.4643 307.581 71.1366C307.25 71.7976 307.085 72.5668 307.085 73.4443V83.8887H302.829ZM330.922 84.2476C329.11 84.2476 327.549 83.8659 326.239 83.1024C324.939 82.3388 323.942 81.2562 323.247 79.8545C322.552 78.4528 322.204 76.7947 322.204 74.8802V74.8631C322.204 72.96 322.552 71.3019 323.247 69.8888C323.954 68.4643 324.939 67.3589 326.204 66.5726C327.481 65.7862 328.985 65.3931 330.717 65.3931C332.438 65.3931 333.925 65.7748 335.179 66.5384C336.444 67.2905 337.412 68.3503 338.085 69.7178C338.768 71.0853 339.11 72.6808 339.11 74.5041V75.8716H324.307V73.034H337.076L335.025 75.6836V74.0426C335.025 72.8574 334.843 71.8717 334.478 71.0853C334.113 70.299 333.612 69.7121 332.974 69.3247C332.335 68.9258 331.6 68.7264 330.768 68.7264C329.925 68.7264 329.173 68.9315 328.512 69.3418C327.862 69.7406 327.35 70.3389 326.974 71.1366C326.609 71.9343 326.427 72.903 326.427 74.0426V75.6836C326.427 76.789 326.609 77.7349 326.974 78.5212C327.35 79.2961 327.88 79.8944 328.563 80.316C329.247 80.7263 330.062 80.9314 331.008 80.9314C331.714 80.9314 332.335 80.8232 332.871 80.6066C333.407 80.3787 333.845 80.0881 334.187 79.7349C334.541 79.3816 334.786 78.9998 334.922 78.5896L334.956 78.4699H338.922L338.888 78.6579C338.74 79.3531 338.466 80.0368 338.068 80.7092C337.669 81.3702 337.133 81.9685 336.461 82.5041C335.788 83.0397 334.991 83.467 334.068 83.7861C333.145 84.0938 332.096 84.2476 330.922 84.2476ZM342.178 83.8887V65.7691H346.418V68.8973H346.52C346.794 67.8033 347.289 66.9486 348.007 66.3332C348.737 65.7065 349.626 65.3931 350.674 65.3931C350.936 65.3931 351.187 65.4102 351.426 65.4444C351.665 65.4785 351.865 65.5184 352.024 65.564V69.4101C351.853 69.3418 351.608 69.2848 351.289 69.2392C350.982 69.1936 350.645 69.1708 350.281 69.1708C349.483 69.1708 348.794 69.3361 348.212 69.6666C347.631 69.9856 347.187 70.4586 346.879 71.0853C346.571 71.7121 346.418 72.4756 346.418 73.3759V83.8887H342.178ZM368.126 84.2476C366.793 84.2476 365.659 83.9798 364.724 83.4442C363.801 82.8972 363.095 82.1166 362.605 81.1024C362.115 80.0881 361.87 78.8859 361.87 77.4956V65.7691H366.109V76.6409C366.109 77.9286 366.411 78.9257 367.015 79.6323C367.619 80.3274 368.531 80.675 369.75 80.675C370.354 80.675 370.901 80.5725 371.391 80.3673C371.892 80.1508 372.32 79.8488 372.673 79.4614C373.026 79.0739 373.294 78.6124 373.477 78.0767C373.659 77.5297 373.75 76.9258 373.75 76.2648V65.7691H378.006V83.8887H373.75V81.0511H373.665C373.345 81.6893 372.93 82.2534 372.417 82.7434C371.904 83.222 371.289 83.5924 370.571 83.8545C369.853 84.1166 369.038 84.2476 368.126 84.2476ZM388.938 84.2476C387.354 84.2476 385.997 84.014 384.869 83.5468C383.752 83.0796 382.875 82.4243 382.237 81.581C381.61 80.7263 381.228 79.7406 381.092 78.6238L381.074 78.4699H385.262L385.297 78.6238C385.456 79.4101 385.832 80.0198 386.425 80.4528C387.029 80.8858 387.872 81.1024 388.955 81.1024C389.65 81.1024 390.242 81.0169 390.732 80.846C391.223 80.675 391.599 80.4243 391.861 80.0938C392.134 79.7633 392.271 79.3759 392.271 78.9314V78.9143C392.271 78.3787 392.089 77.9457 391.724 77.6152C391.359 77.2733 390.704 76.9941 389.758 76.7776L386.75 76.1109C385.599 75.8488 384.636 75.4899 383.861 75.034C383.086 74.5782 382.505 74.0141 382.117 73.3417C381.73 72.658 381.536 71.866 381.536 70.9657V70.9486C381.536 69.8432 381.838 68.8745 382.442 68.0426C383.046 67.2107 383.895 66.5612 384.989 66.0939C386.083 65.6267 387.354 65.3931 388.801 65.3931C390.305 65.3931 391.593 65.6438 392.664 66.1452C393.735 66.6466 394.562 67.319 395.143 68.1623C395.735 69.0056 396.054 69.9514 396.1 70.9999L396.117 71.1879H392.151L392.134 71.0512C392.043 70.3218 391.713 69.7235 391.143 69.2563C390.573 68.7777 389.792 68.5384 388.801 68.5384C388.174 68.5384 387.627 68.6295 387.16 68.8119C386.704 68.9942 386.351 69.2506 386.1 69.5811C385.861 69.9116 385.741 70.299 385.741 70.7435V70.7606C385.741 71.1024 385.827 71.4101 385.997 71.6836C386.168 71.9571 386.442 72.1964 386.818 72.4016C387.194 72.5953 387.695 72.7662 388.322 72.9144L391.331 73.5811C393.211 74.0027 394.55 74.6067 395.348 75.393C396.146 76.1679 396.544 77.2107 396.544 78.5212V78.5383C396.544 79.6779 396.22 80.6807 395.57 81.5468C394.92 82.4015 394.02 83.0682 392.869 83.5468C391.73 84.014 390.419 84.2476 388.938 84.2476ZM407.578 84.2476C405.766 84.2476 404.205 83.8659 402.894 83.1024C401.595 82.3388 400.598 81.2562 399.903 79.8545C399.208 78.4528 398.86 76.7947 398.86 74.8802V74.8631C398.86 72.96 399.208 71.3019 399.903 69.8888C400.61 68.4643 401.595 67.3589 402.86 66.5726C404.137 65.7862 405.641 65.3931 407.373 65.3931C409.094 65.3931 410.581 65.7748 411.835 66.5384C413.099 67.2905 414.068 68.3503 414.741 69.7178C415.424 71.0853 415.766 72.6808 415.766 74.5041V75.8716H400.963V73.034H413.732L411.681 75.6836V74.0426C411.681 72.8574 411.498 71.8717 411.134 71.0853C410.769 70.299 410.268 69.7121 409.629 69.3247C408.991 68.9258 408.256 68.7264 407.424 68.7264C406.581 68.7264 405.829 68.9315 405.168 69.3418C404.518 69.7406 404.006 70.3389 403.629 71.1366C403.265 71.9343 403.082 72.903 403.082 74.0426V75.6836C403.082 76.789 403.265 77.7349 403.629 78.5212C404.006 79.2961 404.535 79.8944 405.219 80.316C405.903 80.7263 406.718 80.9314 407.664 80.9314C408.37 80.9314 408.991 80.8232 409.527 80.6066C410.062 80.3787 410.501 80.0881 410.843 79.7349C411.196 79.3816 411.441 78.9998 411.578 78.5896L411.612 78.4699H415.578L415.544 78.6579C415.396 79.3531 415.122 80.0368 414.723 80.7092C414.325 81.3702 413.789 81.9685 413.117 82.5041C412.444 83.0397 411.647 83.467 410.723 83.7861C409.8 84.0938 408.752 84.2476 407.578 84.2476ZM418.834 83.8887V65.7691H423.073V68.8973H423.176C423.45 67.8033 423.945 66.9486 424.663 66.3332C425.393 65.7065 426.281 65.3931 427.33 65.3931C427.592 65.3931 427.843 65.4102 428.082 65.4444C428.321 65.4785 428.521 65.5184 428.68 65.564V69.4101C428.509 69.3418 428.264 69.2848 427.945 69.2392C427.638 69.1936 427.301 69.1708 426.937 69.1708C426.139 69.1708 425.45 69.3361 424.868 69.6666C424.287 69.9856 423.843 70.4586 423.535 71.0853C423.227 71.7121 423.073 72.4756 423.073 73.3759V83.8887H418.834ZM438.295 84.2476C436.711 84.2476 435.355 84.014 434.227 83.5468C433.11 83.0796 432.233 82.4243 431.594 81.581C430.968 80.7263 430.586 79.7406 430.449 78.6238L430.432 78.4699H434.62L434.654 78.6238C434.814 79.4101 435.19 80.0198 435.782 80.4528C436.386 80.8858 437.23 81.1024 438.312 81.1024C439.007 81.1024 439.6 81.0169 440.09 80.846C440.58 80.675 440.956 80.4243 441.218 80.0938C441.492 79.7633 441.629 79.3759 441.629 78.9314V78.9143C441.629 78.3787 441.446 77.9457 441.082 77.6152C440.717 77.2733 440.062 76.9941 439.116 76.7776L436.107 76.1109C434.956 75.8488 433.993 75.4899 433.218 75.034C432.443 74.5782 431.862 74.0141 431.475 73.3417C431.087 72.658 430.894 71.866 430.894 70.9657V70.9486C430.894 69.8432 431.196 68.8745 431.8 68.0426C432.404 67.2107 433.253 66.5612 434.347 66.0939C435.441 65.6267 436.711 65.3931 438.158 65.3931C439.663 65.3931 440.95 65.6438 442.022 66.1452C443.093 66.6466 443.919 67.319 444.5 68.1623C445.093 69.0056 445.412 69.9514 445.458 70.9999L445.475 71.1879H441.509L441.492 71.0512C441.401 70.3218 441.07 69.7235 440.5 69.2563C439.931 68.7777 439.15 68.5384 438.158 68.5384C437.532 68.5384 436.985 68.6295 436.517 68.8119C436.062 68.9942 435.708 69.2506 435.458 69.5811C435.218 69.9116 435.099 70.299 435.099 70.7435V70.7606C435.099 71.1024 435.184 71.4101 435.355 71.6836C435.526 71.9571 435.8 72.1964 436.176 72.4016C436.552 72.5953 437.053 72.7662 437.68 72.9144L440.688 73.5811C442.569 74.0027 443.908 74.6067 444.705 75.393C445.503 76.1679 445.902 77.2107 445.902 78.5212V78.5383C445.902 79.6779 445.577 80.6807 444.928 81.5468C444.278 82.4015 443.378 83.0682 442.227 83.5468C441.087 84.014 439.777 84.2476 438.295 84.2476ZM461.713 84.1964C460.517 84.1964 459.457 83.9684 458.534 83.5126C457.622 83.0454 456.91 82.4015 456.397 81.581C455.896 80.7491 455.645 79.7975 455.645 78.7263V78.6921C455.645 77.6095 455.913 76.6864 456.448 75.9229C456.995 75.148 457.782 74.5383 458.807 74.0939C459.833 73.638 461.075 73.3645 462.534 73.2734L469.457 72.846V75.6665L463.132 76.0597C462.084 76.128 461.28 76.3788 460.722 76.8118C460.163 77.2448 459.884 77.8203 459.884 78.5383V78.5554C459.884 79.2961 460.163 79.883 460.722 80.316C461.292 80.7377 462.044 80.9485 462.978 80.9485C463.799 80.9485 464.528 80.7833 465.166 80.4528C465.816 80.1223 466.329 79.6722 466.705 79.1024C467.081 78.5326 467.269 77.8887 467.269 77.1708V71.7349C467.269 70.8232 466.978 70.1053 466.397 69.5811C465.827 69.0455 465.001 68.7777 463.918 68.7777C462.915 68.7777 462.112 68.9942 461.508 69.4272C460.904 69.8489 460.528 70.3959 460.38 71.0683L460.346 71.2221H456.414L456.431 71.017C456.522 69.9458 456.881 68.9885 457.508 68.1452C458.135 67.2905 459.001 66.6181 460.106 66.1281C461.223 65.6381 462.545 65.3931 464.072 65.3931C465.588 65.3931 466.898 65.6438 468.004 66.1452C469.121 66.6466 469.981 67.3475 470.585 68.2478C471.2 69.148 471.508 70.2079 471.508 71.4272V83.8887H467.269V81.1024H467.166C466.824 81.7291 466.38 82.2761 465.833 82.7434C465.286 83.2106 464.659 83.5696 463.952 83.8203C463.257 84.071 462.511 84.1964 461.713 84.1964ZM475.311 83.8887V65.7691H479.55V68.8973H479.653C479.926 67.8033 480.422 66.9486 481.14 66.3332C481.869 65.7065 482.758 65.3931 483.807 65.3931C484.069 65.3931 484.32 65.4102 484.559 65.4444C484.798 65.4785 484.998 65.5184 485.157 65.564V69.4101C484.986 69.3418 484.741 69.2848 484.422 69.2392C484.114 69.1936 483.778 69.1708 483.414 69.1708C482.616 69.1708 481.926 69.3361 481.345 69.6666C480.764 69.9856 480.32 70.4586 480.012 71.0853C479.704 71.7121 479.55 72.4756 479.55 73.3759V83.8887H475.311ZM494.977 84.2476C493.165 84.2476 491.604 83.8659 490.293 83.1024C488.994 82.3388 487.997 81.2562 487.302 79.8545C486.607 78.4528 486.259 76.7947 486.259 74.8802V74.8631C486.259 72.96 486.607 71.3019 487.302 69.8888C488.009 68.4643 488.994 67.3589 490.259 66.5726C491.536 65.7862 493.04 65.3931 494.772 65.3931C496.493 65.3931 497.98 65.7748 499.234 66.5384C500.499 67.2905 501.467 68.3503 502.14 69.7178C502.823 71.0853 503.165 72.6808 503.165 74.5041V75.8716H488.362V73.034H501.131L499.08 75.6836V74.0426C499.08 72.8574 498.897 71.8717 498.533 71.0853C498.168 70.299 497.667 69.7121 497.028 69.3247C496.39 68.9258 495.655 68.7264 494.823 68.7264C493.98 68.7264 493.228 68.9315 492.567 69.3418C491.917 69.7406 491.405 70.3389 491.029 71.1366C490.664 71.9343 490.482 72.903 490.482 74.0426V75.6836C490.482 76.789 490.664 77.7349 491.029 78.5212C491.405 79.2961 491.935 79.8944 492.618 80.316C493.302 80.7263 494.117 80.9314 495.063 80.9314C495.769 80.9314 496.39 80.8232 496.926 80.6066C497.462 80.3787 497.9 80.0881 498.242 79.7349C498.595 79.3816 498.84 78.9998 498.977 78.5896L499.011 78.4699H502.977L502.943 78.6579C502.795 79.3531 502.521 80.0368 502.122 80.7092C501.724 81.3702 501.188 81.9685 500.516 82.5041C499.843 83.0397 499.046 83.467 498.122 83.7861C497.199 84.0938 496.151 84.2476 494.977 84.2476ZM518.976 84.1964C517.78 84.1964 516.72 83.9684 515.797 83.5126C514.885 83.0454 514.173 82.4015 513.66 81.581C513.159 80.7491 512.908 79.7975 512.908 78.7263V78.6921C512.908 77.6095 513.176 76.6864 513.711 75.9229C514.258 75.148 515.045 74.5383 516.07 74.0939C517.096 73.638 518.338 73.3645 519.797 73.2734L526.72 72.846V75.6665L520.395 76.0597C519.347 76.128 518.543 76.3788 517.985 76.8118C517.427 77.2448 517.147 77.8203 517.147 78.5383V78.5554C517.147 79.2961 517.427 79.883 517.985 80.316C518.555 80.7377 519.307 80.9485 520.241 80.9485C521.062 80.9485 521.791 80.7833 522.429 80.4528C523.079 80.1223 523.592 79.6722 523.968 79.1024C524.344 78.5326 524.532 77.8887 524.532 77.1708V71.7349C524.532 70.8232 524.241 70.1053 523.66 69.5811C523.09 69.0455 522.264 68.7777 521.181 68.7777C520.179 68.7777 519.375 68.9942 518.771 69.4272C518.167 69.8489 517.791 70.3959 517.643 71.0683L517.609 71.2221H513.677L513.694 71.017C513.786 69.9458 514.144 68.9885 514.771 68.1452C515.398 67.2905 516.264 66.6181 517.37 66.1281C518.486 65.6381 519.808 65.3931 521.335 65.3931C522.851 65.3931 524.161 65.6438 525.267 66.1452C526.384 66.6466 527.244 67.3475 527.848 68.2478C528.463 69.148 528.771 70.2079 528.771 71.4272V83.8887H524.532V81.1024H524.429C524.087 81.7291 523.643 82.2761 523.096 82.7434C522.549 83.2106 521.922 83.5696 521.216 83.8203C520.521 84.071 519.774 84.1964 518.976 84.1964ZM536.061 83.8887L531.138 65.7691H535.412L538.472 79.6836H538.557L542.095 65.7691H546.164L549.719 79.6836H549.805L552.865 65.7691H557.07L552.181 83.8887H547.702L544.13 70.6409H544.044L540.489 83.8887H536.061ZM564.394 84.1964C563.198 84.1964 562.138 83.9684 561.215 83.5126C560.303 83.0454 559.591 82.4015 559.078 81.581C558.577 80.7491 558.326 79.7975 558.326 78.7263V78.6921C558.326 77.6095 558.594 76.6864 559.129 75.9229C559.676 75.148 560.463 74.5383 561.488 74.0939C562.514 73.638 563.756 73.3645 565.215 73.2734L572.138 72.846V75.6665L565.813 76.0597C564.765 76.128 563.961 76.3788 563.403 76.8118C562.844 77.2448 562.565 77.8203 562.565 78.5383V78.5554C562.565 79.2961 562.844 79.883 563.403 80.316C563.972 80.7377 564.725 80.9485 565.659 80.9485C566.48 80.9485 567.209 80.7833 567.847 80.4528C568.497 80.1223 569.009 79.6722 569.386 79.1024C569.762 78.5326 569.95 77.8887 569.95 77.1708V71.7349C569.95 70.8232 569.659 70.1053 569.078 69.5811C568.508 69.0455 567.682 68.7777 566.599 68.7777C565.596 68.7777 564.793 68.9942 564.189 69.4272C563.585 69.8489 563.209 70.3959 563.061 71.0683L563.027 71.2221H559.095L559.112 71.017C559.203 69.9458 559.562 68.9885 560.189 68.1452C560.816 67.2905 561.682 66.6181 562.787 66.1281C563.904 65.6381 565.226 65.3931 566.753 65.3931C568.269 65.3931 569.579 65.6438 570.685 66.1452C571.801 66.6466 572.662 67.3475 573.266 68.2478C573.881 69.148 574.189 70.2079 574.189 71.4272V83.8887H569.95V81.1024H569.847C569.505 81.7291 569.061 82.2761 568.514 82.7434C567.967 83.2106 567.34 83.5696 566.633 83.8203C565.938 84.071 565.192 84.1964 564.394 84.1964ZM577.992 83.8887V65.7691H582.231V68.8973H582.334C582.607 67.8033 583.103 66.9486 583.821 66.3332C584.55 65.7065 585.439 65.3931 586.488 65.3931C586.75 65.3931 587 65.4102 587.24 65.4444C587.479 65.4785 587.679 65.5184 587.838 65.564V69.4101C587.667 69.3418 587.422 69.2848 587.103 69.2392C586.795 69.1936 586.459 69.1708 586.094 69.1708C585.297 69.1708 584.607 69.3361 584.026 69.6666C583.445 69.9856 583.001 70.4586 582.693 71.0853C582.385 71.7121 582.231 72.4756 582.231 73.3759V83.8887H577.992ZM597.658 84.2476C595.846 84.2476 594.285 83.8659 592.974 83.1024C591.675 82.3388 590.678 81.2562 589.983 79.8545C589.288 78.4528 588.94 76.7947 588.94 74.8802V74.8631C588.94 72.96 589.288 71.3019 589.983 69.8888C590.69 68.4643 591.675 67.3589 592.94 66.5726C594.217 65.7862 595.721 65.3931 597.453 65.3931C599.174 65.3931 600.661 65.7748 601.915 66.5384C603.18 67.2905 604.148 68.3503 604.821 69.7178C605.504 71.0853 605.846 72.6808 605.846 74.5041V75.8716H591.043V73.034H603.812L601.761 75.6836V74.0426C601.761 72.8574 601.578 71.8717 601.214 71.0853C600.849 70.299 600.348 69.7121 599.709 69.3247C599.071 68.9258 598.336 68.7264 597.504 68.7264C596.661 68.7264 595.909 68.9315 595.248 69.3418C594.598 69.7406 594.086 70.3389 593.709 71.1366C593.345 71.9343 593.162 72.903 593.162 74.0426V75.6836C593.162 76.789 593.345 77.7349 593.709 78.5212C594.086 79.2961 594.615 79.8944 595.299 80.316C595.983 80.7263 596.798 80.9314 597.744 80.9314C598.45 80.9314 599.071 80.8232 599.607 80.6066C600.142 80.3787 600.581 80.0881 600.923 79.7349C601.276 79.3816 601.521 78.9998 601.658 78.5896L601.692 78.4699H605.658L605.624 78.6579C605.476 79.3531 605.202 80.0368 604.803 80.7092C604.405 81.3702 603.869 81.9685 603.197 82.5041C602.524 83.0397 601.727 83.467 600.803 83.7861C599.88 84.0938 598.832 84.2476 597.658 84.2476ZM225.532 128.248C223.754 128.248 222.21 127.872 220.899 127.119C219.589 126.356 218.569 125.273 217.839 123.872C217.121 122.459 216.762 120.778 216.762 118.829V118.795C216.762 116.857 217.127 115.188 217.856 113.786C218.586 112.373 219.606 111.29 220.916 110.538C222.227 109.775 223.76 109.393 225.515 109.393C227.281 109.393 228.819 109.775 230.13 110.538C231.452 111.29 232.477 112.367 233.207 113.769C233.936 115.171 234.301 116.846 234.301 118.795V118.829C234.301 120.789 233.936 122.476 233.207 123.889C232.489 125.29 231.475 126.367 230.164 127.119C228.854 127.872 227.309 128.248 225.532 128.248ZM225.549 124.812C226.449 124.812 227.23 124.578 227.891 124.111C228.552 123.644 229.059 122.966 229.412 122.077C229.777 121.176 229.959 120.094 229.959 118.829V118.795C229.959 117.541 229.777 116.47 229.412 115.581C229.047 114.692 228.529 114.014 227.856 113.547C227.195 113.08 226.415 112.846 225.515 112.846C224.637 112.846 223.862 113.08 223.19 113.547C222.529 114.014 222.01 114.692 221.634 115.581C221.27 116.47 221.087 117.541 221.087 118.795V118.829C221.087 120.094 221.27 121.176 221.634 122.077C222.01 122.966 222.529 123.644 223.19 124.111C223.862 124.578 224.648 124.812 225.549 124.812ZM238.565 127.889V113.051H236.087V109.769H238.565V108.043C238.565 106.857 238.759 105.883 239.147 105.12C239.545 104.356 240.155 103.792 240.976 103.427C241.796 103.051 242.862 102.863 244.172 102.863C244.594 102.863 245.01 102.88 245.42 102.914C245.842 102.949 246.184 102.989 246.446 103.034V106.008C246.263 105.986 246.058 105.969 245.83 105.957C245.614 105.934 245.392 105.923 245.164 105.923C244.332 105.923 243.716 106.111 243.317 106.487C242.93 106.863 242.736 107.422 242.736 108.162V109.769H246.377V113.051H242.822V127.889H238.565ZM263.641 128.248C261.761 128.248 260.359 127.837 259.436 127.017C258.525 126.196 258.069 124.852 258.069 122.983V113.051H255.505V109.769H258.069V105.171H262.394V109.769H265.761V113.051H262.394V122.641C262.394 123.518 262.587 124.128 262.975 124.47C263.374 124.8 263.955 124.966 264.718 124.966C264.935 124.966 265.123 124.96 265.282 124.949C265.453 124.926 265.613 124.909 265.761 124.897V128.094C265.51 128.128 265.203 128.162 264.838 128.196C264.485 128.231 264.086 128.248 263.641 128.248ZM269.154 127.889V103.222H273.41V112.812H273.496C273.974 111.718 274.687 110.875 275.632 110.282C276.59 109.689 277.741 109.393 279.085 109.393C280.396 109.393 281.53 109.695 282.487 110.299C283.444 110.892 284.185 111.729 284.709 112.812C285.234 113.883 285.496 115.148 285.496 116.607V127.889H281.239V117.444C281.239 116.054 280.903 114.966 280.231 114.179C279.558 113.382 278.612 112.983 277.393 112.983C276.595 112.983 275.895 113.177 275.291 113.564C274.698 113.94 274.236 114.464 273.906 115.137C273.575 115.798 273.41 116.567 273.41 117.444V127.889H269.154ZM297.247 128.248C295.435 128.248 293.874 127.866 292.564 127.102C291.264 126.339 290.267 125.256 289.572 123.855C288.877 122.453 288.529 120.795 288.529 118.88V118.863C288.529 116.96 288.877 115.302 289.572 113.889C290.279 112.464 291.264 111.359 292.529 110.573C293.806 109.786 295.31 109.393 297.042 109.393C298.763 109.393 300.25 109.775 301.504 110.538C302.769 111.29 303.737 112.35 304.41 113.718C305.093 115.085 305.435 116.681 305.435 118.504V119.872H290.632V117.034H303.401L301.35 119.684V118.043C301.35 116.857 301.168 115.872 300.803 115.085C300.438 114.299 299.937 113.712 299.299 113.325C298.66 112.926 297.925 112.726 297.093 112.726C296.25 112.726 295.498 112.932 294.837 113.342C294.188 113.741 293.675 114.339 293.299 115.137C292.934 115.934 292.752 116.903 292.752 118.043V119.684C292.752 120.789 292.934 121.735 293.299 122.521C293.675 123.296 294.205 123.894 294.888 124.316C295.572 124.726 296.387 124.931 297.333 124.931C298.039 124.931 298.66 124.823 299.196 124.607C299.732 124.379 300.17 124.088 300.512 123.735C300.866 123.382 301.111 123 301.247 122.59L301.281 122.47H305.247L305.213 122.658C305.065 123.353 304.791 124.037 304.393 124.709C303.994 125.37 303.458 125.968 302.786 126.504C302.113 127.04 301.316 127.467 300.393 127.786C299.47 128.094 298.421 128.248 297.247 128.248Z" fill="black" fill-opacity="0.8"/>
<path d="M313.862 127.889L317.776 109.513H322.494L321.982 112.077H322.084C322.574 111.234 323.224 110.55 324.033 110.026C324.853 109.501 325.793 109.239 326.853 109.239C327.343 109.239 327.782 109.285 328.17 109.376C328.557 109.456 328.893 109.564 329.178 109.701L328.221 114.179C327.913 114.031 327.537 113.906 327.093 113.803C326.648 113.689 326.181 113.632 325.691 113.632C324.825 113.632 324.067 113.798 323.417 114.128C322.779 114.447 322.249 114.926 321.828 115.564C321.406 116.202 321.087 116.994 320.87 117.94L318.751 127.889H313.862ZM328.588 127.889L332.485 109.513H337.374L333.477 127.889H328.588ZM336.024 107.085C335.306 107.085 334.69 106.829 334.178 106.316C333.676 105.792 333.426 105.171 333.426 104.453C333.426 103.735 333.676 103.12 334.178 102.607C334.69 102.083 335.306 101.82 336.024 101.82C336.753 101.82 337.369 102.083 337.87 102.607C338.371 103.12 338.622 103.735 338.622 104.453C338.622 105.171 338.371 105.792 337.87 106.316C337.369 106.829 336.753 107.085 336.024 107.085ZM340.323 114.983C340.323 113.82 340.636 112.8 341.263 111.923C341.901 111.034 342.79 110.345 343.929 109.855C345.069 109.365 346.402 109.12 347.929 109.12C349.388 109.12 350.676 109.37 351.793 109.872C352.909 110.373 353.787 111.074 354.425 111.974C355.075 112.863 355.416 113.889 355.451 115.051H351.006C350.972 114.584 350.813 114.168 350.528 113.803C350.254 113.439 349.889 113.159 349.434 112.966C348.978 112.761 348.454 112.658 347.861 112.658C347.268 112.658 346.756 112.738 346.323 112.897C345.901 113.057 345.57 113.279 345.331 113.564C345.103 113.837 344.989 114.162 344.989 114.538C344.989 115.017 345.177 115.404 345.553 115.701C345.929 115.997 346.619 116.305 347.622 116.624L349.451 117.239C351.16 117.798 352.379 118.464 353.109 119.239C353.838 120.003 354.203 120.994 354.203 122.213C354.203 123.41 353.867 124.47 353.194 125.393C352.533 126.305 351.61 127.017 350.425 127.53C349.24 128.043 347.861 128.299 346.288 128.299C344.682 128.299 343.274 128.043 342.066 127.53C340.858 127.017 339.912 126.299 339.229 125.376C338.556 124.453 338.197 123.387 338.152 122.179H342.835C342.927 122.931 343.286 123.547 343.912 124.025C344.55 124.504 345.394 124.743 346.442 124.743C347.023 124.743 347.531 124.658 347.964 124.487C348.408 124.316 348.75 124.077 348.989 123.769C349.229 123.461 349.348 123.114 349.348 122.726C349.348 122.293 349.172 121.94 348.818 121.666C348.465 121.393 347.798 121.102 346.818 120.795L345.194 120.248C343.508 119.689 342.271 118.988 341.485 118.145C340.71 117.302 340.323 116.248 340.323 114.983ZM361.1 127.889H356.211L361.476 103.222H366.348L363.493 116.538H363.596L371.202 109.513H376.98L368.348 117.376L373.544 127.889H368.228L364.433 120.162L362.399 121.906L361.1 127.889ZM377.228 114.983C377.228 113.82 377.541 112.8 378.168 111.923C378.806 111.034 379.695 110.345 380.834 109.855C381.974 109.365 383.307 109.12 384.834 109.12C386.293 109.12 387.581 109.37 388.698 109.872C389.814 110.373 390.692 111.074 391.33 111.974C391.98 112.863 392.322 113.889 392.356 115.051H387.911C387.877 114.584 387.718 114.168 387.433 113.803C387.159 113.439 386.795 113.159 386.339 112.966C385.883 112.761 385.359 112.658 384.766 112.658C384.173 112.658 383.661 112.738 383.228 112.897C382.806 113.057 382.475 113.279 382.236 113.564C382.008 113.837 381.894 114.162 381.894 114.538C381.894 115.017 382.082 115.404 382.458 115.701C382.834 115.997 383.524 116.305 384.527 116.624L386.356 117.239C388.065 117.798 389.285 118.464 390.014 119.239C390.743 120.003 391.108 120.994 391.108 122.213C391.108 123.41 390.772 124.47 390.099 125.393C389.438 126.305 388.515 127.017 387.33 127.53C386.145 128.043 384.766 128.299 383.193 128.299C381.587 128.299 380.179 128.043 378.971 127.53C377.763 127.017 376.817 126.299 376.134 125.376C375.461 124.453 375.102 123.387 375.057 122.179H379.74C379.832 122.931 380.191 123.547 380.817 124.025C381.456 124.504 382.299 124.743 383.347 124.743C383.928 124.743 384.436 124.658 384.869 124.487C385.313 124.316 385.655 124.077 385.894 123.769C386.134 123.461 386.253 123.114 386.253 122.726C386.253 122.293 386.077 121.94 385.723 121.666C385.37 121.393 384.703 121.102 383.723 120.795L382.099 120.248C380.413 119.689 379.176 118.988 378.39 118.145C377.615 117.302 377.228 116.248 377.228 114.983ZM410.457 128.248C408.68 128.248 407.136 127.872 405.825 127.119C404.514 126.356 403.495 125.273 402.765 123.872C402.047 122.459 401.688 120.778 401.688 118.829V118.795C401.688 116.857 402.053 115.188 402.782 113.786C403.512 112.373 404.532 111.29 405.842 110.538C407.153 109.775 408.685 109.393 410.44 109.393C412.207 109.393 413.745 109.775 415.056 110.538C416.378 111.29 417.403 112.367 418.133 113.769C418.862 115.171 419.227 116.846 419.227 118.795V118.829C419.227 120.789 418.862 122.476 418.133 123.889C417.415 125.29 416.4 126.367 415.09 127.119C413.779 127.872 412.235 128.248 410.457 128.248ZM410.475 124.812C411.375 124.812 412.155 124.578 412.816 124.111C413.477 123.644 413.985 122.966 414.338 122.077C414.702 121.176 414.885 120.094 414.885 118.829V118.795C414.885 117.541 414.702 116.47 414.338 115.581C413.973 114.692 413.455 114.014 412.782 113.547C412.121 113.08 411.341 112.846 410.44 112.846C409.563 112.846 408.788 113.08 408.116 113.547C407.455 114.014 406.936 114.692 406.56 115.581C406.195 116.47 406.013 117.541 406.013 118.795V118.829C406.013 120.094 406.195 121.176 406.56 122.077C406.936 122.966 407.455 123.644 408.116 124.111C408.788 124.578 409.574 124.812 410.475 124.812ZM423.491 127.889V113.051H421.013V109.769H423.491V108.043C423.491 106.857 423.685 105.883 424.072 105.12C424.471 104.356 425.081 103.792 425.901 103.427C426.722 103.051 427.787 102.863 429.098 102.863C429.52 102.863 429.936 102.88 430.346 102.914C430.768 102.949 431.109 102.989 431.372 103.034V106.008C431.189 105.986 430.984 105.969 430.756 105.957C430.54 105.934 430.317 105.923 430.089 105.923C429.258 105.923 428.642 106.111 428.243 106.487C427.856 106.863 427.662 107.422 427.662 108.162V109.769H431.303V113.051H427.748V127.889H423.491ZM448.567 128.248C446.687 128.248 445.285 127.837 444.362 127.017C443.451 126.196 442.995 124.852 442.995 122.983V113.051H440.431V109.769H442.995V105.171H447.319V109.769H450.687V113.051H447.319V122.641C447.319 123.518 447.513 124.128 447.901 124.47C448.299 124.8 448.881 124.966 449.644 124.966C449.861 124.966 450.049 124.96 450.208 124.949C450.379 124.926 450.539 124.909 450.687 124.897V128.094C450.436 128.128 450.129 128.162 449.764 128.196C449.411 128.231 449.012 128.248 448.567 128.248ZM453.96 127.889V109.769H458.199V112.897H458.302C458.575 111.803 459.071 110.949 459.789 110.333C460.518 109.706 461.407 109.393 462.456 109.393C462.718 109.393 462.969 109.41 463.208 109.444C463.447 109.479 463.647 109.518 463.806 109.564V113.41C463.635 113.342 463.39 113.285 463.071 113.239C462.763 113.194 462.427 113.171 462.063 113.171C461.265 113.171 460.575 113.336 459.994 113.667C459.413 113.986 458.969 114.459 458.661 115.085C458.353 115.712 458.199 116.476 458.199 117.376V127.889H453.96ZM471.284 128.196C470.088 128.196 469.028 127.968 468.105 127.513C467.193 127.045 466.481 126.402 465.968 125.581C465.467 124.749 465.216 123.798 465.216 122.726V122.692C465.216 121.61 465.484 120.686 466.019 119.923C466.566 119.148 467.353 118.538 468.378 118.094C469.404 117.638 470.646 117.365 472.105 117.273L479.028 116.846V119.667L472.703 120.06C471.655 120.128 470.851 120.379 470.293 120.812C469.735 121.245 469.455 121.82 469.455 122.538V122.555C469.455 123.296 469.735 123.883 470.293 124.316C470.863 124.738 471.615 124.949 472.549 124.949C473.37 124.949 474.099 124.783 474.737 124.453C475.387 124.122 475.9 123.672 476.276 123.102C476.652 122.533 476.84 121.889 476.84 121.171V115.735C476.84 114.823 476.549 114.105 475.968 113.581C475.398 113.045 474.572 112.778 473.489 112.778C472.487 112.778 471.683 112.994 471.079 113.427C470.475 113.849 470.099 114.396 469.951 115.068L469.917 115.222H465.985L466.002 115.017C466.094 113.946 466.453 112.988 467.079 112.145C467.706 111.29 468.572 110.618 469.678 110.128C470.794 109.638 472.116 109.393 473.643 109.393C475.159 109.393 476.47 109.644 477.575 110.145C478.692 110.647 479.552 111.347 480.156 112.248C480.771 113.148 481.079 114.208 481.079 115.427V127.889H476.84V125.102H476.737C476.395 125.729 475.951 126.276 475.404 126.743C474.857 127.211 474.23 127.57 473.524 127.82C472.829 128.071 472.082 128.196 471.284 128.196ZM491.617 128.248C490.09 128.248 488.763 127.872 487.634 127.119C486.518 126.356 485.651 125.268 485.036 123.855C484.432 122.441 484.13 120.766 484.13 118.829V118.812C484.13 116.863 484.438 115.188 485.053 113.786C485.669 112.373 486.535 111.29 487.651 110.538C488.768 109.775 490.084 109.393 491.6 109.393C492.466 109.393 493.258 109.536 493.976 109.82C494.706 110.094 495.349 110.493 495.908 111.017C496.466 111.53 496.916 112.151 497.258 112.88H497.361V103.222H501.6V127.889H497.361V124.812H497.258C496.928 125.53 496.483 126.145 495.925 126.658C495.378 127.159 494.74 127.552 494.01 127.837C493.292 128.111 492.495 128.248 491.617 128.248ZM492.899 124.675C493.777 124.675 494.552 124.436 495.224 123.957C495.896 123.478 496.421 122.8 496.797 121.923C497.173 121.045 497.361 120.014 497.361 118.829V118.812C497.361 117.627 497.167 116.601 496.78 115.735C496.404 114.857 495.879 114.179 495.207 113.701C494.546 113.222 493.777 112.983 492.899 112.983C491.988 112.983 491.196 113.222 490.523 113.701C489.862 114.168 489.349 114.835 488.985 115.701C488.632 116.567 488.455 117.604 488.455 118.812V118.829C488.455 120.025 488.632 121.063 488.985 121.94C489.349 122.817 489.862 123.496 490.523 123.974C491.196 124.441 491.988 124.675 492.899 124.675ZM505.66 127.889V109.769H509.916V127.889H505.66ZM507.779 107.171C507.118 107.171 506.56 106.943 506.104 106.487C505.648 106.031 505.42 105.484 505.42 104.846C505.42 104.197 505.648 103.65 506.104 103.205C506.56 102.749 507.118 102.521 507.779 102.521C508.452 102.521 509.016 102.749 509.471 103.205C509.927 103.65 510.155 104.197 510.155 104.846C510.155 105.484 509.927 106.031 509.471 106.487C509.016 106.943 508.452 107.171 507.779 107.171ZM513.89 127.889V109.769H518.129V112.607H518.232C518.699 111.627 519.394 110.846 520.317 110.265C521.252 109.684 522.403 109.393 523.77 109.393C525.764 109.393 527.303 109.997 528.386 111.205C529.48 112.413 530.027 114.065 530.027 116.162V127.889H525.77V117.017C525.77 115.729 525.468 114.738 524.864 114.043C524.26 113.336 523.354 112.983 522.146 112.983C521.337 112.983 520.631 113.171 520.027 113.547C519.423 113.912 518.955 114.424 518.625 115.085C518.294 115.735 518.129 116.498 518.129 117.376V127.889H513.89ZM541.966 134.231C540.371 134.231 538.975 134.008 537.778 133.564C536.593 133.131 535.647 132.533 534.941 131.769C534.234 131.005 533.795 130.151 533.624 129.205L533.59 129.051H537.761L537.83 129.188C538.057 129.712 538.525 130.145 539.231 130.487C539.949 130.84 540.855 131.017 541.949 131.017C543.339 131.017 544.405 130.675 545.146 129.991C545.886 129.307 546.257 128.39 546.257 127.239V124.624H546.171C545.841 125.273 545.396 125.832 544.838 126.299C544.291 126.766 543.647 127.131 542.906 127.393C542.177 127.655 541.379 127.786 540.513 127.786C538.998 127.786 537.676 127.416 536.548 126.675C535.431 125.934 534.565 124.886 533.949 123.53C533.345 122.162 533.043 120.538 533.043 118.658V118.641C533.043 116.726 533.351 115.085 533.966 113.718C534.593 112.339 535.471 111.273 536.599 110.521C537.727 109.769 539.055 109.393 540.582 109.393C541.436 109.393 542.223 109.541 542.941 109.838C543.659 110.122 544.285 110.521 544.821 111.034C545.368 111.547 545.812 112.151 546.154 112.846H546.257V109.769H550.513V127.376C550.513 128.743 550.166 129.94 549.47 130.966C548.775 132.003 547.79 132.806 546.513 133.376C545.237 133.946 543.721 134.231 541.966 134.231ZM541.847 124.504C542.736 124.504 543.51 124.27 544.171 123.803C544.832 123.325 545.345 122.652 545.71 121.786C546.086 120.92 546.274 119.906 546.274 118.743V118.726C546.274 117.553 546.086 116.538 545.71 115.684C545.334 114.818 544.815 114.151 544.154 113.684C543.493 113.216 542.724 112.983 541.847 112.983C540.935 112.983 540.143 113.216 539.471 113.684C538.798 114.151 538.28 114.812 537.915 115.667C537.55 116.521 537.368 117.541 537.368 118.726V118.743C537.368 119.929 537.55 120.954 537.915 121.82C538.28 122.675 538.798 123.336 539.471 123.803C540.143 124.27 540.935 124.504 541.847 124.504ZM225.515 172.248C223.725 172.248 222.176 171.866 220.865 171.102C219.554 170.339 218.54 169.251 217.822 167.837C217.116 166.424 216.762 164.749 216.762 162.812V162.795C216.762 160.869 217.121 159.205 217.839 157.803C218.557 156.39 219.566 155.302 220.865 154.538C222.176 153.775 223.708 153.393 225.463 153.393C227.059 153.393 228.438 153.701 229.6 154.316C230.762 154.92 231.674 155.724 232.335 156.726C232.996 157.729 233.372 158.835 233.463 160.043V160.162H229.463L229.429 160.026C229.258 159.148 228.842 158.402 228.181 157.786C227.532 157.159 226.643 156.846 225.515 156.846C224.626 156.846 223.845 157.091 223.173 157.581C222.512 158.06 221.999 158.743 221.634 159.632C221.27 160.521 221.087 161.587 221.087 162.829V162.846C221.087 164.1 221.27 165.171 221.634 166.06C222.01 166.949 222.529 167.632 223.19 168.111C223.862 168.578 224.643 168.812 225.532 168.812C226.614 168.812 227.486 168.521 228.147 167.94C228.819 167.347 229.252 166.578 229.446 165.632L229.48 165.478H233.497L233.48 165.598C233.366 166.852 232.967 167.98 232.284 168.983C231.6 169.986 230.683 170.783 229.532 171.376C228.381 171.957 227.042 172.248 225.515 172.248ZM244.411 172.248C242.634 172.248 241.09 171.872 239.779 171.119C238.468 170.356 237.449 169.273 236.719 167.872C236.001 166.459 235.642 164.778 235.642 162.829V162.795C235.642 160.857 236.007 159.188 236.736 157.786C237.466 156.373 238.486 155.29 239.796 154.538C241.107 153.775 242.639 153.393 244.394 153.393C246.161 153.393 247.699 153.775 249.01 154.538C250.332 155.29 251.357 156.367 252.087 157.769C252.816 159.171 253.181 160.846 253.181 162.795V162.829C253.181 164.789 252.816 166.476 252.087 167.889C251.369 169.29 250.354 170.367 249.044 171.119C247.733 171.872 246.189 172.248 244.411 172.248ZM244.429 168.812C245.329 168.812 246.109 168.578 246.77 168.111C247.431 167.644 247.939 166.966 248.292 166.077C248.656 165.176 248.839 164.094 248.839 162.829V162.795C248.839 161.541 248.656 160.47 248.292 159.581C247.927 158.692 247.409 158.014 246.736 157.547C246.075 157.08 245.295 156.846 244.394 156.846C243.517 156.846 242.742 157.08 242.07 157.547C241.409 158.014 240.89 158.692 240.514 159.581C240.149 160.47 239.967 161.541 239.967 162.795V162.829C239.967 164.094 240.149 165.176 240.514 166.077C240.89 166.966 241.409 167.644 242.07 168.111C242.742 168.578 243.528 168.812 244.429 168.812ZM256.266 171.889V153.769H260.505V156.607H260.608C261.075 155.627 261.77 154.846 262.693 154.265C263.628 153.684 264.779 153.393 266.146 153.393C268.14 153.393 269.679 153.997 270.761 155.205C271.855 156.413 272.402 158.065 272.402 160.162V171.889H268.146V161.017C268.146 159.729 267.844 158.738 267.24 158.043C266.636 157.336 265.73 156.983 264.522 156.983C263.713 156.983 263.006 157.171 262.402 157.547C261.798 157.912 261.331 158.424 261.001 159.085C260.67 159.735 260.505 160.498 260.505 161.376V171.889H256.266ZM282.889 172.248C281.009 172.248 279.607 171.837 278.684 171.017C277.772 170.196 277.317 168.852 277.317 166.983V157.051H274.752V153.769H277.317V149.171H281.641V153.769H285.009V157.051H281.641V166.641C281.641 167.518 281.835 168.128 282.222 168.47C282.621 168.8 283.203 168.966 283.966 168.966C284.183 168.966 284.371 168.96 284.53 168.949C284.701 168.926 284.861 168.909 285.009 168.897V172.094C284.758 172.128 284.45 172.162 284.086 172.196C283.732 172.231 283.334 172.248 282.889 172.248ZM288.282 171.889V153.769H292.521V156.897H292.624C292.897 155.803 293.393 154.949 294.111 154.333C294.84 153.706 295.729 153.393 296.778 153.393C297.04 153.393 297.29 153.41 297.53 153.444C297.769 153.479 297.968 153.518 298.128 153.564V157.41C297.957 157.342 297.712 157.285 297.393 157.239C297.085 157.194 296.749 157.171 296.384 157.171C295.587 157.171 294.897 157.336 294.316 157.667C293.735 157.986 293.29 158.459 292.983 159.085C292.675 159.712 292.521 160.476 292.521 161.376V171.889H288.282ZM307.999 172.248C306.222 172.248 304.677 171.872 303.367 171.119C302.056 170.356 301.036 169.273 300.307 167.872C299.589 166.459 299.23 164.778 299.23 162.829V162.795C299.23 160.857 299.595 159.188 300.324 157.786C301.054 156.373 302.074 155.29 303.384 154.538C304.695 153.775 306.227 153.393 307.982 153.393C309.749 153.393 311.287 153.775 312.598 154.538C313.92 155.29 314.945 156.367 315.675 157.769C316.404 159.171 316.769 160.846 316.769 162.795V162.829C316.769 164.789 316.404 166.476 315.675 167.889C314.957 169.29 313.942 170.367 312.632 171.119C311.321 171.872 309.777 172.248 307.999 172.248ZM308.016 168.812C308.917 168.812 309.697 168.578 310.358 168.111C311.019 167.644 311.526 166.966 311.88 166.077C312.244 165.176 312.427 164.094 312.427 162.829V162.795C312.427 161.541 312.244 160.47 311.88 159.581C311.515 158.692 310.997 158.014 310.324 157.547C309.663 157.08 308.883 156.846 307.982 156.846C307.105 156.846 306.33 157.08 305.658 157.547C304.997 158.014 304.478 158.692 304.102 159.581C303.737 160.47 303.555 161.541 303.555 162.795V162.829C303.555 164.094 303.737 165.176 304.102 166.077C304.478 166.966 304.997 167.644 305.658 168.111C306.33 168.578 307.116 168.812 308.016 168.812ZM319.973 171.889V147.222H324.23V171.889H319.973ZM336.776 171.889V157.051H334.297V153.769H336.776V152.043C336.776 150.857 336.97 149.883 337.357 149.12C337.756 148.356 338.366 147.792 339.186 147.427C340.007 147.051 341.072 146.863 342.383 146.863C342.804 146.863 343.22 146.88 343.631 146.914C344.052 146.949 344.394 146.989 344.656 147.034V150.008C344.474 149.986 344.269 149.969 344.041 149.957C343.824 149.934 343.602 149.923 343.374 149.923C342.542 149.923 341.927 150.111 341.528 150.487C341.141 150.863 340.947 151.422 340.947 152.162V153.769H344.588V157.051H341.032V171.889H336.776ZM354.322 172.248C352.545 172.248 351.001 171.872 349.69 171.119C348.38 170.356 347.36 169.273 346.63 167.872C345.912 166.459 345.553 164.778 345.553 162.829V162.795C345.553 160.857 345.918 159.188 346.647 157.786C347.377 156.373 348.397 155.29 349.707 154.538C351.018 153.775 352.55 153.393 354.305 153.393C356.072 153.393 357.61 153.775 358.921 154.538C360.243 155.29 361.268 156.367 361.998 157.769C362.727 159.171 363.092 160.846 363.092 162.795V162.829C363.092 164.789 362.727 166.476 361.998 167.889C361.28 169.29 360.265 170.367 358.955 171.119C357.644 171.872 356.1 172.248 354.322 172.248ZM354.34 168.812C355.24 168.812 356.02 168.578 356.681 168.111C357.342 167.644 357.85 166.966 358.203 166.077C358.567 165.176 358.75 164.094 358.75 162.829V162.795C358.75 161.541 358.567 160.47 358.203 159.581C357.838 158.692 357.32 158.014 356.647 157.547C355.986 157.08 355.206 156.846 354.305 156.846C353.428 156.846 352.653 157.08 351.981 157.547C351.32 158.014 350.801 158.692 350.425 159.581C350.06 160.47 349.878 161.541 349.878 162.795V162.829C349.878 164.094 350.06 165.176 350.425 166.077C350.801 166.966 351.32 167.644 351.981 168.111C352.653 168.578 353.439 168.812 354.34 168.812ZM366.177 171.889V153.769H370.416V156.897H370.519C370.792 155.803 371.288 154.949 372.006 154.333C372.735 153.706 373.624 153.393 374.672 153.393C374.935 153.393 375.185 153.41 375.425 153.444C375.664 153.479 375.863 153.518 376.023 153.564V157.41C375.852 157.342 375.607 157.285 375.288 157.239C374.98 157.194 374.644 157.171 374.279 157.171C373.482 157.171 372.792 157.336 372.211 157.667C371.63 157.986 371.185 158.459 370.878 159.085C370.57 159.712 370.416 160.476 370.416 161.376V171.889H366.177ZM391.304 172.196C390.108 172.196 389.048 171.968 388.125 171.513C387.213 171.045 386.501 170.402 385.988 169.581C385.486 168.749 385.236 167.798 385.236 166.726V166.692C385.236 165.61 385.504 164.686 386.039 163.923C386.586 163.148 387.373 162.538 388.398 162.094C389.424 161.638 390.666 161.365 392.125 161.273L399.048 160.846V163.667L392.723 164.06C391.674 164.128 390.871 164.379 390.313 164.812C389.754 165.245 389.475 165.82 389.475 166.538V166.555C389.475 167.296 389.754 167.883 390.313 168.316C390.882 168.738 391.635 168.949 392.569 168.949C393.39 168.949 394.119 168.783 394.757 168.453C395.407 168.122 395.919 167.672 396.296 167.102C396.672 166.533 396.86 165.889 396.86 165.171V159.735C396.86 158.823 396.569 158.105 395.988 157.581C395.418 157.045 394.592 156.778 393.509 156.778C392.506 156.778 391.703 156.994 391.099 157.427C390.495 157.849 390.119 158.396 389.971 159.068L389.937 159.222H386.005L386.022 159.017C386.113 157.946 386.472 156.988 387.099 156.145C387.726 155.29 388.592 154.618 389.697 154.128C390.814 153.638 392.136 153.393 393.663 153.393C395.179 153.393 396.489 153.644 397.595 154.145C398.711 154.647 399.572 155.347 400.176 156.248C400.791 157.148 401.099 158.208 401.099 159.427V171.889H396.86V169.102H396.757C396.415 169.729 395.971 170.276 395.424 170.743C394.877 171.211 394.25 171.57 393.543 171.82C392.848 172.071 392.102 172.196 391.304 172.196ZM411.073 172.248C409.74 172.248 408.606 171.98 407.671 171.444C406.748 170.897 406.042 170.117 405.552 169.102C405.061 168.088 404.816 166.886 404.816 165.496V153.769H409.056V164.641C409.056 165.929 409.358 166.926 409.962 167.632C410.566 168.327 411.477 168.675 412.697 168.675C413.301 168.675 413.848 168.572 414.338 168.367C414.839 168.151 415.267 167.849 415.62 167.461C415.973 167.074 416.241 166.612 416.423 166.077C416.606 165.53 416.697 164.926 416.697 164.265V153.769H420.953V171.889H416.697V169.051H416.611C416.292 169.689 415.876 170.253 415.363 170.743C414.851 171.222 414.235 171.592 413.517 171.854C412.799 172.117 411.985 172.248 411.073 172.248ZM431.525 172.248C429.645 172.248 428.243 171.837 427.32 171.017C426.409 170.196 425.953 168.852 425.953 166.983V157.051H423.389V153.769H425.953V149.171H430.277V153.769H433.645V157.051H430.277V166.641C430.277 167.518 430.471 168.128 430.859 168.47C431.258 168.8 431.839 168.966 432.602 168.966C432.819 168.966 433.007 168.96 433.166 168.949C433.337 168.926 433.497 168.909 433.645 168.897V172.094C433.394 172.128 433.087 172.162 432.722 172.196C432.369 172.231 431.97 172.248 431.525 172.248ZM444.593 172.248C442.816 172.248 441.271 171.872 439.961 171.119C438.65 170.356 437.63 169.273 436.901 167.872C436.183 166.459 435.824 164.778 435.824 162.829V162.795C435.824 160.857 436.189 159.188 436.918 157.786C437.647 156.373 438.667 155.29 439.978 154.538C441.288 153.775 442.821 153.393 444.576 153.393C446.343 153.393 447.881 153.775 449.192 154.538C450.513 155.29 451.539 156.367 452.268 157.769C452.998 159.171 453.362 160.846 453.362 162.795V162.829C453.362 164.789 452.998 166.476 452.268 167.889C451.551 169.29 450.536 170.367 449.226 171.119C447.915 171.872 446.371 172.248 444.593 172.248ZM444.61 168.812C445.511 168.812 446.291 168.578 446.952 168.111C447.613 167.644 448.12 166.966 448.474 166.077C448.838 165.176 449.021 164.094 449.021 162.829V162.795C449.021 161.541 448.838 160.47 448.474 159.581C448.109 158.692 447.59 158.014 446.918 157.547C446.257 157.08 445.476 156.846 444.576 156.846C443.699 156.846 442.924 157.08 442.251 157.547C441.59 158.014 441.072 158.692 440.696 159.581C440.331 160.47 440.149 161.541 440.149 162.795V162.829C440.149 164.094 440.331 165.176 440.696 166.077C441.072 166.966 441.59 167.644 442.251 168.111C442.924 168.578 443.71 168.812 444.61 168.812ZM456.448 171.889V153.769H460.687V156.675H460.789C461.165 155.684 461.798 154.892 462.687 154.299C463.576 153.695 464.618 153.393 465.815 153.393C466.658 153.393 467.416 153.541 468.089 153.838C468.761 154.122 469.331 154.538 469.798 155.085C470.277 155.621 470.624 156.276 470.841 157.051H470.926C471.222 156.299 471.644 155.655 472.191 155.12C472.749 154.573 473.399 154.151 474.14 153.855C474.892 153.547 475.701 153.393 476.567 153.393C477.764 153.393 478.801 153.649 479.678 154.162C480.567 154.664 481.257 155.37 481.747 156.282C482.248 157.182 482.499 158.242 482.499 159.461V171.889H478.242V160.504C478.242 159.752 478.117 159.114 477.866 158.59C477.616 158.065 477.251 157.667 476.772 157.393C476.294 157.12 475.701 156.983 474.994 156.983C474.311 156.983 473.707 157.142 473.182 157.461C472.67 157.769 472.265 158.202 471.969 158.761C471.684 159.319 471.541 159.963 471.541 160.692V171.889H467.405V160.282C467.405 159.598 467.274 159.011 467.012 158.521C466.749 158.031 466.379 157.655 465.9 157.393C465.422 157.12 464.852 156.983 464.191 156.983C463.507 156.983 462.903 157.148 462.379 157.479C461.855 157.809 461.439 158.259 461.131 158.829C460.835 159.399 460.687 160.054 460.687 160.795V171.889H456.448ZM491.618 172.196C490.421 172.196 489.362 171.968 488.438 171.513C487.527 171.045 486.815 170.402 486.302 169.581C485.8 168.749 485.55 167.798 485.55 166.726V166.692C485.55 165.61 485.817 164.686 486.353 163.923C486.9 163.148 487.686 162.538 488.712 162.094C489.738 161.638 490.98 161.365 492.438 161.273L499.361 160.846V163.667L493.037 164.06C491.988 164.128 491.185 164.379 490.626 164.812C490.068 165.245 489.789 165.82 489.789 166.538V166.555C489.789 167.296 490.068 167.883 490.626 168.316C491.196 168.738 491.948 168.949 492.883 168.949C493.703 168.949 494.433 168.783 495.071 168.453C495.72 168.122 496.233 167.672 496.609 167.102C496.985 166.533 497.173 165.889 497.173 165.171V159.735C497.173 158.823 496.883 158.105 496.302 157.581C495.732 157.045 494.906 156.778 493.823 156.778C492.82 156.778 492.017 156.994 491.413 157.427C490.809 157.849 490.433 158.396 490.285 159.068L490.25 159.222H486.319L486.336 159.017C486.427 157.946 486.786 156.988 487.413 156.145C488.04 155.29 488.906 154.618 490.011 154.128C491.128 153.638 492.45 153.393 493.977 153.393C495.493 153.393 496.803 153.644 497.908 154.145C499.025 154.647 499.886 155.347 500.49 156.248C501.105 157.148 501.413 158.208 501.413 159.427V171.889H497.173V169.102H497.071C496.729 169.729 496.285 170.276 495.738 170.743C495.191 171.211 494.564 171.57 493.857 171.82C493.162 172.071 492.416 172.196 491.618 172.196ZM511.934 172.248C510.053 172.248 508.652 171.837 507.729 171.017C506.817 170.196 506.361 168.852 506.361 166.983V157.051H503.797V153.769H506.361V149.171H510.686V153.769H514.053V157.051H510.686V166.641C510.686 167.518 510.88 168.128 511.267 168.47C511.666 168.8 512.247 168.966 513.011 168.966C513.227 168.966 513.415 168.96 513.575 168.949C513.746 168.926 513.905 168.909 514.053 168.897V172.094C513.803 172.128 513.495 172.162 513.13 172.196C512.777 172.231 512.378 172.248 511.934 172.248ZM517.446 171.889V153.769H521.703V171.889H517.446ZM519.566 151.171C518.905 151.171 518.346 150.943 517.891 150.487C517.435 150.031 517.207 149.484 517.207 148.846C517.207 148.197 517.435 147.65 517.891 147.205C518.346 146.749 518.905 146.521 519.566 146.521C520.238 146.521 520.802 146.749 521.258 147.205C521.714 147.65 521.942 148.197 521.942 148.846C521.942 149.484 521.714 150.031 521.258 150.487C520.802 150.943 520.238 151.171 519.566 151.171ZM533.694 172.248C531.916 172.248 530.372 171.872 529.061 171.119C527.751 170.356 526.731 169.273 526.001 167.872C525.283 166.459 524.924 164.778 524.924 162.829V162.795C524.924 160.857 525.289 159.188 526.018 157.786C526.748 156.373 527.768 155.29 529.078 154.538C530.389 153.775 531.921 153.393 533.676 153.393C535.443 153.393 536.981 153.775 538.292 154.538C539.614 155.29 540.639 156.367 541.369 157.769C542.098 159.171 542.463 160.846 542.463 162.795V162.829C542.463 164.789 542.098 166.476 541.369 167.889C540.651 169.29 539.636 170.367 538.326 171.119C537.015 171.872 535.471 172.248 533.694 172.248ZM533.711 168.812C534.611 168.812 535.391 168.578 536.052 168.111C536.713 167.644 537.221 166.966 537.574 166.077C537.938 165.176 538.121 164.094 538.121 162.829V162.795C538.121 161.541 537.938 160.47 537.574 159.581C537.209 158.692 536.691 158.014 536.018 157.547C535.357 157.08 534.577 156.846 533.676 156.846C532.799 156.846 532.024 157.08 531.352 157.547C530.691 158.014 530.172 158.692 529.796 159.581C529.431 160.47 529.249 161.541 529.249 162.795V162.829C529.249 164.094 529.431 165.176 529.796 166.077C530.172 166.966 530.691 167.644 531.352 168.111C532.024 168.578 532.81 168.812 533.711 168.812ZM545.548 171.889V153.769H549.787V156.607H549.89C550.357 155.627 551.052 154.846 551.975 154.265C552.91 153.684 554.061 153.393 555.428 153.393C557.422 153.393 558.961 153.997 560.043 155.205C561.137 156.413 561.684 158.065 561.684 160.162V171.889H557.428V161.017C557.428 159.729 557.126 158.738 556.522 158.043C555.918 157.336 555.012 156.983 553.804 156.983C552.995 156.983 552.288 157.171 551.684 157.547C551.081 157.912 550.613 158.424 550.283 159.085C549.952 159.735 549.787 160.498 549.787 161.376V171.889H545.548ZM567.761 172.162C567.066 172.162 566.479 171.923 566 171.444C565.522 170.966 565.282 170.384 565.282 169.701C565.282 169.006 565.522 168.419 566 167.94C566.479 167.461 567.066 167.222 567.761 167.222C568.445 167.222 569.026 167.461 569.505 167.94C569.983 168.419 570.222 169.006 570.222 169.701C570.222 170.384 569.983 170.966 569.505 171.444C569.026 171.923 568.445 172.162 567.761 172.162Z" fill="black"/>
</g>
<g filter="url(#filter0_d_2238_739)">
<circle cx="107.378" cy="115.781" r="60.7674" fill="url(#paint0_linear_2238_739)"/>
<circle cx="107.378" cy="115.781" r="60.7674" fill="url(#paint1_linear_2238_739)"/>
</g>
<path d="M93.5391 143.396C90.4141 143.396 88.7734 141.678 88.7734 139.139C88.7734 137.186 89.4375 136.014 91.5859 133.982L108.812 116.912C116 109.803 117.797 106.951 117.797 102.654C117.797 97.6152 113.93 93.9824 108.5 93.9824C103.422 93.9824 99.8672 96.5605 97.875 101.639C96.8594 103.67 95.6875 104.725 93.3828 104.725C90.6484 104.725 89.0078 103.045 89.0078 100.545C89.0078 99.8027 89.125 99.0996 89.3203 98.4355C90.8438 92.3418 97.6016 85.8965 108.578 85.8965C119.867 85.8965 127.641 92.5762 127.641 102.029C127.641 108.631 124.477 113.084 115.141 122.225L102.211 134.959V135.154H124.711C127.367 135.154 129.008 136.795 129.008 139.295C129.008 141.756 127.367 143.396 124.711 143.396H93.5391Z" fill="white"/>
<defs>
<filter id="filter0_d_2238_739" x="35.781" y="48.9971" width="145.601" height="145.601" filterUnits="userSpaceOnUse" color-interpolation-filters="sRGB">
<feFlood flood-opacity="0" result="BackgroundImageFix"/>
<feColorMatrix in="SourceAlpha" type="matrix" values="0 0 0 0 0 0 0 0 0 0 0 0 0 0 0 0 0 0 127 0" result="hardAlpha"/>
<feOffset dx="1.20332" dy="6.01658"/>
<feGaussianBlur stdDeviation="6.01658"/>
<feComposite in2="hardAlpha" operator="out"/>
<feColorMatrix type="matrix" values="0 0 0 0 0 0 0 0 0 0 0 0 0 0 0 0 0 0 0.1 0"/>
<feBlend mode="normal" in2="BackgroundImageFix" result="effect1_dropShadow_2238_739"/>
<feBlend mode="normal" in="SourceGraphic" in2="effect1_dropShadow_2238_739" result="shape"/>
</filter>
<linearGradient id="paint0_linear_2238_739" x1="61.2496" y1="55.3511" x2="107.378" y2="176.549" gradientUnits="userSpaceOnUse">
<stop stop-color="#FDFDFD"/>
<stop offset="1" stop-color="#979797"/>
</linearGradient>
<linearGradient id="paint1_linear_2238_739" x1="63.4148" y1="50.1125" x2="152.336" y2="192.946" gradientUnits="userSpaceOnUse">
<stop offset="0.00742078" stop-color="#FFC1A8"/>
<stop offset="1" stop-color="#FF004D"/>
</linearGradient>
</defs>
</svg>
