<svg width="937" height="242" viewBox="0 0 937 242" fill="none" xmlns="http://www.w3.org/2000/svg">
<mask id="path-1-inside-1_2238_741" fill="white">
<path d="M0 80.6163C0 52.398 0 38.2888 5.49166 27.5108C10.3223 18.0302 18.0302 10.3223 27.5108 5.49166C38.2888 0 52.398 0 80.6163 0H856.06C884.278 0 898.387 0 909.165 5.49166C918.646 10.3223 926.354 18.0302 931.185 27.5108C936.676 38.2888 936.676 52.398 936.676 80.6163V160.564C936.676 188.782 936.676 202.891 931.185 213.669C926.354 223.15 918.646 230.858 909.165 235.688C898.387 241.18 884.278 241.18 856.06 241.18H80.6164C52.398 241.18 38.2888 241.18 27.5108 235.688C18.0302 230.858 10.3223 223.15 5.49166 213.669C0 202.891 0 188.782 0 160.564V80.6163Z"/>
</mask>
<path d="M0 80.6163C0 52.398 0 38.2888 5.49166 27.5108C10.3223 18.0302 18.0302 10.3223 27.5108 5.49166C38.2888 0 52.398 0 80.6163 0H856.06C884.278 0 898.387 0 909.165 5.49166C918.646 10.3223 926.354 18.0302 931.185 27.5108C936.676 38.2888 936.676 52.398 936.676 80.6163V160.564C936.676 188.782 936.676 202.891 931.185 213.669C926.354 223.15 918.646 230.858 909.165 235.688C898.387 241.18 884.278 241.18 856.06 241.18H80.6164C52.398 241.18 38.2888 241.18 27.5108 235.688C18.0302 230.858 10.3223 223.15 5.49166 213.669C0 202.891 0 188.782 0 160.564V80.6163Z" fill="#FCFCFC"/>
<path d="M0 0H936.676H0ZM940.707 190.795C940.707 220.291 916.795 244.203 887.299 244.203H53.4083C23.9117 244.203 0 220.291 0 190.795C0 216.952 22.5582 238.157 50.3852 238.157H886.291C911.892 238.157 932.645 216.952 932.645 190.795H940.707ZM0 241.18V0V241.18ZM886.291 0C916.344 0 940.707 24.3629 940.707 54.416V190.795C940.707 220.291 916.795 244.203 887.299 244.203L886.291 238.157C911.892 238.157 932.645 216.952 932.645 190.795V50.3852C932.645 22.5582 911.892 0 886.291 0Z" fill="white" style="mix-blend-mode:overlay" mask="url(#path-1-inside-1_2238_741)"/>
<g opacity="0.8">
<path d="M218.233 83.8164V59.1158H222.65V69.3863H234.666V59.1158H239.066V83.8164H234.666V73.1008H222.65V83.8164H218.233ZM251.381 84.1759C249.601 84.1759 248.055 83.7993 246.742 83.0461C245.43 82.2815 244.409 81.1974 243.678 79.7938C242.959 78.3787 242.6 76.6955 242.6 74.7441V74.7099C242.6 72.7699 242.965 71.0981 243.695 69.6944C244.426 68.2794 245.447 67.1953 246.76 66.4421C248.072 65.6775 249.607 65.2952 251.364 65.2952C253.133 65.2952 254.674 65.6775 255.986 66.4421C257.31 67.1953 258.337 68.2737 259.067 69.6773C259.797 71.081 260.163 72.7585 260.163 74.7099V74.7441C260.163 76.7069 259.797 78.3959 259.067 79.8109C258.348 81.2145 257.332 82.2929 256.02 83.0461C254.708 83.7993 253.161 84.1759 251.381 84.1759ZM251.398 80.7353C252.3 80.7353 253.082 80.5013 253.743 80.0334C254.405 79.5656 254.913 78.8866 255.267 77.9964C255.632 77.0949 255.815 76.0108 255.815 74.7441V74.7099C255.815 73.4546 255.632 72.3819 255.267 71.4918C254.902 70.6017 254.383 69.9227 253.709 69.4548C253.047 68.9869 252.266 68.753 251.364 68.753C250.485 68.753 249.709 68.9869 249.036 69.4548C248.374 69.9227 247.855 70.6017 247.478 71.4918C247.113 72.3819 246.931 73.4546 246.931 74.7099V74.7441C246.931 76.0108 247.113 77.0949 247.478 77.9964C247.855 78.8866 248.374 79.5656 249.036 80.0334C249.709 80.5013 250.497 80.7353 251.398 80.7353ZM266.71 83.8164L261.78 65.6718H266.059L269.123 79.6055H269.209L272.752 65.6718H276.826L280.387 79.6055H280.472L283.536 65.6718H287.747L282.851 83.8164H278.367L274.789 70.5503H274.704L271.143 83.8164H266.71ZM301.201 83.8164L296.271 65.6718H300.55L303.614 79.6055H303.7L307.243 65.6718H311.317L314.878 79.6055H314.963L318.027 65.6718H322.238L317.343 83.8164H312.858L309.28 70.5503H309.195L305.634 83.8164H301.201ZM332.534 84.1759C330.72 84.1759 329.156 83.7936 327.844 83.029C326.543 82.2644 325.544 81.1803 324.848 79.7767C324.152 78.373 323.804 76.7126 323.804 74.7955V74.7784C323.804 72.8726 324.152 71.2122 324.848 69.7972C325.556 68.3707 326.543 67.2638 327.81 66.4764C329.088 65.6889 330.594 65.2952 332.329 65.2952C334.052 65.2952 335.541 65.6775 336.796 66.4421C338.063 67.1953 339.033 68.2566 339.706 69.626C340.391 70.9954 340.733 72.593 340.733 74.4189V75.7883H325.91V72.9468H338.696L336.642 75.6V73.9567C336.642 72.7699 336.46 71.7828 336.095 70.9954C335.729 70.208 335.227 69.6203 334.588 69.2323C333.949 68.8329 333.213 68.6332 332.38 68.6332C331.536 68.6332 330.782 68.8386 330.121 69.2494C329.47 69.6488 328.957 70.2479 328.58 71.0467C328.215 71.8455 328.032 72.8155 328.032 73.9567V75.6C328.032 76.7069 328.215 77.6541 328.58 78.4415C328.957 79.2175 329.487 79.8166 330.172 80.2388C330.857 80.6497 331.672 80.8551 332.62 80.8551C333.327 80.8551 333.949 80.7467 334.485 80.5298C335.022 80.3016 335.461 80.0106 335.804 79.6568C336.157 79.3031 336.403 78.9208 336.54 78.51L336.574 78.3901H340.545L340.511 78.5784C340.362 79.2746 340.089 79.9593 339.689 80.6325C339.29 81.2944 338.753 81.8935 338.08 82.4299C337.407 82.9662 336.608 83.3942 335.684 83.7137C334.759 84.0218 333.709 84.1759 332.534 84.1759ZM351.209 83.8164V65.6718H355.454V68.5818H355.556C355.933 67.589 356.566 66.7959 357.457 66.2025C358.347 65.5977 359.391 65.2952 360.589 65.2952C361.433 65.2952 362.192 65.4436 362.866 65.7403C363.539 66.0256 364.11 66.4421 364.577 66.9899C365.057 67.5262 365.405 68.1824 365.622 68.9584H365.707C366.004 68.2052 366.426 67.5605 366.974 67.0241C367.533 66.4764 368.184 66.0541 368.925 65.7574C369.678 65.4493 370.489 65.2952 371.356 65.2952C372.554 65.2952 373.593 65.552 374.471 66.0655C375.361 66.5676 376.052 67.2752 376.543 68.1881C377.045 69.0896 377.296 70.1509 377.296 71.372V83.8164H373.033V72.4161C373.033 71.663 372.908 71.0239 372.657 70.499C372.406 69.974 372.041 69.5746 371.561 69.3007C371.082 69.0269 370.489 68.8899 369.781 68.8899C369.096 68.8899 368.492 69.0497 367.967 69.3692C367.453 69.6773 367.048 70.111 366.751 70.6701C366.466 71.2293 366.323 71.8741 366.323 72.6044V83.8164H362.181V72.1936C362.181 71.5089 362.05 70.9212 361.787 70.4305C361.525 69.9398 361.154 69.5632 360.675 69.3007C360.195 69.0269 359.625 68.8899 358.963 68.8899C358.278 68.8899 357.673 69.0554 357.148 69.3863C356.623 69.7173 356.207 70.168 355.899 70.7386C355.602 71.3092 355.454 71.9654 355.454 72.7071V83.8164H351.209ZM381.19 83.8164V65.6718H385.452V83.8164H381.19ZM383.312 63.07C382.65 63.07 382.091 62.8417 381.635 62.3853C381.178 61.9288 380.95 61.381 380.95 60.742C380.95 60.0915 381.178 59.5438 381.635 59.0987C382.091 58.6422 382.65 58.414 383.312 58.414C383.985 58.414 384.55 58.6422 385.007 59.0987C385.463 59.5438 385.692 60.0915 385.692 60.742C385.692 61.381 385.463 61.9288 385.007 62.3853C384.55 62.8417 383.985 63.07 383.312 63.07ZM397.614 90.167C396.016 90.167 394.618 89.9445 393.42 89.4994C392.233 89.0658 391.286 88.4667 390.578 87.7021C389.871 86.9375 389.431 86.0816 389.26 85.1345L389.226 84.9804H393.403L393.471 85.1173C393.699 85.6423 394.167 86.0759 394.875 86.4183C395.594 86.772 396.501 86.9489 397.596 86.9489C398.989 86.9489 400.056 86.6066 400.797 85.9219C401.539 85.2372 401.91 84.3185 401.91 83.1659V80.547H401.824C401.494 81.1974 401.048 81.7566 400.489 82.2245C399.942 82.6924 399.297 83.0575 398.555 83.32C397.825 83.5825 397.026 83.7137 396.159 83.7137C394.641 83.7137 393.317 83.3428 392.187 82.6011C391.069 81.8593 390.202 80.8094 389.585 79.4514C388.981 78.082 388.678 76.4559 388.678 74.5729V74.5558C388.678 72.6387 388.986 70.9954 389.603 69.626C390.23 68.2452 391.109 67.1782 392.239 66.425C393.368 65.6718 394.698 65.2952 396.227 65.2952C397.083 65.2952 397.87 65.4436 398.589 65.7403C399.308 66.0256 399.936 66.425 400.472 66.9385C401.02 67.452 401.465 68.0569 401.807 68.753H401.91V65.6718H406.172V83.3029C406.172 84.6723 405.824 85.8705 405.128 86.8976C404.432 87.936 403.445 88.7405 402.167 89.3111C400.889 89.8817 399.371 90.167 397.614 90.167ZM397.494 80.4271C398.384 80.4271 399.16 80.1932 399.822 79.7253C400.484 79.246 400.997 78.5727 401.362 77.7054C401.739 76.8382 401.927 75.8225 401.927 74.6585V74.6414C401.927 73.466 401.739 72.4504 401.362 71.5945C400.986 70.7272 400.466 70.0596 399.805 69.5917C399.143 69.1239 398.372 68.8899 397.494 68.8899C396.581 68.8899 395.788 69.1239 395.114 69.5917C394.441 70.0596 393.922 70.7215 393.557 71.5774C393.192 72.4332 393.009 73.4546 393.009 74.6414V74.6585C393.009 75.8453 393.192 76.8724 393.557 77.7397C393.922 78.5956 394.441 79.2574 395.114 79.7253C395.788 80.1932 396.581 80.4271 397.494 80.4271ZM410.135 83.8164V59.1158H414.397V68.7187H414.483C414.962 67.6232 415.675 66.7788 416.622 66.1854C417.581 65.5919 418.733 65.2952 420.08 65.2952C421.392 65.2952 422.528 65.5977 423.486 66.2025C424.445 66.7959 425.187 67.6346 425.712 68.7187C426.237 69.7914 426.499 71.0581 426.499 72.5188V83.8164H422.237V73.3576C422.237 71.9654 421.9 70.8756 421.227 70.0881C420.554 69.2893 419.606 68.8899 418.385 68.8899C417.587 68.8899 416.885 69.0839 416.28 69.4719C415.686 69.8485 415.224 70.3734 414.893 71.0467C414.562 71.7086 414.397 72.4789 414.397 73.3576V83.8164H410.135ZM437.017 84.1759C435.134 84.1759 433.731 83.7651 432.806 82.9434C431.894 82.1218 431.437 80.7752 431.437 78.9037V68.9584H428.869V65.6718H431.437V61.0672H435.768V65.6718H439.14V68.9584H435.768V78.5613C435.768 79.44 435.962 80.0506 436.35 80.3929C436.749 80.7238 437.331 80.8893 438.096 80.8893C438.313 80.8893 438.501 80.8836 438.661 80.8722C438.832 80.8494 438.992 80.8323 439.14 80.8208V84.0218C438.889 84.0561 438.581 84.0903 438.216 84.1245C437.862 84.1588 437.462 84.1759 437.017 84.1759ZM221.366 127.816L216.436 109.672H220.716L223.78 123.605H223.865L227.408 109.672H231.482L235.043 123.605H235.128L238.193 109.672H242.403L237.508 127.816H233.023L229.445 114.55H229.36L225.799 127.816H221.366ZM245.014 127.816V109.672H249.276V127.816H245.014ZM247.136 107.07C246.474 107.07 245.915 106.842 245.459 106.385C245.002 105.929 244.774 105.381 244.774 104.742C244.774 104.092 245.002 103.544 245.459 103.099C245.915 102.642 246.474 102.414 247.136 102.414C247.809 102.414 248.374 102.642 248.831 103.099C249.287 103.544 249.515 104.092 249.515 104.742C249.515 105.381 249.287 105.929 248.831 106.385C248.374 106.842 247.809 107.07 247.136 107.07ZM259.982 128.176C258.1 128.176 256.696 127.765 255.772 126.943C254.859 126.122 254.402 124.775 254.402 122.904V112.958H251.835V109.672H254.402V105.067H258.733V109.672H262.105V112.958H258.733V122.561C258.733 123.44 258.927 124.051 259.315 124.393C259.714 124.724 260.296 124.889 261.061 124.889C261.278 124.889 261.466 124.884 261.626 124.872C261.797 124.849 261.957 124.832 262.105 124.821V128.022C261.854 128.056 261.546 128.09 261.181 128.125C260.827 128.159 260.428 128.176 259.982 128.176ZM265.503 127.816V103.116H269.765V112.719H269.85C270.33 111.623 271.043 110.779 271.99 110.185C272.949 109.592 274.101 109.295 275.448 109.295C276.76 109.295 277.896 109.598 278.854 110.202C279.813 110.796 280.555 111.635 281.079 112.719C281.604 113.791 281.867 115.058 281.867 116.519V127.816H277.605V117.358C277.605 115.965 277.268 114.876 276.595 114.088C275.921 113.289 274.974 112.89 273.753 112.89C272.954 112.89 272.253 113.084 271.648 113.472C271.054 113.849 270.592 114.373 270.261 115.047C269.93 115.709 269.765 116.479 269.765 117.358V127.816H265.503ZM293.686 128.176C291.906 128.176 290.36 127.799 289.047 127.046C287.735 126.282 286.714 125.197 285.983 123.794C285.264 122.379 284.905 120.696 284.905 118.744V118.71C284.905 116.77 285.27 115.098 286 113.694C286.731 112.279 287.752 111.195 289.064 110.442C290.377 109.678 291.912 109.295 293.669 109.295C295.438 109.295 296.978 109.678 298.291 110.442C299.615 111.195 300.642 112.274 301.372 113.677C302.102 115.081 302.467 116.758 302.467 118.71V118.744C302.467 120.707 302.102 122.396 301.372 123.811C300.653 125.215 299.637 126.293 298.325 127.046C297.013 127.799 295.466 128.176 293.686 128.176ZM293.703 124.735C294.605 124.735 295.387 124.501 296.048 124.033C296.71 123.566 297.218 122.887 297.572 121.996C297.937 121.095 298.12 120.011 298.12 118.744V118.71C298.12 117.455 297.937 116.382 297.572 115.492C297.207 114.602 296.687 113.923 296.014 113.455C295.352 112.987 294.571 112.753 293.669 112.753C292.79 112.753 292.014 112.987 291.341 113.455C290.679 113.923 290.16 114.602 289.783 115.492C289.418 116.382 289.236 117.455 289.236 118.71V118.744C289.236 120.011 289.418 121.095 289.783 121.996C290.16 122.887 290.679 123.566 291.341 124.033C292.014 124.501 292.802 124.735 293.703 124.735ZM311.736 128.176C310.401 128.176 309.266 127.908 308.33 127.371C307.406 126.824 306.698 126.042 306.207 125.026C305.717 124.011 305.471 122.807 305.471 121.414V109.672H309.716V120.559C309.716 121.848 310.019 122.847 310.624 123.554C311.228 124.25 312.141 124.598 313.362 124.598C313.967 124.598 314.515 124.496 315.006 124.29C315.508 124.073 315.936 123.771 316.29 123.383C316.643 122.995 316.911 122.533 317.094 121.996C317.277 121.449 317.368 120.844 317.368 120.182V109.672H321.63V127.816H317.368V124.975H317.282C316.963 125.614 316.546 126.179 316.033 126.67C315.519 127.149 314.903 127.52 314.184 127.782C313.465 128.045 312.649 128.176 311.736 128.176ZM332.217 128.176C330.334 128.176 328.93 127.765 328.006 126.943C327.093 126.122 326.637 124.775 326.637 122.904V112.958H324.069V109.672H326.637V105.067H330.967V109.672H334.34V112.958H330.967V122.561C330.967 123.44 331.161 124.051 331.549 124.393C331.949 124.724 332.531 124.889 333.295 124.889C333.512 124.889 333.701 124.884 333.86 124.872C334.032 124.849 334.191 124.832 334.34 124.821V128.022C334.089 128.056 333.78 128.09 333.415 128.125C333.062 128.159 332.662 128.176 332.217 128.176ZM353.031 128.176C351.24 128.176 349.688 127.794 348.375 127.029C347.063 126.264 346.047 125.175 345.328 123.76C344.621 122.345 344.267 120.667 344.267 118.727V118.71C344.267 116.781 344.627 115.115 345.346 113.712C346.064 112.297 347.074 111.207 348.375 110.442C349.688 109.678 351.223 109.295 352.98 109.295C354.578 109.295 355.958 109.603 357.122 110.22C358.286 110.824 359.199 111.629 359.861 112.633C360.523 113.637 360.9 114.744 360.991 115.954V116.074H356.985L356.951 115.937C356.78 115.058 356.364 114.311 355.702 113.694C355.051 113.067 354.161 112.753 353.031 112.753C352.141 112.753 351.359 112.998 350.686 113.489C350.024 113.968 349.511 114.653 349.146 115.543C348.78 116.433 348.598 117.5 348.598 118.744V118.761C348.598 120.017 348.78 121.089 349.146 121.979C349.522 122.869 350.041 123.554 350.703 124.033C351.377 124.501 352.158 124.735 353.048 124.735C354.133 124.735 355.006 124.444 355.667 123.862C356.341 123.269 356.774 122.499 356.968 121.551L357.003 121.397H361.025L361.008 121.517C360.894 122.772 360.495 123.902 359.81 124.906C359.125 125.911 358.206 126.709 357.054 127.303C355.901 127.885 354.56 128.176 353.031 128.176ZM371.954 128.176C370.174 128.176 368.628 127.799 367.316 127.046C366.003 126.282 364.982 125.197 364.251 123.794C363.533 122.379 363.173 120.696 363.173 118.744V118.71C363.173 116.77 363.538 115.098 364.269 113.694C364.999 112.279 366.02 111.195 367.333 110.442C368.645 109.678 370.18 109.295 371.937 109.295C373.706 109.295 375.247 109.678 376.559 110.442C377.883 111.195 378.91 112.274 379.64 113.677C380.37 115.081 380.736 116.758 380.736 118.71V118.744C380.736 120.707 380.37 122.396 379.64 123.811C378.921 125.215 377.906 126.293 376.593 127.046C375.281 127.799 373.735 128.176 371.954 128.176ZM371.971 124.735C372.873 124.735 373.655 124.501 374.317 124.033C374.978 123.566 375.486 122.887 375.84 121.996C376.205 121.095 376.388 120.011 376.388 118.744V118.71C376.388 117.455 376.205 116.382 375.84 115.492C375.475 114.602 374.956 113.923 374.282 113.455C373.62 112.987 372.839 112.753 371.937 112.753C371.059 112.753 370.283 112.987 369.609 113.455C368.947 113.923 368.428 114.602 368.052 115.492C367.686 116.382 367.504 117.455 367.504 118.71V118.744C367.504 120.011 367.686 121.095 368.052 121.996C368.428 122.887 368.947 123.566 369.609 124.033C370.283 124.501 371.07 124.735 371.971 124.735ZM383.825 127.816V109.672H388.07V112.582H388.173C388.549 111.589 389.183 110.796 390.073 110.202C390.963 109.598 392.007 109.295 393.205 109.295C394.05 109.295 394.809 109.444 395.482 109.74C396.155 110.026 396.726 110.442 397.194 110.99C397.673 111.526 398.021 112.182 398.238 112.958H398.324C398.62 112.205 399.043 111.56 399.59 111.024C400.149 110.476 400.8 110.054 401.542 109.757C402.295 109.449 403.105 109.295 403.972 109.295C405.171 109.295 406.209 109.552 407.088 110.066C407.978 110.568 408.668 111.275 409.159 112.188C409.661 113.09 409.912 114.151 409.912 115.372V127.816H405.65V116.416C405.65 115.663 405.524 115.024 405.273 114.499C405.022 113.974 404.657 113.575 404.178 113.301C403.698 113.027 403.105 112.89 402.398 112.89C401.713 112.89 401.108 113.05 400.583 113.369C400.07 113.677 399.664 114.111 399.368 114.67C399.082 115.229 398.94 115.874 398.94 116.604V127.816H394.797V116.194C394.797 115.509 394.666 114.921 394.404 114.43C394.141 113.94 393.77 113.563 393.291 113.301C392.812 113.027 392.241 112.89 391.579 112.89C390.895 112.89 390.29 113.055 389.765 113.386C389.24 113.717 388.823 114.168 388.515 114.739C388.219 115.309 388.07 115.965 388.07 116.707V127.816H383.825ZM413.686 133.808V109.672H417.931V112.804H418.034C418.388 112.074 418.833 111.452 419.369 110.939C419.917 110.414 420.55 110.008 421.269 109.723C422 109.438 422.793 109.295 423.649 109.295C425.189 109.295 426.519 109.678 427.637 110.442C428.767 111.195 429.634 112.279 430.239 113.694C430.855 115.109 431.163 116.793 431.163 118.744V118.761C431.163 120.701 430.855 122.379 430.239 123.794C429.634 125.197 428.772 126.282 427.654 127.046C426.547 127.799 425.235 128.176 423.717 128.176C422.861 128.176 422.062 128.039 421.321 127.765C420.59 127.491 419.946 127.097 419.386 126.584C418.827 126.07 418.376 125.46 418.034 124.752H417.931V133.808H413.686ZM422.399 124.598C423.312 124.598 424.099 124.359 424.761 123.879C425.423 123.4 425.931 122.727 426.285 121.86C426.65 120.981 426.832 119.948 426.832 118.761V118.744C426.832 117.523 426.65 116.479 426.285 115.612C425.931 114.733 425.417 114.06 424.744 113.592C424.082 113.124 423.301 112.89 422.399 112.89C421.52 112.89 420.744 113.13 420.071 113.609C419.398 114.088 418.867 114.767 418.479 115.646C418.103 116.513 417.914 117.546 417.914 118.744V118.761C417.914 119.948 418.103 120.981 418.479 121.86C418.867 122.727 419.398 123.4 420.071 123.879C420.744 124.359 421.52 124.598 422.399 124.598ZM434.39 127.816V103.116H438.652V127.816H434.39ZM450.608 128.176C448.794 128.176 447.23 127.794 445.918 127.029C444.617 126.264 443.618 125.18 442.922 123.777C442.226 122.373 441.878 120.713 441.878 118.795V118.778C441.878 116.873 442.226 115.212 442.922 113.797C443.63 112.371 444.617 111.264 445.884 110.476C447.162 109.689 448.668 109.295 450.403 109.295C452.126 109.295 453.615 109.678 454.87 110.442C456.137 111.195 457.107 112.257 457.78 113.626C458.465 114.995 458.807 116.593 458.807 118.419V119.788H443.984V116.947H456.77L454.716 119.6V117.957C454.716 116.77 454.534 115.783 454.169 114.995C453.803 114.208 453.301 113.62 452.662 113.232C452.023 112.833 451.287 112.633 450.454 112.633C449.61 112.633 448.856 112.839 448.194 113.249C447.544 113.649 447.03 114.248 446.654 115.047C446.289 115.846 446.106 116.816 446.106 117.957V119.6C446.106 120.707 446.289 121.654 446.654 122.442C447.03 123.217 447.561 123.817 448.246 124.239C448.931 124.65 449.746 124.855 450.694 124.855C451.401 124.855 452.023 124.747 452.559 124.53C453.096 124.302 453.535 124.011 453.878 123.657C454.231 123.303 454.477 122.921 454.614 122.51L454.648 122.39H458.619L458.585 122.578C458.436 123.275 458.163 123.959 457.763 124.633C457.364 125.294 456.827 125.894 456.154 126.43C455.481 126.966 454.682 127.394 453.758 127.714C452.833 128.022 451.783 128.176 450.608 128.176ZM468.607 128.176C466.724 128.176 465.32 127.765 464.396 126.943C463.483 126.122 463.026 124.775 463.026 122.904V112.958H460.459V109.672H463.026V105.067H467.357V109.672H470.729V112.958H467.357V122.561C467.357 123.44 467.551 124.051 467.939 124.393C468.339 124.724 468.921 124.889 469.685 124.889C469.902 124.889 470.09 124.884 470.25 124.872C470.421 124.849 470.581 124.832 470.729 124.821V128.022C470.478 128.056 470.17 128.09 469.805 128.125C469.451 128.159 469.052 128.176 468.607 128.176ZM481.641 128.176C479.827 128.176 478.264 127.794 476.951 127.029C475.65 126.264 474.652 125.18 473.956 123.777C473.26 122.373 472.912 120.713 472.912 118.795V118.778C472.912 116.873 473.26 115.212 473.956 113.797C474.663 112.371 475.65 111.264 476.917 110.476C478.195 109.689 479.701 109.295 481.436 109.295C483.159 109.295 484.648 109.678 485.904 110.442C487.17 111.195 488.14 112.257 488.814 113.626C489.498 114.995 489.841 116.593 489.841 118.419V119.788H475.017V116.947H487.804L485.75 119.6V117.957C485.75 116.77 485.567 115.783 485.202 114.995C484.837 114.208 484.335 113.62 483.696 113.232C483.056 112.833 482.32 112.633 481.487 112.633C480.643 112.633 479.89 112.839 479.228 113.249C478.577 113.649 478.064 114.248 477.687 115.047C477.322 115.846 477.14 116.816 477.14 117.957V119.6C477.14 120.707 477.322 121.654 477.687 122.442C478.064 123.217 478.595 123.817 479.279 124.239C479.964 124.65 480.78 124.855 481.727 124.855C482.435 124.855 483.056 124.747 483.593 124.53C484.129 124.302 484.569 124.011 484.911 123.657C485.265 123.303 485.51 122.921 485.647 122.51L485.681 122.39H489.652L489.618 122.578C489.47 123.275 489.196 123.959 488.797 124.633C488.397 125.294 487.861 125.894 487.188 126.43C486.514 126.966 485.715 127.394 484.791 127.714C483.867 128.022 482.817 128.176 481.641 128.176ZM493.033 127.816V103.116H497.295V127.816H493.033ZM503.705 133.842C503.294 133.842 502.889 133.819 502.49 133.773C502.102 133.739 501.777 133.699 501.514 133.653V130.418C501.674 130.441 501.874 130.47 502.113 130.504C502.353 130.538 502.627 130.555 502.935 130.555C503.757 130.555 504.407 130.413 504.886 130.127C505.366 129.853 505.742 129.334 506.016 128.57L506.273 127.834L499.751 109.672H504.39L508.909 125.078L508.259 124.187H509.166L508.515 125.078L513.034 109.672H517.519L510.98 128.433C510.524 129.756 509.97 130.812 509.32 131.599C508.669 132.398 507.882 132.969 506.958 133.311C506.045 133.665 504.961 133.842 503.705 133.842Z" fill="black" fill-opacity="0.8"/>
<path d="M458.123 79.9821C458.83 79.9821 459.486 79.8166 460.091 79.4857C460.707 79.1433 461.244 78.6697 461.7 78.0649C462.157 77.4487 462.51 76.7297 462.762 75.9081C463.024 75.0865 463.155 74.2021 463.155 73.2549C463.155 71.9768 462.841 70.9726 462.214 70.2422C461.598 69.5004 460.747 69.1296 459.663 69.1296C458.91 69.1296 458.22 69.3122 457.592 69.6773C456.964 70.0425 456.422 70.5503 455.966 71.2008C455.509 71.8398 455.156 72.5702 454.905 73.3918C454.653 74.2135 454.528 75.0808 454.528 75.9937C454.528 77.1805 454.853 78.1448 455.504 78.8866C456.166 79.6169 457.039 79.9821 458.123 79.9821ZM451.361 89.8247H446.517L451.686 65.4151H456.462L455.863 68.1539H455.966C456.605 67.1953 457.427 66.4535 458.431 65.9286C459.446 65.3922 460.536 65.1241 461.7 65.1241C463.024 65.1241 464.165 65.4265 465.124 66.0313C466.082 66.6247 466.818 67.4749 467.332 68.5818C467.857 69.6887 468.119 71.0011 468.119 72.5188C468.119 74.1849 467.891 75.7255 467.435 77.1406C466.978 78.5442 466.339 79.771 465.517 80.8208C464.696 81.8593 463.731 82.6695 462.625 83.2515C461.518 83.8221 460.314 84.1074 459.013 84.1074C458.1 84.1074 457.272 83.9533 456.531 83.6452C455.789 83.3371 455.156 82.9035 454.631 82.3443C454.106 81.7851 453.723 81.1232 453.484 80.3587H453.381L451.361 89.8247ZM469.12 83.8164L473.04 65.4151H477.765L477.251 67.9827H477.354C477.845 67.1382 478.495 66.4535 479.305 65.9286C480.127 65.4037 481.068 65.1412 482.13 65.1412C482.62 65.1412 483.06 65.1868 483.448 65.2781C483.836 65.358 484.172 65.4664 484.458 65.6034L483.499 70.0881C483.191 69.9398 482.814 69.8143 482.369 69.7116C481.924 69.5974 481.456 69.5404 480.966 69.5404C480.098 69.5404 479.339 69.7059 478.689 70.0368C478.05 70.3563 477.519 70.8356 477.097 71.4747C476.675 72.1137 476.355 72.9068 476.139 73.854L474.016 83.8164H469.12ZM489.225 72.6387H497.201C497.213 72.5702 497.218 72.4903 497.218 72.399C497.23 72.2963 497.236 72.205 497.236 72.1251C497.236 71.5203 497.104 70.9668 496.842 70.4647C496.579 69.9512 496.191 69.5404 495.678 69.2323C495.176 68.9127 494.537 68.753 493.761 68.753C493.007 68.753 492.323 68.9242 491.707 69.2665C491.102 69.5974 490.583 70.0539 490.149 70.6359C489.727 71.2179 489.419 71.8855 489.225 72.6387ZM492.289 84.2272C490.588 84.2272 489.128 83.8849 487.906 83.2002C486.697 82.5155 485.767 81.5569 485.116 80.3244C484.477 79.0806 484.158 77.6199 484.158 75.9423C484.158 74.3904 484.392 72.9525 484.86 71.6287C485.327 70.305 485.995 69.1467 486.862 68.1539C487.73 67.1611 488.762 66.3908 489.961 65.843C491.159 65.2838 492.483 65.0042 493.932 65.0042C495.518 65.0042 496.899 65.3295 498.074 65.9799C499.261 66.619 500.18 67.5262 500.83 68.7016C501.492 69.877 501.823 71.2693 501.823 72.8783C501.823 73.3234 501.8 73.8027 501.755 74.3162C501.72 74.8297 501.658 75.3033 501.566 75.7369H488.728C488.717 75.8396 488.705 75.9423 488.694 76.045C488.694 76.1363 488.694 76.2276 488.694 76.3189C488.694 77.1292 488.848 77.8424 489.156 78.4586C489.464 79.0749 489.898 79.5598 490.457 79.9136C491.028 80.256 491.701 80.4271 492.477 80.4271C493.447 80.4271 494.274 80.2046 494.959 79.7596C495.644 79.3031 496.129 78.704 496.414 77.9622H501.018C500.71 79.1833 500.146 80.2674 499.324 81.2145C498.514 82.1503 497.509 82.8864 496.311 83.4227C495.113 83.9591 493.772 84.2272 492.289 84.2272ZM505.272 70.8927C505.272 69.7287 505.586 68.7073 506.213 67.8286C506.852 66.9385 507.742 66.2481 508.884 65.7574C510.025 65.2667 511.36 65.0214 512.889 65.0214C514.35 65.0214 515.639 65.2724 516.758 65.7745C517.876 66.2766 518.755 66.9785 519.394 67.88C520.044 68.7701 520.387 69.7972 520.421 70.9611H515.97C515.936 70.4933 515.776 70.0767 515.491 69.7116C515.217 69.3464 514.852 69.0668 514.395 68.8728C513.939 68.6674 513.414 68.5647 512.821 68.5647C512.227 68.5647 511.714 68.6446 511.28 68.8043C510.858 68.9641 510.527 69.1866 510.287 69.4719C510.059 69.7458 509.945 70.071 509.945 70.4476C509.945 70.9269 510.133 71.3149 510.51 71.6116C510.886 71.9083 511.577 72.2164 512.581 72.536L514.413 73.1522C516.124 73.7114 517.345 74.3789 518.076 75.1549C518.806 75.9195 519.171 76.9123 519.171 78.1334C519.171 79.3316 518.835 80.3929 518.161 81.3172C517.499 82.2302 516.575 82.9434 515.388 83.4569C514.201 83.9705 512.821 84.2272 511.246 84.2272C509.637 84.2272 508.227 83.9705 507.018 83.4569C505.808 82.9434 504.861 82.2245 504.176 81.3001C503.503 80.3758 503.144 79.3088 503.098 78.0992H507.788C507.879 78.8523 508.239 79.4686 508.867 79.9478C509.506 80.4271 510.35 80.6668 511.4 80.6668C511.982 80.6668 512.49 80.5812 512.923 80.41C513.368 80.2388 513.711 79.9992 513.95 79.6911C514.19 79.383 514.31 79.0349 514.31 78.6469C514.31 78.2133 514.133 77.8595 513.779 77.5856C513.425 77.3117 512.758 77.0207 511.776 76.7126L510.15 76.1649C508.461 75.6057 507.223 74.9039 506.436 74.0594C505.66 73.215 505.272 72.1594 505.272 70.8927ZM527.447 72.6387H535.424C535.435 72.5702 535.441 72.4903 535.441 72.399C535.453 72.2963 535.458 72.205 535.458 72.1251C535.458 71.5203 535.327 70.9668 535.065 70.4647C534.802 69.9512 534.414 69.5404 533.901 69.2323C533.398 68.9127 532.759 68.753 531.983 68.753C531.23 68.753 530.546 68.9242 529.929 69.2665C529.324 69.5974 528.805 70.0539 528.372 70.6359C527.949 71.2179 527.641 71.8855 527.447 72.6387ZM530.511 84.2272C528.811 84.2272 527.35 83.8849 526.129 83.2002C524.92 82.5155 523.99 81.5569 523.339 80.3244C522.7 79.0806 522.38 77.6199 522.38 75.9423C522.38 74.3904 522.614 72.9525 523.082 71.6287C523.55 70.305 524.218 69.1467 525.085 68.1539C525.952 67.1611 526.985 66.3908 528.183 65.843C529.382 65.2838 530.705 65.0042 532.155 65.0042C533.741 65.0042 535.122 65.3295 536.297 65.9799C537.484 66.619 538.402 67.5262 539.053 68.7016C539.715 69.877 540.046 71.2693 540.046 72.8783C540.046 73.3234 540.023 73.8027 539.977 74.3162C539.943 74.8297 539.88 75.3033 539.789 75.7369H526.951C526.939 75.8396 526.928 75.9423 526.917 76.045C526.917 76.1363 526.917 76.2276 526.917 76.3189C526.917 77.1292 527.071 77.8424 527.379 78.4586C527.687 79.0749 528.121 79.5598 528.68 79.9136C529.25 80.256 529.924 80.4271 530.7 80.4271C531.67 80.4271 532.497 80.2046 533.182 79.7596C533.866 79.3031 534.351 78.704 534.637 77.9622H539.241C538.933 79.1833 538.368 80.2674 537.547 81.2145C536.736 82.1503 535.732 82.8864 534.534 83.4227C533.336 83.9591 531.995 84.2272 530.511 84.2272ZM541.081 83.8164L545.001 65.4151H549.725L549.212 67.9827H549.315C549.805 67.1382 550.456 66.4535 551.266 65.9286C552.088 65.4037 553.029 65.1412 554.09 65.1412C554.581 65.1412 555.02 65.1868 555.408 65.2781C555.796 65.358 556.133 65.4664 556.418 65.6034L555.46 70.0881C555.152 69.9398 554.775 69.8143 554.33 69.7116C553.885 69.5974 553.417 69.5404 552.926 69.5404C552.059 69.5404 551.3 69.7059 550.65 70.0368C550.011 70.3563 549.48 70.8356 549.058 71.4747C548.636 72.1137 548.316 72.9068 548.099 73.854L545.977 83.8164H541.081ZM557.779 65.3979H562.657L563.719 79.1091H563.821L570.566 65.3979H575.821L565.67 83.8164H560.09L557.779 65.3979ZM580.057 72.6387H588.034C588.045 72.5702 588.051 72.4903 588.051 72.399C588.062 72.2963 588.068 72.205 588.068 72.1251C588.068 71.5203 587.937 70.9668 587.674 70.4647C587.412 69.9512 587.024 69.5404 586.51 69.2323C586.008 68.9127 585.369 68.753 584.593 68.753C583.84 68.753 583.155 68.9242 582.539 69.2665C581.934 69.5974 581.415 70.0539 580.981 70.6359C580.559 71.2179 580.251 71.8855 580.057 72.6387ZM583.121 84.2272C581.421 84.2272 579.96 83.8849 578.739 83.2002C577.529 82.5155 576.599 81.5569 575.949 80.3244C575.31 79.0806 574.99 77.6199 574.99 75.9423C574.99 74.3904 575.224 72.9525 575.692 71.6287C576.16 70.305 576.827 69.1467 577.695 68.1539C578.562 67.1611 579.595 66.3908 580.793 65.843C581.991 65.2838 583.315 65.0042 584.764 65.0042C586.35 65.0042 587.731 65.3295 588.907 65.9799C590.094 66.619 591.012 67.5262 591.663 68.7016C592.325 69.877 592.655 71.2693 592.655 72.8783C592.655 73.3234 592.633 73.8027 592.587 74.3162C592.553 74.8297 592.49 75.3033 592.399 75.7369H579.561C579.549 75.8396 579.538 75.9423 579.526 76.045C579.526 76.1363 579.526 76.2276 579.526 76.3189C579.526 77.1292 579.68 77.8424 579.988 78.4586C580.297 79.0749 580.73 79.5598 581.289 79.9136C581.86 80.256 582.533 80.4271 583.309 80.4271C584.279 80.4271 585.107 80.2046 585.791 79.7596C586.476 79.3031 586.961 78.704 587.246 77.9622H591.851C591.543 79.1833 590.978 80.2674 590.156 81.2145C589.346 82.1503 588.342 82.8864 587.144 83.4227C585.945 83.9591 584.605 84.2272 583.121 84.2272ZM612.99 65.0042C614.588 65.0042 615.969 65.3067 617.133 65.9115C618.308 66.5049 619.21 67.3094 619.837 68.325C620.465 69.3293 620.779 70.4419 620.779 71.663C620.779 71.8798 620.779 72.0167 620.779 72.0738C620.779 72.1308 620.779 72.1822 620.779 72.2278H616.089C616.066 71.3491 615.769 70.6188 615.199 70.0368C614.628 69.4434 613.829 69.1467 612.802 69.1467C612.083 69.1467 611.427 69.3179 610.834 69.6602C610.252 69.9911 609.744 70.4647 609.31 71.081C608.888 71.6858 608.557 72.4104 608.317 73.2549C608.089 74.0994 607.975 75.0294 607.975 76.045C607.975 76.8667 608.112 77.5799 608.386 78.1847C608.66 78.7896 609.048 79.2574 609.55 79.5884C610.052 79.9079 610.64 80.0677 611.313 80.0677C612.271 80.0677 613.082 79.8052 613.744 79.2803C614.417 78.7553 614.89 78.0364 615.164 77.1235H619.872C619.632 78.5043 619.107 79.731 618.297 80.8037C617.487 81.865 616.465 82.7038 615.233 83.32C614.012 83.9248 612.648 84.2272 611.142 84.2272C609.453 84.2272 608.004 83.8963 606.794 83.2344C605.584 82.5611 604.66 81.6254 604.021 80.4271C603.382 79.2289 603.062 77.8367 603.062 76.2505C603.062 74.0252 603.473 72.0681 604.295 70.3791C605.116 68.6902 606.269 67.3722 607.752 66.425C609.247 65.4778 610.993 65.0042 612.99 65.0042ZM630.972 80.1875C631.953 80.1875 632.826 79.8908 633.591 79.2974C634.356 78.6926 634.955 77.8766 635.388 76.8496C635.833 75.8111 636.056 74.6471 636.056 73.3576C636.056 72.0567 635.736 71.0125 635.097 70.2251C634.47 69.4377 633.625 69.044 632.564 69.044C631.583 69.044 630.704 69.3407 629.928 69.9341C629.163 70.5275 628.558 71.3434 628.113 72.3819C627.68 73.4089 627.463 74.5729 627.463 75.8739C627.463 77.1634 627.782 78.2076 628.421 79.0064C629.061 79.7938 629.911 80.1875 630.972 80.1875ZM632.735 65.0042C634.401 65.0042 635.856 65.3466 637.1 66.0313C638.344 66.716 639.308 67.6803 639.993 68.9242C640.689 70.1566 641.037 71.5945 641.037 73.2378C641.037 74.8126 640.78 76.2733 640.267 77.6199C639.765 78.955 639.051 80.1133 638.127 81.0947C637.214 82.0761 636.136 82.8464 634.892 83.4056C633.659 83.9533 632.301 84.2272 630.818 84.2272C629.152 84.2272 627.697 83.8849 626.453 83.2002C625.209 82.5041 624.239 81.5398 623.543 80.3073C622.858 79.0634 622.516 77.6199 622.516 75.9766C622.516 74.4132 622.767 72.9639 623.269 71.6287C623.783 70.2821 624.496 69.1182 625.409 68.1368C626.333 67.1439 627.412 66.3736 628.644 65.8259C629.888 65.2781 631.252 65.0042 632.735 65.0042ZM642.09 83.8164L645.992 65.4151H650.7L650.101 68.2395H650.203C650.831 67.2124 651.67 66.4193 652.72 65.8601C653.769 65.2895 654.928 65.0042 656.194 65.0042C657.301 65.0042 658.277 65.2325 659.121 65.6889C659.977 66.134 660.645 66.7559 661.124 67.5548C661.615 68.3422 661.86 69.2608 661.86 70.3107C661.86 70.6416 661.837 71.0011 661.792 71.3891C661.758 71.7657 661.701 72.1537 661.621 72.5531L659.241 83.8164H654.38L656.588 73.3576C656.657 73.0723 656.702 72.8098 656.725 72.5702C656.748 72.3191 656.759 72.0909 656.759 71.8855C656.759 71.041 656.468 70.3677 655.886 69.8656C655.316 69.3521 654.557 69.0953 653.61 69.0953C652.925 69.0953 652.28 69.2551 651.675 69.5746C651.082 69.8827 650.574 70.3221 650.152 70.8927C649.741 71.4633 649.45 72.1365 649.279 72.9125L646.968 83.8164H642.09ZM670.77 84.0218C669.103 84.0218 667.768 83.6909 666.764 83.029C665.771 82.3671 665.275 81.3743 665.275 80.0506C665.275 79.8223 665.286 79.5484 665.309 79.2289C665.343 78.9094 665.395 78.5727 665.463 78.219L667.329 69.5575H664.59L665.395 65.7232H668.134L669.058 61.2555H673.953L672.995 65.7232H676.761L675.973 69.5575H672.225L670.496 77.4829C670.45 77.6655 670.416 77.8652 670.393 78.082C670.37 78.2874 670.359 78.4643 670.359 78.6127C670.359 79.1947 670.547 79.6112 670.924 79.8623C671.312 80.1019 671.871 80.2217 672.601 80.2217C672.818 80.2217 672.995 80.2217 673.132 80.2217C673.28 80.2103 673.411 80.1989 673.526 80.1875C673.64 80.1761 673.742 80.159 673.834 80.1361L673.063 83.8164C672.789 83.8735 672.441 83.9191 672.019 83.9533C671.608 83.999 671.192 84.0218 670.77 84.0218ZM675.93 83.8164L679.85 65.4151H684.575L684.061 67.9827H684.164C684.654 67.1382 685.305 66.4535 686.115 65.9286C686.937 65.4037 687.878 65.1412 688.94 65.1412C689.43 65.1412 689.87 65.1868 690.258 65.2781C690.646 65.358 690.982 65.4664 691.267 65.6034L690.309 70.0881C690.001 69.9398 689.624 69.8143 689.179 69.7116C688.734 69.5974 688.266 69.5404 687.776 69.5404C686.908 69.5404 686.149 69.7059 685.499 70.0368C684.86 70.3563 684.329 70.8356 683.907 71.4747C683.485 72.1137 683.165 72.9068 682.948 73.854L680.826 83.8164H675.93ZM699.407 80.1875C700.388 80.1875 701.261 79.8908 702.025 79.2974C702.79 78.6926 703.389 77.8766 703.823 76.8496C704.268 75.8111 704.49 74.6471 704.49 73.3576C704.49 72.0567 704.171 71.0125 703.532 70.2251C702.904 69.4377 702.06 69.044 700.998 69.044C700.017 69.044 699.138 69.3407 698.362 69.9341C697.598 70.5275 696.993 71.3434 696.548 72.3819C696.114 73.4089 695.897 74.5729 695.897 75.8739C695.897 77.1634 696.217 78.2076 696.856 79.0064C697.495 79.7938 698.345 80.1875 699.407 80.1875ZM701.17 65.0042C702.836 65.0042 704.291 65.3466 705.535 66.0313C706.778 66.716 707.743 67.6803 708.427 68.9242C709.124 70.1566 709.472 71.5945 709.472 73.2378C709.472 74.8126 709.215 76.2733 708.701 77.6199C708.199 78.955 707.486 80.1133 706.562 81.0947C705.649 82.0761 704.57 82.8464 703.326 83.4056C702.094 83.9533 700.736 84.2272 699.252 84.2272C697.586 84.2272 696.131 83.8849 694.887 83.2002C693.644 82.5041 692.674 81.5398 691.978 80.3073C691.293 79.0634 690.95 77.6199 690.95 75.9766C690.95 74.4132 691.202 72.9639 691.704 71.6287C692.217 70.2821 692.93 69.1182 693.843 68.1368C694.768 67.1439 695.846 66.3736 697.079 65.8259C698.322 65.2781 699.686 65.0042 701.17 65.0042ZM710.695 83.8164L715.95 59.1158H720.846L715.591 83.8164H710.695ZM525.204 127.816L529.107 109.415H533.814L533.215 112.239H533.318C533.946 111.212 534.784 110.419 535.834 109.86C536.884 109.29 538.042 109.004 539.309 109.004C540.416 109.004 541.392 109.232 542.236 109.689C543.092 110.134 543.76 110.756 544.239 111.555C544.73 112.342 544.975 113.261 544.975 114.311C544.975 114.642 544.952 115.001 544.906 115.389C544.872 115.766 544.815 116.154 544.735 116.553L542.356 127.816H537.495L539.703 117.358C539.771 117.072 539.817 116.81 539.84 116.57C539.862 116.319 539.874 116.091 539.874 115.885C539.874 115.041 539.583 114.368 539.001 113.866C538.43 113.352 537.671 113.095 536.724 113.095C536.04 113.095 535.395 113.255 534.79 113.575C534.197 113.883 533.689 114.322 533.267 114.893C532.856 115.463 532.565 116.137 532.394 116.913L530.083 127.816H525.204ZM552.292 116.639H560.269C560.281 116.57 560.286 116.49 560.286 116.399C560.298 116.296 560.303 116.205 560.303 116.125C560.303 115.52 560.172 114.967 559.91 114.465C559.647 113.951 559.259 113.54 558.746 113.232C558.244 112.913 557.604 112.753 556.828 112.753C556.075 112.753 555.391 112.924 554.774 113.267C554.17 113.597 553.65 114.054 553.217 114.636C552.794 115.218 552.486 115.885 552.292 116.639ZM555.356 128.227C553.656 128.227 552.195 127.885 550.974 127.2C549.765 126.515 548.835 125.557 548.184 124.324C547.545 123.081 547.226 121.62 547.226 119.942C547.226 118.39 547.459 116.952 547.927 115.629C548.395 114.305 549.063 113.147 549.93 112.154C550.797 111.161 551.83 110.391 553.028 109.843C554.227 109.284 555.55 109.004 557 109.004C558.586 109.004 559.967 109.329 561.142 109.98C562.329 110.619 563.248 111.526 563.898 112.702C564.56 113.877 564.891 115.269 564.891 116.878C564.891 117.323 564.868 117.803 564.822 118.316C564.788 118.83 564.725 119.303 564.634 119.737H551.796C551.785 119.84 551.773 119.942 551.762 120.045C551.762 120.136 551.762 120.228 551.762 120.319C551.762 121.129 551.916 121.842 552.224 122.459C552.532 123.075 552.966 123.56 553.525 123.914C554.095 124.256 554.769 124.427 555.545 124.427C556.515 124.427 557.342 124.205 558.027 123.76C558.711 123.303 559.196 122.704 559.482 121.962H564.086C563.778 123.183 563.213 124.267 562.392 125.215C561.581 126.15 560.577 126.886 559.379 127.423C558.181 127.959 556.84 128.227 555.356 128.227ZM573.903 134.766C572.248 134.766 570.799 134.526 569.555 134.047C568.311 133.579 567.341 132.912 566.645 132.044C565.96 131.189 565.618 130.173 565.618 128.998H570.428C570.542 129.671 570.924 130.207 571.575 130.607C572.225 131.006 573.064 131.206 574.091 131.206C575.358 131.206 576.379 130.903 577.155 130.298C577.931 129.705 578.462 128.798 578.747 127.577L579.38 124.787H579.175C578.627 125.654 577.863 126.339 576.881 126.841C575.9 127.331 574.822 127.577 573.646 127.577C572.357 127.577 571.227 127.28 570.257 126.687C569.287 126.093 568.528 125.26 567.98 124.187C567.444 123.115 567.176 121.854 567.176 120.405C567.176 118.91 567.393 117.483 567.826 116.125C568.26 114.767 568.882 113.563 569.692 112.513C570.502 111.463 571.466 110.636 572.585 110.031C573.703 109.415 574.947 109.113 576.316 109.124C577.663 109.135 578.827 109.484 579.808 110.168C580.801 110.853 581.452 111.749 581.76 112.856H581.965L582.701 109.415H587.46L583.609 127.765C583.118 130.025 582.017 131.753 580.305 132.952C578.593 134.161 576.459 134.766 573.903 134.766ZM575.632 123.948C576.385 123.948 577.075 123.771 577.703 123.417C578.331 123.052 578.867 122.561 579.312 121.945C579.768 121.317 580.122 120.604 580.373 119.805C580.624 118.995 580.75 118.134 580.75 117.221C580.75 116.045 580.408 115.087 579.723 114.345C579.05 113.603 578.188 113.232 577.138 113.232C576.408 113.232 575.734 113.403 575.118 113.746C574.502 114.088 573.971 114.567 573.526 115.184C573.081 115.788 572.733 116.502 572.482 117.323C572.242 118.134 572.123 119.007 572.123 119.942C572.123 121.129 572.425 122.093 573.03 122.835C573.646 123.577 574.513 123.948 575.632 123.948ZM595.24 124.444C595.924 124.444 596.558 124.313 597.14 124.051C597.722 123.788 598.212 123.429 598.612 122.972C599.022 122.504 599.296 121.979 599.433 121.397L599.776 119.84L595.89 119.994C594.84 120.028 594.013 120.256 593.408 120.678C592.803 121.101 592.501 121.666 592.501 122.373C592.501 123.001 592.752 123.503 593.254 123.879C593.767 124.256 594.429 124.444 595.24 124.444ZM593.271 128.107C592.244 128.107 591.308 127.891 590.464 127.457C589.619 127.023 588.952 126.43 588.461 125.677C587.97 124.912 587.725 124.039 587.725 123.058C587.725 121.198 588.432 119.731 589.847 118.659C591.274 117.586 593.225 117.01 595.702 116.93L600.426 116.758L600.649 115.646C600.683 115.497 600.7 115.372 600.7 115.269C600.711 115.167 600.717 115.064 600.717 114.961C600.717 114.322 600.46 113.814 599.947 113.438C599.433 113.05 598.72 112.856 597.807 112.856C597.191 112.856 596.649 112.947 596.181 113.13C595.725 113.301 595.348 113.546 595.051 113.866C594.755 114.174 594.549 114.545 594.435 114.978H589.813C590.03 113.769 590.515 112.719 591.268 111.829C592.021 110.939 592.986 110.248 594.161 109.757C595.337 109.255 596.672 109.004 598.167 109.004C599.639 109.004 600.923 109.238 602.018 109.706C603.125 110.163 603.987 110.802 604.603 111.623C605.219 112.433 605.527 113.381 605.527 114.465C605.527 114.727 605.51 114.995 605.476 115.269C605.453 115.543 605.424 115.783 605.39 115.988L602.874 127.816H598.149L598.629 125.608H598.526C598.172 126.11 597.727 126.55 597.191 126.926C596.666 127.303 596.073 127.594 595.411 127.799C594.749 128.005 594.036 128.107 593.271 128.107ZM614.402 128.022C612.736 128.022 611.401 127.691 610.397 127.029C609.404 126.367 608.908 125.374 608.908 124.051C608.908 123.822 608.919 123.548 608.942 123.229C608.976 122.909 609.027 122.573 609.096 122.219L610.962 113.558H608.223L609.027 109.723H611.766L612.691 105.256H617.586L616.628 109.723H620.393L619.606 113.558H615.857L614.128 121.483C614.083 121.666 614.049 121.865 614.026 122.082C614.003 122.287 613.991 122.464 613.991 122.613C613.991 123.195 614.18 123.611 614.556 123.862C614.944 124.102 615.503 124.222 616.234 124.222C616.451 124.222 616.628 124.222 616.764 124.222C616.913 124.21 617.044 124.199 617.158 124.187C617.272 124.176 617.375 124.159 617.466 124.136L616.696 127.816C616.422 127.873 616.074 127.919 615.652 127.953C615.241 127.999 614.824 128.022 614.402 128.022ZM620.333 127.816L624.236 109.415H629.132L625.229 127.816H620.333ZM627.779 106.984C627.06 106.984 626.444 106.728 625.931 106.214C625.428 105.689 625.177 105.067 625.177 104.348C625.177 103.629 625.428 103.013 625.931 102.5C626.444 101.975 627.06 101.712 627.779 101.712C628.51 101.712 629.126 101.975 629.628 102.5C630.13 103.013 630.381 103.629 630.381 104.348C630.381 105.067 630.13 105.689 629.628 106.214C629.126 106.728 628.51 106.984 627.779 106.984ZM629.499 127.816L633.402 109.415H638.109L637.51 112.239H637.613C638.241 111.212 639.079 110.419 640.129 109.86C641.179 109.29 642.337 109.004 643.604 109.004C644.711 109.004 645.687 109.232 646.531 109.689C647.387 110.134 648.055 110.756 648.534 111.555C649.025 112.342 649.27 113.261 649.27 114.311C649.27 114.642 649.247 115.001 649.201 115.389C649.167 115.766 649.11 116.154 649.03 116.553L646.651 127.816H641.79L643.998 117.358C644.066 117.072 644.112 116.81 644.135 116.57C644.158 116.319 644.169 116.091 644.169 115.885C644.169 115.041 643.878 114.368 643.296 113.866C642.725 113.352 641.966 113.095 641.019 113.095C640.335 113.095 639.69 113.255 639.085 113.575C638.492 113.883 637.984 114.322 637.562 114.893C637.151 115.463 636.86 116.137 636.689 116.913L634.378 127.816H629.499ZM658.196 134.766C656.542 134.766 655.092 134.526 653.849 134.047C652.605 133.579 651.635 132.912 650.939 132.044C650.254 131.189 649.912 130.173 649.912 128.998H654.722C654.836 129.671 655.218 130.207 655.868 130.607C656.519 131.006 657.358 131.206 658.385 131.206C659.651 131.206 660.673 130.903 661.449 130.298C662.225 129.705 662.755 128.798 663.041 127.577L663.674 124.787H663.469C662.921 125.654 662.156 126.339 661.175 126.841C660.193 127.331 659.115 127.577 657.94 127.577C656.65 127.577 655.52 127.28 654.55 126.687C653.58 126.093 652.822 125.26 652.274 124.187C651.737 123.115 651.469 121.854 651.469 120.405C651.469 118.91 651.686 117.483 652.12 116.125C652.553 114.767 653.175 113.563 653.986 112.513C654.796 111.463 655.76 110.636 656.878 110.031C657.997 109.415 659.241 109.113 660.61 109.124C661.957 109.135 663.121 109.484 664.102 110.168C665.095 110.853 665.745 111.749 666.053 112.856H666.259L666.995 109.415H671.754L667.902 127.765C667.411 130.025 666.31 131.753 664.598 132.952C662.887 134.161 660.753 134.766 658.196 134.766ZM659.925 123.948C660.678 123.948 661.369 123.771 661.997 123.417C662.624 123.052 663.161 122.561 663.606 121.945C664.062 121.317 664.416 120.604 664.667 119.805C664.918 118.995 665.043 118.134 665.043 117.221C665.043 116.045 664.701 115.087 664.016 114.345C663.343 113.603 662.482 113.232 661.432 113.232C660.701 113.232 660.028 113.403 659.412 113.746C658.796 114.088 658.265 114.567 657.82 115.184C657.375 115.788 657.027 116.502 656.776 117.323C656.536 118.134 656.416 119.007 656.416 119.942C656.416 121.129 656.719 122.093 657.323 122.835C657.94 123.577 658.807 123.948 659.925 123.948ZM687.604 128.022C685.938 128.022 684.602 127.691 683.598 127.029C682.605 126.367 682.109 125.374 682.109 124.051C682.109 123.822 682.12 123.548 682.143 123.229C682.177 122.909 682.229 122.573 682.297 122.219L684.163 113.558H681.424L682.229 109.723H684.968L685.892 105.256H690.788L689.829 109.723H693.595L692.807 113.558H689.059L687.33 121.483C687.284 121.666 687.25 121.865 687.227 122.082C687.204 122.287 687.193 122.464 687.193 122.613C687.193 123.195 687.381 123.611 687.758 123.862C688.146 124.102 688.705 124.222 689.435 124.222C689.652 124.222 689.829 124.222 689.966 124.222C690.114 124.21 690.245 124.199 690.36 124.187C690.474 124.176 690.576 124.159 690.668 124.136L689.897 127.816C689.624 127.873 689.275 127.919 688.853 127.953C688.442 127.999 688.026 128.022 687.604 128.022ZM692.867 127.816L698.122 103.116H703.001L701.032 112.239H701.135C701.74 111.304 702.544 110.545 703.548 109.963C704.564 109.369 705.745 109.073 707.092 109.073C708.244 109.073 709.248 109.307 710.104 109.775C710.96 110.242 711.622 110.876 712.09 111.675C712.569 112.462 712.809 113.352 712.809 114.345C712.809 114.687 712.786 115.047 712.74 115.423C712.706 115.788 712.649 116.165 712.569 116.553L710.156 127.816H705.294L707.537 117.358C707.594 117.084 707.634 116.833 707.656 116.604C707.691 116.365 707.708 116.142 707.708 115.937C707.708 115.104 707.417 114.425 706.835 113.9C706.253 113.364 705.477 113.095 704.507 113.095C703.777 113.095 703.103 113.261 702.487 113.592C701.871 113.911 701.352 114.356 700.929 114.927C700.518 115.497 700.227 116.159 700.056 116.913L697.745 127.816H692.867ZM720.126 116.639H728.103C728.114 116.57 728.12 116.49 728.12 116.399C728.132 116.296 728.137 116.205 728.137 116.125C728.137 115.52 728.006 114.967 727.744 114.465C727.481 113.951 727.093 113.54 726.58 113.232C726.077 112.913 725.438 112.753 724.662 112.753C723.909 112.753 723.225 112.924 722.608 113.267C722.004 113.597 721.484 114.054 721.051 114.636C720.628 115.218 720.32 115.885 720.126 116.639ZM723.19 128.227C721.49 128.227 720.029 127.885 718.808 127.2C717.599 126.515 716.669 125.557 716.018 124.324C715.379 123.081 715.059 121.62 715.059 119.942C715.059 118.39 715.293 116.952 715.761 115.629C716.229 114.305 716.897 113.147 717.764 112.154C718.631 111.161 719.664 110.391 720.862 109.843C722.061 109.284 723.384 109.004 724.834 109.004C726.42 109.004 727.801 109.329 728.976 109.98C730.163 110.619 731.082 111.526 731.732 112.702C732.394 113.877 732.725 115.269 732.725 116.878C732.725 117.323 732.702 117.803 732.656 118.316C732.622 118.83 732.559 119.303 732.468 119.737H719.63C719.618 119.84 719.607 119.942 719.596 120.045C719.596 120.136 719.596 120.228 719.596 120.319C719.596 121.129 719.75 121.842 720.058 122.459C720.366 123.075 720.8 123.56 721.359 123.914C721.929 124.256 722.603 124.427 723.379 124.427C724.349 124.427 725.176 124.205 725.861 123.76C726.545 123.303 727.03 122.704 727.316 121.962H731.92C731.612 123.183 731.047 124.267 730.226 125.215C729.415 126.15 728.411 126.886 727.213 127.423C726.015 127.959 724.674 128.227 723.19 128.227ZM227.203 172.107C226.279 172.107 225.417 171.948 224.618 171.628C223.831 171.309 223.158 170.864 222.598 170.293C222.051 169.711 221.668 169.049 221.452 168.307H221.332L220.596 171.816H215.871L221.143 147.116H226.005L224.071 156.137C224.093 156.137 224.111 156.137 224.122 156.137C224.133 156.137 224.15 156.137 224.173 156.137C224.71 155.212 225.474 154.482 226.467 153.946C227.471 153.398 228.561 153.124 229.736 153.124C231.06 153.124 232.201 153.421 233.16 154.014C234.13 154.608 234.877 155.463 235.402 156.582C235.939 157.689 236.207 159.018 236.207 160.57C236.207 162.134 235.99 163.611 235.556 165.004C235.134 166.384 234.524 167.611 233.725 168.684C232.926 169.757 231.973 170.595 230.866 171.2C229.771 171.805 228.55 172.107 227.203 172.107ZM226.244 167.982C226.975 167.982 227.642 167.811 228.247 167.469C228.852 167.115 229.377 166.63 229.822 166.014C230.267 165.386 230.609 164.667 230.849 163.857C231.089 163.035 231.209 162.162 231.209 161.238C231.209 159.971 230.9 158.973 230.284 158.242C229.668 157.5 228.806 157.13 227.699 157.13C226.969 157.13 226.29 157.312 225.663 157.677C225.046 158.031 224.504 158.527 224.036 159.167C223.58 159.806 223.22 160.536 222.958 161.358C222.707 162.179 222.581 163.058 222.581 163.994C222.581 165.181 222.918 166.145 223.591 166.887C224.265 167.617 225.149 167.982 226.244 167.982ZM243.576 160.639H251.552C251.564 160.57 251.57 160.49 251.57 160.399C251.581 160.296 251.587 160.205 251.587 160.125C251.587 159.52 251.455 158.967 251.193 158.465C250.93 157.951 250.542 157.54 250.029 157.232C249.527 156.913 248.888 156.753 248.112 156.753C247.359 156.753 246.674 156.924 246.058 157.267C245.453 157.597 244.934 158.054 244.5 158.636C244.078 159.218 243.77 159.885 243.576 160.639ZM246.64 172.227C244.939 172.227 243.479 171.885 242.258 171.2C241.048 170.515 240.118 169.557 239.467 168.324C238.828 167.081 238.509 165.62 238.509 163.942C238.509 162.39 238.743 160.952 239.211 159.629C239.679 158.305 240.346 157.147 241.213 156.154C242.081 155.161 243.113 154.391 244.312 153.843C245.51 153.284 246.834 153.004 248.283 153.004C249.869 153.004 251.25 153.329 252.425 153.98C253.612 154.619 254.531 155.526 255.181 156.702C255.843 157.877 256.174 159.269 256.174 160.878C256.174 161.323 256.151 161.803 256.106 162.316C256.071 162.83 256.009 163.303 255.917 163.737H243.079C243.068 163.84 243.056 163.942 243.045 164.045C243.045 164.136 243.045 164.228 243.045 164.319C243.045 165.129 243.199 165.842 243.507 166.459C243.815 167.075 244.249 167.56 244.808 167.914C245.379 168.256 246.052 168.427 246.828 168.427C247.798 168.427 248.625 168.205 249.31 167.76C249.995 167.303 250.48 166.704 250.765 165.962H255.37C255.062 167.183 254.497 168.267 253.675 169.215C252.865 170.15 251.861 170.886 250.662 171.423C249.464 171.959 248.123 172.227 246.64 172.227ZM257.209 171.816L261.112 153.415H265.82L265.22 156.239H265.323C265.951 155.212 266.79 154.419 267.839 153.86C268.889 153.29 270.048 153.004 271.314 153.004C272.421 153.004 273.397 153.232 274.241 153.689C275.097 154.134 275.765 154.756 276.244 155.555C276.735 156.342 276.98 157.261 276.98 158.311C276.98 158.642 276.957 159.001 276.912 159.389C276.877 159.766 276.82 160.154 276.741 160.553L274.361 171.816H269.5L271.708 161.358C271.776 161.072 271.822 160.81 271.845 160.57C271.868 160.319 271.879 160.091 271.879 159.885C271.879 159.041 271.588 158.368 271.006 157.866C270.436 157.352 269.677 157.095 268.73 157.095C268.045 157.095 267.4 157.255 266.795 157.575C266.202 157.883 265.694 158.322 265.272 158.893C264.861 159.463 264.57 160.137 264.399 160.913L262.088 171.816H257.209ZM284.298 160.639H292.274C292.286 160.57 292.291 160.49 292.291 160.399C292.303 160.296 292.309 160.205 292.309 160.125C292.309 159.52 292.177 158.967 291.915 158.465C291.652 157.951 291.264 157.54 290.751 157.232C290.249 156.913 289.61 156.753 288.834 156.753C288.081 156.753 287.396 156.924 286.78 157.267C286.175 157.597 285.656 158.054 285.222 158.636C284.8 159.218 284.492 159.885 284.298 160.639ZM287.362 172.227C285.661 172.227 284.201 171.885 282.98 171.2C281.77 170.515 280.84 169.557 280.189 168.324C279.55 167.081 279.231 165.62 279.231 163.942C279.231 162.39 279.465 160.952 279.933 159.629C280.4 158.305 281.068 157.147 281.935 156.154C282.803 155.161 283.835 154.391 285.034 153.843C286.232 153.284 287.556 153.004 289.005 153.004C290.591 153.004 291.972 153.329 293.147 153.98C294.334 154.619 295.253 155.526 295.903 156.702C296.565 157.877 296.896 159.269 296.896 160.878C296.896 161.323 296.873 161.803 296.828 162.316C296.793 162.83 296.731 163.303 296.639 163.737H283.801C283.79 163.84 283.778 163.942 283.767 164.045C283.767 164.136 283.767 164.228 283.767 164.319C283.767 165.129 283.921 165.842 284.229 166.459C284.537 167.075 284.971 167.56 285.53 167.914C286.101 168.256 286.774 168.427 287.55 168.427C288.52 168.427 289.347 168.205 290.032 167.76C290.717 167.303 291.202 166.704 291.487 165.962H296.092C295.783 167.183 295.219 168.267 294.397 169.215C293.587 170.15 292.582 170.886 291.384 171.423C290.186 171.959 288.845 172.227 287.362 172.227ZM299.301 171.816L302.365 157.403H299.455L300.242 153.586H303.101L303.512 151.515C303.865 149.769 304.596 148.502 305.703 147.715C306.81 146.916 308.345 146.517 310.307 146.517C310.935 146.517 311.517 146.562 312.053 146.654C312.59 146.734 313.029 146.813 313.371 146.893L312.652 150.334C312.481 150.277 312.242 150.231 311.933 150.197C311.637 150.151 311.3 150.128 310.924 150.128C310.159 150.128 309.554 150.294 309.109 150.625C308.675 150.956 308.39 151.452 308.253 152.114L307.945 153.586H311.831L311.026 157.403H307.243L304.196 171.816H299.301ZM311.411 171.816L315.314 153.415H320.209L316.307 171.816H311.411ZM318.857 150.984C318.138 150.984 317.522 150.728 317.008 150.214C316.506 149.689 316.255 149.067 316.255 148.348C316.255 147.629 316.506 147.013 317.008 146.5C317.522 145.975 318.138 145.712 318.857 145.712C319.588 145.712 320.204 145.975 320.706 146.5C321.208 147.013 321.459 147.629 321.459 148.348C321.459 149.067 321.208 149.689 320.706 150.214C320.204 150.728 319.588 150.984 318.857 150.984ZM328.537 172.022C326.871 172.022 325.536 171.691 324.531 171.029C323.538 170.367 323.042 169.374 323.042 168.051C323.042 167.822 323.053 167.548 323.076 167.229C323.111 166.909 323.162 166.573 323.23 166.219L325.096 157.558H322.357L323.162 153.723H325.901L326.825 149.256H331.721L330.762 153.723H334.528L333.741 157.558H329.992L328.263 165.483C328.217 165.666 328.183 165.865 328.16 166.082C328.137 166.287 328.126 166.464 328.126 166.613C328.126 167.195 328.314 167.611 328.691 167.862C329.079 168.102 329.638 168.222 330.368 168.222C330.585 168.222 330.762 168.222 330.899 168.222C331.047 168.21 331.179 168.199 331.293 168.187C331.407 168.176 331.51 168.159 331.601 168.136L330.831 171.816C330.557 171.873 330.209 171.919 329.786 171.953C329.376 171.999 328.959 172.022 328.537 172.022ZM336.214 158.893C336.214 157.729 336.527 156.707 337.155 155.829C337.794 154.939 338.684 154.248 339.825 153.757C340.967 153.267 342.302 153.021 343.831 153.021C345.292 153.021 346.581 153.272 347.7 153.775C348.818 154.277 349.697 154.978 350.336 155.88C350.986 156.77 351.328 157.797 351.363 158.961H346.912C346.878 158.493 346.718 158.077 346.433 157.712C346.159 157.346 345.794 157.067 345.337 156.873C344.881 156.667 344.356 156.565 343.762 156.565C343.169 156.565 342.656 156.645 342.222 156.804C341.8 156.964 341.469 157.187 341.229 157.472C341.001 157.746 340.887 158.071 340.887 158.448C340.887 158.927 341.075 159.315 341.452 159.612C341.828 159.908 342.519 160.216 343.523 160.536L345.354 161.152C347.066 161.711 348.287 162.379 349.018 163.155C349.748 163.92 350.113 164.912 350.113 166.133C350.113 167.332 349.776 168.393 349.103 169.317C348.441 170.23 347.517 170.943 346.33 171.457C345.143 171.97 343.762 172.227 342.188 172.227C340.579 172.227 339.169 171.97 337.96 171.457C336.75 170.943 335.803 170.224 335.118 169.3C334.445 168.376 334.085 167.309 334.04 166.099H338.73C338.821 166.852 339.181 167.469 339.808 167.948C340.447 168.427 341.292 168.667 342.342 168.667C342.924 168.667 343.432 168.581 343.865 168.41C344.31 168.239 344.653 167.999 344.892 167.691C345.132 167.383 345.252 167.035 345.252 166.647C345.252 166.213 345.075 165.86 344.721 165.586C344.367 165.312 343.7 165.021 342.718 164.713L341.092 164.165C339.403 163.606 338.165 162.904 337.378 162.059C336.602 161.215 336.214 160.159 336.214 158.893ZM369.849 168.187C370.83 168.187 371.703 167.891 372.468 167.297C373.232 166.693 373.832 165.877 374.265 164.85C374.71 163.811 374.933 162.647 374.933 161.358C374.933 160.057 374.613 159.012 373.974 158.225C373.347 157.438 372.502 157.044 371.441 157.044C370.459 157.044 369.581 157.341 368.805 157.934C368.04 158.527 367.435 159.343 366.99 160.382C366.557 161.409 366.34 162.573 366.34 163.874C366.34 165.163 366.659 166.208 367.298 167.006C367.937 167.794 368.788 168.187 369.849 168.187ZM371.612 153.004C373.278 153.004 374.733 153.347 375.977 154.031C377.221 154.716 378.185 155.68 378.87 156.924C379.566 158.157 379.914 159.594 379.914 161.238C379.914 162.813 379.657 164.273 379.144 165.62C378.642 166.955 377.928 168.113 377.004 169.095C376.091 170.076 375.013 170.846 373.769 171.406C372.536 171.953 371.178 172.227 369.695 172.227C368.029 172.227 366.574 171.885 365.33 171.2C364.086 170.504 363.116 169.54 362.42 168.307C361.735 167.063 361.393 165.62 361.393 163.977C361.393 162.413 361.644 160.964 362.146 159.629C362.66 158.282 363.373 157.118 364.286 156.137C365.21 155.144 366.288 154.374 367.521 153.826C368.765 153.278 370.129 153.004 371.612 153.004ZM382.336 171.816L385.4 157.403H382.49L383.277 153.586H386.136L386.547 151.515C386.9 149.769 387.631 148.502 388.738 147.715C389.845 146.916 391.38 146.517 393.342 146.517C393.97 146.517 394.552 146.562 395.088 146.654C395.625 146.734 396.064 146.813 396.406 146.893L395.687 150.334C395.516 150.277 395.277 150.231 394.969 150.197C394.672 150.151 394.335 150.128 393.959 150.128C393.194 150.128 392.589 150.294 392.144 150.625C391.711 150.956 391.425 151.452 391.288 152.114L390.98 153.586H394.866L394.061 157.403H390.278L387.231 171.816H382.336ZM416.382 152.131L411.127 161.94H417.529L416.502 152.131H416.382ZM418.453 171.816L417.837 165.928H409.141L405.923 171.816H400.411L414.362 147.116H420.456L423.64 171.816H418.453ZM431.642 171.816H426.438L431.693 147.116H436.897L431.642 171.816ZM451.84 168.444C452.525 168.444 453.158 168.313 453.74 168.051C454.322 167.788 454.813 167.429 455.212 166.972C455.623 166.504 455.897 165.979 456.034 165.397L456.376 163.84L452.49 163.994C451.44 164.028 450.613 164.256 450.008 164.678C449.403 165.101 449.101 165.666 449.101 166.373C449.101 167.001 449.352 167.503 449.854 167.879C450.368 168.256 451.03 168.444 451.84 168.444ZM449.871 172.107C448.844 172.107 447.908 171.891 447.064 171.457C446.22 171.023 445.552 170.43 445.061 169.677C444.571 168.912 444.325 168.039 444.325 167.058C444.325 165.198 445.033 163.731 446.448 162.659C447.874 161.586 449.826 161.01 452.302 160.93L457.026 160.758L457.249 159.646C457.283 159.497 457.3 159.372 457.3 159.269C457.312 159.167 457.317 159.064 457.317 158.961C457.317 158.322 457.061 157.814 456.547 157.438C456.034 157.05 455.32 156.856 454.407 156.856C453.791 156.856 453.249 156.947 452.781 157.13C452.325 157.301 451.948 157.546 451.652 157.866C451.355 158.174 451.149 158.545 451.035 158.978H446.414C446.63 157.769 447.115 156.719 447.869 155.829C448.622 154.939 449.586 154.248 450.761 153.757C451.937 153.255 453.272 153.004 454.767 153.004C456.239 153.004 457.523 153.238 458.618 153.706C459.725 154.163 460.587 154.802 461.203 155.623C461.819 156.433 462.127 157.381 462.127 158.465C462.127 158.727 462.11 158.995 462.076 159.269C462.053 159.543 462.025 159.783 461.991 159.988L459.474 171.816H454.75L455.229 169.608H455.126C454.773 170.11 454.328 170.55 453.791 170.926C453.266 171.303 452.673 171.594 452.011 171.799C451.349 172.005 450.636 172.107 449.871 172.107ZM483.995 153.415L480.092 171.816H475.385L475.984 168.992H475.881C475.55 169.597 475.088 170.145 474.495 170.635C473.913 171.126 473.234 171.514 472.458 171.799C471.693 172.085 470.866 172.227 469.976 172.227C468.812 172.227 467.802 171.999 466.946 171.543C466.09 171.086 465.428 170.464 464.96 169.677C464.504 168.878 464.275 167.959 464.275 166.921C464.275 166.544 464.292 166.133 464.327 165.688C464.372 165.243 464.435 164.838 464.515 164.473L466.843 153.415H471.739L469.548 163.668C469.502 163.897 469.462 164.153 469.428 164.439C469.405 164.713 469.394 164.947 469.394 165.141C469.394 166.076 469.65 166.79 470.164 167.28C470.677 167.76 471.436 167.999 472.44 167.999C473.182 167.999 473.85 167.839 474.443 167.52C475.048 167.2 475.55 166.755 475.95 166.185C476.36 165.603 476.651 164.924 476.823 164.148L479.099 153.415H483.995ZM491.723 172.022C490.057 172.022 488.722 171.691 487.717 171.029C486.725 170.367 486.228 169.374 486.228 168.051C486.228 167.822 486.24 167.548 486.262 167.229C486.297 166.909 486.348 166.573 486.417 166.219L488.282 157.558H485.544L486.348 153.723H489.087L490.011 149.256H494.907L493.948 153.723H497.714L496.927 157.558H493.178L491.449 165.483C491.403 165.666 491.369 165.865 491.346 166.082C491.324 166.287 491.312 166.464 491.312 166.613C491.312 167.195 491.5 167.611 491.877 167.862C492.265 168.102 492.824 168.222 493.555 168.222C493.771 168.222 493.948 168.222 494.085 168.222C494.234 168.21 494.365 168.199 494.479 168.187C494.593 168.176 494.696 168.159 494.787 168.136L494.017 171.816C493.743 171.873 493.395 171.919 492.973 171.953C492.562 171.999 492.145 172.022 491.723 172.022ZM506.487 168.187C507.468 168.187 508.341 167.891 509.105 167.297C509.87 166.693 510.469 165.877 510.903 164.85C511.348 163.811 511.57 162.647 511.57 161.358C511.57 160.057 511.251 159.012 510.612 158.225C509.984 157.438 509.14 157.044 508.078 157.044C507.097 157.044 506.218 157.341 505.442 157.934C504.678 158.527 504.073 159.343 503.628 160.382C503.194 161.409 502.977 162.573 502.977 163.874C502.977 165.163 503.297 166.208 503.936 167.006C504.575 167.794 505.425 168.187 506.487 168.187ZM508.25 153.004C509.916 153.004 511.371 153.347 512.615 154.031C513.858 154.716 514.823 155.68 515.507 156.924C516.204 158.157 516.552 159.594 516.552 161.238C516.552 162.813 516.295 164.273 515.781 165.62C515.279 166.955 514.566 168.113 513.642 169.095C512.729 170.076 511.65 170.846 510.406 171.406C509.174 171.953 507.816 172.227 506.332 172.227C504.666 172.227 503.211 171.885 501.967 171.2C500.724 170.504 499.754 169.54 499.057 168.307C498.373 167.063 498.03 165.62 498.03 163.977C498.03 162.413 498.282 160.964 498.784 159.629C499.297 158.282 500.01 157.118 500.923 156.137C501.848 155.144 502.926 154.374 504.159 153.826C505.402 153.278 506.766 153.004 508.25 153.004ZM517.604 171.816L521.507 153.415H526.214L525.581 156.342H525.683C526.208 155.372 526.962 154.573 527.943 153.946C528.924 153.318 529.991 153.004 531.144 153.004C532.365 153.004 533.392 153.318 534.225 153.946C535.058 154.573 535.606 155.355 535.868 156.291H535.954C536.376 155.675 536.884 155.121 537.477 154.63C538.082 154.128 538.767 153.735 539.532 153.449C540.296 153.153 541.146 153.004 542.082 153.004C543.075 153.004 543.954 153.227 544.718 153.672C545.494 154.105 546.105 154.705 546.55 155.469C546.995 156.234 547.217 157.118 547.217 158.122C547.217 158.453 547.194 158.801 547.149 159.167C547.115 159.532 547.058 159.908 546.978 160.296L544.547 171.816H539.686L541.945 161.049C542.002 160.787 542.042 160.542 542.065 160.313C542.099 160.085 542.116 159.863 542.116 159.646C542.116 158.915 541.888 158.311 541.432 157.831C540.975 157.341 540.347 157.095 539.549 157.095C538.978 157.095 538.436 157.238 537.922 157.523C537.409 157.797 536.964 158.197 536.587 158.721C536.222 159.246 535.96 159.874 535.8 160.604L533.438 171.816H528.73L530.99 161.049C531.047 160.787 531.087 160.542 531.11 160.313C531.144 160.085 531.161 159.863 531.161 159.646C531.161 158.915 530.933 158.311 530.476 157.831C530.031 157.341 529.404 157.095 528.593 157.095C528.023 157.095 527.481 157.244 526.967 157.54C526.454 157.826 526.009 158.231 525.632 158.756C525.267 159.269 525.01 159.885 524.862 160.604L522.482 171.816H517.604ZM556.092 168.444C556.777 168.444 557.41 168.313 557.992 168.051C558.574 167.788 559.065 167.429 559.465 166.972C559.875 166.504 560.149 165.979 560.286 165.397L560.629 163.84L556.743 163.994C555.693 164.028 554.866 164.256 554.261 164.678C553.656 165.101 553.354 165.666 553.354 166.373C553.354 167.001 553.605 167.503 554.107 167.879C554.62 168.256 555.282 168.444 556.092 168.444ZM554.124 172.107C553.097 172.107 552.161 171.891 551.317 171.457C550.472 171.023 549.805 170.43 549.314 169.677C548.823 168.912 548.578 168.039 548.578 167.058C548.578 165.198 549.285 163.731 550.7 162.659C552.127 161.586 554.078 161.01 556.555 160.93L561.279 160.758L561.502 159.646C561.536 159.497 561.553 159.372 561.553 159.269C561.564 159.167 561.57 159.064 561.57 158.961C561.57 158.322 561.313 157.814 560.8 157.438C560.286 157.05 559.573 156.856 558.66 156.856C558.044 156.856 557.502 156.947 557.034 157.13C556.577 157.301 556.201 157.546 555.904 157.866C555.607 158.174 555.402 158.545 555.288 158.978H550.666C550.883 157.769 551.368 156.719 552.121 155.829C552.874 154.939 553.839 154.248 555.014 153.757C556.189 153.255 557.525 153.004 559.02 153.004C560.492 153.004 561.775 153.238 562.871 153.706C563.978 154.163 564.839 154.802 565.456 155.623C566.072 156.433 566.38 157.381 566.38 158.465C566.38 158.727 566.363 158.995 566.329 159.269C566.306 159.543 566.277 159.783 566.243 159.988L563.727 171.816H559.002L559.482 169.608H559.379C559.025 170.11 558.58 170.55 558.044 170.926C557.519 171.303 556.925 171.594 556.264 171.799C555.602 172.005 554.888 172.107 554.124 172.107ZM575.255 172.022C573.589 172.022 572.254 171.691 571.25 171.029C570.257 170.367 569.76 169.374 569.76 168.051C569.76 167.822 569.772 167.548 569.795 167.229C569.829 166.909 569.88 166.573 569.949 166.219L571.815 157.558H569.076L569.88 153.723H572.619L573.543 149.256H578.439L577.48 153.723H581.246L580.459 157.558H576.71L574.981 165.483C574.936 165.666 574.901 165.865 574.879 166.082C574.856 166.287 574.844 166.464 574.844 166.613C574.844 167.195 575.033 167.611 575.409 167.862C575.797 168.102 576.356 168.222 577.087 168.222C577.304 168.222 577.48 168.222 577.617 168.222C577.766 168.21 577.897 168.199 578.011 168.187C578.125 168.176 578.228 168.159 578.319 168.136L577.549 171.816C577.275 171.873 576.927 171.919 576.505 171.953C576.094 171.999 575.677 172.022 575.255 172.022ZM581.186 171.816L585.089 153.415H589.984L586.082 171.816H581.186ZM588.632 150.984C587.913 150.984 587.297 150.728 586.783 150.214C586.281 149.689 586.03 149.067 586.03 148.348C586.03 147.629 586.281 147.013 586.783 146.5C587.297 145.975 587.913 145.712 588.632 145.712C589.362 145.712 589.979 145.975 590.481 146.5C590.983 147.013 591.234 147.629 591.234 148.348C591.234 149.067 590.983 149.689 590.481 150.214C589.979 150.728 589.362 150.984 588.632 150.984ZM600.092 168.187C601.073 168.187 601.946 167.891 602.711 167.297C603.476 166.693 604.075 165.877 604.508 164.85C604.953 163.811 605.176 162.647 605.176 161.358C605.176 160.057 604.856 159.012 604.217 158.225C603.59 157.438 602.745 157.044 601.684 157.044C600.703 157.044 599.824 157.341 599.048 157.934C598.283 158.527 597.678 159.343 597.233 160.382C596.8 161.409 596.583 162.573 596.583 163.874C596.583 165.163 596.902 166.208 597.541 167.006C598.181 167.794 599.031 168.187 600.092 168.187ZM601.855 153.004C603.521 153.004 604.976 153.347 606.22 154.031C607.464 154.716 608.428 155.68 609.113 156.924C609.809 158.157 610.157 159.594 610.157 161.238C610.157 162.813 609.9 164.273 609.387 165.62C608.885 166.955 608.171 168.113 607.247 169.095C606.334 170.076 605.256 170.846 604.012 171.406C602.779 171.953 601.421 172.227 599.938 172.227C598.272 172.227 596.817 171.885 595.573 171.2C594.329 170.504 593.359 169.54 592.663 168.307C591.978 167.063 591.636 165.62 591.636 163.977C591.636 162.413 591.887 160.964 592.389 159.629C592.903 158.282 593.616 157.118 594.529 156.137C595.453 155.144 596.532 154.374 597.764 153.826C599.008 153.278 600.372 153.004 601.855 153.004ZM611.209 171.816L615.112 153.415H619.82L619.22 156.239H619.323C619.951 155.212 620.79 154.419 621.839 153.86C622.889 153.29 624.048 153.004 625.314 153.004C626.421 153.004 627.397 153.232 628.241 153.689C629.097 154.134 629.765 154.756 630.244 155.555C630.735 156.342 630.98 157.261 630.98 158.311C630.98 158.642 630.957 159.001 630.912 159.389C630.878 159.766 630.82 160.154 630.741 160.553L628.361 171.816H623.5L625.708 161.358C625.777 161.072 625.822 160.81 625.845 160.57C625.868 160.319 625.879 160.091 625.879 159.885C625.879 159.041 625.588 158.368 625.006 157.866C624.436 157.352 623.677 157.095 622.73 157.095C622.045 157.095 621.4 157.255 620.795 157.575C620.202 157.883 619.694 158.322 619.272 158.893C618.861 159.463 618.57 160.137 618.399 160.913L616.088 171.816H611.209ZM635.696 172.022C634.931 172.022 634.281 171.748 633.744 171.2C633.208 170.641 632.94 169.968 632.94 169.18C632.94 168.404 633.208 167.742 633.744 167.195C634.281 166.636 634.931 166.356 635.696 166.356C636.46 166.356 637.111 166.636 637.647 167.195C638.184 167.742 638.452 168.404 638.452 169.18C638.452 169.968 638.184 170.641 637.647 171.2C637.111 171.748 636.46 172.022 635.696 172.022Z" fill="black"/>
</g>
<g filter="url(#filter0_d_2238_741)">
<circle cx="108.523" cy="115.226" r="60.8489" fill="url(#paint0_linear_2238_741)"/>
<circle cx="108.523" cy="115.226" r="60.8489" fill="url(#paint1_linear_2238_741)"/>
<circle cx="108.523" cy="115.226" r="60.8489" fill="url(#paint2_linear_2238_741)"/>
</g>
<path d="M107.752 146.312C97.8691 146.312 91.4629 142.289 88.5332 136.625C87.791 135.258 87.4785 133.969 87.4785 132.641C87.4785 129.984 89.1582 128.305 91.9707 128.305C94.041 128.305 95.291 129.203 96.3457 131.273C98.2988 135.531 101.697 138.07 107.869 138.07C114.275 138.07 118.611 134.398 118.611 129.281C118.65 123.266 114.275 119.906 107.049 119.906H103.846C101.346 119.906 99.8613 118.383 99.8613 116.156C99.8613 113.93 101.346 112.406 103.846 112.406H106.814C113.025 112.406 117.166 108.852 117.166 103.852C117.166 98.9688 113.963 95.6875 107.713 95.6875C102.4 95.6875 99.3145 97.875 97.4395 102.289C96.3457 104.711 95.252 105.609 92.9082 105.609C90.0957 105.609 88.6113 103.969 88.6113 101.391C88.6113 99.9844 88.8848 98.7344 89.5879 97.3672C92.2441 91.7812 98.4941 87.6797 107.674 87.6797C119.354 87.6797 126.854 93.7734 126.854 102.484C126.854 109.555 121.814 114.281 115.018 115.688V115.883C123.338 116.664 128.846 121.664 128.846 129.516C128.846 139.516 120.096 146.312 107.752 146.312Z" fill="white"/>
<defs>
<filter id="filter0_d_2238_741" x="36.8295" y="48.3523" width="145.797" height="145.797" filterUnits="userSpaceOnUse" color-interpolation-filters="sRGB">
<feFlood flood-opacity="0" result="BackgroundImageFix"/>
<feColorMatrix in="SourceAlpha" type="matrix" values="0 0 0 0 0 0 0 0 0 0 0 0 0 0 0 0 0 0 127 0" result="hardAlpha"/>
<feOffset dx="1.20493" dy="6.02464"/>
<feGaussianBlur stdDeviation="6.02464"/>
<feComposite in2="hardAlpha" operator="out"/>
<feColorMatrix type="matrix" values="0 0 0 0 0 0 0 0 0 0 0 0 0 0 0 0 0 0 0.1 0"/>
<feBlend mode="normal" in2="BackgroundImageFix" result="effect1_dropShadow_2238_741"/>
<feBlend mode="normal" in="SourceGraphic" in2="effect1_dropShadow_2238_741" result="shape"/>
</filter>
<linearGradient id="paint0_linear_2238_741" x1="62.3322" y1="54.7148" x2="108.523" y2="176.075" gradientUnits="userSpaceOnUse">
<stop stop-color="#FDFDFD"/>
<stop offset="1" stop-color="#979797"/>
</linearGradient>
<linearGradient id="paint1_linear_2238_741" x1="61.1958" y1="54.377" x2="156.464" y2="213.568" gradientUnits="userSpaceOnUse">
<stop offset="0.00742078" stop-color="#FFBAB5"/>
<stop offset="1" stop-color="#FF004D"/>
</linearGradient>
<linearGradient id="paint2_linear_2238_741" x1="136.714" y1="182.679" x2="58.9063" y2="54.4641" gradientUnits="userSpaceOnUse">
<stop stop-color="#FF8C00"/>
<stop offset="1" stop-color="#FFE958"/>
</linearGradient>
</defs>
</svg>
