<svg width="940" height="227" viewBox="0 0 940 227" fill="none" xmlns="http://www.w3.org/2000/svg">
<mask id="path-1-inside-1_2358_908" fill="white">
<path d="M0 80.8453C0 52.5468 0 38.3975 5.50726 27.5889C10.3516 18.0814 18.0814 10.3516 27.5889 5.50726C38.3975 0 52.5468 0 80.8453 0H858.491C886.79 0 900.939 0 911.747 5.50726C921.255 10.3516 928.985 18.0814 933.829 27.5889C939.336 38.3975 939.336 52.5468 939.336 80.8453V145.552C939.336 173.85 939.336 187.999 933.829 198.808C928.985 208.316 921.255 216.045 911.747 220.89C900.939 226.397 886.79 226.397 858.491 226.397H80.8453C52.5468 226.397 38.3975 226.397 27.5889 220.89C18.0814 216.045 10.3516 208.316 5.50726 198.808C0 187.999 0 173.85 0 145.552V80.8453Z"/>
</mask>
<path d="M0 80.8453C0 52.5468 0 38.3975 5.50726 27.5889C10.3516 18.0814 18.0814 10.3516 27.5889 5.50726C38.3975 0 52.5468 0 80.8453 0H858.491C886.79 0 900.939 0 911.747 5.50726C921.255 10.3516 928.985 18.0814 933.829 27.5889C939.336 38.3975 939.336 52.5468 939.336 80.8453V145.552C939.336 173.85 939.336 187.999 933.829 198.808C928.985 208.316 921.255 216.045 911.747 220.89C900.939 226.397 886.79 226.397 858.491 226.397H80.8453C52.5468 226.397 38.3975 226.397 27.5889 220.89C18.0814 216.045 10.3516 208.316 5.50726 198.808C0 187.999 0 173.85 0 145.552V80.8453Z" fill="#FCFCFC"/>
<path d="M0 0H939.336H0ZM943.379 175.869C943.379 205.449 919.399 229.429 889.819 229.429H53.56C23.9796 229.429 0 205.449 0 175.869V175.869C0 202.1 22.6223 223.365 50.5283 223.365H888.808C914.482 223.365 935.294 202.1 935.294 175.869L943.379 175.869ZM0 226.397V0V226.397ZM888.808 0C918.947 0 943.379 24.4321 943.379 54.5706V175.869C943.379 205.449 919.399 229.429 889.819 229.429L888.808 223.365C914.482 223.365 935.294 202.1 935.294 175.869V50.5283C935.294 22.6223 914.482 0 888.808 0H888.808Z" fill="white" style="mix-blend-mode:overlay" mask="url(#path-1-inside-1_2358_908)"/>
<g opacity="0.8">
<path d="M224.793 81.8086V60.7638H217.378V57.0389H236.603V60.7638H229.205V81.8086H224.793ZM243.357 82.1691C241.572 82.1691 240.021 81.7914 238.705 81.0361C237.389 80.2694 236.365 79.1823 235.633 77.7747C234.912 76.3557 234.551 74.6678 234.551 72.7109V72.6766C234.551 70.7312 234.918 69.0547 235.65 67.6471C236.382 66.2281 237.407 65.141 238.723 64.3857C240.039 63.619 241.578 63.2356 243.34 63.2356C245.114 63.2356 246.659 63.619 247.975 64.3857C249.302 65.141 250.332 66.2224 251.064 67.6299C251.797 69.0375 252.163 70.7197 252.163 72.6766V72.7109C252.163 74.6792 251.797 76.3729 251.064 77.7919C250.344 79.1994 249.325 80.2809 248.009 81.0361C246.693 81.7914 245.142 82.1691 243.357 82.1691ZM243.374 78.7188C244.278 78.7188 245.062 78.4842 245.726 78.015C246.39 77.5458 246.899 76.8649 247.254 75.9723C247.62 75.0683 247.803 73.9812 247.803 72.7109V72.6766C247.803 71.4178 247.62 70.3421 247.254 69.4495C246.888 68.5569 246.367 67.876 245.692 67.4068C245.028 66.9376 244.244 66.703 243.34 66.703C242.459 66.703 241.681 66.9376 241.006 67.4068C240.342 67.876 239.821 68.5569 239.443 69.4495C239.077 70.3421 238.894 71.4178 238.894 72.6766V72.7109C238.894 73.9812 239.077 75.0683 239.443 75.9723C239.821 76.8649 240.342 77.5458 241.006 78.015C241.681 78.4842 242.47 78.7188 243.374 78.7188ZM262.805 81.8086V63.6132H267.079V81.8086H262.805ZM264.933 61.0041C264.27 61.0041 263.709 60.7752 263.251 60.3175C262.793 59.8597 262.565 59.3104 262.565 58.6696C262.565 58.0173 262.793 57.468 263.251 57.0217C263.709 56.564 264.27 56.3351 264.933 56.3351C265.609 56.3351 266.175 56.564 266.633 57.0217C267.091 57.468 267.319 58.0173 267.319 58.6696C267.319 59.3104 267.091 59.8597 266.633 60.3175C266.175 60.7752 265.609 61.0041 264.933 61.0041ZM271.07 81.8086V63.6132H275.327V66.4627H275.43C275.899 65.4785 276.597 64.6947 277.524 64.111C278.462 63.5274 279.618 63.2356 280.991 63.2356C282.994 63.2356 284.539 63.8421 285.626 65.0551C286.725 66.2682 287.274 67.9275 287.274 70.0331V81.8086H283V70.8914C283 69.5982 282.696 68.6027 282.09 67.9046C281.483 67.1951 280.574 66.8403 279.361 66.8403C278.548 66.8403 277.839 67.0292 277.232 67.4068C276.626 67.773 276.156 68.288 275.825 68.9517C275.493 69.604 275.327 70.3707 275.327 71.2519V81.8086H271.07ZM295.899 81.8086L289.462 63.6132H294.011L298.234 77.8434H298.337L302.559 63.6132H307.005L300.603 81.8086H295.899ZM316.678 82.1691C314.858 82.1691 313.29 81.7857 311.974 81.019C310.67 80.2523 309.668 79.1651 308.97 77.7576C308.272 76.35 307.923 74.6849 307.923 72.7624V72.7452C307.923 70.8342 308.272 69.1691 308.97 67.7501C309.68 66.3197 310.67 65.2096 311.94 64.42C313.222 63.6304 314.732 63.2356 316.472 63.2356C318.2 63.2356 319.693 63.619 320.952 64.3857C322.222 65.141 323.195 66.2052 323.87 67.5785C324.557 68.9517 324.9 70.5538 324.9 72.3848V73.758H310.035V70.9085H322.857L320.797 73.5692V71.9213C320.797 70.7312 320.614 69.7413 320.248 68.9517C319.882 68.1621 319.378 67.5727 318.737 67.1836C318.097 66.7831 317.359 66.5829 316.523 66.5829C315.676 66.5829 314.921 66.7888 314.257 67.2008C313.605 67.6013 313.09 68.2021 312.712 69.0032C312.346 69.8042 312.163 70.7769 312.163 71.9213V73.5692C312.163 74.6792 312.346 75.629 312.712 76.4186C313.09 77.1968 313.622 77.7976 314.309 78.221C314.995 78.633 315.814 78.839 316.763 78.839C317.473 78.839 318.097 78.7303 318.634 78.5128C319.172 78.284 319.613 77.9921 319.956 77.6374C320.311 77.2826 320.557 76.8993 320.694 76.4873L320.729 76.3672H324.711L324.677 76.556C324.528 77.254 324.253 77.9406 323.853 78.6158C323.452 79.2796 322.914 79.8803 322.239 80.4182C321.564 80.956 320.763 81.3852 319.836 81.7056C318.909 82.0146 317.856 82.1691 316.678 82.1691ZM335.087 82.1691C333.497 82.1691 332.135 81.9345 331.002 81.4653C329.88 80.9961 328.999 80.3381 328.358 79.4913C327.729 78.633 327.346 77.6431 327.208 76.5216L327.191 76.3672H331.397L331.431 76.5216C331.591 77.3113 331.969 77.9235 332.564 78.3583C333.17 78.7932 334.017 79.0106 335.104 79.0106C335.802 79.0106 336.397 78.9248 336.89 78.7531C337.382 78.5815 337.759 78.3297 338.022 77.9979C338.297 77.666 338.434 77.2769 338.434 76.8306V76.8135C338.434 76.2756 338.251 75.8407 337.885 75.5089C337.519 75.1656 336.861 74.8852 335.911 74.6678L332.89 73.9983C331.734 73.7351 330.767 73.3746 329.989 72.9169C329.211 72.4592 328.627 71.8927 328.238 71.2175C327.849 70.5309 327.655 69.7356 327.655 68.8315V68.8144C327.655 67.7043 327.958 66.7316 328.564 65.8962C329.171 65.0609 330.023 64.4086 331.122 63.9394C332.221 63.4702 333.497 63.2356 334.95 63.2356C336.46 63.2356 337.754 63.4874 338.829 63.9909C339.905 64.4944 340.735 65.1696 341.318 66.0164C341.913 66.8632 342.234 67.813 342.28 68.8659L342.297 69.0547H338.314L338.297 68.9174C338.206 68.185 337.874 67.5842 337.302 67.115C336.729 66.6344 335.945 66.394 334.95 66.394C334.32 66.394 333.771 66.4856 333.302 66.6687C332.844 66.8518 332.489 67.1093 332.238 67.4411C331.997 67.773 331.877 68.1621 331.877 68.6084V68.6255C331.877 68.9689 331.963 69.2778 332.135 69.5525C332.306 69.8271 332.581 70.0674 332.959 70.2734C333.336 70.468 333.84 70.6396 334.469 70.7884L337.49 71.4578C339.379 71.8813 340.723 72.4878 341.524 73.2774C342.325 74.0555 342.726 75.1026 342.726 76.4186V76.4358C342.726 77.5802 342.4 78.5872 341.747 79.4569C341.095 80.3152 340.191 80.9847 339.035 81.4653C337.891 81.9345 336.575 82.1691 335.087 82.1691ZM352.553 82.1691C350.664 82.1691 349.257 81.7571 348.33 80.9332C347.414 80.1092 346.957 78.7589 346.957 76.8821V66.909H344.382V63.6132H346.957V58.9957H351.3V63.6132H354.681V66.909H351.3V76.5388C351.3 77.42 351.494 78.0322 351.883 78.3755C352.284 78.7074 352.867 78.8733 353.634 78.8733C353.852 78.8733 354.04 78.8676 354.201 78.8561C354.372 78.8333 354.532 78.8161 354.681 78.8046V82.0146C354.429 82.0489 354.12 82.0832 353.754 82.1176C353.4 82.1519 352.999 82.1691 352.553 82.1691ZM358.088 81.8086V63.6132H362.362V81.8086H358.088ZM360.217 61.0041C359.553 61.0041 358.992 60.7752 358.534 60.3175C358.077 59.8597 357.848 59.3104 357.848 58.6696C357.848 58.0173 358.077 57.468 358.534 57.0217C358.992 56.564 359.553 56.3351 360.217 56.3351C360.892 56.3351 361.458 56.564 361.916 57.0217C362.374 57.468 362.603 58.0173 362.603 58.6696C362.603 59.3104 362.374 59.8597 361.916 60.3175C361.458 60.7752 360.892 61.0041 360.217 61.0041ZM374.558 88.177C372.956 88.177 371.554 87.9538 370.353 87.5075C369.162 87.0727 368.213 86.4719 367.503 85.7051C366.794 84.9384 366.353 84.0802 366.181 83.1303L366.147 82.9758H370.335L370.404 83.1132C370.633 83.6396 371.102 84.0744 371.812 84.4177C372.533 84.7725 373.442 84.9499 374.541 84.9499C375.937 84.9499 377.007 84.6066 377.751 83.9199C378.495 83.2333 378.867 82.3121 378.867 81.1563V78.53H378.781C378.449 79.1823 378.003 79.743 377.442 80.2122C376.893 80.6814 376.246 81.0476 375.502 81.3108C374.77 81.574 373.969 81.7056 373.099 81.7056C371.577 81.7056 370.25 81.3337 369.117 80.5898C367.995 79.846 367.125 78.7932 366.507 77.4314C365.901 76.0582 365.598 74.4275 365.598 72.5393V72.5221C365.598 70.5996 365.907 68.9517 366.525 67.5785C367.154 66.1938 368.035 65.1238 369.168 64.3685C370.301 63.6132 371.634 63.2356 373.168 63.2356C374.026 63.2356 374.816 63.3844 375.537 63.6819C376.257 63.968 376.887 64.3685 377.425 64.8835C377.974 65.3984 378.42 66.005 378.764 66.703H378.867V63.6132H383.141V81.2936C383.141 82.6669 382.792 83.8684 382.094 84.8984C381.396 85.9397 380.406 86.7465 379.124 87.3187C377.842 87.8909 376.32 88.177 374.558 88.177ZM374.438 78.4098C375.331 78.4098 376.109 78.1752 376.772 77.7061C377.436 77.2254 377.951 76.5502 378.317 75.6805C378.695 74.8108 378.884 73.7923 378.884 72.6251V72.6079C378.884 71.4292 378.695 70.4107 378.317 69.5525C377.94 68.6828 377.419 68.0133 376.755 67.5441C376.092 67.0749 375.319 66.8403 374.438 66.8403C373.522 66.8403 372.727 67.0749 372.052 67.5441C371.377 68.0133 370.856 68.677 370.49 69.5353C370.124 70.3936 369.941 71.4178 369.941 72.6079V72.6251C369.941 73.8152 370.124 74.8452 370.49 75.7149C370.856 76.5731 371.377 77.2369 372.052 77.7061C372.727 78.1752 373.522 78.4098 374.438 78.4098ZM392.367 82.1176C391.165 82.1176 390.101 81.8887 389.174 81.431C388.259 80.9618 387.543 80.3152 387.028 79.4913C386.525 78.6559 386.273 77.7003 386.273 76.6246V76.5903C386.273 75.5032 386.542 74.5762 387.08 73.8095C387.629 73.0313 388.419 72.4191 389.449 71.9728C390.479 71.5151 391.726 71.2404 393.191 71.1489L400.143 70.7197V73.552L393.792 73.9468C392.739 74.0155 391.932 74.2672 391.371 74.7021C390.811 75.137 390.53 75.7149 390.53 76.4358V76.453C390.53 77.1968 390.811 77.7862 391.371 78.221C391.943 78.6444 392.699 78.8561 393.637 78.8561C394.461 78.8561 395.193 78.6902 395.834 78.3583C396.487 78.0265 397.002 77.5745 397.379 77.0023C397.757 76.4301 397.946 75.7835 397.946 75.0626V69.604C397.946 68.6885 397.654 67.9675 397.07 67.4411C396.498 66.9033 395.668 66.6344 394.581 66.6344C393.574 66.6344 392.767 66.8518 392.161 67.2866C391.554 67.7101 391.177 68.2593 391.028 68.9345L390.994 69.089H387.046L387.063 68.883C387.154 67.8073 387.515 66.8461 388.144 65.9992C388.774 65.141 389.643 64.4658 390.753 63.9737C391.875 63.4816 393.202 63.2356 394.736 63.2356C396.258 63.2356 397.574 63.4874 398.684 63.9909C399.805 64.4944 400.669 65.1982 401.276 66.1022C401.894 67.0063 402.203 68.0705 402.203 69.295V81.8086H397.946V79.0106H397.843C397.499 79.64 397.053 80.1893 396.504 80.6585C395.954 81.1277 395.325 81.4882 394.616 81.7399C393.917 81.9917 393.168 82.1176 392.367 82.1176ZM412.768 82.1691C410.879 82.1691 409.472 81.7571 408.545 80.9332C407.629 80.1092 407.172 78.7589 407.172 76.8821V66.909H404.597V63.6132H407.172V58.9957H411.515V63.6132H414.896V66.909H411.515V76.5388C411.515 77.42 411.709 78.0322 412.098 78.3755C412.499 78.7074 413.082 78.8733 413.849 78.8733C414.066 78.8733 414.255 78.8676 414.416 78.8561C414.587 78.8333 414.747 78.8161 414.896 78.8046V82.0146C414.644 82.0489 414.335 82.0832 413.969 82.1176C413.614 82.1519 413.214 82.1691 412.768 82.1691ZM425.839 82.1691C424.019 82.1691 422.451 81.7857 421.135 81.019C419.831 80.2523 418.83 79.1651 418.131 77.7576C417.433 76.35 417.084 74.6849 417.084 72.7624V72.7452C417.084 70.8342 417.433 69.1691 418.131 67.7501C418.841 66.3197 419.831 65.2096 421.101 64.42C422.383 63.6304 423.893 63.2356 425.633 63.2356C427.361 63.2356 428.854 63.619 430.113 64.3857C431.383 65.141 432.356 66.2052 433.031 67.5785C433.718 68.9517 434.061 70.5538 434.061 72.3848V73.758H419.196V70.9085H432.018L429.958 73.5692V71.9213C429.958 70.7312 429.775 69.7413 429.409 68.9517C429.043 68.1621 428.539 67.5727 427.899 67.1836C427.258 66.7831 426.52 66.5829 425.684 66.5829C424.837 66.5829 424.082 66.7888 423.418 67.2008C422.766 67.6013 422.251 68.2021 421.874 69.0032C421.507 69.8042 421.324 70.7769 421.324 71.9213V73.5692C421.324 74.6792 421.507 75.629 421.874 76.4186C422.251 77.1968 422.783 77.7976 423.47 78.221C424.157 78.633 424.975 78.839 425.925 78.839C426.634 78.839 427.258 78.7303 427.796 78.5128C428.333 78.284 428.774 77.9921 429.117 77.6374C429.472 77.2826 429.718 76.8993 429.855 76.4873L429.89 76.3672H433.872L433.838 76.556C433.689 77.254 433.414 77.9406 433.014 78.6158C432.613 79.2796 432.076 79.8803 431.4 80.4182C430.725 80.956 429.924 81.3852 428.997 81.7056C428.07 82.0146 427.017 82.1691 425.839 82.1691ZM451.312 82.1691C449.423 82.1691 448.016 81.7571 447.089 80.9332C446.173 80.1092 445.716 78.7589 445.716 76.8821V66.909H443.141V63.6132H445.716V58.9957H450.059V63.6132H453.44V66.909H450.059V76.5388C450.059 77.42 450.253 78.0322 450.642 78.3755C451.043 78.7074 451.626 78.8733 452.393 78.8733C452.61 78.8733 452.799 78.8676 452.959 78.8561C453.131 78.8333 453.291 78.8161 453.44 78.8046V82.0146C453.188 82.0489 452.879 82.0832 452.513 82.1176C452.158 82.1519 451.758 82.1691 451.312 82.1691ZM464.434 82.1691C462.649 82.1691 461.098 81.7914 459.782 81.0361C458.466 80.2694 457.442 79.1823 456.71 77.7747C455.989 76.3557 455.628 74.6678 455.628 72.7109V72.6766C455.628 70.7312 455.995 69.0547 456.727 67.6471C457.459 66.2281 458.484 65.141 459.8 64.3857C461.116 63.619 462.655 63.2356 464.417 63.2356C466.191 63.2356 467.736 63.619 469.052 64.3857C470.379 65.141 471.409 66.2224 472.141 67.6299C472.874 69.0375 473.24 70.7197 473.24 72.6766V72.7109C473.24 74.6792 472.874 76.3729 472.141 77.7919C471.421 79.1994 470.402 80.2809 469.086 81.0361C467.77 81.7914 466.219 82.1691 464.434 82.1691ZM464.451 78.7188C465.355 78.7188 466.139 78.4842 466.803 78.015C467.467 77.5458 467.976 76.8649 468.331 75.9723C468.697 75.0683 468.88 73.9812 468.88 72.7109V72.6766C468.88 71.4178 468.697 70.3421 468.331 69.4495C467.965 68.5569 467.444 67.876 466.769 67.4068C466.105 66.9376 465.321 66.703 464.417 66.703C463.536 66.703 462.758 66.9376 462.083 67.4068C461.419 67.876 460.898 68.5569 460.52 69.4495C460.154 70.3421 459.971 71.4178 459.971 72.6766V72.7109C459.971 73.9812 460.154 75.0683 460.52 75.9723C460.898 76.8649 461.419 77.5458 462.083 78.015C462.758 78.4842 463.547 78.7188 464.451 78.7188ZM483.101 82.1691C481.568 82.1691 480.235 81.7914 479.102 81.0361C477.98 80.2694 477.111 79.1766 476.493 77.7576C475.886 76.3385 475.583 74.6563 475.583 72.7109V72.6937C475.583 70.7369 475.892 69.0547 476.51 67.6471C477.128 66.2281 477.997 65.141 479.119 64.3857C480.24 63.619 481.562 63.2356 483.084 63.2356C483.954 63.2356 484.749 63.3786 485.47 63.6647C486.202 63.9394 486.849 64.3399 487.41 64.8663C487.971 65.3813 488.423 66.005 488.766 66.7373H488.869V57.0389H493.126V81.8086H488.869V78.7188H488.766C488.434 79.4398 487.988 80.0577 487.427 80.5727C486.878 81.0762 486.237 81.471 485.504 81.7571C484.783 82.0317 483.982 82.1691 483.101 82.1691ZM484.389 78.5815C485.27 78.5815 486.048 78.3412 486.723 77.8605C487.398 77.3799 487.925 76.699 488.302 75.8179C488.68 74.9367 488.869 73.9011 488.869 72.7109V72.6937C488.869 71.5036 488.674 70.4737 488.285 69.604C487.908 68.7228 487.381 68.0419 486.706 67.5613C486.042 67.0807 485.27 66.8403 484.389 66.8403C483.473 66.8403 482.678 67.0807 482.003 67.5613C481.339 68.0305 480.824 68.6999 480.458 69.5696C480.103 70.4394 479.926 71.4807 479.926 72.6937V72.7109C479.926 73.9125 480.103 74.9539 480.458 75.835C480.824 76.7162 481.339 77.3971 482.003 77.8777C482.678 78.3469 483.473 78.5815 484.389 78.5815ZM502.455 82.1176C501.253 82.1176 500.189 81.8887 499.262 81.431C498.347 80.9618 497.631 80.3152 497.117 79.4913C496.613 78.6559 496.361 77.7003 496.361 76.6246V76.5903C496.361 75.5032 496.63 74.5762 497.168 73.8095C497.717 73.0313 498.507 72.4191 499.537 71.9728C500.567 71.5151 501.814 71.2404 503.279 71.1489L510.231 70.7197V73.552L503.88 73.9468C502.827 74.0155 502.02 74.2672 501.459 74.7021C500.899 75.137 500.618 75.7149 500.618 76.4358V76.453C500.618 77.1968 500.899 77.7862 501.459 78.221C502.032 78.6444 502.787 78.8561 503.725 78.8561C504.549 78.8561 505.282 78.6902 505.922 78.3583C506.575 78.0265 507.09 77.5745 507.467 77.0023C507.845 76.4301 508.034 75.7835 508.034 75.0626V69.604C508.034 68.6885 507.742 67.9675 507.158 67.4411C506.586 66.9033 505.756 66.6344 504.669 66.6344C503.662 66.6344 502.855 66.8518 502.249 67.2866C501.642 67.7101 501.265 68.2593 501.116 68.9345L501.082 69.089H497.134L497.151 68.883C497.242 67.8073 497.603 66.8461 498.232 65.9992C498.862 65.141 499.731 64.4658 500.841 63.9737C501.963 63.4816 503.29 63.2356 504.824 63.2356C506.346 63.2356 507.662 63.4874 508.772 63.9909C509.893 64.4944 510.757 65.1982 511.364 66.1022C511.982 67.0063 512.291 68.0705 512.291 69.295V81.8086H508.034V79.0106H507.931C507.587 79.64 507.141 80.1893 506.592 80.6585C506.043 81.1277 505.413 81.4882 504.704 81.7399C504.006 81.9917 503.256 82.1176 502.455 82.1176ZM518.479 87.8508C518.067 87.8508 517.66 87.8279 517.26 87.7822C516.871 87.7478 516.545 87.7078 516.281 87.662V84.4177C516.442 84.4406 516.642 84.4692 516.882 84.5036C517.122 84.5379 517.397 84.5551 517.706 84.5551C518.53 84.5551 519.182 84.412 519.663 84.1259C520.144 83.8513 520.521 83.3306 520.796 82.5639L521.053 81.8258L514.513 63.6132H519.165L523.697 79.0621L523.045 78.1695H523.954L523.302 79.0621L527.834 63.6132H532.331L525.774 82.4265C525.316 83.754 524.761 84.8125 524.109 85.6022C523.457 86.4032 522.667 86.9754 521.74 87.3187C520.824 87.6734 519.737 87.8508 518.479 87.8508ZM533.592 86.8724L534.948 77.7747H539.085L536.579 86.8724H533.592ZM536.974 69.4666C536.276 69.4666 535.687 69.2321 535.206 68.7629C534.725 68.2822 534.485 67.6929 534.485 66.9948C534.485 66.2968 534.725 65.7131 535.206 65.244C535.687 64.7633 536.276 64.523 536.974 64.523C537.661 64.523 538.244 64.7633 538.725 65.244C539.205 65.7131 539.446 66.2968 539.446 66.9948C539.446 67.6929 539.205 68.2822 538.725 68.7629C538.244 69.2321 537.661 69.4666 536.974 69.4666ZM557.314 82.1691C555.426 82.1691 554.019 81.7571 553.092 80.9332C552.176 80.1092 551.718 78.7589 551.718 76.8821V66.909H549.144V63.6132H551.718V58.9957H556.061V63.6132H559.443V66.909H556.061V76.5388C556.061 77.42 556.256 78.0322 556.645 78.3755C557.045 78.7074 557.629 78.8733 558.396 78.8733C558.613 78.8733 558.802 78.8676 558.962 78.8561C559.134 78.8333 559.294 78.8161 559.443 78.8046V82.0146C559.191 82.0489 558.882 82.0832 558.516 82.1176C558.161 82.1519 557.761 82.1691 557.314 82.1691ZM562.85 81.8086V57.0389H567.124V66.6687H567.21C567.69 65.5701 568.406 64.7233 569.356 64.1282C570.317 63.5331 571.473 63.2356 572.823 63.2356C574.139 63.2356 575.278 63.5389 576.239 64.1454C577.2 64.7404 577.944 65.5815 578.47 66.6687C578.997 67.7444 579.26 69.0146 579.26 70.4794V81.8086H574.986V71.3205C574.986 69.9244 574.648 68.8315 573.973 68.0419C573.298 67.2409 572.348 66.8403 571.124 66.8403C570.323 66.8403 569.619 67.0349 569.012 67.424C568.417 67.8016 567.954 68.328 567.622 69.0032C567.29 69.6669 567.124 70.4394 567.124 71.3205V81.8086H562.85ZM591.061 82.1691C589.241 82.1691 587.674 81.7857 586.358 81.019C585.053 80.2523 584.052 79.1651 583.354 77.7576C582.656 76.35 582.306 74.6849 582.306 72.7624V72.7452C582.306 70.8342 582.656 69.1691 583.354 67.7501C584.063 66.3197 585.053 65.2096 586.323 64.42C587.605 63.6304 589.115 63.2356 590.855 63.2356C592.583 63.2356 594.076 63.619 595.335 64.3857C596.605 65.141 597.578 66.2052 598.253 67.5785C598.94 68.9517 599.283 70.5538 599.283 72.3848V73.758H584.418V70.9085H597.24L595.181 73.5692V71.9213C595.181 70.7312 594.997 69.7413 594.631 68.9517C594.265 68.1621 593.762 67.5727 593.121 67.1836C592.48 66.7831 591.742 66.5829 590.906 66.5829C590.06 66.5829 589.304 66.7888 588.641 67.2008C587.988 67.6013 587.473 68.2021 587.096 69.0032C586.729 69.8042 586.546 70.7769 586.546 71.9213V73.5692C586.546 74.6792 586.729 75.629 587.096 76.4186C587.473 77.1968 588.005 77.7976 588.692 78.221C589.379 78.633 590.197 78.839 591.147 78.839C591.856 78.839 592.48 78.7303 593.018 78.5128C593.556 78.284 593.996 77.9921 594.339 77.6374C594.694 77.2826 594.94 76.8993 595.078 76.4873L595.112 76.3672H599.094L599.06 76.556C598.911 77.254 598.637 77.9406 598.236 78.6158C597.835 79.2796 597.298 79.8803 596.622 80.4182C595.947 80.956 595.146 81.3852 594.219 81.7056C593.292 82.0146 592.24 82.1691 591.061 82.1691ZM617.787 82.1691C615.967 82.1691 614.399 81.7857 613.083 81.019C611.779 80.2523 610.778 79.1651 610.079 77.7576C609.381 76.35 609.032 74.6849 609.032 72.7624V72.7452C609.032 70.8342 609.381 69.1691 610.079 67.7501C610.789 66.3197 611.779 65.2096 613.049 64.42C614.331 63.6304 615.841 63.2356 617.581 63.2356C619.309 63.2356 620.802 63.619 622.061 64.3857C623.331 65.141 624.304 66.2052 624.979 67.5785C625.666 68.9517 626.009 70.5538 626.009 72.3848V73.758H611.144V70.9085H623.966L621.906 73.5692V71.9213C621.906 70.7312 621.723 69.7413 621.357 68.9517C620.991 68.1621 620.487 67.5727 619.847 67.1836C619.206 66.7831 618.468 66.5829 617.632 66.5829C616.785 66.5829 616.03 66.7888 615.366 67.2008C614.714 67.6013 614.199 68.2021 613.822 69.0032C613.455 69.8042 613.272 70.7769 613.272 71.9213V73.5692C613.272 74.6792 613.455 75.629 613.822 76.4186C614.199 77.1968 614.731 77.7976 615.418 78.221C616.105 78.633 616.923 78.839 617.873 78.839C618.582 78.839 619.206 78.7303 619.744 78.5128C620.281 78.284 620.722 77.9921 621.065 77.6374C621.42 77.2826 621.666 76.8993 621.803 76.4873L621.838 76.3672H625.82L625.786 76.556C625.637 77.254 625.362 77.9406 624.962 78.6158C624.561 79.2796 624.024 79.8803 623.348 80.4182C622.673 80.956 621.872 81.3852 620.945 81.7056C620.018 82.0146 618.965 82.1691 617.787 82.1691ZM627.493 81.8086L633.381 72.7281L627.562 63.6132H632.368L636.025 69.9988H636.111L639.75 63.6132H644.419L638.565 72.6079L644.35 81.8086H639.698L635.905 75.2857H635.819L632.059 81.8086H627.493ZM653.696 82.1691C651.808 82.1691 650.4 81.7571 649.473 80.9332C648.558 80.1092 648.1 78.7589 648.1 76.8821V66.909H645.525V63.6132H648.1V58.9957H652.443V63.6132H655.825V66.909H652.443V76.5388C652.443 77.42 652.638 78.0322 653.027 78.3755C653.427 78.7074 654.011 78.8733 654.778 78.8733C654.995 78.8733 655.184 78.8676 655.344 78.8561C655.516 78.8333 655.676 78.8161 655.825 78.8046V82.0146C655.573 82.0489 655.264 82.0832 654.898 82.1176C654.543 82.1519 654.142 82.1691 653.696 82.1691ZM666.767 82.1691C664.948 82.1691 663.38 81.7857 662.064 81.019C660.759 80.2523 659.758 79.1651 659.06 77.7576C658.362 76.35 658.013 74.6849 658.013 72.7624V72.7452C658.013 70.8342 658.362 69.1691 659.06 67.7501C659.769 66.3197 660.759 65.2096 662.03 64.42C663.311 63.6304 664.822 63.2356 666.561 63.2356C668.289 63.2356 669.783 63.619 671.041 64.3857C672.312 65.141 673.284 66.2052 673.96 67.5785C674.646 68.9517 674.99 70.5538 674.99 72.3848V73.758H660.124V70.9085H672.947L670.887 73.5692V71.9213C670.887 70.7312 670.704 69.7413 670.338 68.9517C669.971 68.1621 669.468 67.5727 668.827 67.1836C668.186 66.7831 667.448 66.5829 666.613 66.5829C665.766 66.5829 665.011 66.7888 664.347 67.2008C663.695 67.6013 663.18 68.2021 662.802 69.0032C662.436 69.8042 662.253 70.7769 662.253 71.9213V73.5692C662.253 74.6792 662.436 75.629 662.802 76.4186C663.18 77.1968 663.712 77.7976 664.398 78.221C665.085 78.633 665.903 78.839 666.853 78.839C667.563 78.839 668.186 78.7303 668.724 78.5128C669.262 78.284 669.703 77.9921 670.046 77.6374C670.401 77.2826 670.647 76.8993 670.784 76.4873L670.818 76.3672H674.801L674.766 76.556C674.618 77.254 674.343 77.9406 673.942 78.6158C673.542 79.2796 673.004 79.8803 672.329 80.4182C671.654 80.956 670.853 81.3852 669.926 81.7056C668.999 82.0146 667.946 82.1691 666.767 82.1691ZM678.07 81.8086V63.6132H682.327V66.4627H682.43C682.9 65.4785 683.598 64.6947 684.525 64.111C685.463 63.5274 686.619 63.2356 687.992 63.2356C689.995 63.2356 691.54 63.8421 692.627 65.0551C693.725 66.2682 694.275 67.9275 694.275 70.0331V81.8086H690V70.8914C690 69.5982 689.697 68.6027 689.091 67.9046C688.484 67.1951 687.574 66.8403 686.361 66.8403C685.549 66.8403 684.839 67.0292 684.233 67.4068C683.626 67.773 683.157 68.288 682.825 68.9517C682.493 69.604 682.327 70.3707 682.327 71.2519V81.8086H678.07ZM704.805 82.1691C702.917 82.1691 701.509 81.7571 700.582 80.9332C699.667 80.1092 699.209 78.7589 699.209 76.8821V66.909H696.634V63.6132H699.209V58.9957H703.552V63.6132H706.934V66.909H703.552V76.5388C703.552 77.42 703.747 78.0322 704.136 78.3755C704.536 78.7074 705.12 78.8733 705.887 78.8733C706.104 78.8733 706.293 78.8676 706.453 78.8561C706.625 78.8333 706.785 78.8161 706.934 78.8046V82.0146C706.682 82.0489 706.373 82.0832 706.007 82.1176C705.652 82.1519 705.251 82.1691 704.805 82.1691ZM724.39 82.1691C722.502 82.1691 721.094 81.7571 720.168 80.9332C719.252 80.1092 718.794 78.7589 718.794 76.8821V66.909H716.22V63.6132H718.794V58.9957H723.137V63.6132H726.519V66.909H723.137V76.5388C723.137 77.42 723.332 78.0322 723.721 78.3755C724.121 78.7074 724.705 78.8733 725.472 78.8733C725.689 78.8733 725.878 78.8676 726.038 78.8561C726.21 78.8333 726.37 78.8161 726.519 78.8046V82.0146C726.267 82.0489 725.958 82.0832 725.592 82.1176C725.237 82.1519 724.837 82.1691 724.39 82.1691ZM737.513 82.1691C735.728 82.1691 734.177 81.7914 732.861 81.0361C731.545 80.2694 730.521 79.1823 729.788 77.7747C729.067 76.3557 728.707 74.6678 728.707 72.7109V72.6766C728.707 70.7312 729.073 69.0547 729.806 67.6471C730.538 66.2281 731.562 65.141 732.878 64.3857C734.194 63.619 735.733 63.2356 737.496 63.2356C739.269 63.2356 740.814 63.619 742.13 64.3857C743.458 65.141 744.488 66.2224 745.22 67.6299C745.953 69.0375 746.319 70.7197 746.319 72.6766V72.7109C746.319 74.6792 745.953 76.3729 745.22 77.7919C744.499 79.1994 743.481 80.2809 742.165 81.0361C740.849 81.7914 739.298 82.1691 737.513 82.1691ZM737.53 78.7188C738.434 78.7188 739.218 78.4842 739.882 78.015C740.545 77.5458 741.055 76.8649 741.409 75.9723C741.776 75.0683 741.959 73.9812 741.959 72.7109V72.6766C741.959 71.4178 741.776 70.3421 741.409 69.4495C741.043 68.5569 740.523 67.876 739.847 67.4068C739.184 66.9376 738.4 66.703 737.496 66.703C736.615 66.703 735.836 66.9376 735.161 67.4068C734.497 67.876 733.977 68.5569 733.599 69.4495C733.233 70.3421 733.05 71.4178 733.05 72.6766V72.7109C733.05 73.9812 733.233 75.0683 733.599 75.9723C733.977 76.8649 734.497 77.5458 735.161 78.015C735.836 78.4842 736.626 78.7188 737.53 78.7188ZM760.411 81.8086L755.467 63.6132H759.759L762.831 77.5859H762.917L766.47 63.6132H770.556L774.126 77.5859H774.212L777.285 63.6132H781.507L776.598 81.8086H772.101L768.513 68.5054H768.427L764.857 81.8086H760.411ZM784.125 81.8086V57.0389H788.399V66.6687H788.485C788.965 65.5701 789.68 64.7233 790.63 64.1282C791.592 63.5331 792.747 63.2356 794.098 63.2356C795.414 63.2356 796.552 63.5389 797.514 64.1454C798.475 64.7404 799.219 65.5815 799.745 66.6687C800.272 67.7444 800.535 69.0146 800.535 70.4794V81.8086H796.261V71.3205C796.261 69.9244 795.923 68.8315 795.248 68.0419C794.573 67.2409 793.623 66.8403 792.398 66.8403C791.597 66.8403 790.893 67.0349 790.287 67.424C789.692 67.8016 789.228 68.328 788.897 69.0032C788.565 69.6669 788.399 70.4394 788.399 71.3205V81.8086H784.125ZM804.457 81.8086V63.6132H808.731V81.8086H804.457ZM806.585 61.0041C805.922 61.0041 805.361 60.7752 804.903 60.3175C804.445 59.8597 804.216 59.3104 804.216 58.6696C804.216 58.0173 804.445 57.468 804.903 57.0217C805.361 56.564 805.922 56.3351 806.585 56.3351C807.26 56.3351 807.827 56.564 808.285 57.0217C808.742 57.468 808.971 58.0173 808.971 58.6696C808.971 59.3104 808.742 59.8597 808.285 60.3175C807.827 60.7752 807.26 61.0041 806.585 61.0041ZM820.755 82.1691C818.958 82.1691 817.402 81.7857 816.086 81.019C814.77 80.2523 813.751 79.1594 813.03 77.7404C812.321 76.3214 811.966 74.6392 811.966 72.6937V72.6766C811.966 70.7426 812.327 69.0718 813.048 67.6643C813.769 66.2453 814.781 65.1524 816.086 64.3857C817.402 63.619 818.941 63.2356 820.703 63.2356C822.306 63.2356 823.69 63.5446 824.857 64.1625C826.025 64.769 826.94 65.5758 827.604 66.5829C828.268 67.5899 828.645 68.6999 828.737 69.9129V70.0331H824.72L824.686 69.8958C824.514 69.0146 824.096 68.2651 823.433 67.6471C822.78 67.0177 821.888 66.703 820.755 66.703C819.862 66.703 819.078 66.9491 818.403 67.4411C817.74 67.9218 817.225 68.6084 816.858 69.501C816.492 70.3936 816.309 71.4636 816.309 72.7109V72.7281C816.309 73.9869 816.492 75.0626 816.858 75.9552C817.236 76.8478 817.757 77.5344 818.42 78.015C819.096 78.4842 819.88 78.7188 820.772 78.7188C821.859 78.7188 822.735 78.427 823.398 77.8434C824.074 77.2483 824.508 76.4759 824.703 75.526L824.737 75.3716H828.771L828.754 75.4917C828.64 76.7505 828.239 77.8834 827.552 78.8905C826.866 79.8975 825.945 80.6986 824.789 81.2936C823.633 81.8773 822.288 82.1691 820.755 82.1691ZM831.801 81.8086V57.0389H836.075V66.6687H836.161C836.641 65.5701 837.356 64.7233 838.306 64.1282C839.267 63.5331 840.423 63.2356 841.774 63.2356C843.09 63.2356 844.228 63.5389 845.19 64.1454C846.151 64.7404 846.895 65.5815 847.421 66.6687C847.947 67.7444 848.211 69.0146 848.211 70.4794V81.8086H843.936V71.3205C843.936 69.9244 843.599 68.8315 842.924 68.0419C842.249 67.2409 841.299 66.8403 840.074 66.8403C839.273 66.8403 838.569 67.0349 837.963 67.424C837.368 67.8016 836.904 68.328 836.573 69.0032C836.241 69.6669 836.075 70.4394 836.075 71.3205V81.8086H831.801ZM224.501 126.169C223.162 126.169 222.024 125.9 221.085 125.362C220.158 124.813 219.449 124.029 218.957 123.011C218.465 121.992 218.219 120.785 218.219 119.389V107.613H222.476V118.53C222.476 119.824 222.779 120.825 223.386 121.534C223.992 122.232 224.908 122.581 226.132 122.581C226.739 122.581 227.288 122.478 227.78 122.273C228.283 122.055 228.713 121.752 229.067 121.363C229.422 120.974 229.691 120.51 229.874 119.972C230.057 119.423 230.149 118.817 230.149 118.153V107.613H234.423V125.809H230.149V122.959H230.063C229.742 123.6 229.325 124.166 228.81 124.659C228.295 125.139 227.677 125.511 226.956 125.774C226.235 126.037 225.417 126.169 224.501 126.169ZM245.4 126.169C243.809 126.169 242.447 125.934 241.315 125.465C240.193 124.996 239.312 124.338 238.671 123.491C238.042 122.633 237.658 121.643 237.521 120.522L237.504 120.367H241.709L241.744 120.522C241.904 121.311 242.281 121.923 242.877 122.358C243.483 122.793 244.33 123.011 245.417 123.011C246.115 123.011 246.71 122.925 247.202 122.753C247.694 122.581 248.072 122.33 248.335 121.998C248.61 121.666 248.747 121.277 248.747 120.831V120.813C248.747 120.276 248.564 119.841 248.198 119.509C247.832 119.166 247.174 118.885 246.224 118.668L243.203 117.998C242.047 117.735 241.08 117.375 240.302 116.917C239.524 116.459 238.94 115.893 238.551 115.218C238.162 114.531 237.967 113.736 237.967 112.832V112.814C237.967 111.704 238.27 110.732 238.877 109.896C239.484 109.061 240.336 108.409 241.435 107.939C242.533 107.47 243.809 107.236 245.263 107.236C246.773 107.236 248.066 107.487 249.142 107.991C250.218 108.494 251.047 109.17 251.631 110.016C252.226 110.863 252.546 111.813 252.592 112.866L252.609 113.055H248.627L248.61 112.917C248.518 112.185 248.186 111.584 247.614 111.115C247.042 110.634 246.258 110.394 245.263 110.394C244.633 110.394 244.084 110.486 243.615 110.669C243.157 110.852 242.802 111.109 242.55 111.441C242.31 111.773 242.19 112.162 242.19 112.608V112.626C242.19 112.969 242.276 113.278 242.447 113.552C242.619 113.827 242.894 114.067 243.271 114.273C243.649 114.468 244.153 114.64 244.782 114.788L247.803 115.458C249.691 115.881 251.036 116.488 251.837 117.277C252.638 118.056 253.038 119.103 253.038 120.419V120.436C253.038 121.58 252.712 122.587 252.06 123.457C251.408 124.315 250.504 124.985 249.348 125.465C248.204 125.934 246.888 126.169 245.4 126.169ZM264.118 126.169C262.299 126.169 260.731 125.786 259.415 125.019C258.111 124.252 257.109 123.165 256.411 121.758C255.713 120.35 255.364 118.685 255.364 116.762V116.745C255.364 114.834 255.713 113.169 256.411 111.75C257.121 110.32 258.111 109.21 259.381 108.42C260.662 107.63 262.173 107.236 263.912 107.236C265.64 107.236 267.134 107.619 268.393 108.386C269.663 109.141 270.636 110.205 271.311 111.578C271.997 112.952 272.341 114.554 272.341 116.385V117.758H257.475V114.909H270.298L268.238 117.569V115.921C268.238 114.731 268.055 113.741 267.689 112.952C267.323 112.162 266.819 111.573 266.178 111.184C265.537 110.783 264.799 110.583 263.964 110.583C263.117 110.583 262.362 110.789 261.698 111.201C261.046 111.601 260.531 112.202 260.153 113.003C259.787 113.804 259.604 114.777 259.604 115.921V117.569C259.604 118.679 259.787 119.629 260.153 120.419C260.531 121.197 261.063 121.798 261.75 122.221C262.436 122.633 263.254 122.839 264.204 122.839C264.914 122.839 265.537 122.73 266.075 122.513C266.613 122.284 267.054 121.992 267.397 121.637C267.752 121.283 267.998 120.899 268.135 120.487L268.169 120.367H272.152L272.118 120.556C271.969 121.254 271.694 121.941 271.294 122.616C270.893 123.28 270.355 123.88 269.68 124.418C269.005 124.956 268.204 125.385 267.277 125.706C266.35 126.015 265.297 126.169 264.118 126.169ZM275.422 125.809V107.613H279.679V110.755H279.782C280.056 109.656 280.554 108.798 281.275 108.18C282.007 107.55 282.9 107.236 283.953 107.236C284.216 107.236 284.468 107.253 284.708 107.287C284.948 107.321 285.149 107.361 285.309 107.407V111.269C285.137 111.201 284.891 111.144 284.571 111.098C284.262 111.052 283.924 111.029 283.558 111.029C282.757 111.029 282.065 111.195 281.481 111.527C280.897 111.847 280.451 112.322 280.142 112.952C279.833 113.581 279.679 114.348 279.679 115.252V125.809H275.422ZM294.964 126.169C293.373 126.169 292.012 125.934 290.879 125.465C289.757 124.996 288.876 124.338 288.235 123.491C287.606 122.633 287.222 121.643 287.085 120.522L287.068 120.367H291.273L291.308 120.522C291.468 121.311 291.846 121.923 292.441 122.358C293.047 122.793 293.894 123.011 294.981 123.011C295.679 123.011 296.274 122.925 296.766 122.753C297.258 122.581 297.636 122.33 297.899 121.998C298.174 121.666 298.311 121.277 298.311 120.831V120.813C298.311 120.276 298.128 119.841 297.762 119.509C297.396 119.166 296.738 118.885 295.788 118.668L292.767 117.998C291.611 117.735 290.644 117.375 289.866 116.917C289.088 116.459 288.504 115.893 288.115 115.218C287.726 114.531 287.531 113.736 287.531 112.832V112.814C287.531 111.704 287.835 110.732 288.441 109.896C289.048 109.061 289.9 108.409 290.999 107.939C292.097 107.47 293.373 107.236 294.827 107.236C296.337 107.236 297.63 107.487 298.706 107.991C299.782 108.494 300.611 109.17 301.195 110.016C301.79 110.863 302.111 111.813 302.156 112.866L302.174 113.055H298.191L298.174 112.917C298.082 112.185 297.751 111.584 297.178 111.115C296.606 110.634 295.822 110.394 294.827 110.394C294.197 110.394 293.648 110.486 293.179 110.669C292.721 110.852 292.366 111.109 292.115 111.441C291.874 111.773 291.754 112.162 291.754 112.608V112.626C291.754 112.969 291.84 113.278 292.012 113.552C292.183 113.827 292.458 114.067 292.836 114.273C293.213 114.468 293.717 114.64 294.346 114.788L297.367 115.458C299.255 115.881 300.6 116.488 301.401 117.277C302.202 118.056 302.603 119.103 302.603 120.419V120.436C302.603 121.58 302.277 122.587 301.624 123.457C300.972 124.315 300.068 124.985 298.912 125.465C297.768 125.934 296.452 126.169 294.964 126.169ZM318.48 126.118C317.278 126.118 316.214 125.889 315.287 125.431C314.372 124.962 313.656 124.315 313.142 123.491C312.638 122.656 312.386 121.7 312.386 120.625V120.59C312.386 119.503 312.655 118.576 313.193 117.81C313.742 117.031 314.532 116.419 315.562 115.973C316.592 115.515 317.839 115.24 319.304 115.149L326.256 114.72V117.552L319.905 117.947C318.852 118.015 318.045 118.267 317.484 118.702C316.924 119.137 316.643 119.715 316.643 120.436V120.453C316.643 121.197 316.924 121.786 317.484 122.221C318.057 122.644 318.812 122.856 319.75 122.856C320.574 122.856 321.307 122.69 321.947 122.358C322.6 122.026 323.115 121.574 323.492 121.002C323.87 120.43 324.059 119.784 324.059 119.063V113.604C324.059 112.688 323.767 111.968 323.183 111.441C322.611 110.903 321.781 110.634 320.694 110.634C319.687 110.634 318.881 110.852 318.274 111.287C317.667 111.71 317.29 112.259 317.141 112.935L317.107 113.089H313.159L313.176 112.883C313.267 111.807 313.628 110.846 314.257 109.999C314.887 109.141 315.756 108.466 316.866 107.974C317.988 107.482 319.315 107.236 320.849 107.236C322.371 107.236 323.687 107.487 324.797 107.991C325.918 108.494 326.782 109.198 327.389 110.102C328.007 111.006 328.316 112.071 328.316 113.295V125.809H324.059V123.011H323.956C323.612 123.64 323.166 124.189 322.617 124.659C322.068 125.128 321.438 125.488 320.729 125.74C320.031 125.992 319.281 126.118 318.48 126.118ZM332.135 125.809V107.613H336.392V110.755H336.495C336.769 109.656 337.267 108.798 337.988 108.18C338.721 107.55 339.613 107.236 340.666 107.236C340.929 107.236 341.181 107.253 341.421 107.287C341.662 107.321 341.862 107.361 342.022 107.407V111.269C341.85 111.201 341.604 111.144 341.284 111.098C340.975 111.052 340.637 111.029 340.271 111.029C339.47 111.029 338.778 111.195 338.194 111.527C337.611 111.847 337.164 112.322 336.855 112.952C336.546 113.581 336.392 114.348 336.392 115.252V125.809H332.135ZM351.883 126.169C350.064 126.169 348.496 125.786 347.18 125.019C345.875 124.252 344.874 123.165 344.176 121.758C343.478 120.35 343.129 118.685 343.129 116.762V116.745C343.129 114.834 343.478 113.169 344.176 111.75C344.885 110.32 345.875 109.21 347.146 108.42C348.427 107.63 349.938 107.236 351.677 107.236C353.405 107.236 354.899 107.619 356.157 108.386C357.428 109.141 358.4 110.205 359.076 111.578C359.762 112.952 360.105 114.554 360.105 116.385V117.758H345.24V114.909H358.063L356.003 117.569V115.921C356.003 114.731 355.82 113.741 355.454 112.952C355.087 112.162 354.584 111.573 353.943 111.184C353.302 110.783 352.564 110.583 351.729 110.583C350.882 110.583 350.127 110.789 349.463 111.201C348.811 111.601 348.296 112.202 347.918 113.003C347.552 113.804 347.369 114.777 347.369 115.921V117.569C347.369 118.679 347.552 119.629 347.918 120.419C348.296 121.197 348.828 121.798 349.514 122.221C350.201 122.633 351.019 122.839 351.969 122.839C352.679 122.839 353.302 122.73 353.84 122.513C354.378 122.284 354.819 121.992 355.162 121.637C355.517 121.283 355.763 120.899 355.9 120.487L355.934 120.367H359.917L359.882 120.556C359.734 121.254 359.459 121.941 359.058 122.616C358.658 123.28 358.12 123.88 357.445 124.418C356.77 124.956 355.969 125.385 355.042 125.706C354.115 126.015 353.062 126.169 351.883 126.169ZM378.643 126.169C376.847 126.169 375.29 125.786 373.974 125.019C372.658 124.252 371.64 123.159 370.919 121.74C370.209 120.321 369.855 118.639 369.855 116.694V116.677C369.855 114.743 370.215 113.072 370.936 111.664C371.657 110.245 372.67 109.152 373.974 108.386C375.29 107.619 376.83 107.236 378.592 107.236C380.194 107.236 381.579 107.545 382.746 108.163C383.913 108.769 384.829 109.576 385.492 110.583C386.156 111.59 386.534 112.7 386.625 113.913V114.033H382.609L382.574 113.896C382.403 113.015 381.985 112.265 381.321 111.647C380.669 111.018 379.776 110.703 378.643 110.703C377.751 110.703 376.967 110.949 376.292 111.441C375.628 111.922 375.113 112.608 374.747 113.501C374.381 114.394 374.198 115.464 374.198 116.711V116.728C374.198 117.987 374.381 119.063 374.747 119.955C375.125 120.848 375.645 121.534 376.309 122.015C376.984 122.484 377.768 122.719 378.661 122.719C379.748 122.719 380.623 122.427 381.287 121.843C381.962 121.248 382.397 120.476 382.591 119.526L382.626 119.372H386.66L386.643 119.492C386.528 120.751 386.128 121.883 385.441 122.89C384.754 123.898 383.833 124.699 382.677 125.294C381.522 125.877 380.177 126.169 378.643 126.169ZM397.619 126.169C395.834 126.169 394.284 125.791 392.968 125.036C391.652 124.269 390.627 123.182 389.895 121.775C389.174 120.356 388.814 118.668 388.814 116.711V116.677C388.814 114.731 389.18 113.055 389.912 111.647C390.645 110.228 391.669 109.141 392.985 108.386C394.301 107.619 395.84 107.236 397.602 107.236C399.376 107.236 400.921 107.619 402.237 108.386C403.564 109.141 404.594 110.222 405.327 111.63C406.059 113.038 406.425 114.72 406.425 116.677V116.711C406.425 118.679 406.059 120.373 405.327 121.792C404.606 123.199 403.587 124.281 402.271 125.036C400.955 125.791 399.405 126.169 397.619 126.169ZM397.637 122.719C398.541 122.719 399.325 122.484 399.988 122.015C400.652 121.546 401.161 120.865 401.516 119.972C401.882 119.068 402.065 117.981 402.065 116.711V116.677C402.065 115.418 401.882 114.342 401.516 113.449C401.15 112.557 400.629 111.876 399.954 111.407C399.29 110.938 398.506 110.703 397.602 110.703C396.721 110.703 395.943 110.938 395.268 111.407C394.604 111.876 394.083 112.557 393.706 113.449C393.34 114.342 393.156 115.418 393.156 116.677V116.711C393.156 117.981 393.34 119.068 393.706 119.972C394.083 120.865 394.604 121.546 395.268 122.015C395.943 122.484 396.733 122.719 397.637 122.719ZM409.523 125.809V107.613H413.78V110.531H413.883C414.261 109.536 414.896 108.74 415.789 108.145C416.681 107.539 417.728 107.236 418.93 107.236C419.777 107.236 420.538 107.384 421.213 107.682C421.888 107.968 422.46 108.386 422.93 108.935C423.41 109.473 423.759 110.131 423.977 110.909H424.062C424.36 110.154 424.783 109.507 425.333 108.969C425.893 108.42 426.546 107.997 427.29 107.699C428.045 107.39 428.857 107.236 429.727 107.236C430.929 107.236 431.97 107.493 432.851 108.008C433.744 108.512 434.436 109.221 434.928 110.137C435.432 111.041 435.683 112.105 435.683 113.329V125.809H431.409V114.376C431.409 113.621 431.283 112.98 431.032 112.454C430.78 111.927 430.414 111.527 429.933 111.252C429.452 110.978 428.857 110.84 428.148 110.84C427.461 110.84 426.855 111.001 426.328 111.321C425.813 111.63 425.407 112.065 425.11 112.626C424.823 113.186 424.68 113.833 424.68 114.565V125.809H420.526V114.153C420.526 113.467 420.395 112.877 420.132 112.385C419.868 111.893 419.496 111.516 419.016 111.252C418.535 110.978 417.963 110.84 417.299 110.84C416.613 110.84 416.006 111.006 415.48 111.338C414.953 111.67 414.536 112.122 414.227 112.694C413.929 113.266 413.78 113.924 413.78 114.668V125.809H409.523ZM440.653 125.809V110.909H438.164V107.613H440.653V105.88C440.653 104.689 440.847 103.711 441.236 102.944C441.637 102.178 442.249 101.611 443.073 101.245C443.897 100.867 444.967 100.678 446.283 100.678C446.706 100.678 447.124 100.696 447.536 100.73C447.959 100.764 448.303 100.804 448.566 100.85V103.837C448.383 103.814 448.177 103.797 447.948 103.785C447.73 103.762 447.507 103.751 447.278 103.751C446.443 103.751 445.825 103.94 445.425 104.317C445.035 104.695 444.841 105.256 444.841 106V107.613H448.497V110.909H444.927V125.809H440.653ZM458.273 126.169C456.487 126.169 454.937 125.791 453.621 125.036C452.305 124.269 451.28 123.182 450.548 121.775C449.827 120.356 449.467 118.668 449.467 116.711V116.677C449.467 114.731 449.833 113.055 450.565 111.647C451.298 110.228 452.322 109.141 453.638 108.386C454.954 107.619 456.493 107.236 458.255 107.236C460.029 107.236 461.574 107.619 462.89 108.386C464.217 109.141 465.247 110.222 465.98 111.63C466.712 113.038 467.078 114.72 467.078 116.677V116.711C467.078 118.679 466.712 120.373 465.98 121.792C465.259 123.199 464.24 124.281 462.924 125.036C461.608 125.791 460.058 126.169 458.273 126.169ZM458.29 122.719C459.194 122.719 459.978 122.484 460.641 122.015C461.305 121.546 461.814 120.865 462.169 119.972C462.535 119.068 462.718 117.981 462.718 116.711V116.677C462.718 115.418 462.535 114.342 462.169 113.449C461.803 112.557 461.282 111.876 460.607 111.407C459.943 110.938 459.159 110.703 458.255 110.703C457.374 110.703 456.596 110.938 455.921 111.407C455.257 111.876 454.736 112.557 454.359 113.449C453.993 114.342 453.81 115.418 453.81 116.677V116.711C453.81 117.981 453.993 119.068 454.359 119.972C454.736 120.865 455.257 121.546 455.921 122.015C456.596 122.484 457.386 122.719 458.29 122.719ZM470.176 125.809V107.613H474.433V110.755H474.536C474.811 109.656 475.309 108.798 476.03 108.18C476.762 107.55 477.655 107.236 478.708 107.236C478.971 107.236 479.223 107.253 479.463 107.287C479.703 107.321 479.903 107.361 480.064 107.407V111.269C479.892 111.201 479.646 111.144 479.326 111.098C479.017 111.052 478.679 111.029 478.313 111.029C477.512 111.029 476.819 111.195 476.236 111.527C475.652 111.847 475.206 112.322 474.897 112.952C474.588 113.581 474.433 114.348 474.433 115.252V125.809H470.176ZM490.114 126.169C488.226 126.169 486.818 125.757 485.891 124.933C484.976 124.109 484.518 122.759 484.518 120.882V110.909H481.943V107.613H484.518V102.996H488.861V107.613H492.242V110.909H488.861V120.539C488.861 121.42 489.055 122.032 489.444 122.376C489.845 122.707 490.428 122.873 491.195 122.873C491.413 122.873 491.601 122.868 491.762 122.856C491.933 122.833 492.093 122.816 492.242 122.805V126.015C491.99 126.049 491.681 126.083 491.315 126.118C490.961 126.152 490.56 126.169 490.114 126.169ZM500.662 126.118C499.46 126.118 498.396 125.889 497.469 125.431C496.553 124.962 495.838 124.315 495.323 123.491C494.82 122.656 494.568 121.7 494.568 120.625V120.59C494.568 119.503 494.837 118.576 495.375 117.81C495.924 117.031 496.713 116.419 497.743 115.973C498.773 115.515 500.021 115.24 501.485 115.149L508.437 114.72V117.552L502.086 117.947C501.033 118.015 500.227 118.267 499.666 118.702C499.105 119.137 498.825 119.715 498.825 120.436V120.453C498.825 121.197 499.105 121.786 499.666 122.221C500.238 122.644 500.993 122.856 501.932 122.856C502.756 122.856 503.488 122.69 504.129 122.358C504.781 122.026 505.296 121.574 505.674 121.002C506.051 120.43 506.24 119.784 506.24 119.063V113.604C506.24 112.688 505.948 111.968 505.365 111.441C504.793 110.903 503.963 110.634 502.876 110.634C501.869 110.634 501.062 110.852 500.456 111.287C499.849 111.71 499.471 112.259 499.323 112.935L499.288 113.089H495.34L495.357 112.883C495.449 111.807 495.809 110.846 496.439 109.999C497.068 109.141 497.938 108.466 499.048 107.974C500.169 107.482 501.497 107.236 503.03 107.236C504.552 107.236 505.868 107.487 506.978 107.991C508.1 108.494 508.964 109.198 509.57 110.102C510.188 111.006 510.497 112.071 510.497 113.295V125.809H506.24V123.011H506.137C505.794 123.64 505.348 124.189 504.798 124.659C504.249 125.128 503.62 125.488 502.91 125.74C502.212 125.992 501.463 126.118 500.662 126.118ZM524.461 126.169C523.591 126.169 522.79 126.032 522.058 125.757C521.337 125.471 520.702 125.076 520.153 124.573C519.603 124.058 519.151 123.44 518.796 122.719H518.711V125.809H514.436V101.039H518.711V110.737H518.796C519.151 110.005 519.609 109.381 520.17 108.866C520.73 108.34 521.377 107.939 522.109 107.665C522.842 107.379 523.637 107.236 524.495 107.236C526.017 107.236 527.339 107.619 528.461 108.386C529.582 109.141 530.452 110.228 531.07 111.647C531.688 113.055 531.997 114.737 531.997 116.694V116.711C531.997 118.656 531.688 120.339 531.07 121.758C530.463 123.177 529.594 124.269 528.461 125.036C527.339 125.791 526.006 126.169 524.461 126.169ZM523.191 122.581C524.106 122.581 524.896 122.347 525.56 121.878C526.235 121.397 526.75 120.716 527.105 119.835C527.459 118.954 527.637 117.912 527.637 116.711V116.694C527.637 115.481 527.454 114.439 527.087 113.57C526.733 112.7 526.223 112.03 525.56 111.561C524.896 111.081 524.106 110.84 523.191 110.84C522.31 110.84 521.531 111.081 520.856 111.561C520.193 112.042 519.666 112.723 519.277 113.604C518.888 114.474 518.693 115.504 518.693 116.694V116.711C518.693 117.901 518.882 118.937 519.26 119.818C519.649 120.699 520.181 121.38 520.856 121.861C521.531 122.341 522.31 122.581 523.191 122.581ZM535.215 125.809V101.039H539.489V125.809H535.215ZM551.479 126.169C549.659 126.169 548.091 125.786 546.775 125.019C545.471 124.252 544.47 123.165 543.771 121.758C543.073 120.35 542.724 118.685 542.724 116.762V116.745C542.724 114.834 543.073 113.169 543.771 111.75C544.481 110.32 545.471 109.21 546.741 108.42C548.023 107.63 549.533 107.236 551.273 107.236C553.001 107.236 554.494 107.619 555.753 108.386C557.023 109.141 557.996 110.205 558.671 111.578C559.358 112.952 559.701 114.554 559.701 116.385V117.758H544.836V114.909H557.658L555.598 117.569V115.921C555.598 114.731 555.415 113.741 555.049 112.952C554.683 112.162 554.179 111.573 553.539 111.184C552.898 110.783 552.16 110.583 551.324 110.583C550.477 110.583 549.722 110.789 549.058 111.201C548.406 111.601 547.891 112.202 547.514 113.003C547.147 113.804 546.964 114.777 546.964 115.921V117.569C546.964 118.679 547.147 119.629 547.514 120.419C547.891 121.197 548.423 121.798 549.11 122.221C549.797 122.633 550.615 122.839 551.565 122.839C552.274 122.839 552.898 122.73 553.436 122.513C553.973 122.284 554.414 121.992 554.757 121.637C555.112 121.283 555.358 120.899 555.495 120.487L555.53 120.367H559.512L559.478 120.556C559.329 121.254 559.054 121.941 558.654 122.616C558.253 123.28 557.716 123.88 557.04 124.418C556.365 124.956 555.564 125.385 554.637 125.706C553.71 126.015 552.657 126.169 551.479 126.169ZM576.952 126.169C575.063 126.169 573.656 125.757 572.729 124.933C571.813 124.109 571.356 122.759 571.356 120.882V110.909H568.781V107.613H571.356V102.996H575.698V107.613H579.08V110.909H575.698V120.539C575.698 121.42 575.893 122.032 576.282 122.376C576.683 122.707 577.266 122.873 578.033 122.873C578.25 122.873 578.439 122.868 578.599 122.856C578.771 122.833 578.931 122.816 579.08 122.805V126.015C578.828 126.049 578.519 126.083 578.153 126.118C577.798 126.152 577.398 126.169 576.952 126.169ZM582.367 125.809V107.613H586.624V110.755H586.727C587.002 109.656 587.499 108.798 588.22 108.18C588.953 107.55 589.845 107.236 590.898 107.236C591.161 107.236 591.413 107.253 591.653 107.287C591.894 107.321 592.094 107.361 592.254 107.407V111.269C592.083 111.201 591.836 111.144 591.516 111.098C591.207 111.052 590.87 111.029 590.503 111.029C589.702 111.029 589.01 111.195 588.426 111.527C587.843 111.847 587.396 112.322 587.087 112.952C586.778 113.581 586.624 114.348 586.624 115.252V125.809H582.367ZM599.764 126.118C598.562 126.118 597.498 125.889 596.571 125.431C595.655 124.962 594.94 124.315 594.425 123.491C593.922 122.656 593.67 121.7 593.67 120.625V120.59C593.67 119.503 593.939 118.576 594.477 117.81C595.026 117.031 595.816 116.419 596.846 115.973C597.876 115.515 599.123 115.24 600.588 115.149L607.54 114.72V117.552L601.188 117.947C600.136 118.015 599.329 118.267 598.768 118.702C598.207 119.137 597.927 119.715 597.927 120.436V120.453C597.927 121.197 598.207 121.786 598.768 122.221C599.34 122.644 600.096 122.856 601.034 122.856C601.858 122.856 602.59 122.69 603.231 122.358C603.883 122.026 604.398 121.574 604.776 121.002C605.154 120.43 605.342 119.784 605.342 119.063V113.604C605.342 112.688 605.051 111.968 604.467 111.441C603.895 110.903 603.065 110.634 601.978 110.634C600.971 110.634 600.164 110.852 599.558 111.287C598.951 111.71 598.574 112.259 598.425 112.935L598.39 113.089H594.442L594.46 112.883C594.551 111.807 594.912 110.846 595.541 109.999C596.17 109.141 597.04 108.466 598.15 107.974C599.272 107.482 600.599 107.236 602.133 107.236C603.655 107.236 604.971 107.487 606.081 107.991C607.202 108.494 608.066 109.198 608.673 110.102C609.291 111.006 609.6 112.071 609.6 113.295V125.809H605.342V123.011H605.24C604.896 123.64 604.45 124.189 603.901 124.659C603.351 125.128 602.722 125.488 602.012 125.74C601.314 125.992 600.565 126.118 599.764 126.118ZM620.182 126.169C618.648 126.169 617.315 125.791 616.182 125.036C615.061 124.269 614.191 123.177 613.573 121.758C612.966 120.339 612.663 118.656 612.663 116.711V116.694C612.663 114.737 612.972 113.055 613.59 111.647C614.208 110.228 615.078 109.141 616.199 108.386C617.321 107.619 618.642 107.236 620.164 107.236C621.034 107.236 621.83 107.379 622.55 107.665C623.283 107.939 623.929 108.34 624.49 108.866C625.051 109.381 625.503 110.005 625.846 110.737H625.949V101.039H630.206V125.809H625.949V122.719H625.846C625.514 123.44 625.068 124.058 624.507 124.573C623.958 125.076 623.317 125.471 622.585 125.757C621.864 126.032 621.063 126.169 620.182 126.169ZM621.469 122.581C622.35 122.581 623.128 122.341 623.804 121.861C624.479 121.38 625.005 120.699 625.383 119.818C625.76 118.937 625.949 117.901 625.949 116.711V116.694C625.949 115.504 625.755 114.474 625.366 113.604C624.988 112.723 624.462 112.042 623.786 111.561C623.123 111.081 622.35 110.84 621.469 110.84C620.554 110.84 619.758 111.081 619.083 111.561C618.419 112.03 617.904 112.7 617.538 113.57C617.183 114.439 617.006 115.481 617.006 116.694V116.711C617.006 117.912 617.183 118.954 617.538 119.835C617.904 120.716 618.419 121.397 619.083 121.878C619.758 122.347 620.554 122.581 621.469 122.581ZM634.283 125.809V107.613H638.557V125.809H634.283ZM636.411 105.004C635.747 105.004 635.187 104.775 634.729 104.317C634.271 103.86 634.042 103.31 634.042 102.67C634.042 102.017 634.271 101.468 634.729 101.022C635.187 100.564 635.747 100.335 636.411 100.335C637.086 100.335 637.653 100.564 638.111 101.022C638.568 101.468 638.797 102.017 638.797 102.67C638.797 103.31 638.568 103.86 638.111 104.317C637.653 104.775 637.086 105.004 636.411 105.004ZM642.548 125.809V107.613H646.805V110.463H646.908C647.377 109.479 648.075 108.695 649.002 108.111C649.94 107.527 651.096 107.236 652.469 107.236C654.472 107.236 656.017 107.842 657.104 109.055C658.202 110.268 658.752 111.927 658.752 114.033V125.809H654.478V114.891C654.478 113.598 654.174 112.603 653.568 111.905C652.961 111.195 652.051 110.84 650.838 110.84C650.026 110.84 649.316 111.029 648.71 111.407C648.103 111.773 647.634 112.288 647.302 112.952C646.97 113.604 646.805 114.371 646.805 115.252V125.809H642.548ZM670.741 132.177C669.139 132.177 667.737 131.954 666.536 131.508C665.346 131.073 664.396 130.472 663.686 129.705C662.977 128.938 662.536 128.08 662.365 127.13L662.33 126.976H666.519L666.587 127.113C666.816 127.64 667.285 128.074 667.995 128.418C668.716 128.772 669.626 128.95 670.724 128.95C672.12 128.95 673.19 128.607 673.934 127.92C674.678 127.233 675.05 126.312 675.05 125.156V122.53H674.964C674.632 123.182 674.186 123.743 673.625 124.212C673.076 124.681 672.429 125.048 671.686 125.311C670.953 125.574 670.152 125.706 669.282 125.706C667.76 125.706 666.433 125.334 665.3 124.59C664.178 123.846 663.309 122.793 662.691 121.431C662.084 120.058 661.781 118.427 661.781 116.539V116.522C661.781 114.6 662.09 112.952 662.708 111.578C663.337 110.194 664.219 109.124 665.351 108.369C666.484 107.613 667.818 107.236 669.351 107.236C670.209 107.236 670.999 107.384 671.72 107.682C672.441 107.968 673.07 108.369 673.608 108.883C674.157 109.398 674.604 110.005 674.947 110.703H675.05V107.613H679.324V125.294C679.324 126.667 678.975 127.868 678.277 128.898C677.579 129.94 676.589 130.747 675.307 131.319C674.026 131.891 672.504 132.177 670.741 132.177ZM670.621 122.41C671.514 122.41 672.292 122.175 672.956 121.706C673.619 121.225 674.134 120.55 674.501 119.681C674.878 118.811 675.067 117.792 675.067 116.625V116.608C675.067 115.429 674.878 114.411 674.501 113.552C674.123 112.683 673.602 112.013 672.939 111.544C672.275 111.075 671.502 110.84 670.621 110.84C669.706 110.84 668.91 111.075 668.235 111.544C667.56 112.013 667.039 112.677 666.673 113.535C666.307 114.394 666.124 115.418 666.124 116.608V116.625C666.124 117.815 666.307 118.845 666.673 119.715C667.039 120.573 667.56 121.237 668.235 121.706C668.91 122.175 669.706 122.41 670.621 122.41ZM817.193 125.809V110.909H814.704V107.613H817.193V105.88C817.193 104.689 817.388 103.711 817.777 102.944C818.178 102.178 818.79 101.611 819.614 101.245C820.438 100.867 821.508 100.678 822.824 100.678C823.247 100.678 823.665 100.696 824.077 100.73C824.5 100.764 824.844 100.804 825.107 100.85V103.837C824.924 103.814 824.718 103.797 824.489 103.785C824.271 103.762 824.048 103.751 823.819 103.751C822.984 103.751 822.366 103.94 821.965 104.317C821.576 104.695 821.382 105.256 821.382 106V107.613H825.038V110.909H821.468V125.809H817.193ZM834.813 126.169C833.028 126.169 831.478 125.791 830.162 125.036C828.846 124.269 827.821 123.182 827.089 121.775C826.368 120.356 826.008 118.668 826.008 116.711V116.677C826.008 114.731 826.374 113.055 827.106 111.647C827.839 110.228 828.863 109.141 830.179 108.386C831.495 107.619 833.034 107.236 834.796 107.236C836.57 107.236 838.115 107.619 839.431 108.386C840.758 109.141 841.788 110.222 842.521 111.63C843.253 113.038 843.619 114.72 843.619 116.677V116.711C843.619 118.679 843.253 120.373 842.521 121.792C841.8 123.199 840.781 124.281 839.465 125.036C838.149 125.791 836.599 126.169 834.813 126.169ZM834.831 122.719C835.735 122.719 836.519 122.484 837.182 122.015C837.846 121.546 838.355 120.865 838.71 119.972C839.076 119.068 839.259 117.981 839.259 116.711V116.677C839.259 115.418 839.076 114.342 838.71 113.449C838.344 112.557 837.823 111.876 837.148 111.407C836.484 110.938 835.7 110.703 834.796 110.703C833.915 110.703 833.137 110.938 832.462 111.407C831.798 111.876 831.277 112.557 830.9 113.449C830.534 114.342 830.35 115.418 830.35 116.677V116.711C830.35 117.981 830.534 119.068 830.9 119.972C831.277 120.865 831.798 121.546 832.462 122.015C833.137 122.484 833.927 122.719 834.831 122.719ZM846.717 125.809V107.613H850.974V110.755H851.077C851.352 109.656 851.85 108.798 852.571 108.18C853.303 107.55 854.196 107.236 855.249 107.236C855.512 107.236 855.763 107.253 856.004 107.287C856.244 107.321 856.444 107.361 856.605 107.407V111.269C856.433 111.201 856.187 111.144 855.866 111.098C855.558 111.052 855.22 111.029 854.854 111.029C854.053 111.029 853.36 111.195 852.777 111.527C852.193 111.847 851.747 112.322 851.438 112.952C851.129 113.581 850.974 114.348 850.974 115.252V125.809H846.717ZM225.051 170.169C223.162 170.169 221.755 169.757 220.828 168.933C219.912 168.109 219.455 166.759 219.455 164.882V154.909H216.88V151.613H219.455V146.996H223.798V151.613H227.179V154.909H223.798V164.539C223.798 165.42 223.992 166.032 224.381 166.376C224.782 166.707 225.365 166.873 226.132 166.873C226.349 166.873 226.538 166.868 226.698 166.856C226.87 166.833 227.03 166.816 227.179 166.805V170.015C226.927 170.049 226.618 170.083 226.252 170.118C225.897 170.152 225.497 170.169 225.051 170.169ZM230.586 169.809V145.039H234.86V154.669H234.946C235.427 153.57 236.142 152.723 237.092 152.128C238.053 151.533 239.209 151.236 240.559 151.236C241.875 151.236 243.014 151.539 243.975 152.145C244.936 152.74 245.68 153.582 246.207 154.669C246.733 155.744 246.996 157.015 246.996 158.479V169.809H242.722V159.321C242.722 157.924 242.384 156.832 241.709 156.042C241.034 155.241 240.084 154.84 238.86 154.84C238.059 154.84 237.355 155.035 236.748 155.424C236.153 155.802 235.69 156.328 235.358 157.003C235.026 157.667 234.86 158.439 234.86 159.321V169.809H230.586ZM258.797 170.169C256.978 170.169 255.41 169.786 254.094 169.019C252.789 168.252 251.788 167.165 251.09 165.758C250.392 164.35 250.043 162.685 250.043 160.762V160.745C250.043 158.834 250.392 157.169 251.09 155.75C251.799 154.32 252.789 153.21 254.059 152.42C255.341 151.63 256.852 151.236 258.591 151.236C260.319 151.236 261.813 151.619 263.071 152.386C264.342 153.141 265.314 154.205 265.989 155.578C266.676 156.952 267.019 158.554 267.019 160.385V161.758H252.154V158.909H264.977L262.917 161.569V159.921C262.917 158.731 262.734 157.741 262.368 156.952C262.001 156.162 261.498 155.573 260.857 155.184C260.216 154.783 259.478 154.583 258.643 154.583C257.796 154.583 257.041 154.789 256.377 155.201C255.725 155.601 255.21 156.202 254.832 157.003C254.466 157.804 254.283 158.777 254.283 159.921V161.569C254.283 162.679 254.466 163.629 254.832 164.419C255.21 165.197 255.742 165.798 256.428 166.221C257.115 166.633 257.933 166.839 258.883 166.839C259.592 166.839 260.216 166.73 260.754 166.513C261.292 166.284 261.732 165.992 262.076 165.637C262.431 165.283 262.677 164.899 262.814 164.487L262.848 164.367H266.831L266.796 164.556C266.647 165.254 266.373 165.941 265.972 166.616C265.572 167.28 265.034 167.88 264.359 168.418C263.684 168.956 262.883 169.385 261.956 169.706C261.029 170.015 259.976 170.169 258.797 170.169Z" fill="black" fill-opacity="0.8"/>
<path d="M699.802 106.944C701.404 106.944 702.789 107.247 703.956 107.854C705.135 108.449 706.039 109.255 706.668 110.274C707.297 111.281 707.612 112.397 707.612 113.621C707.612 113.839 707.612 113.976 707.612 114.033C707.612 114.09 707.612 114.142 707.612 114.188H702.909C702.886 113.306 702.588 112.574 702.016 111.99C701.444 111.395 700.643 111.098 699.613 111.098C698.892 111.098 698.234 111.269 697.639 111.613C697.055 111.945 696.546 112.42 696.111 113.038C695.688 113.644 695.356 114.371 695.116 115.218C694.887 116.064 694.772 116.997 694.772 118.015C694.772 118.839 694.91 119.555 695.184 120.161C695.459 120.768 695.848 121.237 696.352 121.569C696.855 121.889 697.444 122.049 698.12 122.049C699.081 122.049 699.893 121.786 700.557 121.26C701.232 120.733 701.707 120.012 701.982 119.097H706.702C706.462 120.482 705.936 121.712 705.123 122.787C704.311 123.852 703.286 124.693 702.05 125.311C700.826 125.917 699.458 126.221 697.948 126.221C696.254 126.221 694.801 125.889 693.588 125.225C692.375 124.55 691.448 123.611 690.807 122.41C690.166 121.208 689.846 119.812 689.846 118.221C689.846 115.99 690.258 114.027 691.082 112.334C691.906 110.64 693.062 109.318 694.549 108.369C696.048 107.419 697.799 106.944 699.802 106.944ZM717.834 122.17C718.818 122.17 719.693 121.872 720.46 121.277C721.227 120.67 721.828 119.852 722.262 118.822C722.709 117.781 722.932 116.614 722.932 115.321C722.932 114.016 722.611 112.969 721.971 112.179C721.341 111.39 720.494 110.995 719.43 110.995C718.446 110.995 717.565 111.292 716.787 111.887C716.02 112.482 715.413 113.301 714.967 114.342C714.532 115.372 714.315 116.539 714.315 117.844C714.315 119.137 714.635 120.184 715.276 120.985C715.917 121.775 716.769 122.17 717.834 122.17ZM719.602 106.944C721.273 106.944 722.732 107.287 723.979 107.974C725.226 108.66 726.193 109.627 726.88 110.875C727.578 112.111 727.927 113.552 727.927 115.2C727.927 116.78 727.67 118.244 727.155 119.595C726.651 120.934 725.936 122.095 725.009 123.079C724.093 124.063 723.012 124.836 721.765 125.397C720.529 125.946 719.167 126.221 717.679 126.221C716.008 126.221 714.549 125.877 713.302 125.191C712.055 124.493 711.082 123.526 710.384 122.29C709.697 121.042 709.354 119.595 709.354 117.947C709.354 116.379 709.606 114.926 710.109 113.587C710.624 112.236 711.339 111.069 712.255 110.085C713.182 109.089 714.263 108.317 715.499 107.768C716.747 107.218 718.114 106.944 719.602 106.944ZM728.982 125.809L732.896 107.356H737.617L737.016 110.188H737.119C737.748 109.158 738.589 108.363 739.642 107.802C740.695 107.23 741.856 106.944 743.127 106.944C744.237 106.944 745.215 107.173 746.062 107.63C746.92 108.077 747.59 108.7 748.07 109.501C748.562 110.291 748.808 111.212 748.808 112.265C748.808 112.597 748.786 112.957 748.74 113.346C748.705 113.724 748.648 114.113 748.568 114.514L746.182 125.809H741.307L743.521 115.321C743.59 115.034 743.636 114.771 743.659 114.531C743.682 114.279 743.693 114.05 743.693 113.844C743.693 112.997 743.401 112.322 742.818 111.819C742.246 111.304 741.485 111.046 740.535 111.046C739.848 111.046 739.202 111.207 738.595 111.527C738 111.836 737.491 112.277 737.067 112.849C736.655 113.421 736.363 114.096 736.192 114.874L733.875 125.809H728.982ZM757.743 126.015C756.072 126.015 754.733 125.683 753.726 125.019C752.73 124.355 752.233 123.36 752.233 122.032C752.233 121.803 752.244 121.529 752.267 121.208C752.301 120.888 752.353 120.55 752.421 120.195L754.292 111.51H751.546L752.353 107.665H755.099L756.026 103.185H760.935L759.974 107.665H763.751L762.961 111.51H759.202L757.468 119.457C757.422 119.64 757.388 119.841 757.365 120.058C757.342 120.264 757.331 120.442 757.331 120.59C757.331 121.174 757.52 121.592 757.897 121.843C758.286 122.084 758.847 122.204 759.579 122.204C759.797 122.204 759.974 122.204 760.112 122.204C760.26 122.192 760.392 122.181 760.506 122.17C760.621 122.158 760.724 122.141 760.815 122.118L760.043 125.809C759.768 125.866 759.419 125.912 758.996 125.946C758.584 125.992 758.166 126.015 757.743 126.015ZM762.918 125.809L766.849 107.356H771.586L771.071 109.931H771.174C771.666 109.084 772.319 108.397 773.131 107.871C773.955 107.344 774.899 107.081 775.963 107.081C776.456 107.081 776.896 107.127 777.285 107.218C777.674 107.299 778.012 107.407 778.298 107.545L777.337 112.042C777.028 111.893 776.65 111.767 776.204 111.664C775.757 111.55 775.288 111.493 774.796 111.493C773.926 111.493 773.165 111.659 772.513 111.99C771.872 112.311 771.34 112.791 770.917 113.432C770.493 114.073 770.173 114.868 769.956 115.818L767.827 125.809H762.918ZM786.46 122.17C787.444 122.17 788.319 121.872 789.086 121.277C789.853 120.67 790.454 119.852 790.888 118.822C791.335 117.781 791.558 116.614 791.558 115.321C791.558 114.016 791.237 112.969 790.597 112.179C789.967 111.39 789.12 110.995 788.056 110.995C787.072 110.995 786.191 111.292 785.413 111.887C784.646 112.482 784.039 113.301 783.593 114.342C783.158 115.372 782.941 116.539 782.941 117.844C782.941 119.137 783.261 120.184 783.902 120.985C784.543 121.775 785.395 122.17 786.46 122.17ZM788.228 106.944C789.899 106.944 791.358 107.287 792.605 107.974C793.852 108.66 794.819 109.627 795.506 110.875C796.204 112.111 796.553 113.552 796.553 115.2C796.553 116.78 796.296 118.244 795.781 119.595C795.277 120.934 794.562 122.095 793.635 123.079C792.719 124.063 791.638 124.836 790.391 125.397C789.155 125.946 787.793 126.221 786.305 126.221C784.634 126.221 783.175 125.877 781.928 125.191C780.681 124.493 779.708 123.526 779.01 122.29C778.323 121.042 777.98 119.595 777.98 117.947C777.98 116.379 778.232 114.926 778.735 113.587C779.25 112.236 779.965 111.069 780.881 110.085C781.808 109.089 782.889 108.317 784.125 107.768C785.373 107.218 786.74 106.944 788.228 106.944ZM797.78 125.809L803.05 101.039H807.959L802.689 125.809H797.78ZM286.725 150.944C288.327 150.944 289.711 151.247 290.879 151.854C292.057 152.449 292.961 153.255 293.591 154.274C294.22 155.281 294.535 156.397 294.535 157.621C294.535 157.839 294.535 157.976 294.535 158.033C294.535 158.09 294.535 158.142 294.535 158.188H289.832C289.809 157.306 289.511 156.574 288.939 155.99C288.367 155.395 287.566 155.098 286.536 155.098C285.815 155.098 285.157 155.269 284.562 155.613C283.978 155.945 283.469 156.42 283.034 157.038C282.611 157.644 282.279 158.371 282.038 159.218C281.81 160.064 281.695 160.997 281.695 162.015C281.695 162.839 281.832 163.555 282.107 164.161C282.382 164.768 282.771 165.237 283.274 165.569C283.778 165.889 284.367 166.049 285.042 166.049C286.004 166.049 286.816 165.786 287.48 165.26C288.155 164.733 288.63 164.012 288.905 163.097H293.625C293.385 164.482 292.858 165.712 292.046 166.787C291.233 167.852 290.209 168.693 288.973 169.311C287.749 169.917 286.381 170.221 284.871 170.221C283.177 170.221 281.724 169.889 280.511 169.225C279.298 168.55 278.371 167.611 277.73 166.41C277.089 165.208 276.769 163.812 276.769 162.221C276.769 159.99 277.181 158.027 278.005 156.334C278.829 154.64 279.984 153.318 281.472 152.369C282.971 151.419 284.722 150.944 286.725 150.944ZM304.757 166.17C305.741 166.17 306.616 165.872 307.383 165.277C308.15 164.67 308.75 163.852 309.185 162.822C309.632 161.781 309.855 160.614 309.855 159.321C309.855 158.016 309.534 156.969 308.893 156.179C308.264 155.39 307.417 154.995 306.353 154.995C305.369 154.995 304.488 155.292 303.709 155.887C302.943 156.482 302.336 157.301 301.89 158.342C301.455 159.372 301.238 160.539 301.238 161.844C301.238 163.137 301.558 164.184 302.199 164.985C302.84 165.775 303.692 166.17 304.757 166.17ZM306.525 150.944C308.195 150.944 309.654 151.287 310.902 151.974C312.149 152.66 313.116 153.627 313.803 154.875C314.501 156.111 314.85 157.552 314.85 159.2C314.85 160.78 314.592 162.244 314.077 163.595C313.574 164.934 312.859 166.095 311.932 167.079C311.016 168.063 309.935 168.836 308.687 169.397C307.452 169.946 306.09 170.221 304.602 170.221C302.931 170.221 301.472 169.877 300.225 169.191C298.978 168.493 298.005 167.526 297.307 166.29C296.62 165.042 296.277 163.595 296.277 161.947C296.277 160.379 296.529 158.926 297.032 157.587C297.547 156.236 298.262 155.069 299.178 154.085C300.105 153.089 301.186 152.317 302.422 151.768C303.669 151.218 305.037 150.944 306.525 150.944ZM315.905 169.809L319.819 151.356H324.539L323.939 154.188H324.042C324.671 153.158 325.512 152.363 326.565 151.802C327.618 151.23 328.779 150.944 330.049 150.944C331.16 150.944 332.138 151.173 332.985 151.63C333.843 152.077 334.512 152.7 334.993 153.501C335.485 154.291 335.731 155.212 335.731 156.265C335.731 156.597 335.708 156.957 335.663 157.346C335.628 157.724 335.571 158.113 335.491 158.514L333.105 169.809H328.23L330.444 159.321C330.513 159.034 330.559 158.771 330.582 158.531C330.605 158.279 330.616 158.05 330.616 157.844C330.616 156.997 330.324 156.322 329.741 155.819C329.168 155.304 328.407 155.046 327.458 155.046C326.771 155.046 326.124 155.207 325.518 155.527C324.923 155.836 324.414 156.277 323.99 156.849C323.578 157.421 323.286 158.096 323.115 158.874L320.797 169.809H315.905ZM338.555 151.339H343.447L344.511 165.088H344.614L351.377 151.339H356.647L346.468 169.809H340.872L338.555 151.339ZM360.895 158.6H368.894C368.906 158.531 368.911 158.451 368.911 158.359C368.923 158.256 368.928 158.165 368.928 158.085C368.928 157.478 368.797 156.923 368.534 156.42C368.27 155.905 367.881 155.493 367.366 155.184C366.863 154.863 366.222 154.703 365.444 154.703C364.689 154.703 364.002 154.875 363.384 155.218C362.778 155.55 362.257 156.008 361.822 156.591C361.399 157.175 361.09 157.844 360.895 158.6ZM363.968 170.221C362.263 170.221 360.798 169.877 359.573 169.191C358.36 168.504 357.428 167.543 356.775 166.307C356.135 165.059 355.814 163.595 355.814 161.912C355.814 160.356 356.049 158.914 356.518 157.587C356.987 156.259 357.657 155.098 358.526 154.102C359.396 153.107 360.432 152.334 361.633 151.785C362.835 151.224 364.162 150.944 365.616 150.944C367.206 150.944 368.591 151.27 369.77 151.922C370.96 152.563 371.881 153.473 372.533 154.652C373.197 155.83 373.529 157.226 373.529 158.84C373.529 159.286 373.506 159.767 373.46 160.282C373.426 160.797 373.363 161.272 373.271 161.707H360.397C360.386 161.81 360.374 161.912 360.363 162.015C360.363 162.107 360.363 162.199 360.363 162.29C360.363 163.103 360.517 163.818 360.826 164.436C361.135 165.054 361.57 165.54 362.131 165.895C362.703 166.238 363.378 166.41 364.157 166.41C365.129 166.41 365.959 166.187 366.645 165.74C367.332 165.283 367.818 164.682 368.105 163.938H372.722C372.413 165.162 371.847 166.25 371.023 167.199C370.21 168.138 369.203 168.876 368.002 169.414C366.8 169.952 365.455 170.221 363.968 170.221ZM374.567 169.809L378.481 151.356H383.201L382.6 154.188H382.703C383.333 153.158 384.174 152.363 385.227 151.802C386.28 151.23 387.441 150.944 388.711 150.944C389.821 150.944 390.8 151.173 391.647 151.63C392.505 152.077 393.174 152.7 393.655 153.501C394.147 154.291 394.393 155.212 394.393 156.265C394.393 156.597 394.37 156.957 394.324 157.346C394.29 157.724 394.233 158.113 394.153 158.514L391.767 169.809H386.892L389.106 159.321C389.175 159.034 389.221 158.771 389.243 158.531C389.266 158.279 389.278 158.05 389.278 157.844C389.278 156.997 388.986 156.322 388.402 155.819C387.83 155.304 387.069 155.046 386.119 155.046C385.433 155.046 384.786 155.207 384.18 155.527C383.585 155.836 383.075 156.277 382.652 156.849C382.24 157.421 381.948 158.096 381.776 158.874L379.459 169.809H374.567ZM396.118 169.809L400.032 151.356H404.941L401.027 169.809H396.118ZM403.585 148.918C402.864 148.918 402.246 148.661 401.731 148.146C401.227 147.619 400.976 146.996 400.976 146.275C400.976 145.554 401.227 144.936 401.731 144.421C402.246 143.895 402.864 143.631 403.585 143.631C404.317 143.631 404.935 143.895 405.439 144.421C405.942 144.936 406.194 145.554 406.194 146.275C406.194 146.996 405.942 147.619 405.439 148.146C404.935 148.661 404.317 148.918 403.585 148.918ZM411.695 158.6H419.694C419.706 158.531 419.711 158.451 419.711 158.359C419.723 158.256 419.729 158.165 419.729 158.085C419.729 157.478 419.597 156.923 419.334 156.42C419.071 155.905 418.681 155.493 418.167 155.184C417.663 154.863 417.022 154.703 416.244 154.703C415.489 154.703 414.802 154.875 414.184 155.218C413.578 155.55 413.057 156.008 412.622 156.591C412.199 157.175 411.89 157.844 411.695 158.6ZM414.768 170.221C413.063 170.221 411.598 169.877 410.373 169.191C409.16 168.504 408.228 167.543 407.575 166.307C406.935 165.059 406.614 163.595 406.614 161.912C406.614 160.356 406.849 158.914 407.318 157.587C407.787 156.259 408.457 155.098 409.326 154.102C410.196 153.107 411.232 152.334 412.433 151.785C413.635 151.224 414.962 150.944 416.416 150.944C418.006 150.944 419.391 151.27 420.57 151.922C421.76 152.563 422.681 153.473 423.333 154.652C423.997 155.83 424.329 157.226 424.329 158.84C424.329 159.286 424.306 159.767 424.26 160.282C424.226 160.797 424.163 161.272 424.071 161.707H411.197C411.186 161.81 411.174 161.912 411.163 162.015C411.163 162.107 411.163 162.199 411.163 162.29C411.163 163.103 411.318 163.818 411.626 164.436C411.935 165.054 412.37 165.54 412.931 165.895C413.503 166.238 414.178 166.41 414.957 166.41C415.929 166.41 416.759 166.187 417.446 165.74C418.132 165.283 418.619 164.682 418.905 163.938H423.522C423.213 165.162 422.647 166.25 421.823 167.199C421.01 168.138 420.003 168.876 418.802 169.414C417.6 169.952 416.255 170.221 414.768 170.221ZM425.367 169.809L429.281 151.356H434.001L433.4 154.188H433.503C434.133 153.158 434.974 152.363 436.027 151.802C437.08 151.23 438.241 150.944 439.511 150.944C440.621 150.944 441.6 151.173 442.447 151.63C443.305 152.077 443.974 152.7 444.455 153.501C444.947 154.291 445.193 155.212 445.193 156.265C445.193 156.597 445.17 156.957 445.124 157.346C445.09 157.724 445.033 158.113 444.953 158.514L442.567 169.809H437.692L439.906 159.321C439.975 159.034 440.021 158.771 440.044 158.531C440.066 158.279 440.078 158.05 440.078 157.844C440.078 156.997 439.786 156.322 439.202 155.819C438.63 155.304 437.869 155.046 436.919 155.046C436.233 155.046 435.586 155.207 434.98 155.527C434.385 155.836 433.875 156.277 433.452 156.849C433.04 157.421 432.748 158.096 432.577 158.874L430.259 169.809H425.367ZM457.389 150.944C458.991 150.944 460.376 151.247 461.543 151.854C462.722 152.449 463.626 153.255 464.255 154.274C464.884 155.281 465.199 156.397 465.199 157.621C465.199 157.839 465.199 157.976 465.199 158.033C465.199 158.09 465.199 158.142 465.199 158.188H460.496C460.473 157.306 460.175 156.574 459.603 155.99C459.031 155.395 458.23 155.098 457.2 155.098C456.479 155.098 455.821 155.269 455.226 155.613C454.642 155.945 454.133 156.42 453.698 157.038C453.275 157.644 452.943 158.371 452.703 159.218C452.474 160.064 452.359 160.997 452.359 162.015C452.359 162.839 452.497 163.555 452.771 164.161C453.046 164.768 453.435 165.237 453.939 165.569C454.442 165.889 455.031 166.049 455.707 166.049C456.668 166.049 457.48 165.786 458.144 165.26C458.819 164.733 459.294 164.012 459.569 163.097H464.289C464.049 164.482 463.523 165.712 462.71 166.787C461.898 167.852 460.873 168.693 459.638 169.311C458.413 169.917 457.046 170.221 455.535 170.221C453.841 170.221 452.388 169.889 451.175 169.225C449.962 168.55 449.035 167.611 448.394 166.41C447.753 165.208 447.433 163.812 447.433 162.221C447.433 159.99 447.845 158.027 448.669 156.334C449.493 154.64 450.649 153.318 452.136 152.369C453.635 151.419 455.386 150.944 457.389 150.944ZM472.039 158.6H480.038C480.05 158.531 480.055 158.451 480.055 158.359C480.067 158.256 480.073 158.165 480.073 158.085C480.073 157.478 479.941 156.923 479.678 156.42C479.415 155.905 479.026 155.493 478.511 155.184C478.007 154.863 477.366 154.703 476.588 154.703C475.833 154.703 475.146 154.875 474.528 155.218C473.922 155.55 473.401 156.008 472.966 156.591C472.543 157.175 472.234 157.844 472.039 158.6ZM475.112 170.221C473.407 170.221 471.942 169.877 470.717 169.191C469.504 168.504 468.572 167.543 467.919 166.307C467.279 165.059 466.958 163.595 466.958 161.912C466.958 160.356 467.193 158.914 467.662 157.587C468.131 156.259 468.801 155.098 469.67 154.102C470.54 153.107 471.576 152.334 472.777 151.785C473.979 151.224 475.306 150.944 476.76 150.944C478.35 150.944 479.735 151.27 480.914 151.922C482.104 152.563 483.025 153.473 483.677 154.652C484.341 155.83 484.673 157.226 484.673 158.84C484.673 159.286 484.65 159.767 484.604 160.282C484.57 160.797 484.507 161.272 484.415 161.707H471.541C471.53 161.81 471.519 161.912 471.507 162.015C471.507 162.107 471.507 162.199 471.507 162.29C471.507 163.103 471.662 163.818 471.971 164.436C472.28 165.054 472.714 165.54 473.275 165.895C473.847 166.238 474.522 166.41 475.301 166.41C476.273 166.41 477.103 166.187 477.79 165.74C478.476 165.283 478.963 164.682 479.249 163.938H483.866C483.557 165.162 482.991 166.25 482.167 167.199C481.354 168.138 480.347 168.876 479.146 169.414C477.944 169.952 476.599 170.221 475.112 170.221ZM495.195 169.809L498.267 155.355H495.349L496.139 151.527H499.005L499.417 149.45C499.772 147.7 500.505 146.429 501.615 145.64C502.725 144.839 504.264 144.438 506.232 144.438C506.861 144.438 507.445 144.484 507.983 144.575C508.521 144.656 508.961 144.736 509.305 144.816L508.584 148.266C508.412 148.209 508.172 148.163 507.863 148.129C507.565 148.083 507.228 148.06 506.85 148.06C506.083 148.06 505.477 148.226 505.03 148.558C504.596 148.89 504.31 149.387 504.172 150.051L503.863 151.527H507.76L506.953 155.355H503.159L500.104 169.809H495.195ZM506.566 169.809L510.497 151.356H515.235L514.72 153.931H514.823C515.315 153.084 515.967 152.397 516.78 151.871C517.604 151.344 518.548 151.081 519.612 151.081C520.104 151.081 520.545 151.127 520.934 151.218C521.323 151.299 521.661 151.407 521.947 151.545L520.985 156.042C520.676 155.893 520.299 155.767 519.852 155.664C519.406 155.55 518.937 155.493 518.445 155.493C517.575 155.493 516.814 155.659 516.162 155.99C515.521 156.311 514.989 156.791 514.566 157.432C514.142 158.073 513.822 158.868 513.604 159.818L511.476 169.809H506.566ZM530.108 166.17C531.093 166.17 531.968 165.872 532.735 165.277C533.502 164.67 534.102 163.852 534.537 162.822C534.983 161.781 535.207 160.614 535.207 159.321C535.207 158.016 534.886 156.969 534.245 156.179C533.616 155.39 532.769 154.995 531.705 154.995C530.721 154.995 529.84 155.292 529.061 155.887C528.295 156.482 527.688 157.301 527.242 158.342C526.807 159.372 526.59 160.539 526.59 161.844C526.59 163.137 526.91 164.184 527.551 164.985C528.192 165.775 529.044 166.17 530.108 166.17ZM531.877 150.944C533.547 150.944 535.006 151.287 536.254 151.974C537.501 152.66 538.468 153.627 539.155 154.875C539.853 156.111 540.202 157.552 540.202 159.2C540.202 160.78 539.944 162.244 539.429 163.595C538.926 164.934 538.211 166.095 537.284 167.079C536.368 168.063 535.287 168.836 534.039 169.397C532.803 169.946 531.442 170.221 529.954 170.221C528.283 170.221 526.824 169.877 525.577 169.191C524.329 168.493 523.357 167.526 522.659 166.29C521.972 165.042 521.629 163.595 521.629 161.947C521.629 160.379 521.881 158.926 522.384 157.587C522.899 156.236 523.614 155.069 524.53 154.085C525.457 153.089 526.538 152.317 527.774 151.768C529.021 151.218 530.389 150.944 531.877 150.944ZM541.257 169.809L545.171 151.356H549.891L549.256 154.291H549.359C549.886 153.318 550.641 152.517 551.625 151.888C552.609 151.258 553.679 150.944 554.835 150.944C556.059 150.944 557.089 151.258 557.925 151.888C558.76 152.517 559.309 153.301 559.573 154.24H559.658C560.082 153.622 560.591 153.067 561.186 152.575C561.793 152.071 562.479 151.676 563.246 151.39C564.013 151.093 564.865 150.944 565.804 150.944C566.799 150.944 567.68 151.167 568.447 151.613C569.225 152.048 569.838 152.649 570.284 153.416C570.73 154.182 570.953 155.069 570.953 156.076C570.953 156.408 570.93 156.757 570.885 157.123C570.85 157.49 570.793 157.867 570.713 158.256L568.275 169.809H563.4L565.666 159.012C565.724 158.748 565.764 158.502 565.786 158.273C565.821 158.045 565.838 157.821 565.838 157.604C565.838 156.872 565.609 156.265 565.151 155.784C564.694 155.292 564.064 155.046 563.263 155.046C562.691 155.046 562.147 155.189 561.632 155.475C561.117 155.75 560.671 156.151 560.294 156.677C559.927 157.203 559.664 157.833 559.504 158.565L557.135 169.809H552.415L554.68 159.012C554.738 158.748 554.778 158.502 554.801 158.273C554.835 158.045 554.852 157.821 554.852 157.604C554.852 156.872 554.623 156.265 554.165 155.784C553.719 155.292 553.09 155.046 552.277 155.046C551.705 155.046 551.162 155.195 550.647 155.493C550.132 155.779 549.685 156.185 549.308 156.711C548.941 157.226 548.684 157.844 548.535 158.565L546.149 169.809H541.257ZM594.624 150.068L589.354 159.904H595.774L594.744 150.068H594.624ZM596.701 169.809L596.083 163.904H587.363L584.136 169.809H578.608L592.598 145.039H598.709L601.902 169.809H596.701ZM609.926 169.809H604.708L609.978 145.039H615.196L609.926 169.809ZM630.181 166.427C630.867 166.427 631.503 166.295 632.086 166.032C632.67 165.769 633.162 165.409 633.562 164.951C633.974 164.482 634.249 163.955 634.386 163.372L634.73 161.81L630.833 161.964C629.78 161.998 628.951 162.227 628.344 162.651C627.738 163.074 627.434 163.64 627.434 164.35C627.434 164.979 627.686 165.483 628.19 165.861C628.705 166.238 629.368 166.427 630.181 166.427ZM628.207 170.1C627.177 170.1 626.239 169.883 625.392 169.448C624.545 169.013 623.875 168.418 623.383 167.663C622.891 166.896 622.645 166.021 622.645 165.037C622.645 163.171 623.355 161.701 624.774 160.625C626.204 159.549 628.161 158.971 630.644 158.891L635.382 158.72L635.605 157.604C635.639 157.455 635.657 157.329 635.657 157.226C635.668 157.123 635.674 157.02 635.674 156.917C635.674 156.277 635.416 155.767 634.901 155.39C634.386 155.001 633.671 154.806 632.756 154.806C632.138 154.806 631.594 154.898 631.125 155.081C630.667 155.252 630.29 155.498 629.992 155.819C629.695 156.128 629.489 156.5 629.374 156.935H624.739C624.957 155.721 625.443 154.669 626.199 153.776C626.954 152.883 627.921 152.191 629.099 151.699C630.278 151.196 631.617 150.944 633.116 150.944C634.592 150.944 635.88 151.178 636.978 151.648C638.088 152.105 638.952 152.746 639.57 153.57C640.188 154.383 640.497 155.332 640.497 156.42C640.497 156.683 640.48 156.952 640.446 157.226C640.423 157.501 640.394 157.741 640.36 157.947L637.837 169.809H633.099L633.58 167.594H633.477C633.122 168.098 632.676 168.538 632.138 168.916C631.611 169.294 631.016 169.585 630.353 169.791C629.689 169.997 628.974 170.1 628.207 170.1ZM662.426 151.356L658.512 169.809H653.792L654.392 166.976H654.289C653.958 167.583 653.494 168.132 652.899 168.624C652.315 169.116 651.634 169.505 650.856 169.791C650.09 170.078 649.26 170.221 648.367 170.221C647.2 170.221 646.187 169.992 645.329 169.534C644.471 169.076 643.807 168.453 643.338 167.663C642.88 166.862 642.651 165.941 642.651 164.899C642.651 164.522 642.668 164.11 642.703 163.663C642.748 163.217 642.811 162.811 642.892 162.445L645.226 151.356H650.135L647.938 161.638C647.892 161.867 647.852 162.124 647.818 162.41C647.795 162.685 647.784 162.92 647.784 163.114C647.784 164.052 648.041 164.768 648.556 165.26C649.071 165.74 649.832 165.981 650.839 165.981C651.583 165.981 652.252 165.82 652.847 165.5C653.454 165.18 653.958 164.733 654.358 164.161C654.77 163.578 655.062 162.897 655.233 162.118L657.516 151.356H662.426ZM670.176 170.015C668.505 170.015 667.166 169.683 666.159 169.019C665.163 168.355 664.666 167.36 664.666 166.032C664.666 165.803 664.677 165.529 664.7 165.208C664.734 164.888 664.786 164.55 664.854 164.195L666.725 155.51H663.979L664.786 151.665H667.532L668.459 147.185H673.368L672.407 151.665H676.184L675.394 155.51H671.635L669.901 163.457C669.855 163.64 669.821 163.841 669.798 164.058C669.775 164.264 669.764 164.442 669.764 164.59C669.764 165.174 669.952 165.592 670.33 165.843C670.719 166.084 671.28 166.204 672.012 166.204C672.23 166.204 672.407 166.204 672.544 166.204C672.693 166.192 672.825 166.181 672.939 166.17C673.054 166.158 673.157 166.141 673.248 166.118L672.476 169.809C672.201 169.866 671.852 169.912 671.429 169.946C671.017 169.992 670.599 170.015 670.176 170.015ZM684.981 166.17C685.965 166.17 686.84 165.872 687.607 165.277C688.374 164.67 688.974 163.852 689.409 162.822C689.855 161.781 690.079 160.614 690.079 159.321C690.079 158.016 689.758 156.969 689.117 156.179C688.488 155.39 687.641 154.995 686.577 154.995C685.593 154.995 684.712 155.292 683.933 155.887C683.167 156.482 682.56 157.301 682.114 158.342C681.679 159.372 681.462 160.539 681.462 161.844C681.462 163.137 681.782 164.184 682.423 164.985C683.064 165.775 683.916 166.17 684.981 166.17ZM686.749 150.944C688.419 150.944 689.878 151.287 691.126 151.974C692.373 152.66 693.34 153.627 694.027 154.875C694.725 156.111 695.074 157.552 695.074 159.2C695.074 160.78 694.816 162.244 694.301 163.595C693.798 164.934 693.083 166.095 692.156 167.079C691.24 168.063 690.159 168.836 688.911 169.397C687.675 169.946 686.314 170.221 684.826 170.221C683.155 170.221 681.696 169.877 680.449 169.191C679.201 168.493 678.229 167.526 677.531 166.29C676.844 165.042 676.501 163.595 676.501 161.947C676.501 160.379 676.753 158.926 677.256 157.587C677.771 156.236 678.486 155.069 679.402 154.085C680.329 153.089 681.41 152.317 682.646 151.768C683.893 151.218 685.261 150.944 686.749 150.944ZM696.129 169.809L700.043 151.356H704.763L704.128 154.291H704.231C704.758 153.318 705.513 152.517 706.497 151.888C707.481 151.258 708.551 150.944 709.707 150.944C710.931 150.944 711.961 151.258 712.797 151.888C713.632 152.517 714.181 153.301 714.445 154.24H714.53C714.954 153.622 715.463 153.067 716.058 152.575C716.665 152.071 717.351 151.676 718.118 151.39C718.885 151.093 719.737 150.944 720.676 150.944C721.671 150.944 722.552 151.167 723.319 151.613C724.097 152.048 724.71 152.649 725.156 153.416C725.602 154.182 725.825 155.069 725.825 156.076C725.825 156.408 725.802 156.757 725.757 157.123C725.722 157.49 725.665 157.867 725.585 158.256L723.147 169.809H718.272L720.538 159.012C720.596 158.748 720.636 158.502 720.658 158.273C720.693 158.045 720.71 157.821 720.71 157.604C720.71 156.872 720.481 156.265 720.023 155.784C719.566 155.292 718.936 155.046 718.135 155.046C717.563 155.046 717.019 155.189 716.504 155.475C715.989 155.75 715.543 156.151 715.166 156.677C714.799 157.203 714.536 157.833 714.376 158.565L712.007 169.809H707.287L709.552 159.012C709.61 158.748 709.65 158.502 709.673 158.273C709.707 158.045 709.724 157.821 709.724 157.604C709.724 156.872 709.495 156.265 709.037 155.784C708.591 155.292 707.962 155.046 707.149 155.046C706.577 155.046 706.034 155.195 705.519 155.493C705.004 155.779 704.557 156.185 704.18 156.711C703.813 157.226 703.556 157.844 703.407 158.565L701.021 169.809H696.129ZM734.725 166.427C735.412 166.427 736.047 166.295 736.631 166.032C737.214 165.769 737.706 165.409 738.107 164.951C738.519 164.482 738.793 163.955 738.931 163.372L739.274 161.81L735.378 161.964C734.325 161.998 733.495 162.227 732.889 162.651C732.282 163.074 731.979 163.64 731.979 164.35C731.979 164.979 732.231 165.483 732.734 165.861C733.249 166.238 733.913 166.427 734.725 166.427ZM732.751 170.1C731.721 170.1 730.783 169.883 729.936 169.448C729.089 169.013 728.42 168.418 727.928 167.663C727.436 166.896 727.19 166.021 727.19 165.037C727.19 163.171 727.899 161.701 729.318 160.625C730.749 159.549 732.705 158.971 735.189 158.891L739.926 158.72L740.149 157.604C740.184 157.455 740.201 157.329 740.201 157.226C740.212 157.123 740.218 157.02 740.218 156.917C740.218 156.277 739.961 155.767 739.446 155.39C738.931 155.001 738.216 154.806 737.3 154.806C736.682 154.806 736.139 154.898 735.669 155.081C735.212 155.252 734.834 155.498 734.536 155.819C734.239 156.128 734.033 156.5 733.918 156.935H729.284C729.501 155.721 729.988 154.669 730.743 153.776C731.498 152.883 732.465 152.191 733.644 151.699C734.822 151.196 736.161 150.944 737.661 150.944C739.137 150.944 740.424 151.178 741.523 151.648C742.633 152.105 743.497 152.746 744.115 153.57C744.733 154.383 745.042 155.332 745.042 156.42C745.042 156.683 745.024 156.952 744.99 157.226C744.967 157.501 744.939 157.741 744.904 157.947L742.381 169.809H737.643L738.124 167.594H738.021C737.666 168.098 737.22 168.538 736.682 168.916C736.156 169.294 735.561 169.585 734.897 169.791C734.233 169.997 733.518 170.1 732.751 170.1ZM753.942 170.015C752.271 170.015 750.932 169.683 749.925 169.019C748.929 168.355 748.431 167.36 748.431 166.032C748.431 165.803 748.443 165.529 748.466 165.208C748.5 164.888 748.552 164.55 748.62 164.195L750.491 155.51H747.745L748.552 151.665H751.298L752.225 147.185H757.134L756.173 151.665H759.949L759.16 155.51H755.401L753.667 163.457C753.621 163.64 753.587 163.841 753.564 164.058C753.541 164.264 753.53 164.442 753.53 164.59C753.53 165.174 753.718 165.592 754.096 165.843C754.485 166.084 755.046 166.204 755.778 166.204C755.996 166.204 756.173 166.204 756.31 166.204C756.459 166.192 756.591 166.181 756.705 166.17C756.82 166.158 756.923 166.141 757.014 166.118L756.242 169.809C755.967 169.866 755.618 169.912 755.195 169.946C754.783 169.992 754.365 170.015 753.942 170.015ZM759.889 169.809L763.803 151.356H768.712L764.798 169.809H759.889ZM767.356 148.918C766.635 148.918 766.017 148.661 765.502 148.146C764.999 147.619 764.747 146.996 764.747 146.275C764.747 145.554 764.999 144.936 765.502 144.421C766.017 143.895 766.635 143.631 767.356 143.631C768.088 143.631 768.706 143.895 769.21 144.421C769.713 144.936 769.965 145.554 769.965 146.275C769.965 146.996 769.713 147.619 769.21 148.146C768.706 148.661 768.088 148.918 767.356 148.918ZM778.848 166.17C779.832 166.17 780.708 165.872 781.474 165.277C782.241 164.67 782.842 163.852 783.277 162.822C783.723 161.781 783.946 160.614 783.946 159.321C783.946 158.016 783.626 156.969 782.985 156.179C782.355 155.39 781.509 154.995 780.444 154.995C779.46 154.995 778.579 155.292 777.801 155.887C777.034 156.482 776.428 157.301 775.981 158.342C775.546 159.372 775.329 160.539 775.329 161.844C775.329 163.137 775.649 164.184 776.29 164.985C776.931 165.775 777.784 166.17 778.848 166.17ZM780.616 150.944C782.287 150.944 783.746 151.287 784.993 151.974C786.241 152.66 787.208 153.627 787.894 154.875C788.592 156.111 788.941 157.552 788.941 159.2C788.941 160.78 788.684 162.244 788.169 163.595C787.665 164.934 786.95 166.095 786.023 167.079C785.108 168.063 784.026 168.836 782.779 169.397C781.543 169.946 780.181 170.221 778.693 170.221C777.023 170.221 775.564 169.877 774.316 169.191C773.069 168.493 772.096 167.526 771.398 166.29C770.712 165.042 770.368 163.595 770.368 161.947C770.368 160.379 770.62 158.926 771.123 157.587C771.638 156.236 772.354 155.069 773.269 154.085C774.196 153.089 775.278 152.317 776.513 151.768C777.761 151.218 779.128 150.944 780.616 150.944ZM789.997 169.809L793.91 151.356H798.631L798.03 154.188H798.133C798.762 153.158 799.603 152.363 800.656 151.802C801.709 151.23 802.871 150.944 804.141 150.944C805.251 150.944 806.229 151.173 807.076 151.63C807.934 152.077 808.604 152.7 809.085 153.501C809.577 154.291 809.823 155.212 809.823 156.265C809.823 156.597 809.8 156.957 809.754 157.346C809.72 157.724 809.662 158.113 809.582 158.514L807.196 169.809H802.321L804.536 159.321C804.604 159.034 804.65 158.771 804.673 158.531C804.696 158.279 804.707 158.05 804.707 157.844C804.707 156.997 804.416 156.322 803.832 155.819C803.26 155.304 802.499 155.046 801.549 155.046C800.862 155.046 800.216 155.207 799.609 155.527C799.014 155.836 798.505 156.277 798.081 156.849C797.67 157.421 797.378 158.096 797.206 158.874L794.889 169.809H789.997ZM814.551 170.015C813.785 170.015 813.132 169.74 812.594 169.191C812.057 168.63 811.788 167.955 811.788 167.165C811.788 166.387 812.057 165.723 812.594 165.174C813.132 164.613 813.785 164.333 814.551 164.333C815.318 164.333 815.97 164.613 816.508 165.174C817.046 165.723 817.315 166.387 817.315 167.165C817.315 167.955 817.046 168.63 816.508 169.191C815.97 169.74 815.318 170.015 814.551 170.015Z" fill="black"/>
</g>
<g filter="url(#filter0_d_2358_908)">
<circle cx="108.832" cy="113.049" r="61.0217" fill="url(#paint0_linear_2358_908)"/>
<circle cx="108.832" cy="113.049" r="61.0217" fill="url(#paint1_linear_2358_908)"/>
</g>
<g clip-path="url(#clip0_2358_908)">
<path d="M100.954 130.018C100.954 136.513 105.047 141.971 110.505 141.971H114.135C110.26 139.051 108.704 134.712 108.704 129.827C108.704 124.397 110.833 120.385 112.77 118.011H109.687C104.775 118.011 100.954 123.278 100.954 130.018ZM111.924 129.855C111.924 137.878 118.174 144.072 128.38 144.072H131.354C134.192 144.072 136.321 143.854 137.494 143.527C139.214 143.09 140.851 142.08 140.851 139.979C140.851 139.16 140.633 138.533 140.36 138.069C140.196 137.796 140.223 137.55 140.496 137.441C141.861 136.895 142.98 135.613 142.98 133.866C142.98 132.884 142.707 132.01 142.215 131.41C141.97 131.083 141.997 130.782 142.406 130.537C143.362 129.991 144.071 128.763 144.071 127.317C144.071 126.307 143.744 125.215 143.171 124.697C142.816 124.369 142.898 124.151 143.225 123.824C143.935 123.278 144.371 122.268 144.371 121.013C144.371 118.912 142.734 117.165 140.551 117.165H132.828C130.863 117.165 129.58 116.183 129.58 114.545C129.58 111.625 133.237 106.249 133.237 102.374C133.237 100.328 131.927 99.127 130.181 99.127C128.625 99.127 127.861 100.219 127.015 101.856C123.741 108.187 119.402 113.345 116.1 117.738C113.289 121.477 111.924 124.697 111.924 129.855Z" fill="white"/>
</g>
<g clip-path="url(#clip1_2358_908)">
<path d="M116.71 97.6896C116.71 90.5672 112.071 84.5362 106.422 84.5362H99.4088C96.5708 83.0353 93.1596 82.1348 89.3391 82.1348H86.3919C83.7721 82.1348 81.4798 82.2985 79.9516 82.6806C76.8952 83.4174 74.985 85.5732 74.985 88.2476C74.985 88.7388 75.0396 89.23 75.176 89.6666C73.757 90.8127 72.9656 92.4228 72.9656 94.1966C72.9656 95.0153 73.102 95.834 73.3749 96.5435C72.4198 97.6078 71.9013 99.0541 71.9013 100.582C71.9013 101.537 72.1196 102.574 72.5017 103.366C71.9559 104.266 71.6284 105.44 71.6284 106.695C71.6284 109.997 74.1936 112.59 77.4956 112.59H85.5459C85.8188 112.59 86.0098 112.699 86.0098 112.999C86.0098 115.182 82.4349 120.531 82.4349 124.897C82.4349 127.953 84.5635 130.164 87.5381 130.164C89.7212 130.164 91.1675 129.045 92.5865 126.343C95.1244 121.486 98.4265 116.656 103.229 110.925H107.214C112.48 110.925 116.71 104.949 116.71 97.6896ZM103.966 97.8534C103.966 102.383 102.956 105.249 100.118 109.069C96.9528 113.299 92.532 118.375 89.3937 124.679C88.6023 126.234 88.1111 126.589 87.3743 126.589C86.6102 126.589 86.0371 125.989 86.0371 124.897C86.0371 121.486 89.612 116.328 89.612 112.999C89.612 110.488 87.5654 108.987 85.0001 108.987H77.4956C76.1857 108.987 75.2306 108.032 75.2306 106.695C75.2306 105.685 75.5581 105.085 76.4313 104.184C76.7588 103.884 76.7861 103.502 76.5405 103.093C75.8037 101.974 75.5035 101.401 75.5035 100.582C75.5035 99.6272 75.9674 98.8358 76.9498 98.0171C77.4683 97.635 77.6593 97.0893 77.3865 96.4616C76.8134 95.3701 76.5678 94.9607 76.5678 94.1966C76.5678 93.105 77.2773 92.2864 78.86 91.4677C79.324 91.1948 79.4058 90.8127 79.2148 90.4034C78.669 88.9571 78.6145 88.7933 78.6145 88.2476C78.6145 87.3197 79.2967 86.5556 80.7976 86.1736C82.0256 85.8461 84.0177 85.7097 86.3919 85.7097H89.0389C98.0171 85.7369 103.966 90.8127 103.966 97.8534ZM113.108 97.6896C113.108 102.956 110.297 107.323 107.214 107.323C106.668 107.323 106.095 107.323 105.522 107.323C106.941 104.512 107.568 101.456 107.568 97.9079C107.568 94.1148 106.286 90.7854 103.966 88.1657C104.785 88.1657 105.604 88.1657 106.422 88.1657C109.97 88.1657 113.108 92.5592 113.108 97.6896Z" fill="white"/>
</g>
<defs>
<filter id="filter0_d_2358_908" x="36.9354" y="45.9856" width="146.21" height="146.211" filterUnits="userSpaceOnUse" color-interpolation-filters="sRGB">
<feFlood flood-opacity="0" result="BackgroundImageFix"/>
<feColorMatrix in="SourceAlpha" type="matrix" values="0 0 0 0 0 0 0 0 0 0 0 0 0 0 0 0 0 0 127 0" result="hardAlpha"/>
<feOffset dx="1.20835" dy="6.04176"/>
<feGaussianBlur stdDeviation="6.04176"/>
<feComposite in2="hardAlpha" operator="out"/>
<feColorMatrix type="matrix" values="0 0 0 0 0 0 0 0 0 0 0 0 0 0 0 0 0 0 0.1 0"/>
<feBlend mode="normal" in2="BackgroundImageFix" result="effect1_dropShadow_2358_908"/>
<feBlend mode="normal" in="SourceGraphic" in2="effect1_dropShadow_2358_908" result="shape"/>
</filter>
<linearGradient id="paint0_linear_2358_908" x1="62.5105" y1="52.3661" x2="108.832" y2="174.071" gradientUnits="userSpaceOnUse">
<stop stop-color="#FDFDFD"/>
<stop offset="1" stop-color="#979797"/>
</linearGradient>
<linearGradient id="paint1_linear_2358_908" x1="61.3709" y1="52.0273" x2="156.91" y2="211.67" gradientUnits="userSpaceOnUse">
<stop offset="0.00742078" stop-color="#82E4FF"/>
<stop offset="1" stop-color="#0055FF"/>
</linearGradient>
<clipPath id="clip0_2358_908">
<rect width="43.4172" height="45.8732" fill="white" transform="translate(100.954 99.127)"/>
</clipPath>
<clipPath id="clip1_2358_908">
<rect width="45.0818" height="48.7113" fill="white" transform="translate(71.6284 82.1348)"/>
</clipPath>
</defs>
</svg>
