<svg width="937" height="242" viewBox="0 0 937 242" fill="none" xmlns="http://www.w3.org/2000/svg">
<mask id="path-1-inside-1_2238_741" fill="white">
<path d="M0 80.6163C0 52.398 0 38.2888 5.49166 27.5108C10.3223 18.0302 18.0302 10.3223 27.5108 5.49166C38.2888 0 52.398 0 80.6163 0H856.06C884.278 0 898.387 0 909.165 5.49166C918.646 10.3223 926.354 18.0302 931.185 27.5108C936.676 38.2888 936.676 52.398 936.676 80.6163V160.564C936.676 188.782 936.676 202.891 931.185 213.669C926.354 223.15 918.646 230.858 909.165 235.688C898.387 241.18 884.278 241.18 856.06 241.18H80.6164C52.398 241.18 38.2888 241.18 27.5108 235.688C18.0302 230.858 10.3223 223.15 5.49166 213.669C0 202.891 0 188.782 0 160.564V80.6163Z"/>
</mask>
<path d="M0 80.6163C0 52.398 0 38.2888 5.49166 27.5108C10.3223 18.0302 18.0302 10.3223 27.5108 5.49166C38.2888 0 52.398 0 80.6163 0H856.06C884.278 0 898.387 0 909.165 5.49166C918.646 10.3223 926.354 18.0302 931.185 27.5108C936.676 38.2888 936.676 52.398 936.676 80.6163V160.564C936.676 188.782 936.676 202.891 931.185 213.669C926.354 223.15 918.646 230.858 909.165 235.688C898.387 241.18 884.278 241.18 856.06 241.18H80.6164C52.398 241.18 38.2888 241.18 27.5108 235.688C18.0302 230.858 10.3223 223.15 5.49166 213.669C0 202.891 0 188.782 0 160.564V80.6163Z" fill="#FCFCFC"/>
<path d="M0 0H936.676H0ZM940.707 190.795C940.707 220.291 916.795 244.203 887.299 244.203H53.4083C23.9117 244.203 0 220.291 0 190.795C0 216.952 22.5582 238.157 50.3852 238.157H886.291C911.892 238.157 932.645 216.952 932.645 190.795H940.707ZM0 241.18V0V241.18ZM886.291 0C916.344 0 940.707 24.3629 940.707 54.416V190.795C940.707 220.291 916.795 244.203 887.299 244.203L886.291 238.157C911.892 238.157 932.645 216.952 932.645 190.795V50.3852C932.645 22.5582 911.892 0 886.291 0Z" fill="white" style="mix-blend-mode:overlay" mask="url(#path-1-inside-1_2238_741)"/>
<g opacity="0.8">
<path d="M218.512 84.1797V59.4791H222.928V69.7496H234.945V59.4791H239.344V84.1797H234.945V73.4641H222.928V84.1797H218.512ZM251.66 84.5392C249.879 84.5392 248.333 84.1626 247.021 83.4094C245.708 82.6448 244.687 81.5607 243.957 80.1571C243.238 78.742 242.878 77.0588 242.878 75.1074V75.0732C242.878 73.1332 243.243 71.4614 243.974 70.0577C244.704 68.6427 245.725 67.5586 247.038 66.8054C248.35 66.0408 249.885 65.6585 251.642 65.6585C253.411 65.6585 254.952 66.0408 256.264 66.8054C257.588 67.5586 258.615 68.637 259.345 70.0406C260.076 71.4442 260.441 73.1218 260.441 75.0732V75.1074C260.441 77.0702 260.076 78.7591 259.345 80.1742C258.626 81.5778 257.611 82.6562 256.298 83.4094C254.986 84.1626 253.44 84.5392 251.66 84.5392ZM251.677 81.0985C252.578 81.0985 253.36 80.8646 254.022 80.3967C254.684 79.9288 255.191 79.2498 255.545 78.3597C255.91 77.4582 256.093 76.3741 256.093 75.1074V75.0732C256.093 73.8179 255.91 72.7452 255.545 71.8551C255.18 70.965 254.661 70.286 253.988 69.8181C253.326 69.3502 252.544 69.1163 251.642 69.1163C250.764 69.1163 249.988 69.3502 249.314 69.8181C248.653 70.286 248.133 70.965 247.757 71.8551C247.392 72.7452 247.209 73.8179 247.209 75.0732V75.1074C247.209 76.3741 247.392 77.4582 247.757 78.3597C248.133 79.2498 248.653 79.9288 249.314 80.3967C249.988 80.8646 250.775 81.0985 251.677 81.0985ZM266.988 84.1797L262.058 66.0351H266.338L269.402 79.9688H269.487L273.03 66.0351H277.104L280.665 79.9688H280.75L283.815 66.0351H288.025L283.13 84.1797H278.645L275.067 70.9136H274.982L271.421 84.1797H266.988ZM301.479 84.1797L296.549 66.0351H300.829L303.893 79.9688H303.978L307.522 66.0351H311.596L315.156 79.9688H315.242L318.306 66.0351H322.517L317.621 84.1797H313.136L309.559 70.9136H309.473L305.913 84.1797H301.479ZM332.812 84.5392C330.998 84.5392 329.435 84.1569 328.122 83.3923C326.821 82.6277 325.823 81.5436 325.127 80.14C324.431 78.7363 324.082 77.0759 324.082 75.1588V75.1416C324.082 73.2359 324.431 71.5755 325.127 70.1604C325.834 68.734 326.821 67.627 328.088 66.8396C329.366 66.0522 330.872 65.6585 332.607 65.6585C334.33 65.6585 335.819 66.0408 337.075 66.8054C338.341 67.5586 339.311 68.6199 339.985 69.9893C340.669 71.3587 341.012 72.9563 341.012 74.7822V76.1516H326.188V73.3101H338.975L336.921 75.9633V74.32C336.921 73.1332 336.738 72.1461 336.373 71.3587C336.008 70.5713 335.506 69.9836 334.867 69.5956C334.227 69.1961 333.491 68.9964 332.658 68.9964C331.814 68.9964 331.061 69.2019 330.399 69.6127C329.748 70.0121 329.235 70.6112 328.858 71.41C328.493 72.2088 328.31 73.1788 328.31 74.32V75.9633C328.31 77.0702 328.493 78.0174 328.858 78.8048C329.235 79.5808 329.765 80.1799 330.45 80.6021C331.135 81.0129 331.951 81.2184 332.898 81.2184C333.606 81.2184 334.227 81.1099 334.764 80.8931C335.3 80.6649 335.739 80.3739 336.082 80.0201C336.436 79.6664 336.681 79.2841 336.818 78.8733L336.852 78.7534H340.823L340.789 78.9417C340.641 79.6378 340.367 80.3225 339.968 80.9958C339.568 81.6577 339.032 82.2568 338.358 82.7932C337.685 83.3295 336.886 83.7575 335.962 84.077C335.038 84.3851 333.988 84.5392 332.812 84.5392ZM351.487 84.1797V66.0351H355.732V68.9451H355.835C356.211 67.9523 356.845 67.1592 357.735 66.5658C358.625 65.9609 359.669 65.6585 360.867 65.6585C361.712 65.6585 362.471 65.8069 363.144 66.1036C363.817 66.3889 364.388 66.8054 364.856 67.3532C365.335 67.8895 365.683 68.5457 365.9 69.3217H365.985C366.282 68.5685 366.704 67.9237 367.252 67.3874C367.811 66.8396 368.462 66.4174 369.204 66.1207C369.957 65.8126 370.767 65.6585 371.634 65.6585C372.832 65.6585 373.871 65.9153 374.75 66.4288C375.64 66.9309 376.33 67.6384 376.821 68.5514C377.323 69.4529 377.574 70.5142 377.574 71.7352V84.1797H373.312V72.7794C373.312 72.0262 373.186 71.3872 372.935 70.8623C372.684 70.3373 372.319 69.9379 371.84 69.664C371.36 69.3901 370.767 69.2532 370.059 69.2532C369.375 69.2532 368.77 69.413 368.245 69.7325C367.731 70.0406 367.326 70.4743 367.03 71.0334C366.744 71.5926 366.602 72.2374 366.602 72.9677V84.1797H362.459V72.5569C362.459 71.8722 362.328 71.2845 362.066 70.7938C361.803 70.3031 361.432 69.9265 360.953 69.664C360.474 69.3901 359.903 69.2532 359.241 69.2532C358.556 69.2532 357.952 69.4187 357.427 69.7496C356.902 70.0806 356.485 70.5313 356.177 71.1019C355.88 71.6725 355.732 72.3287 355.732 73.0704V84.1797H351.487ZM381.468 84.1797V66.0351H385.73V84.1797H381.468ZM383.591 63.4332C382.929 63.4332 382.369 63.205 381.913 62.7485C381.457 62.2921 381.228 61.7443 381.228 61.1053C381.228 60.4548 381.457 59.907 381.913 59.462C382.369 59.0055 382.929 58.7773 383.591 58.7773C384.264 58.7773 384.829 59.0055 385.285 59.462C385.742 59.907 385.97 60.4548 385.97 61.1053C385.97 61.7443 385.742 62.2921 385.285 62.7485C384.829 63.205 384.264 63.4332 383.591 63.4332ZM397.892 90.5303C396.294 90.5303 394.896 90.3078 393.698 89.8627C392.511 89.4291 391.564 88.8299 390.857 88.0654C390.149 87.3008 389.71 86.4449 389.539 85.4977L389.504 85.3437H393.681L393.749 85.4806C393.978 86.0056 394.446 86.4392 395.153 86.7816C395.872 87.1353 396.779 87.3122 397.875 87.3122C399.267 87.3122 400.334 86.9698 401.076 86.2851C401.818 85.6004 402.188 84.6818 402.188 83.5292V80.9102H402.103C401.772 81.5607 401.327 82.1199 400.768 82.5878C400.22 83.0556 399.575 83.4208 398.833 83.6833C398.103 83.9457 397.304 84.077 396.437 84.077C394.919 84.077 393.595 83.7061 392.466 82.9643C391.347 82.2226 390.48 81.1727 389.864 79.8147C389.259 78.4453 388.957 76.8192 388.957 74.9362V74.9191C388.957 73.0019 389.265 71.3587 389.881 69.9893C390.509 68.6084 391.387 67.5415 392.517 66.7883C393.647 66.0351 394.976 65.6585 396.505 65.6585C397.361 65.6585 398.149 65.8069 398.868 66.1036C399.587 66.3889 400.214 66.7883 400.751 67.3018C401.298 67.8153 401.743 68.4201 402.086 69.1163H402.188V66.0351H406.451V83.6662C406.451 85.0356 406.103 86.2338 405.406 87.2608C404.71 88.2993 403.723 89.1038 402.445 89.6744C401.167 90.245 399.649 90.5303 397.892 90.5303ZM397.772 80.7904C398.662 80.7904 399.438 80.5565 400.1 80.0886C400.762 79.6093 401.275 78.936 401.641 78.0687C402.017 77.2014 402.205 76.1858 402.205 75.0218V75.0047C402.205 73.8293 402.017 72.8136 401.641 71.9578C401.264 71.0905 400.745 70.4229 400.083 69.955C399.421 69.4871 398.651 69.2532 397.772 69.2532C396.859 69.2532 396.066 69.4871 395.393 69.955C394.719 70.4229 394.2 71.0848 393.835 71.9407C393.47 72.7965 393.287 73.8179 393.287 75.0047V75.0218C393.287 76.2086 393.47 77.2357 393.835 78.103C394.2 78.9588 394.719 79.6207 395.393 80.0886C396.066 80.5565 396.859 80.7904 397.772 80.7904ZM410.413 84.1797V59.4791H414.675V69.082H414.761C415.24 67.9865 415.953 67.142 416.901 66.5486C417.859 65.9552 419.012 65.6585 420.358 65.6585C421.671 65.6585 422.806 65.9609 423.765 66.5658C424.723 67.1592 425.465 67.9979 425.99 69.082C426.515 70.1547 426.777 71.4214 426.777 72.8821V84.1797H422.515V73.7209C422.515 72.3287 422.178 71.2388 421.505 70.4514C420.832 69.6526 419.885 69.2532 418.664 69.2532C417.865 69.2532 417.163 69.4472 416.558 69.8352C415.965 70.2118 415.503 70.7367 415.172 71.41C414.841 72.0719 414.675 72.8422 414.675 73.7209V84.1797H410.413ZM437.296 84.5392C435.413 84.5392 434.009 84.1283 433.085 83.3067C432.172 82.4851 431.715 81.1385 431.715 79.267V69.3217H429.148V66.0351H431.715V61.4305H436.046V66.0351H439.418V69.3217H436.046V78.9246C436.046 79.8033 436.24 80.4138 436.628 80.7562C437.028 81.0871 437.61 81.2526 438.374 81.2526C438.591 81.2526 438.779 81.2469 438.939 81.2355C439.11 81.2126 439.27 81.1955 439.418 81.1841V84.3851C439.167 84.4193 438.859 84.4536 438.494 84.4878C438.14 84.522 437.741 84.5392 437.296 84.5392ZM456.843 84.5392C455.314 84.5392 453.985 84.1626 452.855 83.4094C451.737 82.6448 450.869 81.555 450.253 80.14C449.648 78.7249 449.346 77.0474 449.346 75.1074V75.0903C449.346 73.1389 449.654 71.4614 450.27 70.0577C450.886 68.6427 451.754 67.5586 452.872 66.8054C453.99 66.0408 455.308 65.6585 456.826 65.6585C457.693 65.6585 458.487 65.8012 459.205 66.0865C459.936 66.3603 460.581 66.7597 461.14 67.2847C461.699 67.7982 462.15 68.4201 462.492 69.1505H462.595V59.4791H466.84V84.1797H462.595V81.0985H462.492C462.161 81.8175 461.716 82.4337 461.157 82.9472C460.609 83.4493 459.97 83.843 459.24 84.1283C458.521 84.4022 457.722 84.5392 456.843 84.5392ZM458.127 80.9616C459.006 80.9616 459.782 80.7219 460.455 80.2427C461.128 79.7634 461.653 79.0844 462.03 78.2057C462.406 77.327 462.595 76.2942 462.595 75.1074V75.0903C462.595 73.9035 462.401 72.8764 462.013 72.0091C461.636 71.1304 461.111 70.4514 460.438 69.9721C459.776 69.4928 459.006 69.2532 458.127 69.2532C457.214 69.2532 456.421 69.4928 455.748 69.9721C455.086 70.44 454.572 71.1076 454.207 71.9749C453.853 72.8422 453.677 73.8806 453.677 75.0903V75.1074C453.677 76.3056 453.853 77.3441 454.207 78.2228C454.572 79.1015 455.086 79.7805 455.748 80.2598C456.421 80.7277 457.214 80.9616 458.127 80.9616ZM478.762 84.5392C476.947 84.5392 475.384 84.1569 474.072 83.3923C472.771 82.6277 471.772 81.5436 471.076 80.14C470.38 78.7363 470.032 77.0759 470.032 75.1588V75.1416C470.032 73.2359 470.38 71.5755 471.076 70.1604C471.784 68.734 472.771 67.627 474.037 66.8396C475.316 66.0522 476.822 65.6585 478.557 65.6585C480.28 65.6585 481.769 66.0408 483.024 66.8054C484.291 67.5586 485.261 68.6199 485.934 69.9893C486.619 71.3587 486.961 72.9563 486.961 74.7822V76.1516H472.137V73.3101H484.924L482.87 75.9633V74.32C482.87 73.1332 482.688 72.1461 482.322 71.3587C481.957 70.5713 481.455 69.9836 480.816 69.5956C480.177 69.1961 479.441 68.9964 478.608 68.9964C477.763 68.9964 477.01 69.2019 476.348 69.6127C475.698 70.0121 475.184 70.6112 474.808 71.41C474.443 72.2088 474.26 73.1788 474.26 74.32V75.9633C474.26 77.0702 474.443 78.0174 474.808 78.8048C475.184 79.5808 475.715 80.1799 476.4 80.6021C477.084 81.0129 477.9 81.2184 478.848 81.2184C479.555 81.2184 480.177 81.1099 480.713 80.8931C481.25 80.6649 481.689 80.3739 482.031 80.0201C482.385 79.6664 482.63 79.2841 482.767 78.8733L482.802 78.7534H486.773L486.739 78.9417C486.59 79.6378 486.316 80.3225 485.917 80.9958C485.518 81.6577 484.981 82.2568 484.308 82.7932C483.635 83.3295 482.836 83.7575 481.912 84.077C480.987 84.3851 479.937 84.5392 478.762 84.5392ZM497.12 84.5392C495.534 84.5392 494.176 84.3052 493.046 83.8373C491.928 83.3695 491.049 82.7133 490.41 81.8688C489.782 81.0129 489.4 80.0258 489.263 78.9075L489.246 78.7534H493.44L493.474 78.9075C493.634 79.6949 494.01 80.3054 494.604 80.7391C495.209 81.1727 496.053 81.3895 497.137 81.3895C497.833 81.3895 498.427 81.3039 498.917 81.1328C499.408 80.9616 499.785 80.7105 500.047 80.3796C500.321 80.0487 500.458 79.6607 500.458 79.2156V79.1985C500.458 78.6621 500.275 78.2285 499.91 77.8976C499.545 77.5552 498.889 77.2756 497.942 77.0588L494.929 76.3912C493.776 76.1287 492.812 75.7693 492.036 75.3128C491.26 74.8563 490.678 74.2915 490.29 73.6182C489.902 72.9335 489.708 72.1404 489.708 71.2388V71.2217C489.708 70.1148 490.011 69.1448 490.615 68.3117C491.22 67.4787 492.07 66.8282 493.166 66.3603C494.261 65.8925 495.534 65.6585 496.983 65.6585C498.49 65.6585 499.779 65.9096 500.852 66.4117C501.924 66.9138 502.752 67.5871 503.334 68.4316C503.927 69.276 504.247 70.2232 504.292 71.2731L504.309 71.4614H500.338L500.321 71.3244C500.23 70.5941 499.899 69.995 499.328 69.5271C498.758 69.0478 497.976 68.8081 496.983 68.8081C496.356 68.8081 495.808 68.8994 495.34 69.082C494.883 69.2646 494.53 69.5214 494.279 69.8523C494.039 70.1833 493.919 70.5713 493.919 71.0163V71.0334C493.919 71.3758 494.005 71.6839 494.176 71.9578C494.347 72.2317 494.621 72.4713 494.998 72.6767C495.374 72.8707 495.876 73.0419 496.504 73.1902L499.517 73.8578C501.4 74.2801 502.74 74.8849 503.539 75.6723C504.338 76.4483 504.737 77.4924 504.737 78.8048V78.8219C504.737 79.9631 504.412 80.9673 503.762 81.8346C503.111 82.6905 502.21 83.358 501.057 83.8373C499.916 84.3052 498.604 84.5392 497.12 84.5392ZM507.93 84.1797V66.0351H512.192V84.1797H507.93ZM510.052 63.4332C509.39 63.4332 508.831 63.205 508.375 62.7485C507.918 62.2921 507.69 61.7443 507.69 61.1053C507.69 60.4548 507.918 59.907 508.375 59.462C508.831 59.0055 509.39 58.7773 510.052 58.7773C510.725 58.7773 511.29 59.0055 511.747 59.462C512.203 59.907 512.431 60.4548 512.431 61.1053C512.431 61.7443 512.203 62.2921 511.747 62.7485C511.29 63.205 510.725 63.4332 510.052 63.4332ZM524.353 90.5303C522.756 90.5303 521.358 90.3078 520.16 89.8627C518.973 89.4291 518.026 88.8299 517.318 88.0654C516.611 87.3008 516.171 86.4449 516 85.4977L515.966 85.3437H520.143L520.211 85.4806C520.439 86.0056 520.907 86.4392 521.615 86.7816C522.334 87.1353 523.241 87.3122 524.336 87.3122C525.729 87.3122 526.796 86.9698 527.537 86.2851C528.279 85.6004 528.65 84.6818 528.65 83.5292V80.9102H528.564C528.233 81.5607 527.788 82.1199 527.229 82.5878C526.681 83.0556 526.037 83.4208 525.295 83.6833C524.565 83.9457 523.766 84.077 522.898 84.077C521.381 84.077 520.057 83.7061 518.927 82.9643C517.809 82.2226 516.942 81.1727 516.325 79.8147C515.72 78.4453 515.418 76.8192 515.418 74.9362V74.9191C515.418 73.0019 515.726 71.3587 516.342 69.9893C516.97 68.6084 517.849 67.5415 518.979 66.7883C520.108 66.0351 521.438 65.6585 522.967 65.6585C523.823 65.6585 524.61 65.8069 525.329 66.1036C526.048 66.3889 526.676 66.7883 527.212 67.3018C527.76 67.8153 528.205 68.4201 528.547 69.1163H528.65V66.0351H532.912V83.6662C532.912 85.0356 532.564 86.2338 531.868 87.2608C531.172 88.2993 530.185 89.1038 528.907 89.6744C527.629 90.245 526.111 90.5303 524.353 90.5303ZM524.234 80.7904C525.124 80.7904 525.9 80.5565 526.562 80.0886C527.223 79.6093 527.737 78.936 528.102 78.0687C528.479 77.2014 528.667 76.1858 528.667 75.0218V75.0047C528.667 73.8293 528.479 72.8136 528.102 71.9578C527.726 71.0905 527.206 70.4229 526.544 69.955C525.883 69.4871 525.112 69.2532 524.234 69.2532C523.321 69.2532 522.528 69.4871 521.854 69.955C521.181 70.4229 520.662 71.0848 520.297 71.9407C519.931 72.7965 519.749 73.8179 519.749 75.0047V75.0218C519.749 76.2086 519.931 77.2357 520.297 78.103C520.662 78.9588 521.181 79.6207 521.854 80.0886C522.528 80.5565 523.321 80.7904 524.234 80.7904ZM536.755 84.1797V66.0351H541V68.8766H541.103C541.57 67.8952 542.267 67.1135 543.191 66.5315C544.127 65.9495 545.279 65.6585 546.649 65.6585C548.646 65.6585 550.186 66.2633 551.27 67.473C552.366 68.6826 552.914 70.3373 552.914 72.4371V84.1797H548.651V73.2929C548.651 72.0034 548.349 71.0106 547.744 70.3145C547.139 69.607 546.232 69.2532 545.023 69.2532C544.212 69.2532 543.505 69.4415 542.9 69.8181C542.295 70.1833 541.827 70.6968 541.496 71.3587C541.165 72.0091 541 72.7737 541 73.6524V84.1797H536.755ZM564.211 84.1797V66.0351H568.473V84.1797H564.211ZM566.333 63.4332C565.671 63.4332 565.112 63.205 564.656 62.7485C564.199 62.2921 563.971 61.7443 563.971 61.1053C563.971 60.4548 564.199 59.907 564.656 59.462C565.112 59.0055 565.671 58.7773 566.333 58.7773C567.006 58.7773 567.571 59.0055 568.028 59.462C568.484 59.907 568.712 60.4548 568.712 61.1053C568.712 61.7443 568.484 62.2921 568.028 62.7485C567.571 63.205 567.006 63.4332 566.333 63.4332ZM572.452 84.1797V66.0351H576.697V68.8766H576.8C577.268 67.8952 577.964 67.1135 578.889 66.5315C579.824 65.9495 580.977 65.6585 582.346 65.6585C584.343 65.6585 585.884 66.2633 586.968 67.473C588.064 68.6826 588.611 70.3373 588.611 72.4371V84.1797H584.349V73.2929C584.349 72.0034 584.047 71.0106 583.442 70.3145C582.837 69.607 581.93 69.2532 580.72 69.2532C579.91 69.2532 579.202 69.4415 578.598 69.8181C577.993 70.1833 577.525 70.6968 577.194 71.3587C576.863 72.0091 576.697 72.7737 576.697 73.6524V84.1797H572.452ZM599.113 84.5392C597.23 84.5392 595.826 84.1283 594.902 83.3067C593.989 82.4851 593.532 81.1385 593.532 79.267V69.3217H590.965V66.0351H593.532V61.4305H597.863V66.0351H601.235V69.3217H597.863V78.9246C597.863 79.8033 598.057 80.4138 598.445 80.7562C598.844 81.0871 599.426 81.2526 600.191 81.2526C600.408 81.2526 600.596 81.2469 600.756 81.2355C600.927 81.2126 601.087 81.1955 601.235 81.1841V84.3851C600.984 84.4193 600.676 84.4536 600.311 84.4878C599.957 84.522 599.558 84.5392 599.113 84.5392ZM612.147 84.5392C610.333 84.5392 608.769 84.1569 607.457 83.3923C606.156 82.6277 605.158 81.5436 604.461 80.14C603.765 78.7363 603.417 77.0759 603.417 75.1588V75.1416C603.417 73.2359 603.765 71.5755 604.461 70.1604C605.169 68.734 606.156 67.627 607.423 66.8396C608.701 66.0522 610.207 65.6585 611.942 65.6585C613.665 65.6585 615.154 66.0408 616.409 66.8054C617.676 67.5586 618.646 68.6199 619.319 69.9893C620.004 71.3587 620.346 72.9563 620.346 74.7822V76.1516H605.523V73.3101H618.31L616.255 75.9633V74.32C616.255 73.1332 616.073 72.1461 615.708 71.3587C615.342 70.5713 614.84 69.9836 614.201 69.5956C613.562 69.1961 612.826 68.9964 611.993 68.9964C611.149 68.9964 610.396 69.2019 609.734 69.6127C609.083 70.0121 608.57 70.6112 608.193 71.41C607.828 72.2088 607.645 73.1788 607.645 74.32V75.9633C607.645 77.0702 607.828 78.0174 608.193 78.8048C608.57 79.5808 609.1 80.1799 609.785 80.6021C610.47 81.0129 611.286 81.2184 612.233 81.2184C612.94 81.2184 613.562 81.1099 614.099 80.8931C614.635 80.6649 615.074 80.3739 615.417 80.0201C615.77 79.6664 616.016 79.2841 616.153 78.8733L616.187 78.7534H620.158L620.124 78.9417C619.976 79.6378 619.702 80.3225 619.302 80.9958C618.903 81.6577 618.367 82.2568 617.693 82.7932C617.02 83.3295 616.221 83.7575 615.297 84.077C614.372 84.3851 613.323 84.5392 612.147 84.5392ZM623.419 84.1797V66.0351H627.664V69.1676H627.767C628.04 68.0721 628.537 67.2162 629.256 66.6C629.986 65.9723 630.876 65.6585 631.926 65.6585C632.189 65.6585 632.44 65.6756 632.679 65.7099C632.919 65.7441 633.119 65.7841 633.278 65.8297V69.6811C633.107 69.6127 632.862 69.5556 632.542 69.51C632.234 69.4643 631.898 69.4415 631.532 69.4415C630.734 69.4415 630.043 69.607 629.461 69.9379C628.879 70.2574 628.434 70.731 628.126 71.3587C627.818 71.9863 627.664 72.7509 627.664 73.6524V84.1797H623.419ZM640.767 84.4878C639.569 84.4878 638.507 84.2596 637.583 83.8031C636.67 83.3352 635.957 82.6905 635.443 81.8688C634.941 81.0358 634.69 80.0829 634.69 79.0102V78.976C634.69 77.8918 634.958 76.9675 635.495 76.2029C636.043 75.4269 636.83 74.8164 637.857 74.3713C638.884 73.9149 640.128 73.641 641.589 73.5497L648.521 73.1218V75.9462L642.188 76.3399C641.138 76.4083 640.333 76.6594 639.774 77.093C639.215 77.5267 638.935 78.103 638.935 78.8219V78.839C638.935 79.5808 639.215 80.1685 639.774 80.6021C640.345 81.0244 641.098 81.2355 642.034 81.2355C642.855 81.2355 643.586 81.07 644.225 80.7391C644.875 80.4081 645.389 79.9574 645.765 79.3868C646.142 78.8162 646.33 78.1714 646.33 77.4525V72.0091C646.33 71.0962 646.039 70.3773 645.457 69.8523C644.887 69.316 644.059 69.0478 642.975 69.0478C641.971 69.0478 641.166 69.2646 640.562 69.6983C639.957 70.1205 639.58 70.6683 639.432 71.3415L639.398 71.4956H635.461L635.478 71.2902C635.569 70.2175 635.928 69.2589 636.556 68.4144C637.184 67.5586 638.051 66.8853 639.158 66.3946C640.276 65.9039 641.6 65.6585 643.129 65.6585C644.647 65.6585 645.959 65.9096 647.066 66.4117C648.185 66.9138 649.046 67.6156 649.651 68.5171C650.267 69.4187 650.575 70.48 650.575 71.701V84.1797H646.33V81.3895H646.228C645.885 82.0172 645.44 82.5649 644.892 83.0328C644.345 83.5007 643.717 83.8602 643.009 84.1112C642.313 84.3623 641.566 84.4878 640.767 84.4878ZM662.395 84.5392C660.603 84.5392 659.051 84.1569 657.739 83.3923C656.426 82.6277 655.411 81.5379 654.692 80.1228C653.984 78.7078 653.63 77.0303 653.63 75.0903V75.0732C653.63 73.1446 653.99 71.4785 654.709 70.0748C655.428 68.6598 656.438 67.57 657.739 66.8054C659.051 66.0408 660.586 65.6585 662.343 65.6585C663.941 65.6585 665.322 65.9666 666.486 66.5829C667.65 67.1877 668.563 67.9922 669.225 68.9964C669.886 70.0007 670.263 71.1076 670.354 72.3172V72.4371H666.349L666.315 72.3001C666.143 71.4214 665.727 70.674 665.065 70.0577C664.415 69.4301 663.524 69.1163 662.395 69.1163C661.505 69.1163 660.723 69.3616 660.05 69.8523C659.388 70.3316 658.874 71.0163 658.509 71.9064C658.144 72.7965 657.961 73.8635 657.961 75.1074V75.1245C657.961 76.3798 658.144 77.4525 658.509 78.3426C658.886 79.2327 659.405 79.9174 660.067 80.3967C660.74 80.8646 661.522 81.0985 662.412 81.0985C663.496 81.0985 664.369 80.8075 665.031 80.2255C665.704 79.6321 666.138 78.8618 666.332 77.9147L666.366 77.7606H670.389L670.371 77.8804C670.257 79.1357 669.858 80.2655 669.173 81.2697C668.488 82.2739 667.57 83.0728 666.417 83.6662C665.265 84.2482 663.924 84.5392 662.395 84.5392ZM680.017 84.5392C678.134 84.5392 676.73 84.1283 675.806 83.3067C674.893 82.4851 674.437 81.1385 674.437 79.267V69.3217H671.869V66.0351H674.437V61.4305H678.767V66.0351H682.139V69.3217H678.767V78.9246C678.767 79.8033 678.961 80.4138 679.349 80.7562C679.749 81.0871 680.331 81.2526 681.095 81.2526C681.312 81.2526 681.5 81.2469 681.66 81.2355C681.831 81.2126 681.991 81.1955 682.139 81.1841V84.3851C681.888 84.4193 681.58 84.4536 681.215 84.4878C680.861 84.522 680.462 84.5392 680.017 84.5392ZM685.537 84.1797V66.0351H689.799V84.1797H685.537ZM687.659 63.4332C686.998 63.4332 686.438 63.205 685.982 62.7485C685.525 62.2921 685.297 61.7443 685.297 61.1053C685.297 60.4548 685.525 59.907 685.982 59.462C686.438 59.0055 686.998 58.7773 687.659 58.7773C688.333 58.7773 688.898 59.0055 689.354 59.462C689.811 59.907 690.039 60.4548 690.039 61.1053C690.039 61.7443 689.811 62.2921 689.354 62.7485C688.898 63.205 688.333 63.4332 687.659 63.4332ZM701.807 84.5392C700.027 84.5392 698.48 84.1626 697.168 83.4094C695.856 82.6448 694.834 81.5607 694.104 80.1571C693.385 78.742 693.025 77.0588 693.025 75.1074V75.0732C693.025 73.1332 693.391 71.4614 694.121 70.0577C694.851 68.6427 695.873 67.5586 697.185 66.8054C698.497 66.0408 700.032 65.6585 701.79 65.6585C703.558 65.6585 705.099 66.0408 706.411 66.8054C707.735 67.5586 708.762 68.637 709.493 70.0406C710.223 71.4442 710.588 73.1218 710.588 75.0732V75.1074C710.588 77.0702 710.223 78.7591 709.493 80.1742C708.774 81.5778 707.758 82.6562 706.446 83.4094C705.133 84.1626 703.587 84.5392 701.807 84.5392ZM701.824 81.0985C702.725 81.0985 703.507 80.8646 704.169 80.3967C704.831 79.9288 705.339 79.2498 705.692 78.3597C706.058 77.4582 706.24 76.3741 706.24 75.1074V75.0732C706.24 73.8179 706.058 72.7452 705.692 71.8551C705.327 70.965 704.808 70.286 704.135 69.8181C703.473 69.3502 702.691 69.1163 701.79 69.1163C700.911 69.1163 700.135 69.3502 699.462 69.8181C698.8 70.286 698.281 70.965 697.904 71.8551C697.539 72.7452 697.356 73.8179 697.356 75.0732V75.1074C697.356 76.3741 697.539 77.4582 697.904 78.3597C698.281 79.2498 698.8 79.9288 699.462 80.3967C700.135 80.8646 700.922 81.0985 701.824 81.0985ZM713.677 84.1797V66.0351H717.923V68.8766H718.025C718.493 67.8952 719.189 67.1135 720.114 66.5315C721.049 65.9495 722.202 65.6585 723.571 65.6585C725.568 65.6585 727.109 66.2633 728.193 67.473C729.289 68.6826 729.836 70.3373 729.836 72.4371V84.1797H725.574V73.2929C725.574 72.0034 725.272 71.0106 724.667 70.3145C724.062 69.607 723.155 69.2532 721.945 69.2532C721.135 69.2532 720.427 69.4415 719.823 69.8181C719.218 70.1833 718.75 70.6968 718.419 71.3587C718.088 72.0091 717.923 72.7737 717.923 73.6524V84.1797H713.677ZM740.697 84.5392C739.111 84.5392 737.753 84.3052 736.623 83.8373C735.505 83.3695 734.626 82.7133 733.987 81.8688C733.359 81.0129 732.977 80.0258 732.84 78.9075L732.823 78.7534H737.017L737.051 78.9075C737.211 79.6949 737.587 80.3054 738.181 80.7391C738.786 81.1727 739.63 81.3895 740.714 81.3895C741.41 81.3895 742.004 81.3039 742.494 81.1328C742.985 80.9616 743.362 80.7105 743.624 80.3796C743.898 80.0487 744.035 79.6607 744.035 79.2156V79.1985C744.035 78.6621 743.852 78.2285 743.487 77.8976C743.122 77.5552 742.466 77.2756 741.519 77.0588L738.506 76.3912C737.353 76.1287 736.389 75.7693 735.613 75.3128C734.837 74.8563 734.255 74.2915 733.867 73.6182C733.479 72.9335 733.285 72.1404 733.285 71.2388V71.2217C733.285 70.1148 733.588 69.1448 734.192 68.3117C734.797 67.4787 735.647 66.8282 736.743 66.3603C737.838 65.8925 739.111 65.6585 740.56 65.6585C742.066 65.6585 743.356 65.9096 744.429 66.4117C745.501 66.9138 746.329 67.5871 746.911 68.4316C747.504 69.276 747.824 70.2232 747.869 71.2731L747.886 71.4614H743.915L743.898 71.3244C743.807 70.5941 743.476 69.995 742.905 69.5271C742.335 69.0478 741.553 68.8081 740.56 68.8081C739.933 68.8081 739.385 68.8994 738.917 69.082C738.46 69.2646 738.107 69.5214 737.856 69.8523C737.616 70.1833 737.496 70.5713 737.496 71.0163V71.0334C737.496 71.3758 737.582 71.6839 737.753 71.9578C737.924 72.2317 738.198 72.4713 738.575 72.6767C738.951 72.8707 739.453 73.0419 740.081 73.1902L743.094 73.8578C744.976 74.2801 746.317 74.8849 747.116 75.6723C747.915 76.4483 748.314 77.4924 748.314 78.8048V78.8219C748.314 79.9631 747.989 80.9673 747.339 81.8346C746.688 82.6905 745.787 83.358 744.634 83.8373C743.493 84.3052 742.181 84.5392 740.697 84.5392ZM765.517 84.5392C763.634 84.5392 762.23 84.1283 761.306 83.3067C760.393 82.4851 759.937 81.1385 759.937 79.267V69.3217H757.369V66.0351H759.937V61.4305H764.267V66.0351H767.639V69.3217H764.267V78.9246C764.267 79.8033 764.461 80.4138 764.849 80.7562C765.249 81.0871 765.831 81.2526 766.595 81.2526C766.812 81.2526 767 81.2469 767.16 81.2355C767.331 81.2126 767.491 81.1955 767.639 81.1841V84.3851C767.388 84.4193 767.08 84.4536 766.715 84.4878C766.361 84.522 765.962 84.5392 765.517 84.5392ZM771.037 84.1797V59.4791H775.299V69.082H775.385C775.864 67.9865 776.577 67.142 777.524 66.5486C778.483 65.9552 779.636 65.6585 780.982 65.6585C782.295 65.6585 783.43 65.9609 784.389 66.5658C785.347 67.1592 786.089 67.9979 786.614 69.082C787.139 70.1547 787.401 71.4214 787.401 72.8821V84.1797H783.139V73.7209C783.139 72.3287 782.802 71.2388 782.129 70.4514C781.456 69.6526 780.509 69.2532 779.288 69.2532C778.489 69.2532 777.787 69.4472 777.182 69.8352C776.589 70.2118 776.127 70.7367 775.796 71.41C775.465 72.0719 775.299 72.8422 775.299 73.7209V84.1797H771.037ZM796.55 84.4878C795.352 84.4878 794.291 84.2596 793.366 83.8031C792.453 83.3352 791.74 82.6905 791.227 81.8688C790.725 81.0358 790.473 80.0829 790.473 79.0102V78.976C790.473 77.8918 790.742 76.9675 791.278 76.2029C791.826 75.4269 792.613 74.8164 793.64 74.3713C794.667 73.9149 795.911 73.641 797.372 73.5497L804.304 73.1218V75.9462L797.971 76.3399C796.921 76.4083 796.117 76.6594 795.557 77.093C794.998 77.5267 794.719 78.103 794.719 78.8219V78.839C794.719 79.5808 794.998 80.1685 795.557 80.6021C796.128 81.0244 796.881 81.2355 797.817 81.2355C798.639 81.2355 799.369 81.07 800.008 80.7391C800.658 80.4081 801.172 79.9574 801.549 79.3868C801.925 78.8162 802.113 78.1714 802.113 77.4525V72.0091C802.113 71.0962 801.822 70.3773 801.24 69.8523C800.67 69.316 799.842 69.0478 798.758 69.0478C797.754 69.0478 796.95 69.2646 796.345 69.6983C795.74 70.1205 795.363 70.6683 795.215 71.3415L795.181 71.4956H791.244L791.261 71.2902C791.352 70.2175 791.712 69.2589 792.339 68.4144C792.967 67.5586 793.834 66.8853 794.941 66.3946C796.059 65.9039 797.383 65.6585 798.912 65.6585C800.43 65.6585 801.743 65.9096 802.849 66.4117C803.968 66.9138 804.829 67.6156 805.434 68.5171C806.05 69.4187 806.359 70.48 806.359 71.701V84.1797H802.113V81.3895H802.011C801.668 82.0172 801.223 82.5649 800.676 83.0328C800.128 83.5007 799.5 83.8602 798.793 84.1112C798.096 84.3623 797.349 84.4878 796.55 84.4878ZM816.894 84.5392C815.011 84.5392 813.608 84.1283 812.683 83.3067C811.77 82.4851 811.314 81.1385 811.314 79.267V69.3217H808.746V66.0351H811.314V61.4305H815.644V66.0351H819.017V69.3217H815.644V78.9246C815.644 79.8033 815.838 80.4138 816.226 80.7562C816.626 81.0871 817.208 81.2526 817.972 81.2526C818.189 81.2526 818.378 81.2469 818.537 81.2355C818.709 81.2126 818.868 81.1955 819.017 81.1841V84.3851C818.766 84.4193 818.457 84.4536 818.092 84.4878C817.739 84.522 817.339 84.5392 816.894 84.5392ZM507.244 128.18V110.035H511.489V112.877H511.592C512.06 111.895 512.756 111.114 513.68 110.532C514.616 109.95 515.769 109.659 517.138 109.659C519.135 109.659 520.676 110.263 521.76 111.473C522.855 112.683 523.403 114.337 523.403 116.437V128.18H519.141V117.293C519.141 116.003 518.838 115.011 518.234 114.314C517.629 113.607 516.722 113.253 515.512 113.253C514.702 113.253 513.994 113.441 513.389 113.818C512.784 114.183 512.317 114.697 511.986 115.359C511.655 116.009 511.489 116.774 511.489 117.652V128.18H507.244ZM535.205 128.539C533.425 128.539 531.879 128.163 530.566 127.409C529.254 126.645 528.233 125.561 527.502 124.157C526.783 122.742 526.424 121.059 526.424 119.107V119.073C526.424 117.133 526.789 115.461 527.519 114.058C528.25 112.643 529.271 111.559 530.584 110.805C531.896 110.041 533.431 109.659 535.188 109.659C536.957 109.659 538.498 110.041 539.81 110.805C541.134 111.559 542.161 112.637 542.891 114.041C543.621 115.444 543.987 117.122 543.987 119.073V119.107C543.987 121.07 543.621 122.759 542.891 124.174C542.172 125.578 541.156 126.656 539.844 127.409C538.532 128.163 536.985 128.539 535.205 128.539ZM535.222 125.099C536.124 125.099 536.906 124.865 537.567 124.397C538.229 123.929 538.737 123.25 539.091 122.36C539.456 121.458 539.639 120.374 539.639 119.107V119.073C539.639 117.818 539.456 116.745 539.091 115.855C538.726 114.965 538.207 114.286 537.533 113.818C536.871 113.35 536.09 113.116 535.188 113.116C534.309 113.116 533.533 113.35 532.86 113.818C532.198 114.286 531.679 114.965 531.302 115.855C530.937 116.745 530.755 117.818 530.755 119.073V119.107C530.755 120.374 530.937 121.458 531.302 122.36C531.679 123.25 532.198 123.929 532.86 124.397C533.533 124.865 534.321 125.099 535.222 125.099ZM553.803 128.539C551.92 128.539 550.517 128.128 549.592 127.307C548.679 126.485 548.223 125.138 548.223 123.267V113.322H545.655V110.035H548.223V105.43H552.554V110.035H555.926V113.322H552.554V122.925C552.554 123.803 552.748 124.414 553.136 124.756C553.535 125.087 554.117 125.253 554.882 125.253C555.098 125.253 555.287 125.247 555.446 125.235C555.618 125.213 555.777 125.196 555.926 125.184V128.385C555.675 128.419 555.367 128.454 555.001 128.488C554.648 128.522 554.248 128.539 553.803 128.539ZM571.964 128.488C570.766 128.488 569.705 128.26 568.78 127.803C567.867 127.335 567.154 126.69 566.641 125.869C566.138 125.036 565.887 124.083 565.887 123.01V122.976C565.887 121.892 566.156 120.968 566.692 120.203C567.24 119.427 568.027 118.816 569.054 118.371C570.081 117.915 571.325 117.641 572.786 117.55L579.718 117.122V119.946L573.385 120.34C572.335 120.408 571.53 120.659 570.971 121.093C570.412 121.527 570.133 122.103 570.133 122.822V122.839C570.133 123.581 570.412 124.168 570.971 124.602C571.542 125.024 572.295 125.235 573.231 125.235C574.052 125.235 574.783 125.07 575.422 124.739C576.072 124.408 576.586 123.957 576.962 123.387C577.339 122.816 577.527 122.171 577.527 121.452V116.009C577.527 115.096 577.236 114.377 576.654 113.852C576.084 113.316 575.256 113.048 574.172 113.048C573.168 113.048 572.364 113.265 571.759 113.698C571.154 114.12 570.777 114.668 570.629 115.342L570.595 115.496H566.658L566.675 115.29C566.766 114.217 567.126 113.259 567.753 112.414C568.381 111.559 569.248 110.885 570.355 110.395C571.473 109.904 572.797 109.659 574.326 109.659C575.844 109.659 577.156 109.91 578.263 110.412C579.382 110.914 580.243 111.616 580.848 112.517C581.464 113.419 581.772 114.48 581.772 115.701V128.18H577.527V125.39H577.425C577.082 126.017 576.637 126.565 576.089 127.033C575.542 127.501 574.914 127.86 574.207 128.111C573.51 128.362 572.763 128.488 571.964 128.488ZM592.308 128.539C590.425 128.539 589.021 128.128 588.097 127.307C587.184 126.485 586.728 125.138 586.728 123.267V113.322H584.16V110.035H586.728V105.43H591.058V110.035H594.431V113.322H591.058V122.925C591.058 123.803 591.252 124.414 591.64 124.756C592.04 125.087 592.622 125.253 593.386 125.253C593.603 125.253 593.791 125.247 593.951 125.235C594.122 125.213 594.282 125.196 594.431 125.184V128.385C594.179 128.419 593.871 128.454 593.506 128.488C593.152 128.522 592.753 128.539 592.308 128.539ZM611.838 128.539C609.955 128.539 608.552 128.128 607.627 127.307C606.715 126.485 606.258 125.138 606.258 123.267V113.322H603.69V110.035H606.258V105.43H610.589V110.035H613.961V113.322H610.589V122.925C610.589 123.803 610.783 124.414 611.171 124.756C611.57 125.087 612.152 125.253 612.917 125.253C613.134 125.253 613.322 125.247 613.482 125.235C613.653 125.213 613.813 125.196 613.961 125.184V128.385C613.71 128.419 613.402 128.454 613.037 128.488C612.683 128.522 612.283 128.539 611.838 128.539ZM617.358 128.18V103.479H621.621V113.082H621.706C622.186 111.987 622.899 111.142 623.846 110.549C624.805 109.955 625.957 109.659 627.304 109.659C628.616 109.659 629.752 109.961 630.71 110.566C631.669 111.159 632.41 111.998 632.935 113.082C633.46 114.155 633.723 115.421 633.723 116.882V128.18H629.461V117.721C629.461 116.329 629.124 115.239 628.451 114.451C627.777 113.653 626.83 113.253 625.609 113.253C624.81 113.253 624.108 113.447 623.504 113.835C622.91 114.212 622.448 114.737 622.117 115.41C621.786 116.072 621.621 116.842 621.621 117.721V128.18H617.358ZM645.491 128.539C643.676 128.539 642.113 128.157 640.801 127.392C639.5 126.628 638.501 125.544 637.805 124.14C637.109 122.736 636.761 121.076 636.761 119.159V119.142C636.761 117.236 637.109 115.575 637.805 114.16C638.513 112.734 639.5 111.627 640.766 110.84C642.044 110.052 643.551 109.659 645.285 109.659C647.009 109.659 648.498 110.041 649.753 110.805C651.02 111.559 651.99 112.62 652.663 113.989C653.348 115.359 653.69 116.956 653.69 118.782V120.152H638.866V117.31H651.653L649.599 119.963V118.32C649.599 117.133 649.416 116.146 649.051 115.359C648.686 114.571 648.184 113.984 647.545 113.596C646.906 113.196 646.17 112.996 645.337 112.996C644.492 112.996 643.739 113.202 643.077 113.613C642.427 114.012 641.913 114.611 641.537 115.41C641.171 116.209 640.989 117.179 640.989 118.32V119.963C640.989 121.07 641.171 122.017 641.537 122.805C641.913 123.581 642.444 124.18 643.129 124.602C643.813 125.013 644.629 125.218 645.576 125.218C646.284 125.218 646.906 125.11 647.442 124.893C647.979 124.665 648.418 124.374 648.76 124.02C649.114 123.666 649.359 123.284 649.496 122.873L649.53 122.753H653.502L653.468 122.942C653.319 123.638 653.045 124.323 652.646 124.996C652.246 125.658 651.71 126.257 651.037 126.793C650.364 127.33 649.565 127.757 648.64 128.077C647.716 128.385 646.666 128.539 645.491 128.539ZM672.142 128.539C670.328 128.539 668.764 128.157 667.452 127.392C666.151 126.628 665.152 125.544 664.456 124.14C663.76 122.736 663.412 121.076 663.412 119.159V119.142C663.412 117.236 663.76 115.575 664.456 114.16C665.164 112.734 666.151 111.627 667.418 110.84C668.696 110.052 670.202 109.659 671.937 109.659C673.66 109.659 675.149 110.041 676.404 110.805C677.671 111.559 678.641 112.62 679.314 113.989C679.999 115.359 680.341 116.956 680.341 118.782V120.152H665.518V117.31H678.304L676.25 119.963V118.32C676.25 117.133 676.068 116.146 675.703 115.359C675.337 114.571 674.835 113.984 674.196 113.596C673.557 113.196 672.821 112.996 671.988 112.996C671.144 112.996 670.39 113.202 669.728 113.613C669.078 114.012 668.565 114.611 668.188 115.41C667.823 116.209 667.64 117.179 667.64 118.32V119.963C667.64 121.07 667.823 122.017 668.188 122.805C668.565 123.581 669.095 124.18 669.78 124.602C670.465 125.013 671.28 125.218 672.228 125.218C672.935 125.218 673.557 125.11 674.093 124.893C674.63 124.665 675.069 124.374 675.412 124.02C675.765 123.666 676.011 123.284 676.148 122.873L676.182 122.753H680.153L680.119 122.942C679.97 123.638 679.697 124.323 679.297 124.996C678.898 125.658 678.361 126.257 677.688 126.793C677.015 127.33 676.216 127.757 675.292 128.077C674.367 128.385 673.317 128.539 672.142 128.539ZM681.822 128.18L687.693 119.125L681.89 110.035H686.683L690.329 116.403H690.415L694.044 110.035H698.7L692.862 119.005L698.631 128.18H693.992L690.209 121.675H690.124L686.375 128.18H681.822ZM701.224 134.171V110.035H705.469V113.168H705.572C705.926 112.437 706.371 111.815 706.907 111.302C707.455 110.777 708.088 110.372 708.807 110.086C709.537 109.801 710.331 109.659 711.186 109.659C712.727 109.659 714.056 110.041 715.175 110.805C716.305 111.559 717.172 112.643 717.777 114.058C718.393 115.473 718.701 117.156 718.701 119.107V119.125C718.701 121.065 718.393 122.742 717.777 124.157C717.172 125.561 716.31 126.645 715.192 127.409C714.085 128.163 712.773 128.539 711.255 128.539C710.399 128.539 709.6 128.402 708.858 128.128C708.128 127.854 707.483 127.461 706.924 126.947C706.365 126.434 705.914 125.823 705.572 125.116H705.469V134.171H701.224ZM709.937 124.962C710.85 124.962 711.637 124.722 712.299 124.243C712.961 123.763 713.469 123.09 713.823 122.223C714.188 121.344 714.37 120.311 714.37 119.125V119.107C714.37 117.886 714.188 116.842 713.823 115.975C713.469 115.096 712.955 114.423 712.282 113.955C711.62 113.487 710.838 113.253 709.937 113.253C709.058 113.253 708.282 113.493 707.609 113.972C706.936 114.451 706.405 115.13 706.017 116.009C705.64 116.876 705.452 117.909 705.452 119.107V119.125C705.452 120.311 705.64 121.344 706.017 122.223C706.405 123.09 706.936 123.763 707.609 124.243C708.282 124.722 709.058 124.962 709.937 124.962ZM729.784 128.539C727.97 128.539 726.406 128.157 725.094 127.392C723.793 126.628 722.795 125.544 722.099 124.14C721.402 122.736 721.054 121.076 721.054 119.159V119.142C721.054 117.236 721.402 115.575 722.099 114.16C722.806 112.734 723.793 111.627 725.06 110.84C726.338 110.052 727.844 109.659 729.579 109.659C731.302 109.659 732.791 110.041 734.047 110.805C735.313 111.559 736.283 112.62 736.957 113.989C737.641 115.359 737.984 116.956 737.984 118.782V120.152H723.16V117.31H735.947L733.893 119.963V118.32C733.893 117.133 733.71 116.146 733.345 115.359C732.98 114.571 732.477 113.984 731.838 113.596C731.199 113.196 730.463 112.996 729.63 112.996C728.786 112.996 728.033 113.202 727.371 113.613C726.72 114.012 726.207 114.611 725.83 115.41C725.465 116.209 725.282 117.179 725.282 118.32V119.963C725.282 121.07 725.465 122.017 725.83 122.805C726.207 123.581 726.737 124.18 727.422 124.602C728.107 125.013 728.923 125.218 729.87 125.218C730.577 125.218 731.199 125.11 731.736 124.893C732.272 124.665 732.711 124.374 733.054 124.02C733.408 123.666 733.653 123.284 733.79 122.873L733.824 122.753H737.795L737.761 122.942C737.613 123.638 737.339 124.323 736.939 124.996C736.54 125.658 736.004 126.257 735.33 126.793C734.657 127.33 733.858 127.757 732.934 128.077C732.01 128.385 730.96 128.539 729.784 128.539ZM741.056 128.18V110.035H745.301V112.877H745.404C745.872 111.895 746.568 111.114 747.492 110.532C748.428 109.95 749.58 109.659 750.95 109.659C752.947 109.659 754.487 110.263 755.572 111.473C756.667 112.683 757.215 114.337 757.215 116.437V128.18H752.953V117.293C752.953 116.003 752.65 115.011 752.045 114.314C751.44 113.607 750.533 113.253 749.324 113.253C748.513 113.253 747.806 113.441 747.201 113.818C746.596 114.183 746.128 114.697 745.797 115.359C745.466 116.009 745.301 116.774 745.301 117.652V128.18H741.056ZM768.076 128.539C766.489 128.539 765.131 128.305 764.002 127.837C762.883 127.369 762.005 126.713 761.365 125.869C760.738 125.013 760.356 124.026 760.219 122.907L760.202 122.753H764.395L764.43 122.907C764.589 123.695 764.966 124.305 765.559 124.739C766.164 125.173 767.009 125.39 768.093 125.39C768.789 125.39 769.382 125.304 769.873 125.133C770.364 124.962 770.74 124.711 771.003 124.38C771.277 124.049 771.413 123.661 771.413 123.216V123.198C771.413 122.662 771.231 122.228 770.866 121.898C770.501 121.555 769.844 121.276 768.897 121.059L765.885 120.391C764.732 120.129 763.768 119.769 762.992 119.313C762.216 118.856 761.634 118.291 761.246 117.618C760.858 116.933 760.664 116.14 760.664 115.239V115.222C760.664 114.115 760.966 113.145 761.571 112.312C762.176 111.479 763.026 110.828 764.121 110.36C765.217 109.892 766.489 109.659 767.939 109.659C769.445 109.659 770.734 109.91 771.807 110.412C772.88 110.914 773.707 111.587 774.289 112.432C774.883 113.276 775.202 114.223 775.248 115.273L775.265 115.461H771.294L771.277 115.324C771.185 114.594 770.854 113.995 770.284 113.527C769.713 113.048 768.931 112.808 767.939 112.808C767.311 112.808 766.763 112.899 766.295 113.082C765.839 113.265 765.485 113.521 765.234 113.852C764.994 114.183 764.875 114.571 764.875 115.016V115.033C764.875 115.376 764.96 115.684 765.131 115.958C765.303 116.232 765.576 116.471 765.953 116.677C766.33 116.871 766.832 117.042 767.459 117.19L770.472 117.858C772.355 118.28 773.696 118.885 774.495 119.672C775.293 120.448 775.693 121.492 775.693 122.805V122.822C775.693 123.963 775.368 124.967 774.717 125.835C774.067 126.69 773.165 127.358 772.013 127.837C770.871 128.305 769.559 128.539 768.076 128.539ZM786.742 128.539C784.927 128.539 783.364 128.157 782.052 127.392C780.751 126.628 779.752 125.544 779.056 124.14C778.36 122.736 778.012 121.076 778.012 119.159V119.142C778.012 117.236 778.36 115.575 779.056 114.16C779.764 112.734 780.751 111.627 782.017 110.84C783.296 110.052 784.802 109.659 786.536 109.659C788.26 109.659 789.749 110.041 791.004 110.805C792.271 111.559 793.241 112.62 793.914 113.989C794.599 115.359 794.941 116.956 794.941 118.782V120.152H780.117V117.31H792.904L790.85 119.963V118.32C790.85 117.133 790.667 116.146 790.302 115.359C789.937 114.571 789.435 113.984 788.796 113.596C788.157 113.196 787.421 112.996 786.588 112.996C785.743 112.996 784.99 113.202 784.328 113.613C783.678 114.012 783.164 114.611 782.788 115.41C782.423 116.209 782.24 117.179 782.24 118.32V119.963C782.24 121.07 782.423 122.017 782.788 122.805C783.164 123.581 783.695 124.18 784.38 124.602C785.064 125.013 785.88 125.218 786.827 125.218C787.535 125.218 788.157 125.11 788.693 124.893C789.23 124.665 789.669 124.374 790.011 124.02C790.365 123.666 790.61 123.284 790.747 122.873L790.782 122.753H794.753L794.719 122.942C794.57 123.638 794.296 124.323 793.897 124.996C793.498 125.658 792.961 126.257 792.288 126.793C791.615 127.33 790.816 127.757 789.891 128.077C788.967 128.385 787.917 128.539 786.742 128.539ZM226.112 172.539C224.332 172.539 222.785 172.163 221.473 171.409C220.161 170.645 219.139 169.561 218.409 168.157C217.69 166.742 217.331 165.059 217.331 163.107V163.073C217.331 161.133 217.696 159.461 218.426 158.058C219.157 156.643 220.178 155.559 221.49 154.805C222.803 154.041 224.337 153.659 226.095 153.659C227.864 153.659 229.404 154.041 230.717 154.805C232.04 155.559 233.067 156.637 233.798 158.041C234.528 159.444 234.893 161.122 234.893 163.073V163.107C234.893 165.07 234.528 166.759 233.798 168.174C233.079 169.578 232.063 170.656 230.751 171.409C229.439 172.163 227.892 172.539 226.112 172.539ZM226.129 169.099C227.031 169.099 227.812 168.865 228.474 168.397C229.136 167.929 229.644 167.25 229.998 166.36C230.363 165.458 230.545 164.374 230.545 163.107V163.073C230.545 161.818 230.363 160.745 229.998 159.855C229.633 158.965 229.113 158.286 228.44 157.818C227.778 157.35 226.996 157.116 226.095 157.116C225.216 157.116 224.44 157.35 223.767 157.818C223.105 158.286 222.586 158.965 222.209 159.855C221.844 160.745 221.661 161.818 221.661 163.073V163.107C221.661 164.374 221.844 165.458 222.209 166.36C222.586 167.25 223.105 167.929 223.767 168.397C224.44 168.865 225.228 169.099 226.129 169.099ZM239.164 172.18V157.322H236.682V154.035H239.164V152.306C239.164 151.119 239.358 150.144 239.746 149.379C240.145 148.615 240.756 148.05 241.577 147.685C242.399 147.308 243.466 147.12 244.778 147.12C245.201 147.12 245.617 147.137 246.028 147.171C246.45 147.205 246.792 147.245 247.055 147.291V150.269C246.872 150.246 246.667 150.229 246.439 150.218C246.222 150.195 245.999 150.184 245.771 150.184C244.938 150.184 244.322 150.372 243.922 150.749C243.534 151.125 243.34 151.684 243.34 152.426V154.035H246.986V157.322H243.426V172.18H239.164ZM264.275 172.539C262.392 172.539 260.988 172.128 260.064 171.307C259.151 170.485 258.694 169.138 258.694 167.267V157.322H256.127V154.035H258.694V149.43H263.025V154.035H266.397V157.322H263.025V166.925C263.025 167.803 263.219 168.414 263.607 168.756C264.006 169.087 264.588 169.253 265.353 169.253C265.57 169.253 265.758 169.247 265.918 169.235C266.089 169.213 266.249 169.196 266.397 169.184V172.385C266.146 172.419 265.838 172.454 265.473 172.488C265.119 172.522 264.72 172.539 264.275 172.539ZM269.795 172.18V147.479H274.057V157.082H274.142C274.622 155.987 275.335 155.142 276.282 154.549C277.241 153.955 278.393 153.659 279.74 153.659C281.052 153.659 282.188 153.961 283.146 154.566C284.105 155.159 284.847 155.998 285.372 157.082C285.896 158.155 286.159 159.421 286.159 160.882V172.18H281.897V161.721C281.897 160.329 281.56 159.239 280.887 158.451C280.213 157.653 279.266 157.253 278.045 157.253C277.246 157.253 276.545 157.447 275.94 157.835C275.346 158.212 274.884 158.737 274.553 159.41C274.222 160.072 274.057 160.842 274.057 161.721V172.18H269.795ZM297.927 172.539C296.112 172.539 294.549 172.157 293.237 171.392C291.936 170.628 290.937 169.544 290.241 168.14C289.545 166.736 289.197 165.076 289.197 163.159V163.142C289.197 161.236 289.545 159.575 290.241 158.16C290.949 156.734 291.936 155.627 293.202 154.84C294.481 154.052 295.987 153.659 297.721 153.659C299.445 153.659 300.934 154.041 302.189 154.805C303.456 155.559 304.426 156.62 305.099 157.989C305.784 159.359 306.126 160.956 306.126 162.782V164.152H291.302V161.31H304.089L302.035 163.963V162.32C302.035 161.133 301.853 160.146 301.487 159.359C301.122 158.571 300.62 157.984 299.981 157.596C299.342 157.196 298.606 156.996 297.773 156.996C296.928 156.996 296.175 157.202 295.513 157.613C294.863 158.012 294.349 158.611 293.973 159.41C293.608 160.209 293.425 161.179 293.425 162.32V163.963C293.425 165.07 293.608 166.017 293.973 166.805C294.349 167.581 294.88 168.18 295.565 168.602C296.249 169.013 297.065 169.218 298.012 169.218C298.72 169.218 299.342 169.11 299.878 168.893C300.415 168.665 300.854 168.374 301.196 168.02C301.55 167.666 301.795 167.284 301.932 166.873L301.967 166.753H305.938L305.904 166.942C305.755 167.638 305.481 168.323 305.082 168.996C304.683 169.658 304.146 170.257 303.473 170.793C302.8 171.33 302.001 171.757 301.077 172.077C300.152 172.385 299.102 172.539 297.927 172.539Z" fill="black" fill-opacity="0.8"/>
<path d="M226.386 124.345C227.093 124.345 227.75 124.18 228.354 123.849C228.971 123.507 229.507 123.033 229.963 122.428C230.42 121.812 230.774 121.093 231.025 120.271C231.287 119.45 231.418 118.565 231.418 117.618C231.418 116.34 231.105 115.336 230.477 114.605C229.861 113.864 229.011 113.493 227.926 113.493C227.173 113.493 226.483 113.675 225.855 114.041C225.228 114.406 224.686 114.914 224.229 115.564C223.773 116.203 223.419 116.933 223.168 117.755C222.917 118.577 222.791 119.444 222.791 120.357C222.791 121.544 223.116 122.508 223.767 123.25C224.429 123.98 225.302 124.345 226.386 124.345ZM219.624 134.188H214.78L219.95 109.778H224.725L224.126 112.517H224.229C224.868 111.559 225.69 110.817 226.694 110.292C227.71 109.756 228.799 109.487 229.963 109.487C231.287 109.487 232.428 109.79 233.387 110.395C234.346 110.988 235.082 111.838 235.595 112.945C236.12 114.052 236.383 115.364 236.383 116.882C236.383 118.548 236.154 120.089 235.698 121.504C235.241 122.907 234.602 124.134 233.781 125.184C232.959 126.223 231.995 127.033 230.888 127.615C229.781 128.185 228.577 128.471 227.276 128.471C226.363 128.471 225.536 128.317 224.794 128.009C224.052 127.7 223.419 127.267 222.894 126.708C222.369 126.148 221.987 125.487 221.747 124.722H221.644L219.624 134.188ZM237.384 128.18L241.303 109.778H246.028L245.514 112.346H245.617C246.108 111.502 246.758 110.817 247.568 110.292C248.39 109.767 249.332 109.504 250.393 109.504C250.884 109.504 251.323 109.55 251.711 109.641C252.099 109.721 252.436 109.83 252.721 109.967L251.762 114.451C251.454 114.303 251.078 114.178 250.633 114.075C250.187 113.961 249.72 113.904 249.229 113.904C248.362 113.904 247.603 114.069 246.952 114.4C246.313 114.72 245.783 115.199 245.36 115.838C244.938 116.477 244.619 117.27 244.402 118.217L242.279 128.18H237.384ZM257.488 117.002H265.465C265.476 116.933 265.482 116.854 265.482 116.762C265.493 116.66 265.499 116.568 265.499 116.488C265.499 115.884 265.368 115.33 265.105 114.828C264.843 114.314 264.455 113.904 263.941 113.596C263.439 113.276 262.8 113.116 262.024 113.116C261.271 113.116 260.586 113.287 259.97 113.63C259.365 113.961 258.846 114.417 258.412 114.999C257.99 115.581 257.682 116.249 257.488 117.002ZM260.552 128.591C258.851 128.591 257.391 128.248 256.17 127.563C254.96 126.879 254.03 125.92 253.38 124.688C252.74 123.444 252.421 121.983 252.421 120.306C252.421 118.754 252.655 117.316 253.123 115.992C253.591 114.668 254.258 113.51 255.126 112.517C255.993 111.524 257.026 110.754 258.224 110.206C259.422 109.647 260.746 109.368 262.195 109.368C263.781 109.368 265.162 109.693 266.338 110.343C267.524 110.982 268.443 111.89 269.093 113.065C269.755 114.24 270.086 115.633 270.086 117.242C270.086 117.687 270.063 118.166 270.018 118.679C269.984 119.193 269.921 119.667 269.829 120.1H256.991C256.98 120.203 256.969 120.306 256.957 120.408C256.957 120.5 256.957 120.591 256.957 120.682C256.957 121.492 257.111 122.206 257.419 122.822C257.727 123.438 258.161 123.923 258.72 124.277C259.291 124.619 259.964 124.79 260.74 124.79C261.71 124.79 262.537 124.568 263.222 124.123C263.907 123.666 264.392 123.067 264.677 122.325H269.282C268.974 123.547 268.409 124.631 267.587 125.578C266.777 126.514 265.773 127.25 264.574 127.786C263.376 128.322 262.035 128.591 260.552 128.591ZM273.535 115.256C273.535 114.092 273.849 113.071 274.477 112.192C275.116 111.302 276.006 110.611 277.147 110.121C278.288 109.63 279.623 109.385 281.152 109.385C282.613 109.385 283.903 109.636 285.021 110.138C286.139 110.64 287.018 111.342 287.657 112.243C288.308 113.133 288.65 114.16 288.684 115.324H284.234C284.199 114.857 284.04 114.44 283.754 114.075C283.48 113.71 283.115 113.43 282.659 113.236C282.202 113.031 281.677 112.928 281.084 112.928C280.491 112.928 279.977 113.008 279.543 113.168C279.121 113.327 278.79 113.55 278.551 113.835C278.322 114.109 278.208 114.434 278.208 114.811C278.208 115.29 278.396 115.678 278.773 115.975C279.15 116.272 279.84 116.58 280.844 116.899L282.676 117.515C284.388 118.075 285.609 118.742 286.339 119.518C287.069 120.283 287.435 121.276 287.435 122.497C287.435 123.695 287.098 124.756 286.425 125.681C285.763 126.593 284.838 127.307 283.652 127.82C282.465 128.334 281.084 128.591 279.509 128.591C277.9 128.591 276.491 128.334 275.281 127.82C274.071 127.307 273.124 126.588 272.44 125.663C271.766 124.739 271.407 123.672 271.361 122.462H276.051C276.143 123.216 276.502 123.832 277.13 124.311C277.769 124.79 278.613 125.03 279.663 125.03C280.245 125.03 280.753 124.944 281.187 124.773C281.632 124.602 281.974 124.362 282.214 124.054C282.453 123.746 282.573 123.398 282.573 123.01C282.573 122.577 282.396 122.223 282.042 121.949C281.689 121.675 281.021 121.384 280.04 121.076L278.414 120.528C276.725 119.969 275.486 119.267 274.699 118.423C273.923 117.578 273.535 116.523 273.535 115.256ZM295.71 117.002H303.687C303.699 116.933 303.704 116.854 303.704 116.762C303.716 116.66 303.721 116.568 303.721 116.488C303.721 115.884 303.59 115.33 303.328 114.828C303.065 114.314 302.677 113.904 302.164 113.596C301.662 113.276 301.023 113.116 300.247 113.116C299.493 113.116 298.809 113.287 298.193 113.63C297.588 113.961 297.068 114.417 296.635 114.999C296.213 115.581 295.904 116.249 295.71 117.002ZM298.775 128.591C297.074 128.591 295.613 128.248 294.392 127.563C293.183 126.879 292.253 125.92 291.602 124.688C290.963 123.444 290.644 121.983 290.644 120.306C290.644 118.754 290.878 117.316 291.346 115.992C291.813 114.668 292.481 113.51 293.348 112.517C294.216 111.524 295.248 110.754 296.447 110.206C297.645 109.647 298.969 109.368 300.418 109.368C302.004 109.368 303.385 109.693 304.56 110.343C305.747 110.982 306.666 111.89 307.316 113.065C307.978 114.24 308.309 115.633 308.309 117.242C308.309 117.687 308.286 118.166 308.241 118.679C308.206 119.193 308.144 119.667 308.052 120.1H295.214C295.203 120.203 295.191 120.306 295.18 120.408C295.18 120.5 295.18 120.591 295.18 120.682C295.18 121.492 295.334 122.206 295.642 122.822C295.95 123.438 296.384 123.923 296.943 124.277C297.514 124.619 298.187 124.79 298.963 124.79C299.933 124.79 300.76 124.568 301.445 124.123C302.13 123.666 302.615 123.067 302.9 122.325H307.504C307.196 123.547 306.631 124.631 305.81 125.578C305 126.514 303.995 127.25 302.797 127.786C301.599 128.322 300.258 128.591 298.775 128.591ZM309.344 128.18L313.264 109.778H317.989L317.475 112.346H317.578C318.069 111.502 318.719 110.817 319.529 110.292C320.351 109.767 321.292 109.504 322.354 109.504C322.844 109.504 323.284 109.55 323.672 109.641C324.06 109.721 324.396 109.83 324.682 109.967L323.723 114.451C323.415 114.303 323.038 114.178 322.593 114.075C322.148 113.961 321.68 113.904 321.19 113.904C320.322 113.904 319.563 114.069 318.913 114.4C318.274 114.72 317.743 115.199 317.321 115.838C316.899 116.477 316.579 117.27 316.362 118.217L314.24 128.18H309.344ZM326.042 109.761H330.921L331.982 123.472H332.085L338.829 109.761H344.084L333.933 128.18H328.353L326.042 109.761ZM348.32 117.002H356.297C356.308 116.933 356.314 116.854 356.314 116.762C356.325 116.66 356.331 116.568 356.331 116.488C356.331 115.884 356.2 115.33 355.937 114.828C355.675 114.314 355.287 113.904 354.773 113.596C354.271 113.276 353.632 113.116 352.856 113.116C352.103 113.116 351.418 113.287 350.802 113.63C350.197 113.961 349.678 114.417 349.245 114.999C348.822 115.581 348.514 116.249 348.32 117.002ZM351.384 128.591C349.684 128.591 348.223 128.248 347.002 127.563C345.793 126.879 344.862 125.92 344.212 124.688C343.573 123.444 343.253 121.983 343.253 120.306C343.253 118.754 343.487 117.316 343.955 115.992C344.423 114.668 345.091 113.51 345.958 112.517C346.825 111.524 347.858 110.754 349.056 110.206C350.254 109.647 351.578 109.368 353.028 109.368C354.614 109.368 355.995 109.693 357.17 110.343C358.357 110.982 359.275 111.89 359.926 113.065C360.588 114.24 360.919 115.633 360.919 117.242C360.919 117.687 360.896 118.166 360.85 118.679C360.816 119.193 360.753 119.667 360.662 120.1H347.824C347.812 120.203 347.801 120.306 347.79 120.408C347.79 120.5 347.79 120.591 347.79 120.682C347.79 121.492 347.944 122.206 348.252 122.822C348.56 123.438 348.993 123.923 349.553 124.277C350.123 124.619 350.797 124.79 351.573 124.79C352.543 124.79 353.37 124.568 354.055 124.123C354.739 123.666 355.224 123.067 355.51 122.325H360.114C359.806 123.547 359.241 124.631 358.42 125.578C357.609 126.514 356.605 127.25 355.407 127.786C354.209 128.322 352.868 128.591 351.384 128.591ZM381.254 109.368C382.851 109.368 384.232 109.67 385.396 110.275C386.571 110.868 387.473 111.673 388.101 112.688C388.728 113.693 389.042 114.805 389.042 116.026C389.042 116.243 389.042 116.38 389.042 116.437C389.042 116.494 389.042 116.545 389.042 116.591H384.352C384.329 115.712 384.032 114.982 383.462 114.4C382.891 113.807 382.092 113.51 381.065 113.51C380.346 113.51 379.69 113.681 379.097 114.023C378.515 114.354 378.007 114.828 377.573 115.444C377.151 116.049 376.82 116.774 376.581 117.618C376.352 118.463 376.238 119.393 376.238 120.408C376.238 121.23 376.375 121.943 376.649 122.548C376.923 123.153 377.311 123.621 377.813 123.952C378.315 124.271 378.903 124.431 379.576 124.431C380.535 124.431 381.345 124.168 382.007 123.644C382.68 123.119 383.154 122.4 383.428 121.487H388.135C387.895 122.868 387.37 124.094 386.56 125.167C385.75 126.228 384.728 127.067 383.496 127.683C382.275 128.288 380.911 128.591 379.405 128.591C377.716 128.591 376.267 128.26 375.057 127.598C373.847 126.924 372.923 125.989 372.284 124.79C371.645 123.592 371.325 122.2 371.325 120.614C371.325 118.388 371.736 116.431 372.558 114.742C373.38 113.053 374.532 111.735 376.016 110.788C377.511 109.841 379.257 109.368 381.254 109.368ZM399.235 124.551C400.217 124.551 401.09 124.254 401.854 123.661C402.619 123.056 403.218 122.24 403.652 121.213C404.097 120.174 404.319 119.01 404.319 117.721C404.319 116.42 404 115.376 403.361 114.588C402.733 113.801 401.888 113.407 400.827 113.407C399.846 113.407 398.967 113.704 398.191 114.297C397.427 114.891 396.822 115.707 396.377 116.745C395.943 117.772 395.726 118.936 395.726 120.237C395.726 121.527 396.046 122.571 396.685 123.37C397.324 124.157 398.174 124.551 399.235 124.551ZM400.998 109.368C402.664 109.368 404.119 109.71 405.363 110.395C406.607 111.079 407.571 112.044 408.256 113.287C408.952 114.52 409.3 115.958 409.3 117.601C409.3 119.176 409.044 120.637 408.53 121.983C408.028 123.318 407.315 124.477 406.39 125.458C405.477 126.439 404.399 127.21 403.155 127.769C401.923 128.317 400.565 128.591 399.081 128.591C397.415 128.591 395.96 128.248 394.716 127.563C393.472 126.867 392.502 125.903 391.806 124.671C391.122 123.427 390.779 121.983 390.779 120.34C390.779 118.776 391.03 117.327 391.532 115.992C392.046 114.645 392.759 113.481 393.672 112.5C394.596 111.507 395.675 110.737 396.907 110.189C398.151 109.641 399.515 109.368 400.998 109.368ZM410.353 128.18L414.256 109.778H418.963L418.364 112.603H418.466C419.094 111.576 419.933 110.783 420.983 110.223C422.033 109.653 423.191 109.368 424.458 109.368C425.565 109.368 426.54 109.596 427.385 110.052C428.241 110.497 428.908 111.119 429.387 111.918C429.878 112.705 430.124 113.624 430.124 114.674C430.124 115.005 430.101 115.364 430.055 115.752C430.021 116.129 429.964 116.517 429.884 116.916L427.505 128.18H422.643L424.851 117.721C424.92 117.436 424.965 117.173 424.988 116.933C425.011 116.682 425.022 116.454 425.022 116.249C425.022 115.404 424.731 114.731 424.149 114.229C423.579 113.715 422.82 113.459 421.873 113.459C421.188 113.459 420.543 113.618 419.939 113.938C419.345 114.246 418.837 114.685 418.415 115.256C418.004 115.827 417.713 116.5 417.542 117.276L415.231 128.18H410.353ZM439.033 128.385C437.367 128.385 436.032 128.054 435.027 127.392C434.035 126.73 433.538 125.738 433.538 124.414C433.538 124.186 433.55 123.912 433.572 123.592C433.607 123.273 433.658 122.936 433.726 122.582L435.592 113.921H432.853L433.658 110.086H436.397L437.321 105.619H442.217L441.258 110.086H445.024L444.237 113.921H440.488L438.759 121.846C438.713 122.029 438.679 122.228 438.656 122.445C438.633 122.651 438.622 122.828 438.622 122.976C438.622 123.558 438.81 123.974 439.187 124.226C439.575 124.465 440.134 124.585 440.864 124.585C441.081 124.585 441.258 124.585 441.395 124.585C441.543 124.574 441.675 124.562 441.789 124.551C441.903 124.539 442.006 124.522 442.097 124.499L441.327 128.18C441.053 128.237 440.705 128.282 440.282 128.317C439.872 128.362 439.455 128.385 439.033 128.385ZM444.193 128.18L448.113 109.778H452.838L452.324 112.346H452.427C452.918 111.502 453.568 110.817 454.378 110.292C455.2 109.767 456.141 109.504 457.203 109.504C457.693 109.504 458.133 109.55 458.521 109.641C458.909 109.721 459.245 109.83 459.531 109.967L458.572 114.451C458.264 114.303 457.887 114.178 457.442 114.075C456.997 113.961 456.529 113.904 456.039 113.904C455.171 113.904 454.413 114.069 453.762 114.4C453.123 114.72 452.592 115.199 452.17 115.838C451.748 116.477 451.428 117.27 451.212 118.217L449.089 128.18H444.193ZM467.67 124.551C468.651 124.551 469.524 124.254 470.289 123.661C471.053 123.056 471.652 122.24 472.086 121.213C472.531 120.174 472.754 119.01 472.754 117.721C472.754 116.42 472.434 115.376 471.795 114.588C471.167 113.801 470.323 113.407 469.262 113.407C468.28 113.407 467.402 113.704 466.626 114.297C465.861 114.891 465.256 115.707 464.811 116.745C464.377 117.772 464.161 118.936 464.161 120.237C464.161 121.527 464.48 122.571 465.119 123.37C465.758 124.157 466.608 124.551 467.67 124.551ZM469.433 109.368C471.099 109.368 472.554 109.71 473.798 110.395C475.042 111.079 476.006 112.044 476.691 113.287C477.387 114.52 477.735 115.958 477.735 117.601C477.735 119.176 477.478 120.637 476.965 121.983C476.462 123.318 475.749 124.477 474.825 125.458C473.912 126.439 472.834 127.21 471.59 127.769C470.357 128.317 468.999 128.591 467.516 128.591C465.85 128.591 464.395 128.248 463.151 127.563C461.907 126.867 460.937 125.903 460.241 124.671C459.556 123.427 459.214 121.983 459.214 120.34C459.214 118.776 459.465 117.327 459.967 115.992C460.48 114.645 461.194 113.481 462.107 112.5C463.031 111.507 464.109 110.737 465.342 110.189C466.586 109.641 467.949 109.368 469.433 109.368ZM478.958 128.18L484.214 103.479H489.109L483.854 128.18H478.958ZM489.682 133.623H485.951L489.271 123.9H494.03L489.682 133.623ZM326.684 172.471C325.759 172.471 324.898 172.311 324.099 171.991C323.311 171.672 322.638 171.227 322.079 170.656C321.531 170.074 321.149 169.412 320.932 168.671H320.812L320.076 172.18H315.352L320.624 147.479H325.485L323.551 156.5C323.574 156.5 323.591 156.5 323.602 156.5C323.614 156.5 323.631 156.5 323.654 156.5C324.19 155.576 324.955 154.845 325.948 154.309C326.952 153.761 328.042 153.487 329.217 153.487C330.541 153.487 331.682 153.784 332.641 154.377C333.611 154.971 334.358 155.827 334.883 156.945C335.419 158.052 335.687 159.381 335.687 160.933C335.687 162.497 335.471 163.975 335.037 165.367C334.615 166.748 334.004 167.974 333.205 169.047C332.407 170.12 331.454 170.959 330.347 171.563C329.251 172.168 328.03 172.471 326.684 172.471ZM325.725 168.345C326.455 168.345 327.123 168.174 327.728 167.832C328.333 167.478 328.858 166.993 329.303 166.377C329.748 165.749 330.09 165.03 330.33 164.22C330.569 163.398 330.689 162.525 330.689 161.601C330.689 160.334 330.381 159.336 329.765 158.605C329.149 157.864 328.287 157.493 327.18 157.493C326.45 157.493 325.771 157.675 325.143 158.041C324.527 158.394 323.985 158.891 323.517 159.53C323.06 160.169 322.701 160.899 322.438 161.721C322.187 162.543 322.062 163.421 322.062 164.357C322.062 165.544 322.399 166.508 323.072 167.25C323.745 167.98 324.63 168.345 325.725 168.345ZM343.056 161.002H351.033C351.044 160.933 351.05 160.854 351.05 160.762C351.062 160.66 351.067 160.568 351.067 160.488C351.067 159.884 350.936 159.33 350.674 158.828C350.411 158.314 350.023 157.904 349.51 157.596C349.007 157.276 348.368 157.116 347.592 157.116C346.839 157.116 346.154 157.287 345.538 157.63C344.933 157.961 344.414 158.417 343.981 158.999C343.558 159.581 343.25 160.249 343.056 161.002ZM346.12 172.591C344.42 172.591 342.959 172.248 341.738 171.563C340.529 170.879 339.598 169.92 338.948 168.688C338.309 167.444 337.989 165.983 337.989 164.306C337.989 162.754 338.223 161.316 338.691 159.992C339.159 158.668 339.827 157.51 340.694 156.517C341.561 155.524 342.594 154.754 343.792 154.206C344.99 153.647 346.314 153.368 347.764 153.368C349.35 153.368 350.731 153.693 351.906 154.343C353.093 154.982 354.011 155.89 354.662 157.065C355.324 158.24 355.655 159.633 355.655 161.242C355.655 161.687 355.632 162.166 355.586 162.679C355.552 163.193 355.489 163.667 355.398 164.1H342.56C342.548 164.203 342.537 164.306 342.526 164.408C342.526 164.5 342.526 164.591 342.526 164.682C342.526 165.492 342.68 166.206 342.988 166.822C343.296 167.438 343.73 167.923 344.289 168.277C344.859 168.619 345.533 168.79 346.309 168.79C347.279 168.79 348.106 168.568 348.791 168.123C349.475 167.666 349.96 167.067 350.246 166.325H354.85C354.542 167.547 353.977 168.631 353.156 169.578C352.345 170.514 351.341 171.25 350.143 171.786C348.945 172.322 347.604 172.591 346.12 172.591ZM356.69 172.18L360.593 153.778H365.3L364.701 156.603H364.804C365.431 155.576 366.27 154.783 367.32 154.223C368.37 153.653 369.528 153.368 370.795 153.368C371.902 153.368 372.877 153.596 373.722 154.052C374.578 154.497 375.245 155.119 375.725 155.918C376.215 156.705 376.461 157.624 376.461 158.674C376.461 159.005 376.438 159.364 376.392 159.752C376.358 160.129 376.301 160.517 376.221 160.916L373.842 172.18H368.98L371.189 161.721C371.257 161.436 371.303 161.173 371.325 160.933C371.348 160.682 371.36 160.454 371.36 160.249C371.36 159.404 371.069 158.731 370.487 158.229C369.916 157.715 369.157 157.459 368.21 157.459C367.525 157.459 366.881 157.618 366.276 157.938C365.682 158.246 365.175 158.685 364.752 159.256C364.342 159.827 364.051 160.5 363.879 161.276L361.568 172.18H356.69ZM383.778 161.002H391.755C391.766 160.933 391.772 160.854 391.772 160.762C391.783 160.66 391.789 160.568 391.789 160.488C391.789 159.884 391.658 159.33 391.395 158.828C391.133 158.314 390.745 157.904 390.231 157.596C389.729 157.276 389.09 157.116 388.314 157.116C387.561 157.116 386.876 157.287 386.26 157.63C385.655 157.961 385.136 158.417 384.702 158.999C384.28 159.581 383.972 160.249 383.778 161.002ZM386.842 172.591C385.142 172.591 383.681 172.248 382.46 171.563C381.25 170.879 380.32 169.92 379.67 168.688C379.031 167.444 378.711 165.983 378.711 164.306C378.711 162.754 378.945 161.316 379.413 159.992C379.881 158.668 380.549 157.51 381.416 156.517C382.283 155.524 383.316 154.754 384.514 154.206C385.712 153.647 387.036 153.368 388.485 153.368C390.072 153.368 391.452 153.693 392.628 154.343C393.815 154.982 394.733 155.89 395.384 157.065C396.046 158.24 396.377 159.633 396.377 161.242C396.377 161.687 396.354 162.166 396.308 162.679C396.274 163.193 396.211 163.667 396.12 164.1H383.282C383.27 164.203 383.259 164.306 383.247 164.408C383.247 164.5 383.247 164.591 383.247 164.682C383.247 165.492 383.402 166.206 383.71 166.822C384.018 167.438 384.451 167.923 385.011 168.277C385.581 168.619 386.254 168.79 387.03 168.79C388 168.79 388.828 168.568 389.512 168.123C390.197 167.666 390.682 167.067 390.967 166.325H395.572C395.264 167.547 394.699 168.631 393.877 169.578C393.067 170.514 392.063 171.25 390.865 171.786C389.667 172.322 388.326 172.591 386.842 172.591ZM398.781 172.18L401.845 157.767H398.935L399.723 153.95H402.581L402.992 151.878C403.346 150.132 404.076 148.866 405.183 148.078C406.29 147.279 407.825 146.88 409.788 146.88C410.416 146.88 410.998 146.926 411.534 147.017C412.07 147.097 412.51 147.177 412.852 147.257L412.133 150.697C411.962 150.64 411.722 150.594 411.414 150.56C411.117 150.515 410.781 150.492 410.404 150.492C409.64 150.492 409.035 150.657 408.59 150.988C408.156 151.319 407.871 151.816 407.734 152.477L407.426 153.95H411.311L410.507 157.767H406.724L403.677 172.18H398.781ZM410.892 172.18L414.794 153.778H419.69L415.787 172.18H410.892ZM418.338 151.348C417.619 151.348 417.003 151.091 416.489 150.577C415.987 150.052 415.736 149.43 415.736 148.712C415.736 147.993 415.987 147.376 416.489 146.863C417.003 146.338 417.619 146.075 418.338 146.075C419.068 146.075 419.684 146.338 420.186 146.863C420.689 147.376 420.94 147.993 420.94 148.712C420.94 149.43 420.689 150.052 420.186 150.577C419.684 151.091 419.068 151.348 418.338 151.348ZM428.017 172.385C426.351 172.385 425.016 172.054 424.012 171.392C423.019 170.73 422.523 169.738 422.523 168.414C422.523 168.186 422.534 167.912 422.557 167.592C422.591 167.273 422.642 166.936 422.711 166.582L424.577 157.921H421.838L422.642 154.086H425.381L426.306 149.619H431.201L430.243 154.086H434.008L433.221 157.921H429.472L427.743 165.846C427.698 166.029 427.664 166.228 427.641 166.445C427.618 166.651 427.607 166.828 427.607 166.976C427.607 167.558 427.795 167.974 428.171 168.226C428.559 168.465 429.119 168.585 429.849 168.585C430.066 168.585 430.243 168.585 430.38 168.585C430.528 168.574 430.659 168.562 430.773 168.551C430.887 168.539 430.99 168.522 431.081 168.499L430.311 172.18C430.037 172.237 429.689 172.282 429.267 172.317C428.856 172.362 428.44 172.385 428.017 172.385ZM435.694 159.256C435.694 158.092 436.008 157.071 436.636 156.192C437.275 155.302 438.165 154.611 439.306 154.121C440.447 153.63 441.782 153.385 443.312 153.385C444.772 153.385 446.062 153.636 447.18 154.138C448.298 154.64 449.177 155.342 449.816 156.243C450.467 157.133 450.809 158.16 450.843 159.324H446.393C446.358 158.857 446.199 158.44 445.913 158.075C445.639 157.71 445.274 157.43 444.818 157.236C444.361 157.031 443.836 156.928 443.243 156.928C442.65 156.928 442.136 157.008 441.702 157.168C441.28 157.327 440.949 157.55 440.71 157.835C440.481 158.109 440.367 158.434 440.367 158.811C440.367 159.29 440.556 159.678 440.932 159.975C441.309 160.272 441.999 160.58 443.003 160.899L444.835 161.515C446.547 162.075 447.768 162.742 448.498 163.518C449.228 164.283 449.594 165.276 449.594 166.497C449.594 167.695 449.257 168.756 448.584 169.681C447.922 170.593 446.997 171.307 445.811 171.82C444.624 172.334 443.243 172.591 441.668 172.591C440.059 172.591 438.65 172.334 437.44 171.82C436.231 171.307 435.283 170.588 434.599 169.663C433.925 168.739 433.566 167.672 433.52 166.462H438.21C438.302 167.216 438.661 167.832 439.289 168.311C439.928 168.79 440.772 169.03 441.822 169.03C442.404 169.03 442.912 168.944 443.346 168.773C443.791 168.602 444.133 168.362 444.373 168.054C444.612 167.746 444.732 167.398 444.732 167.01C444.732 166.577 444.555 166.223 444.202 165.949C443.848 165.675 443.18 165.384 442.199 165.076L440.573 164.528C438.884 163.969 437.646 163.267 436.858 162.423C436.082 161.578 435.694 160.523 435.694 159.256ZM469.329 168.551C470.311 168.551 471.184 168.254 471.948 167.661C472.713 167.056 473.312 166.24 473.746 165.213C474.191 164.174 474.413 163.01 474.413 161.721C474.413 160.42 474.094 159.376 473.455 158.588C472.827 157.801 471.983 157.407 470.921 157.407C469.94 157.407 469.061 157.704 468.285 158.297C467.521 158.891 466.916 159.707 466.471 160.745C466.037 161.772 465.82 162.936 465.82 164.237C465.82 165.527 466.14 166.571 466.779 167.37C467.418 168.157 468.268 168.551 469.329 168.551ZM471.093 153.368C472.759 153.368 474.214 153.71 475.458 154.395C476.701 155.079 477.666 156.044 478.35 157.287C479.047 158.52 479.395 159.958 479.395 161.601C479.395 163.176 479.138 164.637 478.624 165.983C478.122 167.318 477.409 168.477 476.485 169.458C475.572 170.439 474.493 171.21 473.249 171.769C472.017 172.317 470.659 172.591 469.175 172.591C467.509 172.591 466.054 172.248 464.81 171.563C463.567 170.867 462.597 169.903 461.9 168.671C461.216 167.427 460.873 165.983 460.873 164.34C460.873 162.776 461.124 161.327 461.627 159.992C462.14 158.645 462.853 157.481 463.766 156.5C464.691 155.507 465.769 154.737 467.001 154.189C468.245 153.641 469.609 153.368 471.093 153.368ZM481.816 172.18L484.88 157.767H481.97L482.758 153.95H485.616L486.027 151.878C486.381 150.132 487.111 148.866 488.218 148.078C489.325 147.279 490.86 146.88 492.823 146.88C493.451 146.88 494.033 146.926 494.569 147.017C495.105 147.097 495.545 147.177 495.887 147.257L495.168 150.697C494.997 150.64 494.757 150.594 494.449 150.56C494.152 150.515 493.816 150.492 493.439 150.492C492.675 150.492 492.07 150.657 491.625 150.988C491.191 151.319 490.906 151.816 490.769 152.477L490.461 153.95H494.346L493.542 157.767H489.759L486.712 172.18H481.816ZM515.862 152.495L510.607 162.303H517.009L515.982 152.495H515.862ZM517.934 172.18L517.317 166.291H508.622L505.404 172.18H499.892L513.843 147.479H519.936L523.12 172.18H517.934ZM531.122 172.18H525.919L531.174 147.479H536.377L531.122 172.18ZM551.32 168.808C552.005 168.808 552.638 168.676 553.22 168.414C553.802 168.151 554.293 167.792 554.693 167.335C555.103 166.868 555.377 166.343 555.514 165.761L555.857 164.203L551.971 164.357C550.921 164.391 550.094 164.619 549.489 165.042C548.884 165.464 548.582 166.029 548.582 166.736C548.582 167.364 548.833 167.866 549.335 168.243C549.848 168.619 550.51 168.808 551.32 168.808ZM549.352 172.471C548.325 172.471 547.389 172.254 546.545 171.82C545.7 171.387 545.033 170.793 544.542 170.04C544.051 169.275 543.806 168.402 543.806 167.421C543.806 165.561 544.513 164.095 545.928 163.022C547.355 161.949 549.306 161.373 551.783 161.293L556.507 161.122L556.73 160.009C556.764 159.861 556.781 159.735 556.781 159.633C556.792 159.53 556.798 159.427 556.798 159.324C556.798 158.685 556.541 158.178 556.028 157.801C555.514 157.413 554.801 157.219 553.888 157.219C553.272 157.219 552.73 157.31 552.262 157.493C551.805 157.664 551.429 157.909 551.132 158.229C550.835 158.537 550.63 158.908 550.516 159.342H545.894C546.111 158.132 546.596 157.082 547.349 156.192C548.102 155.302 549.067 154.611 550.242 154.121C551.417 153.619 552.753 153.368 554.247 153.368C555.72 153.368 557.003 153.601 558.099 154.069C559.206 154.526 560.067 155.165 560.684 155.987C561.3 156.797 561.608 157.744 561.608 158.828C561.608 159.09 561.591 159.359 561.557 159.633C561.534 159.906 561.505 160.146 561.471 160.351L558.955 172.18H554.23L554.71 169.972H554.607C554.253 170.474 553.808 170.913 553.272 171.29C552.747 171.666 552.153 171.957 551.492 172.163C550.83 172.368 550.116 172.471 549.352 172.471ZM583.475 153.778L579.573 172.18H574.865L575.464 169.355H575.362C575.031 169.96 574.568 170.508 573.975 170.999C573.393 171.489 572.714 171.877 571.938 172.163C571.174 172.448 570.346 172.591 569.456 172.591C568.292 172.591 567.282 172.362 566.426 171.906C565.57 171.449 564.908 170.827 564.441 170.04C563.984 169.241 563.756 168.323 563.756 167.284C563.756 166.907 563.773 166.497 563.807 166.052C563.853 165.607 563.916 165.201 563.996 164.836L566.324 153.778H571.219L569.028 164.032C568.982 164.26 568.943 164.517 568.908 164.802C568.885 165.076 568.874 165.31 568.874 165.504C568.874 166.44 569.131 167.153 569.644 167.644C570.158 168.123 570.917 168.362 571.921 168.362C572.663 168.362 573.33 168.203 573.924 167.883C574.529 167.564 575.031 167.119 575.43 166.548C575.841 165.966 576.132 165.287 576.303 164.511L578.58 153.778H583.475ZM591.204 172.385C589.537 172.385 588.202 172.054 587.198 171.392C586.205 170.73 585.709 169.738 585.709 168.414C585.709 168.186 585.72 167.912 585.743 167.592C585.777 167.273 585.829 166.936 585.897 166.582L587.763 157.921H585.024L585.829 154.086H588.567L589.492 149.619H594.387L593.429 154.086H597.195L596.407 157.921H592.659L590.93 165.846C590.884 166.029 590.85 166.228 590.827 166.445C590.804 166.651 590.793 166.828 590.793 166.976C590.793 167.558 590.981 167.974 591.358 168.226C591.746 168.465 592.305 168.585 593.035 168.585C593.252 168.585 593.429 168.585 593.566 168.585C593.714 168.574 593.845 168.562 593.959 168.551C594.074 168.539 594.176 168.522 594.268 168.499L593.497 172.18C593.223 172.237 592.875 172.282 592.453 172.317C592.042 172.362 591.626 172.385 591.204 172.385ZM605.967 168.551C606.948 168.551 607.821 168.254 608.586 167.661C609.351 167.056 609.95 166.24 610.383 165.213C610.828 164.174 611.051 163.01 611.051 161.721C611.051 160.42 610.731 159.376 610.092 158.588C609.465 157.801 608.62 157.407 607.559 157.407C606.578 157.407 605.699 157.704 604.923 158.297C604.158 158.891 603.553 159.707 603.108 160.745C602.675 161.772 602.458 162.936 602.458 164.237C602.458 165.527 602.777 166.571 603.417 167.37C604.056 168.157 604.906 168.551 605.967 168.551ZM607.73 153.368C609.396 153.368 610.851 153.71 612.095 154.395C613.339 155.079 614.303 156.044 614.988 157.287C615.684 158.52 616.032 159.958 616.032 161.601C616.032 163.176 615.775 164.637 615.262 165.983C614.76 167.318 614.047 168.477 613.122 169.458C612.209 170.439 611.131 171.21 609.887 171.769C608.655 172.317 607.297 172.591 605.813 172.591C604.147 172.591 602.692 172.248 601.448 171.563C600.204 170.867 599.234 169.903 598.538 168.671C597.853 167.427 597.511 165.983 597.511 164.34C597.511 162.776 597.762 161.327 598.264 159.992C598.778 158.645 599.491 157.481 600.404 156.5C601.328 155.507 602.407 154.737 603.639 154.189C604.883 153.641 606.247 153.368 607.73 153.368ZM617.085 172.18L620.987 153.778H625.695L625.061 156.705H625.164C625.689 155.735 626.442 154.937 627.424 154.309C628.405 153.681 629.472 153.368 630.625 153.368C631.846 153.368 632.873 153.681 633.706 154.309C634.539 154.937 635.086 155.718 635.349 156.654H635.435C635.857 156.038 636.365 155.484 636.958 154.994C637.563 154.492 638.248 154.098 639.012 153.813C639.777 153.516 640.627 153.368 641.563 153.368C642.555 153.368 643.434 153.59 644.199 154.035C644.975 154.469 645.585 155.068 646.03 155.832C646.475 156.597 646.698 157.481 646.698 158.486C646.698 158.817 646.675 159.165 646.629 159.53C646.595 159.895 646.538 160.272 646.458 160.66L644.028 172.18H639.166L641.426 161.413C641.483 161.15 641.523 160.905 641.545 160.677C641.58 160.448 641.597 160.226 641.597 160.009C641.597 159.279 641.369 158.674 640.912 158.195C640.456 157.704 639.828 157.459 639.029 157.459C638.459 157.459 637.917 157.601 637.403 157.887C636.89 158.16 636.444 158.56 636.068 159.085C635.703 159.61 635.44 160.237 635.28 160.968L632.918 172.18H628.211L630.47 161.413C630.528 161.15 630.567 160.905 630.59 160.677C630.625 160.448 630.642 160.226 630.642 160.009C630.642 159.279 630.413 158.674 629.957 158.195C629.512 157.704 628.884 157.459 628.074 157.459C627.503 157.459 626.961 157.607 626.448 157.904C625.934 158.189 625.489 158.594 625.113 159.119C624.747 159.633 624.491 160.249 624.342 160.968L621.963 172.18H617.085ZM655.573 168.808C656.258 168.808 656.891 168.676 657.473 168.414C658.055 168.151 658.546 167.792 658.945 167.335C659.356 166.868 659.63 166.343 659.767 165.761L660.109 164.203L656.223 164.357C655.174 164.391 654.346 164.619 653.741 165.042C653.137 165.464 652.834 166.029 652.834 166.736C652.834 167.364 653.085 167.866 653.587 168.243C654.101 168.619 654.763 168.808 655.573 168.808ZM653.604 172.471C652.577 172.471 651.642 172.254 650.797 171.82C649.953 171.387 649.285 170.793 648.794 170.04C648.304 169.275 648.058 168.402 648.058 167.421C648.058 165.561 648.766 164.095 650.181 163.022C651.607 161.949 653.559 161.373 656.035 161.293L660.76 161.122L660.982 160.009C661.016 159.861 661.033 159.735 661.033 159.633C661.045 159.53 661.051 159.427 661.051 159.324C661.051 158.685 660.794 158.178 660.28 157.801C659.767 157.413 659.054 157.219 658.141 157.219C657.524 157.219 656.982 157.31 656.514 157.493C656.058 157.664 655.681 157.909 655.385 158.229C655.088 158.537 654.883 158.908 654.768 159.342H650.147C650.364 158.132 650.849 157.082 651.602 156.192C652.355 155.302 653.319 154.611 654.495 154.121C655.67 153.619 657.005 153.368 658.5 153.368C659.972 153.368 661.256 153.601 662.352 154.069C663.458 154.526 664.32 155.165 664.936 155.987C665.552 156.797 665.861 157.744 665.861 158.828C665.861 159.09 665.843 159.359 665.809 159.633C665.786 159.906 665.758 160.146 665.724 160.351L663.207 172.18H658.483L658.962 169.972H658.86C658.506 170.474 658.061 170.913 657.524 171.29C656.999 171.666 656.406 171.957 655.744 172.163C655.082 172.368 654.369 172.471 653.604 172.471ZM674.736 172.385C673.07 172.385 671.734 172.054 670.73 171.392C669.737 170.73 669.241 169.738 669.241 168.414C669.241 168.186 669.252 167.912 669.275 167.592C669.309 167.273 669.361 166.936 669.429 166.582L671.295 157.921H668.556L669.361 154.086H672.1L673.024 149.619H677.92L676.961 154.086H680.727L679.939 157.921H676.191L674.462 165.846C674.416 166.029 674.382 166.228 674.359 166.445C674.336 166.651 674.325 166.828 674.325 166.976C674.325 167.558 674.513 167.974 674.89 168.226C675.278 168.465 675.837 168.585 676.567 168.585C676.784 168.585 676.961 168.585 677.098 168.585C677.246 168.574 677.378 168.562 677.492 168.551C677.606 168.539 677.708 168.522 677.8 168.499L677.029 172.18C676.756 172.237 676.408 172.282 675.985 172.317C675.574 172.362 675.158 172.385 674.736 172.385ZM680.667 172.18L684.569 153.778H689.465L685.562 172.18H680.667ZM688.113 151.348C687.394 151.348 686.778 151.091 686.264 150.577C685.762 150.052 685.511 149.43 685.511 148.712C685.511 147.993 685.762 147.376 686.264 146.863C686.778 146.338 687.394 146.075 688.113 146.075C688.843 146.075 689.459 146.338 689.961 146.863C690.464 147.376 690.715 147.993 690.715 148.712C690.715 149.43 690.464 150.052 689.961 150.577C689.459 151.091 688.843 151.348 688.113 151.348ZM699.573 168.551C700.554 168.551 701.427 168.254 702.192 167.661C702.956 167.056 703.555 166.24 703.989 165.213C704.434 164.174 704.656 163.01 704.656 161.721C704.656 160.42 704.337 159.376 703.698 158.588C703.07 157.801 702.226 157.407 701.164 157.407C700.183 157.407 699.304 157.704 698.528 158.297C697.764 158.891 697.159 159.707 696.714 160.745C696.28 161.772 696.063 162.936 696.063 164.237C696.063 165.527 696.383 166.571 697.022 167.37C697.661 168.157 698.511 168.551 699.573 168.551ZM701.336 153.368C703.002 153.368 704.457 153.71 705.701 154.395C706.945 155.079 707.909 156.044 708.594 157.287C709.29 158.52 709.638 159.958 709.638 161.601C709.638 163.176 709.381 164.637 708.867 165.983C708.365 167.318 707.652 168.477 706.728 169.458C705.815 170.439 704.736 171.21 703.492 171.769C702.26 172.317 700.902 172.591 699.419 172.591C697.752 172.591 696.297 172.248 695.054 171.563C693.81 170.867 692.84 169.903 692.144 168.671C691.459 167.427 691.117 165.983 691.117 164.34C691.117 162.776 691.368 161.327 691.87 159.992C692.383 158.645 693.096 157.481 694.009 156.5C694.934 155.507 696.012 154.737 697.245 154.189C698.488 153.641 699.852 153.368 701.336 153.368ZM710.69 172.18L714.593 153.778H719.3L718.701 156.603H718.804C719.431 155.576 720.27 154.783 721.32 154.223C722.37 153.653 723.528 153.368 724.795 153.368C725.902 153.368 726.878 153.596 727.722 154.052C728.578 154.497 729.245 155.119 729.725 155.918C730.215 156.705 730.461 157.624 730.461 158.674C730.461 159.005 730.438 159.364 730.392 159.752C730.358 160.129 730.301 160.517 730.221 160.916L727.842 172.18H722.98L725.189 161.721C725.257 161.436 725.303 161.173 725.326 160.933C725.348 160.682 725.36 160.454 725.36 160.249C725.36 159.404 725.069 158.731 724.487 158.229C723.916 157.715 723.157 157.459 722.21 157.459C721.525 157.459 720.881 157.618 720.276 157.938C719.682 158.246 719.175 158.685 718.752 159.256C718.342 159.827 718.051 160.5 717.879 161.276L715.569 172.18H710.69ZM735.176 172.385C734.412 172.385 733.761 172.111 733.225 171.563C732.689 171.004 732.42 170.331 732.42 169.544C732.42 168.768 732.689 168.106 733.225 167.558C733.761 166.999 734.412 166.719 735.176 166.719C735.941 166.719 736.591 166.999 737.128 167.558C737.664 168.106 737.932 168.768 737.932 169.544C737.932 170.331 737.664 171.004 737.128 171.563C736.591 172.111 735.941 172.385 735.176 172.385Z" fill="black"/>
</g>
<g filter="url(#filter0_d_2238_741)">
<circle cx="108.523" cy="115.226" r="60.8489" fill="url(#paint0_linear_2238_741)"/>
<circle cx="108.523" cy="115.226" r="60.8489" fill="url(#paint1_linear_2238_741)"/>
<circle cx="108.523" cy="115.226" r="60.8489" fill="url(#paint2_linear_2238_741)"/>
</g>
<path d="M146.67 106.086C146.67 118.943 128.626 120.425 128.626 124.95C128.626 128.395 133.861 129.997 133.861 136.205C133.861 143.374 124.978 148.18 111.653 148.18C87.5024 148.18 71.0449 135.604 71.0449 116.9C71.0449 97.5155 88.3749 84.5391 113.953 84.5391C133.464 84.5391 146.67 93.1099 146.67 106.086ZM102.731 127.514C102.731 132.119 106.458 135.924 111.019 135.924C115.619 135.924 119.386 132.119 119.386 127.514C119.386 122.908 115.619 119.103 111.019 119.103C106.458 119.103 102.731 122.908 102.731 127.514ZM80.5229 115.538C80.5229 118.542 82.9816 121.025 85.9162 121.025C88.8904 121.025 91.3095 118.542 91.3095 115.538C91.3095 112.535 88.9301 110.091 85.9162 110.091C83.1005 110.091 80.5229 112.655 80.5229 115.538ZM91.3888 103.002C91.3888 106.727 94.363 109.651 98.0511 109.651C101.66 109.651 104.594 106.727 104.594 103.002C104.594 99.3178 101.66 96.3941 98.0511 96.3941C94.363 96.3941 91.3888 99.3178 91.3888 103.002ZM125.057 103.043C125.057 105.526 127.04 107.488 129.538 107.488C131.958 107.488 133.901 105.526 133.901 103.043C133.901 100.599 131.958 98.5568 129.538 98.5568C127.08 98.5568 125.057 100.599 125.057 103.043ZM109.195 99.2377C109.195 102.282 111.653 104.685 114.628 104.685C117.602 104.685 120.021 102.282 120.021 99.2377C120.021 96.2339 117.602 93.8308 114.628 93.8308C111.653 93.8308 109.195 96.2339 109.195 99.2377Z" fill="white"/>
<defs>
<filter id="filter0_d_2238_741" x="36.8295" y="48.3523" width="145.797" height="145.797" filterUnits="userSpaceOnUse" color-interpolation-filters="sRGB">
<feFlood flood-opacity="0" result="BackgroundImageFix"/>
<feColorMatrix in="SourceAlpha" type="matrix" values="0 0 0 0 0 0 0 0 0 0 0 0 0 0 0 0 0 0 127 0" result="hardAlpha"/>
<feOffset dx="1.20493" dy="6.02464"/>
<feGaussianBlur stdDeviation="6.02464"/>
<feComposite in2="hardAlpha" operator="out"/>
<feColorMatrix type="matrix" values="0 0 0 0 0 0 0 0 0 0 0 0 0 0 0 0 0 0 0.1 0"/>
<feBlend mode="normal" in2="BackgroundImageFix" result="effect1_dropShadow_2238_741"/>
<feBlend mode="normal" in="SourceGraphic" in2="effect1_dropShadow_2238_741" result="shape"/>
</filter>
<linearGradient id="paint0_linear_2238_741" x1="62.3322" y1="54.7148" x2="108.523" y2="176.075" gradientUnits="userSpaceOnUse">
<stop stop-color="#FDFDFD"/>
<stop offset="1" stop-color="#979797"/>
</linearGradient>
<linearGradient id="paint1_linear_2238_741" x1="61.1958" y1="54.377" x2="156.464" y2="213.568" gradientUnits="userSpaceOnUse">
<stop offset="0.00742078" stop-color="#FFBAB5"/>
<stop offset="1" stop-color="#FF004D"/>
</linearGradient>
<linearGradient id="paint2_linear_2238_741" x1="136.714" y1="182.679" x2="58.9063" y2="54.4641" gradientUnits="userSpaceOnUse">
<stop stop-color="#FF8C00"/>
<stop offset="1" stop-color="#FFE958"/>
</linearGradient>
</defs>
</svg>
