<svg width="940" height="227" viewBox="0 0 940 227" fill="none" xmlns="http://www.w3.org/2000/svg">
<mask id="path-1-inside-1_2165_4789" fill="white">
<path d="M0 80.8453C0 52.5468 0 38.3975 5.50726 27.5889C10.3516 18.0814 18.0814 10.3516 27.5889 5.50726C38.3975 0 52.5468 0 80.8453 0H858.491C886.79 0 900.939 0 911.747 5.50726C921.255 10.3516 928.985 18.0814 933.829 27.5889C939.336 38.3975 939.336 52.5468 939.336 80.8453V145.552C939.336 173.85 939.336 187.999 933.829 198.808C928.985 208.316 921.255 216.045 911.747 220.89C900.939 226.397 886.79 226.397 858.491 226.397H80.8453C52.5468 226.397 38.3975 226.397 27.5889 220.89C18.0814 216.045 10.3516 208.316 5.50726 198.808C0 187.999 0 173.85 0 145.552V80.8453Z"/>
</mask>
<path d="M0 80.8453C0 52.5468 0 38.3975 5.50726 27.5889C10.3516 18.0814 18.0814 10.3516 27.5889 5.50726C38.3975 0 52.5468 0 80.8453 0H858.491C886.79 0 900.939 0 911.747 5.50726C921.255 10.3516 928.985 18.0814 933.829 27.5889C939.336 38.3975 939.336 52.5468 939.336 80.8453V145.552C939.336 173.85 939.336 187.999 933.829 198.808C928.985 208.316 921.255 216.045 911.747 220.89C900.939 226.397 886.79 226.397 858.491 226.397H80.8453C52.5468 226.397 38.3975 226.397 27.5889 220.89C18.0814 216.045 10.3516 208.316 5.50726 198.808C0 187.999 0 173.85 0 145.552V80.8453Z" fill="#FCFCFC"/>
<path d="M0 0H939.336H0ZM943.379 175.869C943.379 205.449 919.399 229.429 889.819 229.429H53.56C23.9796 229.429 0 205.449 0 175.869V175.869C0 202.1 22.6223 223.365 50.5283 223.365H888.808C914.482 223.365 935.294 202.1 935.294 175.869L943.379 175.869ZM0 226.397V0V226.397ZM888.808 0C918.947 0 943.379 24.4321 943.379 54.5706V175.869C943.379 205.449 919.399 229.429 889.819 229.429L888.808 223.365C914.482 223.365 935.294 202.1 935.294 175.869V50.5283C935.294 22.6223 914.482 0 888.808 0Z" fill="white" style="mix-blend-mode:overlay" mask="url(#path-1-inside-1_2165_4789)"/>
<g opacity="0.8">
<path d="M224.793 81.8086V60.7638H217.378V57.0389H236.603V60.7638H229.205V81.8086H224.793ZM239.684 81.8086V57.0389H243.958V66.6687H244.044C244.524 65.5701 245.24 64.7233 246.189 64.1282C247.151 63.5331 248.307 63.2356 249.657 63.2356C250.973 63.2356 252.112 63.5389 253.073 64.1454C254.034 64.7404 254.778 65.5815 255.304 66.6687C255.831 67.7444 256.094 69.0146 256.094 70.4794V81.8086H251.82V71.3205C251.82 69.9244 251.482 68.8315 250.807 68.0419C250.132 67.2409 249.182 66.8403 247.958 66.8403C247.156 66.8403 246.453 67.0349 245.846 67.424C245.251 67.8016 244.788 68.328 244.456 69.0032C244.124 69.6669 243.958 70.4394 243.958 71.3205V81.8086H239.684ZM267.895 82.1691C266.075 82.1691 264.508 81.7857 263.192 81.019C261.887 80.2523 260.886 79.1651 260.188 77.7576C259.489 76.35 259.14 74.6849 259.14 72.7624V72.7452C259.14 70.8342 259.489 69.1691 260.188 67.7501C260.897 66.3197 261.887 65.2096 263.157 64.42C264.439 63.6304 265.949 63.2356 267.689 63.2356C269.417 63.2356 270.91 63.619 272.169 64.3857C273.439 65.141 274.412 66.2052 275.087 67.5785C275.774 68.9517 276.117 70.5538 276.117 72.3848V73.758H261.252V70.9085H274.074L272.015 73.5692V71.9213C272.015 70.7312 271.831 69.7413 271.465 68.9517C271.099 68.1621 270.596 67.5727 269.955 67.1836C269.314 66.7831 268.576 66.5829 267.74 66.5829C266.894 66.5829 266.138 66.7888 265.475 67.2008C264.822 67.6013 264.307 68.2021 263.93 69.0032C263.563 69.8042 263.38 70.7769 263.38 71.9213V73.5692C263.38 74.6792 263.563 75.629 263.93 76.4186C264.307 77.1968 264.839 77.7976 265.526 78.221C266.213 78.633 267.031 78.839 267.981 78.839C268.69 78.839 269.314 78.7303 269.852 78.5128C270.39 78.284 270.83 77.9921 271.173 77.6374C271.528 77.2826 271.774 76.8993 271.912 76.4873L271.946 76.3672H275.928L275.894 76.556C275.745 77.254 275.471 77.9406 275.07 78.6158C274.669 79.2796 274.132 79.8803 273.456 80.4182C272.781 80.956 271.98 81.3852 271.053 81.7056C270.126 82.0146 269.074 82.1691 267.895 82.1691ZM294.621 82.1691C292.801 82.1691 291.233 81.7857 289.917 81.019C288.613 80.2523 287.612 79.1651 286.913 77.7576C286.215 76.35 285.866 74.6849 285.866 72.7624V72.7452C285.866 70.8342 286.215 69.1691 286.913 67.7501C287.623 66.3197 288.613 65.2096 289.883 64.42C291.165 63.6304 292.675 63.2356 294.415 63.2356C296.143 63.2356 297.636 63.619 298.895 64.3857C300.165 65.141 301.138 66.2052 301.813 67.5785C302.5 68.9517 302.843 70.5538 302.843 72.3848V73.758H287.978V70.9085H300.8L298.74 73.5692V71.9213C298.74 70.7312 298.557 69.7413 298.191 68.9517C297.825 68.1621 297.321 67.5727 296.681 67.1836C296.04 66.7831 295.302 66.5829 294.466 66.5829C293.619 66.5829 292.864 66.7888 292.2 67.2008C291.548 67.6013 291.033 68.2021 290.656 69.0032C290.289 69.8042 290.106 70.7769 290.106 71.9213V73.5692C290.106 74.6792 290.289 75.629 290.656 76.4186C291.033 77.1968 291.565 77.7976 292.252 78.221C292.939 78.633 293.757 78.839 294.707 78.839C295.416 78.839 296.04 78.7303 296.578 78.5128C297.115 78.284 297.556 77.9921 297.899 77.6374C298.254 77.2826 298.5 76.8993 298.637 76.4873L298.672 76.3672H302.654L302.62 76.556C302.471 77.254 302.196 77.9406 301.796 78.6158C301.395 79.2796 300.857 79.8803 300.182 80.4182C299.507 80.956 298.706 81.3852 297.779 81.7056C296.852 82.0146 295.799 82.1691 294.621 82.1691ZM304.327 81.8086L310.215 72.7281L304.396 63.6132H309.202L312.859 69.9988H312.944L316.584 63.6132H321.253L315.399 72.6079L321.184 81.8086H316.532L312.738 75.2857H312.653L308.893 81.8086H304.327ZM330.53 82.1691C328.642 82.1691 327.234 81.7571 326.307 80.9332C325.392 80.1092 324.934 78.7589 324.934 76.8821V66.909H322.359V63.6132H324.934V58.9957H329.277V63.6132H332.659V66.909H329.277V76.5388C329.277 77.42 329.472 78.0322 329.861 78.3755C330.261 78.7074 330.845 78.8733 331.612 78.8733C331.829 78.8733 332.018 78.8676 332.178 78.8561C332.35 78.8333 332.51 78.8161 332.659 78.8046V82.0146C332.407 82.0489 332.098 82.0832 331.732 82.1176C331.377 82.1519 330.976 82.1691 330.53 82.1691ZM343.601 82.1691C341.782 82.1691 340.214 81.7857 338.898 81.019C337.593 80.2523 336.592 79.1651 335.894 77.7576C335.196 76.35 334.847 74.6849 334.847 72.7624V72.7452C334.847 70.8342 335.196 69.1691 335.894 67.7501C336.603 66.3197 337.593 65.2096 338.864 64.42C340.145 63.6304 341.656 63.2356 343.395 63.2356C345.123 63.2356 346.617 63.619 347.875 64.3857C349.146 65.141 350.118 66.2052 350.794 67.5785C351.48 68.9517 351.823 70.5538 351.823 72.3848V73.758H336.958V70.9085H349.781L347.721 73.5692V71.9213C347.721 70.7312 347.538 69.7413 347.172 68.9517C346.805 68.1621 346.302 67.5727 345.661 67.1836C345.02 66.7831 344.282 66.5829 343.447 66.5829C342.6 66.5829 341.845 66.7888 341.181 67.2008C340.529 67.6013 340.014 68.2021 339.636 69.0032C339.27 69.8042 339.087 70.7769 339.087 71.9213V73.5692C339.087 74.6792 339.27 75.629 339.636 76.4186C340.014 77.1968 340.546 77.7976 341.232 78.221C341.919 78.633 342.737 78.839 343.687 78.839C344.397 78.839 345.02 78.7303 345.558 78.5128C346.096 78.284 346.537 77.9921 346.88 77.6374C347.235 77.2826 347.481 76.8993 347.618 76.4873L347.652 76.3672H351.635L351.6 76.556C351.452 77.254 351.177 77.9406 350.776 78.6158C350.376 79.2796 349.838 79.8803 349.163 80.4182C348.488 80.956 347.687 81.3852 346.76 81.7056C345.833 82.0146 344.78 82.1691 343.601 82.1691ZM354.904 81.8086V63.6132H359.161V66.4627H359.264C359.734 65.4785 360.432 64.6947 361.359 64.111C362.297 63.5274 363.453 63.2356 364.826 63.2356C366.829 63.2356 368.373 63.8421 369.461 65.0551C370.559 66.2682 371.109 67.9275 371.109 70.0331V81.8086H366.834V70.8914C366.834 69.5982 366.531 68.6027 365.925 67.9046C365.318 67.1951 364.408 66.8403 363.195 66.8403C362.383 66.8403 361.673 67.0292 361.067 67.4068C360.46 67.773 359.991 68.288 359.659 68.9517C359.327 69.604 359.161 70.3707 359.161 71.2519V81.8086H354.904ZM381.639 82.1691C379.751 82.1691 378.343 81.7571 377.416 80.9332C376.501 80.1092 376.043 78.7589 376.043 76.8821V66.909H373.468V63.6132H376.043V58.9957H380.386V63.6132H383.768V66.909H380.386V76.5388C380.386 77.42 380.581 78.0322 380.97 78.3755C381.37 78.7074 381.954 78.8733 382.721 78.8733C382.938 78.8733 383.127 78.8676 383.287 78.8561C383.459 78.8333 383.619 78.8161 383.768 78.8046V82.0146C383.516 82.0489 383.207 82.0832 382.841 82.1176C382.486 82.1519 382.085 82.1691 381.639 82.1691ZM401.224 82.1691C399.336 82.1691 397.928 81.7571 397.002 80.9332C396.086 80.1092 395.628 78.7589 395.628 76.8821V66.909H393.053V63.6132H395.628V58.9957H399.971V63.6132H403.353V66.909H399.971V76.5388C399.971 77.42 400.166 78.0322 400.555 78.3755C400.955 78.7074 401.539 78.8733 402.306 78.8733C402.523 78.8733 402.712 78.8676 402.872 78.8561C403.044 78.8333 403.204 78.8161 403.353 78.8046V82.0146C403.101 82.0489 402.792 82.0832 402.426 82.1176C402.071 82.1519 401.671 82.1691 401.224 82.1691ZM414.347 82.1691C412.562 82.1691 411.011 81.7914 409.695 81.0361C408.379 80.2694 407.355 79.1823 406.622 77.7747C405.901 76.3557 405.541 74.6678 405.541 72.7109V72.6766C405.541 70.7312 405.907 69.0547 406.64 67.6471C407.372 66.2281 408.396 65.141 409.712 64.3857C411.028 63.619 412.567 63.2356 414.33 63.2356C416.103 63.2356 417.648 63.619 418.964 64.3857C420.292 65.141 421.322 66.2224 422.054 67.6299C422.787 69.0375 423.153 70.7197 423.153 72.6766V72.7109C423.153 74.6792 422.787 76.3729 422.054 77.7919C421.333 79.1994 420.315 80.2809 418.999 81.0361C417.683 81.7914 416.132 82.1691 414.347 82.1691ZM414.364 78.7188C415.268 78.7188 416.052 78.4842 416.716 78.015C417.379 77.5458 417.889 76.8649 418.243 75.9723C418.61 75.0683 418.793 73.9812 418.793 72.7109V72.6766C418.793 71.4178 418.61 70.3421 418.243 69.4495C417.877 68.5569 417.357 67.876 416.681 67.4068C416.018 66.9376 415.234 66.703 414.33 66.703C413.449 66.703 412.67 66.9376 411.995 67.4068C411.331 67.876 410.811 68.5569 410.433 69.4495C410.067 70.3421 409.884 71.4178 409.884 72.6766V72.7109C409.884 73.9812 410.067 75.0683 410.433 75.9723C410.811 76.8649 411.331 77.5458 411.995 78.015C412.67 78.4842 413.46 78.7188 414.364 78.7188ZM437.245 81.8086L432.301 63.6132H436.593L439.665 77.5859H439.751L443.304 63.6132H447.39L450.96 77.5859H451.046L454.118 63.6132H458.341L453.432 81.8086H448.935L445.347 68.5054H445.261L441.691 81.8086H437.245ZM460.959 81.8086V57.0389H465.233V66.6687H465.319C465.799 65.5701 466.514 64.7233 467.464 64.1282C468.426 63.5331 469.581 63.2356 470.932 63.2356C472.248 63.2356 473.386 63.5389 474.348 64.1454C475.309 64.7404 476.053 65.5815 476.579 66.6687C477.106 67.7444 477.369 69.0146 477.369 70.4794V81.8086H473.095V71.3205C473.095 69.9244 472.757 68.8315 472.082 68.0419C471.407 67.2409 470.457 66.8403 469.232 66.8403C468.431 66.8403 467.727 67.0349 467.121 67.424C466.526 67.8016 466.062 68.328 465.731 69.0032C465.399 69.6669 465.233 70.4394 465.233 71.3205V81.8086H460.959ZM481.291 81.8086V63.6132H485.565V81.8086H481.291ZM483.419 61.0041C482.755 61.0041 482.195 60.7752 481.737 60.3175C481.279 59.8597 481.05 59.3104 481.05 58.6696C481.05 58.0173 481.279 57.468 481.737 57.0217C482.195 56.564 482.755 56.3351 483.419 56.3351C484.094 56.3351 484.661 56.564 485.119 57.0217C485.576 57.468 485.805 58.0173 485.805 58.6696C485.805 59.3104 485.576 59.8597 485.119 60.3175C484.661 60.7752 484.094 61.0041 483.419 61.0041ZM497.589 82.1691C495.792 82.1691 494.236 81.7857 492.92 81.019C491.604 80.2523 490.585 79.1594 489.864 77.7404C489.155 76.3214 488.8 74.6392 488.8 72.6937V72.6766C488.8 70.7426 489.161 69.0718 489.882 67.6643C490.603 66.2453 491.615 65.1524 492.92 64.3857C494.236 63.619 495.775 63.2356 497.537 63.2356C499.14 63.2356 500.524 63.5446 501.691 64.1625C502.859 64.769 503.774 65.5758 504.438 66.5829C505.102 67.5899 505.479 68.6999 505.571 69.9129V70.0331H501.554L501.52 69.8958C501.348 69.0146 500.93 68.2651 500.267 67.6471C499.614 67.0177 498.722 66.703 497.589 66.703C496.696 66.703 495.912 66.9491 495.237 67.4411C494.573 67.9218 494.059 68.6084 493.692 69.501C493.326 70.3936 493.143 71.4636 493.143 72.7109V72.7281C493.143 73.9869 493.326 75.0626 493.692 75.9552C494.07 76.8478 494.591 77.5344 495.254 78.015C495.93 78.4842 496.713 78.7188 497.606 78.7188C498.693 78.7188 499.569 78.427 500.232 77.8434C500.908 77.2483 501.342 76.4759 501.537 75.526L501.571 75.3716H505.605L505.588 75.4917C505.474 76.7505 505.073 77.8834 504.386 78.8905C503.7 79.8975 502.779 80.6986 501.623 81.2936C500.467 81.8773 499.122 82.1691 497.589 82.1691ZM508.635 81.8086V57.0389H512.909V66.6687H512.995C513.475 65.5701 514.19 64.7233 515.14 64.1282C516.101 63.5331 517.257 63.2356 518.608 63.2356C519.924 63.2356 521.062 63.5389 522.024 64.1454C522.985 64.7404 523.729 65.5815 524.255 66.6687C524.781 67.7444 525.045 69.0146 525.045 70.4794V81.8086H520.77V71.3205C520.77 69.9244 520.433 68.8315 519.758 68.0419C519.083 67.2409 518.133 66.8403 516.908 66.8403C516.107 66.8403 515.403 67.0349 514.797 67.424C514.202 67.8016 513.738 68.328 513.407 69.0032C513.075 69.6669 512.909 70.4394 512.909 71.3205V81.8086H508.635ZM542.467 82.1691C541.128 82.1691 539.989 81.9001 539.051 81.3623C538.124 80.813 537.415 80.0291 536.922 79.0106C536.43 77.9921 536.184 76.7848 536.184 75.3887V63.6132H540.441V74.5305C540.441 75.8236 540.745 76.8249 541.351 77.5344C541.958 78.2325 542.873 78.5815 544.098 78.5815C544.704 78.5815 545.253 78.4785 545.745 78.2725C546.249 78.0551 546.678 77.7518 547.033 77.3627C547.388 76.9737 547.657 76.5102 547.84 75.9723C548.023 75.4231 548.114 74.8165 548.114 74.1528V63.6132H552.389V81.8086H548.114V78.9591H548.028C547.708 79.6 547.29 80.1664 546.775 80.6585C546.26 81.1391 545.642 81.5111 544.922 81.7743C544.201 82.0375 543.382 82.1691 542.467 82.1691ZM563.365 82.1691C561.775 82.1691 560.413 81.9345 559.28 81.4653C558.159 80.9961 557.277 80.3381 556.637 79.4913C556.007 78.633 555.624 77.6431 555.487 76.5216L555.469 76.3672H559.675L559.709 76.5216C559.869 77.3113 560.247 77.9235 560.842 78.3583C561.449 78.7932 562.296 79.0106 563.383 79.0106C564.081 79.0106 564.676 78.9248 565.168 78.7531C565.66 78.5815 566.038 78.3297 566.301 77.9979C566.575 77.666 566.713 77.2769 566.713 76.8306V76.8135C566.713 76.2756 566.53 75.8407 566.163 75.5089C565.797 75.1656 565.139 74.8852 564.189 74.6678L561.168 73.9983C560.012 73.7351 559.046 73.3746 558.267 72.9169C557.489 72.4592 556.906 71.8927 556.516 71.2175C556.127 70.5309 555.933 69.7356 555.933 68.8315V68.8144C555.933 67.7043 556.236 66.7316 556.843 65.8962C557.449 65.0609 558.302 64.4086 559.4 63.9394C560.499 63.4702 561.775 63.2356 563.228 63.2356C564.739 63.2356 566.032 63.4874 567.108 63.9909C568.183 64.4944 569.013 65.1696 569.597 66.0164C570.192 66.8632 570.512 67.813 570.558 68.8659L570.575 69.0547H566.593L566.575 68.9174C566.484 68.185 566.152 67.5842 565.58 67.115C565.008 66.6344 564.224 66.394 563.228 66.394C562.599 66.394 562.049 66.4856 561.58 66.6687C561.123 66.8518 560.768 67.1093 560.516 67.4411C560.276 67.773 560.156 68.1621 560.156 68.6084V68.6255C560.156 68.9689 560.241 69.2778 560.413 69.5525C560.585 69.8271 560.859 70.0674 561.237 70.2734C561.615 70.468 562.118 70.6396 562.748 70.7884L565.769 71.4578C567.657 71.8813 569.001 72.4878 569.803 73.2774C570.604 74.0555 571.004 75.1026 571.004 76.4186V76.4358C571.004 77.5802 570.678 78.5872 570.026 79.4569C569.373 80.3152 568.469 80.9847 567.314 81.4653C566.169 81.9345 564.853 82.1691 563.365 82.1691ZM582.084 82.1691C580.265 82.1691 578.697 81.7857 577.381 81.019C576.076 80.2523 575.075 79.1651 574.377 77.7576C573.679 76.35 573.33 74.6849 573.33 72.7624V72.7452C573.33 70.8342 573.679 69.1691 574.377 67.7501C575.086 66.3197 576.076 65.2096 577.346 64.42C578.628 63.6304 580.139 63.2356 581.878 63.2356C583.606 63.2356 585.099 63.619 586.358 64.3857C587.628 65.141 588.601 66.2052 589.276 67.5785C589.963 68.9517 590.306 70.5538 590.306 72.3848V73.758H575.441V70.9085H588.264L586.204 73.5692V71.9213C586.204 70.7312 586.021 69.7413 585.654 68.9517C585.288 68.1621 584.785 67.5727 584.144 67.1836C583.503 66.7831 582.765 66.5829 581.93 66.5829C581.083 66.5829 580.327 66.7888 579.664 67.2008C579.011 67.6013 578.496 68.2021 578.119 69.0032C577.753 69.8042 577.57 70.7769 577.57 71.9213V73.5692C577.57 74.6792 577.753 75.629 578.119 76.4186C578.496 77.1968 579.029 77.7976 579.715 78.221C580.402 78.633 581.22 78.839 582.17 78.839C582.879 78.839 583.503 78.7303 584.041 78.5128C584.579 78.284 585.019 77.9921 585.363 77.6374C585.717 77.2826 585.963 76.8993 586.101 76.4873L586.135 76.3672H590.117L590.083 76.556C589.934 77.254 589.66 77.9406 589.259 78.6158C588.859 79.2796 588.321 79.8803 587.646 80.4182C586.97 80.956 586.169 81.3852 585.242 81.7056C584.316 82.0146 583.263 82.1691 582.084 82.1691ZM593.387 81.8086V63.6132H597.644V66.7545H597.747C598.022 65.6559 598.52 64.7977 599.241 64.1797C599.973 63.5503 600.866 63.2356 601.918 63.2356C602.182 63.2356 602.433 63.2528 602.674 63.2871C602.914 63.3214 603.114 63.3615 603.274 63.4073V67.2695C603.103 67.2008 602.857 67.1436 602.536 67.0978C602.227 67.052 601.89 67.0292 601.524 67.0292C600.722 67.0292 600.03 67.1951 599.447 67.527C598.863 67.8474 598.417 68.3223 598.108 68.9517C597.799 69.5811 597.644 70.3478 597.644 71.2519V81.8086H593.387ZM612.93 82.1691C611.339 82.1691 609.977 81.9345 608.844 81.4653C607.723 80.9961 606.842 80.3381 606.201 79.4913C605.571 78.633 605.188 77.6431 605.051 76.5216L605.034 76.3672H609.239L609.273 76.5216C609.434 77.3113 609.811 77.9235 610.406 78.3583C611.013 78.7932 611.86 79.0106 612.947 79.0106C613.645 79.0106 614.24 78.9248 614.732 78.7531C615.224 78.5815 615.602 78.3297 615.865 77.9979C616.14 77.666 616.277 77.2769 616.277 76.8306V76.8135C616.277 76.2756 616.094 75.8407 615.728 75.5089C615.361 75.1656 614.703 74.8852 613.754 74.6678L610.732 73.9983C609.577 73.7351 608.61 73.3746 607.831 72.9169C607.053 72.4592 606.47 71.8927 606.081 71.2175C605.692 70.5309 605.497 69.7356 605.497 68.8315V68.8144C605.497 67.7043 605.8 66.7316 606.407 65.8962C607.013 65.0609 607.866 64.4086 608.964 63.9394C610.063 63.4702 611.339 63.2356 612.792 63.2356C614.303 63.2356 615.596 63.4874 616.672 63.9909C617.747 64.4944 618.577 65.1696 619.161 66.0164C619.756 66.8632 620.076 67.813 620.122 68.8659L620.139 69.0547H616.157L616.14 68.9174C616.048 68.185 615.716 67.5842 615.144 67.115C614.572 66.6344 613.788 66.394 612.792 66.394C612.163 66.394 611.614 66.4856 611.144 66.6687C610.687 66.8518 610.332 67.1093 610.08 67.4411C609.84 67.773 609.72 68.1621 609.72 68.6084V68.6255C609.72 68.9689 609.806 69.2778 609.977 69.5525C610.149 69.8271 610.423 70.0674 610.801 70.2734C611.179 70.468 611.682 70.6396 612.312 70.7884L615.333 71.4578C617.221 71.8813 618.566 72.4878 619.367 73.2774C620.168 74.0555 620.568 75.1026 620.568 76.4186V76.4358C620.568 77.5802 620.242 78.5872 619.59 79.4569C618.938 80.3152 618.033 80.9847 616.878 81.4653C615.733 81.9345 614.417 82.1691 612.93 82.1691ZM636.446 82.1176C635.244 82.1176 634.18 81.8887 633.253 81.431C632.337 80.9618 631.622 80.3152 631.107 79.4913C630.604 78.6559 630.352 77.7003 630.352 76.6246V76.5903C630.352 75.5032 630.621 74.5762 631.159 73.8095C631.708 73.0313 632.498 72.4191 633.527 71.9728C634.557 71.5151 635.805 71.2404 637.27 71.1489L644.222 70.7197V73.552L637.87 73.9468C636.818 74.0155 636.011 74.2672 635.45 74.7021C634.889 75.137 634.609 75.7149 634.609 76.4358V76.453C634.609 77.1968 634.889 77.7862 635.45 78.221C636.022 78.6444 636.777 78.8561 637.716 78.8561C638.54 78.8561 639.272 78.6902 639.913 78.3583C640.565 78.0265 641.08 77.5745 641.458 77.0023C641.836 76.4301 642.024 75.7835 642.024 75.0626V69.604C642.024 68.6885 641.733 67.9675 641.149 67.4411C640.577 66.9033 639.747 66.6344 638.66 66.6344C637.653 66.6344 636.846 66.8518 636.24 67.2866C635.633 67.7101 635.255 68.2593 635.107 68.9345L635.072 69.089H631.124L631.141 68.883C631.233 67.8073 631.593 66.8461 632.223 65.9992C632.852 65.141 633.722 64.4658 634.832 63.9737C635.954 63.4816 637.281 63.2356 638.814 63.2356C640.336 63.2356 641.652 63.4874 642.762 63.9909C643.884 64.4944 644.748 65.1982 645.354 66.1022C645.972 67.0063 646.281 68.0705 646.281 69.295V81.8086H642.024V79.0106H641.921C641.578 79.64 641.132 80.1893 640.582 80.6585C640.033 81.1277 639.404 81.4882 638.694 81.7399C637.996 81.9917 637.247 82.1176 636.446 82.1176ZM650.1 81.8086V63.6132H654.357V66.7545H654.46C654.735 65.6559 655.233 64.7977 655.954 64.1797C656.686 63.5503 657.579 63.2356 658.632 63.2356C658.895 63.2356 659.147 63.2528 659.387 63.2871C659.627 63.3214 659.827 63.3615 659.988 63.4073V67.2695C659.816 67.2008 659.57 67.1436 659.25 67.0978C658.941 67.052 658.603 67.0292 658.237 67.0292C657.436 67.0292 656.743 67.1951 656.16 67.527C655.576 67.8474 655.13 68.3223 654.821 68.9517C654.512 69.5811 654.357 70.3478 654.357 71.2519V81.8086H650.1ZM669.849 82.1691C668.029 82.1691 666.461 81.7857 665.145 81.019C663.841 80.2523 662.84 79.1651 662.142 77.7576C661.443 76.35 661.094 74.6849 661.094 72.7624V72.7452C661.094 70.8342 661.443 69.1691 662.142 67.7501C662.851 66.3197 663.841 65.2096 665.111 64.42C666.393 63.6304 667.903 63.2356 669.643 63.2356C671.371 63.2356 672.864 63.619 674.123 64.3857C675.393 65.141 676.366 66.2052 677.041 67.5785C677.728 68.9517 678.071 70.5538 678.071 72.3848V73.758H663.206V70.9085H676.028L673.969 73.5692V71.9213C673.969 70.7312 673.785 69.7413 673.419 68.9517C673.053 68.1621 672.55 67.5727 671.909 67.1836C671.268 66.7831 670.53 66.5829 669.694 66.5829C668.847 66.5829 668.092 66.7888 667.428 67.2008C666.776 67.6013 666.261 68.2021 665.884 69.0032C665.517 69.8042 665.334 70.7769 665.334 71.9213V73.5692C665.334 74.6792 665.517 75.629 665.884 76.4186C666.261 77.1968 666.793 77.7976 667.48 78.221C668.167 78.633 668.985 78.839 669.935 78.839C670.644 78.839 671.268 78.7303 671.806 78.5128C672.344 78.284 672.784 77.9921 673.127 77.6374C673.482 77.2826 673.728 76.8993 673.866 76.4873L673.9 76.3672H677.882L677.848 76.556C677.699 77.254 677.424 77.9406 677.024 78.6158C676.623 79.2796 676.086 79.8803 675.41 80.4182C674.735 80.956 673.934 81.3852 673.007 81.7056C672.08 82.0146 671.028 82.1691 669.849 82.1691ZM696.609 82.1691C694.812 82.1691 693.256 81.7857 691.94 81.019C690.624 80.2523 689.606 79.1594 688.885 77.7404C688.175 76.3214 687.82 74.6392 687.82 72.6937V72.6766C687.82 70.7426 688.181 69.0718 688.902 67.6643C689.623 66.2453 690.635 65.1524 691.94 64.3857C693.256 63.619 694.795 63.2356 696.558 63.2356C698.16 63.2356 699.544 63.5446 700.712 64.1625C701.879 64.769 702.794 65.5758 703.458 66.5829C704.122 67.5899 704.499 68.6999 704.591 69.9129V70.0331H700.574L700.54 69.8958C700.368 69.0146 699.951 68.2651 699.287 67.6471C698.635 67.0177 697.742 66.703 696.609 66.703C695.716 66.703 694.933 66.9491 694.257 67.4411C693.594 67.9218 693.079 68.6084 692.712 69.501C692.346 70.3936 692.163 71.4636 692.163 72.7109V72.7281C692.163 73.9869 692.346 75.0626 692.712 75.9552C693.09 76.8478 693.611 77.5344 694.275 78.015C694.95 78.4842 695.734 78.7188 696.626 78.7188C697.713 78.7188 698.589 78.427 699.253 77.8434C699.928 77.2483 700.363 76.4759 700.557 75.526L700.591 75.3716H704.625L704.608 75.4917C704.494 76.7505 704.093 77.8834 703.407 78.8905C702.72 79.8975 701.799 80.6986 700.643 81.2936C699.487 81.8773 698.142 82.1691 696.609 82.1691ZM715.585 82.1691C713.8 82.1691 712.249 81.7914 710.933 81.0361C709.617 80.2694 708.593 79.1823 707.861 77.7747C707.14 76.3557 706.779 74.6678 706.779 72.7109V72.6766C706.779 70.7312 707.145 69.0547 707.878 67.6471C708.61 66.2281 709.634 65.141 710.95 64.3857C712.266 63.619 713.806 63.2356 715.568 63.2356C717.342 63.2356 718.887 63.619 720.203 64.3857C721.53 65.141 722.56 66.2224 723.292 67.6299C724.025 69.0375 724.391 70.7197 724.391 72.6766V72.7109C724.391 74.6792 724.025 76.3729 723.292 77.7919C722.571 79.1994 721.553 80.2809 720.237 81.0361C718.921 81.7914 717.37 82.1691 715.585 82.1691ZM715.602 78.7188C716.506 78.7188 717.29 78.4842 717.954 78.015C718.618 77.5458 719.127 76.8649 719.482 75.9723C719.848 75.0683 720.031 73.9812 720.031 72.7109V72.6766C720.031 71.4178 719.848 70.3421 719.482 69.4495C719.115 68.5569 718.595 67.876 717.92 67.4068C717.256 66.9376 716.472 66.703 715.568 66.703C714.687 66.703 713.909 66.9376 713.233 67.4068C712.57 67.876 712.049 68.5569 711.671 69.4495C711.305 70.3421 711.122 71.4178 711.122 72.6766V72.7109C711.122 73.9812 711.305 75.0683 711.671 75.9723C712.049 76.8649 712.57 77.5458 713.233 78.015C713.909 78.4842 714.698 78.7188 715.602 78.7188ZM727.489 81.8086V63.6132H731.746V66.5314H731.849C732.227 65.5358 732.862 64.7404 733.754 64.1454C734.647 63.5389 735.694 63.2356 736.896 63.2356C737.742 63.2356 738.503 63.3844 739.179 63.6819C739.854 63.968 740.426 64.3857 740.895 64.935C741.376 65.4728 741.725 66.1308 741.942 66.909H742.028C742.326 66.1537 742.749 65.5072 743.298 64.9693C743.859 64.42 744.511 63.9966 745.255 63.6991C746.01 63.3901 746.823 63.2356 747.693 63.2356C748.894 63.2356 749.936 63.4931 750.817 64.008C751.709 64.5116 752.402 65.2211 752.894 66.1366C753.397 67.0406 753.649 68.1049 753.649 69.3293V81.8086H749.375V70.3764C749.375 69.6211 749.249 68.9803 748.997 68.4539C748.745 67.9275 748.379 67.527 747.899 67.2523C747.418 66.9777 746.823 66.8403 746.113 66.8403C745.427 66.8403 744.82 67.0005 744.294 67.321C743.779 67.6299 743.373 68.0648 743.075 68.6255C742.789 69.1863 742.646 69.8328 742.646 70.5652V81.8086H738.492V70.1533C738.492 69.4666 738.36 68.8773 738.097 68.3852C737.834 67.8932 737.462 67.5155 736.981 67.2523C736.501 66.9777 735.929 66.8403 735.265 66.8403C734.578 66.8403 733.972 67.0063 733.445 67.3381C732.919 67.67 732.501 68.122 732.192 68.6942C731.895 69.2664 731.746 69.9244 731.746 70.6682V81.8086H727.489ZM758.618 81.8086V66.909H756.129V63.6132H758.618V61.8795C758.618 60.6894 758.813 59.711 759.202 58.9442C759.602 58.1775 760.215 57.6111 761.038 57.2449C761.862 56.8672 762.932 56.6784 764.248 56.6784C764.672 56.6784 765.09 56.6956 765.501 56.7299C765.925 56.7642 766.268 56.8043 766.531 56.8501V59.8368C766.348 59.814 766.142 59.7968 765.913 59.7853C765.696 59.7625 765.473 59.751 765.244 59.751C764.409 59.751 763.791 59.9398 763.39 60.3175C763.001 60.6951 762.807 61.2559 762.807 61.9997V63.6132H766.463V66.909H762.892V81.8086H758.618ZM776.238 82.1691C774.453 82.1691 772.902 81.7914 771.586 81.0361C770.27 80.2694 769.246 79.1823 768.514 77.7747C767.793 76.3557 767.432 74.6678 767.432 72.7109V72.6766C767.432 70.7312 767.798 69.0547 768.531 67.6471C769.263 66.2281 770.287 65.141 771.603 64.3857C772.919 63.619 774.459 63.2356 776.221 63.2356C777.995 63.2356 779.54 63.619 780.856 64.3857C782.183 65.141 783.213 66.2224 783.945 67.6299C784.678 69.0375 785.044 70.7197 785.044 72.6766V72.7109C785.044 74.6792 784.678 76.3729 783.945 77.7919C783.224 79.1994 782.206 80.2809 780.89 81.0361C779.574 81.7914 778.023 82.1691 776.238 82.1691ZM776.255 78.7188C777.159 78.7188 777.943 78.4842 778.607 78.015C779.271 77.5458 779.78 76.8649 780.135 75.9723C780.501 75.0683 780.684 73.9812 780.684 72.7109V72.6766C780.684 71.4178 780.501 70.3421 780.135 69.4495C779.768 68.5569 779.248 67.876 778.573 67.4068C777.909 66.9376 777.125 66.703 776.221 66.703C775.34 66.703 774.562 66.9376 773.886 67.4068C773.223 67.876 772.702 68.5569 772.324 69.4495C771.958 70.3421 771.775 71.4178 771.775 72.6766V72.7109C771.775 73.9812 771.958 75.0683 772.324 75.9723C772.702 76.8649 773.223 77.5458 773.886 78.015C774.562 78.4842 775.351 78.7188 776.255 78.7188ZM788.142 81.8086V63.6132H792.399V66.7545H792.502C792.777 65.6559 793.274 64.7977 793.995 64.1797C794.728 63.5503 795.62 63.2356 796.673 63.2356C796.936 63.2356 797.188 63.2528 797.428 63.2871C797.669 63.3214 797.869 63.3615 798.029 63.4073V67.2695C797.858 67.2008 797.612 67.1436 797.291 67.0978C796.982 67.052 796.645 67.0292 796.278 67.0292C795.477 67.0292 794.785 67.1951 794.201 67.527C793.618 67.8474 793.171 68.3223 792.862 68.9517C792.554 69.5811 792.399 70.3478 792.399 71.2519V81.8086H788.142ZM808.079 82.1691C806.191 82.1691 804.784 81.7571 803.857 80.9332C802.941 80.1092 802.483 78.7589 802.483 76.8821V66.909H799.909V63.6132H802.483V58.9957H806.826V63.6132H810.208V66.909H806.826V76.5388C806.826 77.42 807.021 78.0322 807.41 78.3755C807.81 78.7074 808.394 78.8733 809.161 78.8733C809.378 78.8733 809.567 78.8676 809.727 78.8561C809.899 78.8333 810.059 78.8161 810.208 78.8046V82.0146C809.956 82.0489 809.647 82.0832 809.281 82.1176C808.926 82.1519 808.526 82.1691 808.079 82.1691ZM818.627 82.1176C817.426 82.1176 816.361 81.8887 815.434 81.431C814.519 80.9618 813.804 80.3152 813.289 79.4913C812.785 78.6559 812.533 77.7003 812.533 76.6246V76.5903C812.533 75.5032 812.802 74.5762 813.34 73.8095C813.889 73.0313 814.679 72.4191 815.709 71.9728C816.739 71.5151 817.986 71.2404 819.451 71.1489L826.403 70.7197V73.552L820.052 73.9468C818.999 74.0155 818.192 74.2672 817.632 74.7021C817.071 75.137 816.79 75.7149 816.79 76.4358V76.453C816.79 77.1968 817.071 77.7862 817.632 78.221C818.204 78.6444 818.959 78.8561 819.897 78.8561C820.721 78.8561 821.454 78.6902 822.095 78.3583C822.747 78.0265 823.262 77.5745 823.639 77.0023C824.017 76.4301 824.206 75.7835 824.206 75.0626V69.604C824.206 68.6885 823.914 67.9675 823.33 67.4411C822.758 66.9033 821.929 66.6344 820.841 66.6344C819.834 66.6344 819.028 66.8518 818.421 67.2866C817.815 67.7101 817.437 68.2593 817.288 68.9345L817.254 69.089H813.306L813.323 68.883C813.415 67.8073 813.775 66.8461 814.404 65.9992C815.034 65.141 815.904 64.4658 817.014 63.9737C818.135 63.4816 819.463 63.2356 820.996 63.2356C822.518 63.2356 823.834 63.4874 824.944 63.9909C826.065 64.4944 826.929 65.1982 827.536 66.1022C828.154 67.0063 828.463 68.0705 828.463 69.295V81.8086H824.206V79.0106H824.103C823.76 79.64 823.313 80.1893 822.764 80.6585C822.215 81.1277 821.585 81.4882 820.876 81.7399C820.178 81.9917 819.428 82.1176 818.627 82.1176ZM842.427 82.1691C841.557 82.1691 840.756 82.0317 840.023 81.7571C839.303 81.471 838.667 81.0762 838.118 80.5727C837.569 80.0577 837.117 79.4398 836.762 78.7188H836.676V81.8086H832.402V57.0389H836.676V66.7373H836.762C837.117 66.005 837.575 65.3813 838.135 64.8663C838.696 64.3399 839.343 63.9394 840.075 63.6647C840.807 63.3786 841.603 63.2356 842.461 63.2356C843.983 63.2356 845.305 63.619 846.426 64.3857C847.548 65.141 848.417 66.2281 849.035 67.6471C849.653 69.0547 849.962 70.7369 849.962 72.6937V72.7109C849.962 74.6563 849.653 76.3385 849.035 77.7576C848.429 79.1766 847.559 80.2694 846.426 81.0361C845.305 81.7914 843.972 82.1691 842.427 82.1691ZM841.156 78.5815C842.072 78.5815 842.862 78.3469 843.525 77.8777C844.2 77.3971 844.715 76.7162 845.07 75.835C845.425 74.9539 845.602 73.9125 845.602 72.7109V72.6937C845.602 71.4807 845.419 70.4394 845.053 69.5696C844.698 68.6999 844.189 68.0305 843.525 67.5613C842.862 67.0807 842.072 66.8403 841.156 66.8403C840.275 66.8403 839.497 67.0807 838.822 67.5613C838.158 68.0419 837.632 68.7228 837.243 69.604C836.854 70.4737 836.659 71.5036 836.659 72.6937V72.7109C836.659 73.9011 836.848 74.9367 837.226 75.8179C837.615 76.699 838.147 77.3799 838.822 77.8605C839.497 78.3412 840.275 78.5815 841.156 78.5815ZM853.18 81.8086V57.0389H857.455V81.8086H853.18ZM869.444 82.1691C867.625 82.1691 866.057 81.7857 864.741 81.019C863.436 80.2523 862.435 79.1651 861.737 77.7576C861.039 76.35 860.69 74.6849 860.69 72.7624V72.7452C860.69 70.8342 861.039 69.1691 861.737 67.7501C862.447 66.3197 863.436 65.2096 864.707 64.42C865.988 63.6304 867.499 63.2356 869.238 63.2356C870.966 63.2356 872.46 63.619 873.719 64.3857C874.989 65.141 875.962 66.2052 876.637 67.5785C877.323 68.9517 877.667 70.5538 877.667 72.3848V73.758H862.801V70.9085H875.624L873.564 73.5692V71.9213C873.564 70.7312 873.381 69.7413 873.015 68.9517C872.649 68.1621 872.145 67.5727 871.504 67.1836C870.863 66.7831 870.125 66.5829 869.29 66.5829C868.443 66.5829 867.688 66.7888 867.024 67.2008C866.372 67.6013 865.857 68.2021 865.479 69.0032C865.113 69.8042 864.93 70.7769 864.93 71.9213V73.5692C864.93 74.6792 865.113 75.629 865.479 76.4186C865.857 77.1968 866.389 77.7976 867.076 78.221C867.762 78.633 868.58 78.839 869.53 78.839C870.24 78.839 870.863 78.7303 871.401 78.5128C871.939 78.284 872.38 77.9921 872.723 77.6374C873.078 77.2826 873.324 76.8993 873.461 76.4873L873.495 76.3672H877.478L877.443 76.556C877.295 77.254 877.02 77.9406 876.62 78.6158C876.219 79.2796 875.681 79.8803 875.006 80.4182C874.331 80.956 873.53 81.3852 872.603 81.7056C871.676 82.0146 870.623 82.1691 869.444 82.1691ZM225.051 126.169C223.162 126.169 221.755 125.757 220.828 124.933C219.912 124.109 219.455 122.759 219.455 120.882V110.909H216.88V107.613H219.455V102.996H223.798V107.613H227.179V110.909H223.798V120.539C223.798 121.42 223.992 122.032 224.381 122.376C224.782 122.707 225.365 122.873 226.132 122.873C226.349 122.873 226.538 122.868 226.698 122.856C226.87 122.833 227.03 122.816 227.179 122.805V126.015C226.927 126.049 226.618 126.083 226.252 126.118C225.897 126.152 225.497 126.169 225.051 126.169ZM230.466 125.809V107.613H234.723V110.755H234.826C235.101 109.656 235.598 108.798 236.319 108.18C237.052 107.55 237.944 107.236 238.997 107.236C239.26 107.236 239.512 107.253 239.752 107.287C239.993 107.321 240.193 107.361 240.353 107.407V111.269C240.182 111.201 239.936 111.144 239.615 111.098C239.306 111.052 238.969 111.029 238.602 111.029C237.801 111.029 237.109 111.195 236.525 111.527C235.942 111.847 235.495 112.322 235.186 112.952C234.877 113.581 234.723 114.348 234.723 115.252V125.809H230.466ZM247.863 126.118C246.661 126.118 245.597 125.889 244.67 125.431C243.755 124.962 243.039 124.315 242.524 123.491C242.021 122.656 241.769 121.7 241.769 120.625V120.59C241.769 119.503 242.038 118.576 242.576 117.81C243.125 117.031 243.915 116.419 244.945 115.973C245.975 115.515 247.222 115.24 248.687 115.149L255.639 114.72V117.552L249.288 117.947C248.235 118.015 247.428 118.267 246.867 118.702C246.306 119.137 246.026 119.715 246.026 120.436V120.453C246.026 121.197 246.306 121.786 246.867 122.221C247.439 122.644 248.195 122.856 249.133 122.856C249.957 122.856 250.689 122.69 251.33 122.358C251.982 122.026 252.497 121.574 252.875 121.002C253.253 120.43 253.442 119.784 253.442 119.063V113.604C253.442 112.688 253.15 111.968 252.566 111.441C251.994 110.903 251.164 110.634 250.077 110.634C249.07 110.634 248.263 110.852 247.657 111.287C247.05 111.71 246.673 112.259 246.524 112.935L246.49 113.089H242.541L242.559 112.883C242.65 111.807 243.011 110.846 243.64 109.999C244.269 109.141 245.139 108.466 246.249 107.974C247.371 107.482 248.698 107.236 250.232 107.236C251.754 107.236 253.07 107.487 254.18 107.991C255.301 108.494 256.165 109.198 256.772 110.102C257.39 111.006 257.699 112.071 257.699 113.295V125.809H253.442V123.011H253.339C252.995 123.64 252.549 124.189 252 124.659C251.45 125.128 250.821 125.488 250.111 125.74C249.413 125.992 248.664 126.118 247.863 126.118ZM268.281 126.169C266.747 126.169 265.414 125.791 264.281 125.036C263.16 124.269 262.29 123.177 261.672 121.758C261.066 120.339 260.762 118.656 260.762 116.711V116.694C260.762 114.737 261.071 113.055 261.689 111.647C262.307 110.228 263.177 109.141 264.298 108.386C265.42 107.619 266.742 107.236 268.264 107.236C269.133 107.236 269.929 107.379 270.65 107.665C271.382 107.939 272.028 108.34 272.589 108.866C273.15 109.381 273.602 110.005 273.945 110.737H274.048V101.039H278.305V125.809H274.048V122.719H273.945C273.613 123.44 273.167 124.058 272.606 124.573C272.057 125.076 271.416 125.471 270.684 125.757C269.963 126.032 269.162 126.169 268.281 126.169ZM269.568 122.581C270.449 122.581 271.227 122.341 271.903 121.861C272.578 121.38 273.104 120.699 273.482 119.818C273.859 118.937 274.048 117.901 274.048 116.711V116.694C274.048 115.504 273.854 114.474 273.465 113.604C273.087 112.723 272.561 112.042 271.885 111.561C271.222 111.081 270.449 110.84 269.568 110.84C268.653 110.84 267.857 111.081 267.182 111.561C266.518 112.03 266.003 112.7 265.637 113.57C265.282 114.439 265.105 115.481 265.105 116.694V116.711C265.105 117.912 265.282 118.954 265.637 119.835C266.003 120.716 266.518 121.397 267.182 121.878C267.857 122.347 268.653 122.581 269.568 122.581ZM282.382 125.809V107.613H286.656V125.809H282.382ZM284.51 105.004C283.847 105.004 283.286 104.775 282.828 104.317C282.37 103.86 282.141 103.31 282.141 102.67C282.141 102.017 282.37 101.468 282.828 101.022C283.286 100.564 283.847 100.335 284.51 100.335C285.185 100.335 285.752 100.564 286.21 101.022C286.667 101.468 286.896 102.017 286.896 102.67C286.896 103.31 286.667 103.86 286.21 104.317C285.752 104.775 285.185 105.004 284.51 105.004ZM290.647 125.809V107.613H294.904V110.463H295.007C295.476 109.479 296.174 108.695 297.101 108.111C298.039 107.527 299.195 107.236 300.568 107.236C302.571 107.236 304.116 107.842 305.203 109.055C306.301 110.268 306.851 111.927 306.851 114.033V125.809H302.577V114.891C302.577 113.598 302.273 112.603 301.667 111.905C301.06 111.195 300.151 110.84 298.937 110.84C298.125 110.84 297.415 111.029 296.809 111.407C296.202 111.773 295.733 112.288 295.401 112.952C295.07 113.604 294.904 114.371 294.904 115.252V125.809H290.647ZM318.84 132.177C317.238 132.177 315.837 131.954 314.635 131.508C313.445 131.073 312.495 130.472 311.785 129.705C311.076 128.938 310.635 128.08 310.464 127.13L310.429 126.976H314.618L314.686 127.113C314.915 127.64 315.384 128.074 316.094 128.418C316.815 128.772 317.725 128.95 318.823 128.95C320.219 128.95 321.289 128.607 322.033 127.92C322.777 127.233 323.149 126.312 323.149 125.156V122.53H323.063C322.731 123.182 322.285 123.743 321.724 124.212C321.175 124.681 320.528 125.048 319.785 125.311C319.052 125.574 318.251 125.706 317.381 125.706C315.859 125.706 314.532 125.334 313.399 124.59C312.278 123.846 311.408 122.793 310.79 121.431C310.183 120.058 309.88 118.427 309.88 116.539V116.522C309.88 114.6 310.189 112.952 310.807 111.578C311.436 110.194 312.318 109.124 313.451 108.369C314.583 107.613 315.917 107.236 317.45 107.236C318.308 107.236 319.098 107.384 319.819 107.682C320.54 107.968 321.169 108.369 321.707 108.883C322.256 109.398 322.703 110.005 323.046 110.703H323.149V107.613H327.423V125.294C327.423 126.667 327.074 127.868 326.376 128.898C325.678 129.94 324.688 130.747 323.406 131.319C322.125 131.891 320.603 132.177 318.84 132.177ZM318.72 122.41C319.613 122.41 320.391 122.175 321.055 121.706C321.719 121.225 322.233 120.55 322.6 119.681C322.977 118.811 323.166 117.792 323.166 116.625V116.608C323.166 115.429 322.977 114.411 322.6 113.552C322.222 112.683 321.701 112.013 321.038 111.544C320.374 111.075 319.601 110.84 318.72 110.84C317.805 110.84 317.009 111.075 316.334 111.544C315.659 112.013 315.138 112.677 314.772 113.535C314.406 114.394 314.223 115.418 314.223 116.608V116.625C314.223 117.815 314.406 118.845 314.772 119.715C315.138 120.573 315.659 121.237 316.334 121.706C317.009 122.175 317.805 122.41 318.72 122.41ZM465.292 125.809V110.909H462.804V107.613H465.292V105.88C465.292 104.689 465.487 103.711 465.876 102.944C466.277 102.178 466.889 101.611 467.713 101.245C468.537 100.867 469.607 100.678 470.923 100.678C471.346 100.678 471.764 100.696 472.176 100.73C472.599 100.764 472.943 100.804 473.206 100.85V103.837C473.023 103.814 472.817 103.797 472.588 103.785C472.37 103.762 472.147 103.751 471.918 103.751C471.083 103.751 470.465 103.94 470.064 104.317C469.675 104.695 469.481 105.256 469.481 106V107.613H473.137V110.909H469.567V125.809H465.292ZM482.912 126.169C481.127 126.169 479.577 125.791 478.261 125.036C476.945 124.269 475.92 123.182 475.188 121.775C474.467 120.356 474.107 118.668 474.107 116.711V116.677C474.107 114.731 474.473 113.055 475.205 111.647C475.938 110.228 476.962 109.141 478.278 108.386C479.594 107.619 481.133 107.236 482.895 107.236C484.669 107.236 486.214 107.619 487.53 108.386C488.857 109.141 489.887 110.222 490.62 111.63C491.352 113.038 491.718 114.72 491.718 116.677V116.711C491.718 118.679 491.352 120.373 490.62 121.792C489.899 123.199 488.88 124.281 487.564 125.036C486.248 125.791 484.698 126.169 482.912 126.169ZM482.93 122.719C483.834 122.719 484.618 122.484 485.281 122.015C485.945 121.546 486.454 120.865 486.809 119.972C487.175 119.068 487.358 117.981 487.358 116.711V116.677C487.358 115.418 487.175 114.342 486.809 113.449C486.443 112.557 485.922 111.876 485.247 111.407C484.583 110.938 483.799 110.703 482.895 110.703C482.014 110.703 481.236 110.938 480.561 111.407C479.897 111.876 479.376 112.557 478.999 113.449C478.633 114.342 478.449 115.418 478.449 116.677V116.711C478.449 117.981 478.633 119.068 478.999 119.972C479.376 120.865 479.897 121.546 480.561 122.015C481.236 122.484 482.026 122.719 482.93 122.719ZM494.816 125.809V107.613H499.073V110.755H499.176C499.451 109.656 499.949 108.798 500.67 108.18C501.402 107.55 502.295 107.236 503.348 107.236C503.611 107.236 503.863 107.253 504.103 107.287C504.343 107.321 504.543 107.361 504.704 107.407V111.269C504.532 111.201 504.286 111.144 503.966 111.098C503.657 111.052 503.319 111.029 502.953 111.029C502.152 111.029 501.459 111.195 500.876 111.527C500.292 111.847 499.846 112.322 499.537 112.952C499.228 113.581 499.073 114.348 499.073 115.252V125.809H494.816ZM521.422 126.169C519.534 126.169 518.126 125.757 517.199 124.933C516.284 124.109 515.826 122.759 515.826 120.882V110.909H513.251V107.613H515.826V102.996H520.169V107.613H523.551V110.909H520.169V120.539C520.169 121.42 520.364 122.032 520.753 122.376C521.153 122.707 521.737 122.873 522.504 122.873C522.721 122.873 522.91 122.868 523.07 122.856C523.242 122.833 523.402 122.816 523.551 122.805V126.015C523.299 126.049 522.99 126.083 522.624 126.118C522.269 126.152 521.868 126.169 521.422 126.169ZM526.958 125.809V101.039H531.232V110.669H531.318C531.798 109.57 532.513 108.723 533.463 108.128C534.425 107.533 535.58 107.236 536.931 107.236C538.247 107.236 539.385 107.539 540.347 108.145C541.308 108.74 542.052 109.582 542.578 110.669C543.105 111.744 543.368 113.015 543.368 114.479V125.809H539.094V115.321C539.094 113.924 538.756 112.832 538.081 112.042C537.406 111.241 536.456 110.84 535.231 110.84C534.43 110.84 533.726 111.035 533.12 111.424C532.525 111.802 532.061 112.328 531.73 113.003C531.398 113.667 531.232 114.439 531.232 115.321V125.809H526.958ZM555.169 126.169C553.349 126.169 551.781 125.786 550.465 125.019C549.161 124.252 548.159 123.165 547.461 121.758C546.763 120.35 546.414 118.685 546.414 116.762V116.745C546.414 114.834 546.763 113.169 547.461 111.75C548.171 110.32 549.161 109.21 550.431 108.42C551.713 107.63 553.223 107.236 554.963 107.236C556.691 107.236 558.184 107.619 559.443 108.386C560.713 109.141 561.686 110.205 562.361 111.578C563.048 112.952 563.391 114.554 563.391 116.385V117.758H548.526V114.909H561.348L559.288 117.569V115.921C559.288 114.731 559.105 113.741 558.739 112.952C558.373 112.162 557.869 111.573 557.228 111.184C556.588 110.783 555.85 110.583 555.014 110.583C554.167 110.583 553.412 110.789 552.748 111.201C552.096 111.601 551.581 112.202 551.203 113.003C550.837 113.804 550.654 114.777 550.654 115.921V117.569C550.654 118.679 550.837 119.629 551.203 120.419C551.581 121.197 552.113 121.798 552.8 122.221C553.486 122.633 554.305 122.839 555.254 122.839C555.964 122.839 556.588 122.73 557.125 122.513C557.663 122.284 558.104 121.992 558.447 121.637C558.802 121.283 559.048 120.899 559.185 120.487L559.22 120.367H563.202L563.168 120.556C563.019 121.254 562.744 121.941 562.344 122.616C561.943 123.28 561.405 123.88 560.73 124.418C560.055 124.956 559.254 125.385 558.327 125.706C557.4 126.015 556.347 126.169 555.169 126.169Z" fill="black" fill-opacity="0.8"/>
<path d="M347.901 106.944C349.503 106.944 350.888 107.247 352.055 107.854C353.234 108.449 354.138 109.255 354.767 110.274C355.396 111.281 355.711 112.397 355.711 113.621C355.711 113.839 355.711 113.976 355.711 114.033C355.711 114.09 355.711 114.142 355.711 114.188H351.008C350.985 113.306 350.687 112.574 350.115 111.99C349.543 111.395 348.742 111.098 347.712 111.098C346.991 111.098 346.333 111.269 345.738 111.613C345.154 111.945 344.645 112.42 344.21 113.038C343.787 113.644 343.455 114.371 343.215 115.218C342.986 116.064 342.871 116.997 342.871 118.015C342.871 118.839 343.009 119.555 343.283 120.161C343.558 120.768 343.947 121.237 344.451 121.569C344.954 121.889 345.543 122.049 346.219 122.049C347.18 122.049 347.992 121.786 348.656 121.26C349.331 120.733 349.806 120.012 350.081 119.097H354.801C354.561 120.482 354.035 121.712 353.222 122.787C352.41 123.852 351.385 124.693 350.15 125.311C348.925 125.917 347.558 126.221 346.047 126.221C344.353 126.221 342.9 125.889 341.687 125.225C340.474 124.55 339.547 123.611 338.906 122.41C338.265 121.208 337.945 119.812 337.945 118.221C337.945 115.99 338.357 114.027 339.181 112.334C340.005 110.64 341.161 109.318 342.648 108.369C344.147 107.419 345.898 106.944 347.901 106.944ZM365.933 122.17C366.917 122.17 367.792 121.872 368.559 121.277C369.326 120.67 369.927 119.852 370.361 118.822C370.808 117.781 371.031 116.614 371.031 115.321C371.031 114.016 370.711 112.969 370.07 112.179C369.44 111.39 368.593 110.995 367.529 110.995C366.545 110.995 365.664 111.292 364.886 111.887C364.119 112.482 363.512 113.301 363.066 114.342C362.631 115.372 362.414 116.539 362.414 117.844C362.414 119.137 362.734 120.184 363.375 120.985C364.016 121.775 364.869 122.17 365.933 122.17ZM367.701 106.944C369.372 106.944 370.831 107.287 372.078 107.974C373.325 108.66 374.292 109.627 374.979 110.875C375.677 112.111 376.026 113.552 376.026 115.2C376.026 116.78 375.769 118.244 375.254 119.595C374.75 120.934 374.035 122.095 373.108 123.079C372.192 124.063 371.111 124.836 369.864 125.397C368.628 125.946 367.266 126.221 365.778 126.221C364.108 126.221 362.648 125.877 361.401 125.191C360.154 124.493 359.181 123.526 358.483 122.29C357.796 121.042 357.453 119.595 357.453 117.947C357.453 116.379 357.705 114.926 358.208 113.587C358.723 112.236 359.439 111.069 360.354 110.085C361.281 109.089 362.362 108.317 363.598 107.768C364.846 107.218 366.213 106.944 367.701 106.944ZM377.081 125.809L380.995 107.356H385.716L385.115 110.188H385.218C385.847 109.158 386.688 108.363 387.741 107.802C388.794 107.23 389.955 106.944 391.226 106.944C392.336 106.944 393.314 107.173 394.161 107.63C395.019 108.077 395.689 108.7 396.169 109.501C396.661 110.291 396.907 111.212 396.907 112.265C396.907 112.597 396.885 112.957 396.839 113.346C396.804 113.724 396.747 114.113 396.667 114.514L394.281 125.809H389.406L391.621 115.321C391.689 115.034 391.735 114.771 391.758 114.531C391.781 114.279 391.792 114.05 391.792 113.844C391.792 112.997 391.5 112.322 390.917 111.819C390.345 111.304 389.584 111.046 388.634 111.046C387.947 111.046 387.301 111.207 386.694 111.527C386.099 111.836 385.59 112.277 385.166 112.849C384.754 113.421 384.463 114.096 384.291 114.874L381.974 125.809H377.081ZM405.842 126.015C404.171 126.015 402.832 125.683 401.825 125.019C400.829 124.355 400.332 123.36 400.332 122.032C400.332 121.803 400.343 121.529 400.366 121.208C400.4 120.888 400.452 120.55 400.52 120.195L402.391 111.51H399.645L400.452 107.665H403.198L404.125 103.185H409.035L408.073 107.665H411.85L411.06 111.51H407.301L405.567 119.457C405.521 119.64 405.487 119.841 405.464 120.058C405.441 120.264 405.43 120.442 405.43 120.59C405.43 121.174 405.619 121.592 405.996 121.843C406.385 122.084 406.946 122.204 407.678 122.204C407.896 122.204 408.073 122.204 408.211 122.204C408.359 122.192 408.491 122.181 408.605 122.17C408.72 122.158 408.823 122.141 408.914 122.118L408.142 125.809C407.867 125.866 407.518 125.912 407.095 125.946C406.683 125.992 406.265 126.015 405.842 126.015ZM411.017 125.809L414.948 107.356H419.685L419.17 109.931H419.273C419.765 109.084 420.418 108.397 421.23 107.871C422.054 107.344 422.998 107.081 424.062 107.081C424.555 107.081 424.995 107.127 425.384 107.218C425.773 107.299 426.111 107.407 426.397 107.545L425.436 112.042C425.127 111.893 424.749 111.767 424.303 111.664C423.857 111.55 423.387 111.493 422.895 111.493C422.026 111.493 421.265 111.659 420.612 111.99C419.971 112.311 419.439 112.791 419.016 113.432C418.592 114.073 418.272 114.868 418.055 115.818L415.926 125.809H411.017ZM434.559 122.17C435.543 122.17 436.418 121.872 437.185 121.277C437.952 120.67 438.553 119.852 438.987 118.822C439.434 117.781 439.657 116.614 439.657 115.321C439.657 114.016 439.337 112.969 438.696 112.179C438.066 111.39 437.219 110.995 436.155 110.995C435.171 110.995 434.29 111.292 433.512 111.887C432.745 112.482 432.138 113.301 431.692 114.342C431.257 115.372 431.04 116.539 431.04 117.844C431.04 119.137 431.36 120.184 432.001 120.985C432.642 121.775 433.495 122.17 434.559 122.17ZM436.327 106.944C437.998 106.944 439.457 107.287 440.704 107.974C441.951 108.66 442.918 109.627 443.605 110.875C444.303 112.111 444.652 113.552 444.652 115.2C444.652 116.78 444.395 118.244 443.88 119.595C443.376 120.934 442.661 122.095 441.734 123.079C440.818 124.063 439.737 124.836 438.49 125.397C437.254 125.946 435.892 126.221 434.404 126.221C432.734 126.221 431.274 125.877 430.027 125.191C428.78 124.493 427.807 123.526 427.109 122.29C426.422 121.042 426.079 119.595 426.079 117.947C426.079 116.379 426.331 114.926 426.834 113.587C427.349 112.236 428.065 111.069 428.98 110.085C429.907 109.089 430.988 108.317 432.224 107.768C433.472 107.218 434.839 106.944 436.327 106.944ZM445.879 125.809L451.149 101.039H456.058L450.788 125.809H445.879ZM583.096 106.944C584.698 106.944 586.083 107.247 587.25 107.854C588.429 108.449 589.333 109.255 589.962 110.274C590.592 111.281 590.906 112.397 590.906 113.621C590.906 113.839 590.906 113.976 590.906 114.033C590.906 114.09 590.906 114.142 590.906 114.188H586.203C586.18 113.306 585.883 112.574 585.31 111.99C584.738 111.395 583.937 111.098 582.907 111.098C582.186 111.098 581.528 111.269 580.933 111.613C580.35 111.945 579.84 112.42 579.406 113.038C578.982 113.644 578.65 114.371 578.41 115.218C578.181 116.064 578.067 116.997 578.067 118.015C578.067 118.839 578.204 119.555 578.479 120.161C578.753 120.768 579.142 121.237 579.646 121.569C580.149 121.889 580.739 122.049 581.414 122.049C582.375 122.049 583.188 121.786 583.851 121.26C584.527 120.733 585.001 120.012 585.276 119.097H589.997C589.756 120.482 589.23 121.712 588.417 122.787C587.605 123.852 586.581 124.693 585.345 125.311C584.12 125.917 582.753 126.221 581.242 126.221C579.549 126.221 578.095 125.889 576.882 125.225C575.669 124.55 574.742 123.611 574.101 122.41C573.461 121.208 573.14 119.812 573.14 118.221C573.14 115.99 573.552 114.027 574.376 112.334C575.2 110.64 576.356 109.318 577.843 108.369C579.343 107.419 581.093 106.944 583.096 106.944ZM601.128 122.17C602.112 122.17 602.988 121.872 603.754 121.277C604.521 120.67 605.122 119.852 605.557 118.822C606.003 117.781 606.226 116.614 606.226 115.321C606.226 114.016 605.906 112.969 605.265 112.179C604.636 111.39 603.789 110.995 602.724 110.995C601.74 110.995 600.859 111.292 600.081 111.887C599.314 112.482 598.708 113.301 598.261 114.342C597.827 115.372 597.609 116.539 597.609 117.844C597.609 119.137 597.93 120.184 598.57 120.985C599.211 121.775 600.064 122.17 601.128 122.17ZM602.896 106.944C604.567 106.944 606.026 107.287 607.273 107.974C608.521 108.66 609.488 109.627 610.174 110.875C610.872 112.111 611.221 113.552 611.221 115.2C611.221 116.78 610.964 118.244 610.449 119.595C609.945 120.934 609.23 122.095 608.303 123.079C607.388 124.063 606.306 124.836 605.059 125.397C603.823 125.946 602.461 126.221 600.974 126.221C599.303 126.221 597.844 125.877 596.596 125.191C595.349 124.493 594.376 123.526 593.678 122.29C592.992 121.042 592.648 119.595 592.648 117.947C592.648 116.379 592.9 114.926 593.404 113.587C593.919 112.236 594.634 111.069 595.549 110.085C596.476 109.089 597.558 108.317 598.794 107.768C600.041 107.218 601.408 106.944 602.896 106.944ZM612.277 125.809L616.19 107.356H620.911L620.31 110.188H620.413C621.042 109.158 621.884 108.363 622.936 107.802C623.989 107.23 625.151 106.944 626.421 106.944C627.531 106.944 628.509 107.173 629.356 107.63C630.215 108.077 630.884 108.7 631.365 109.501C631.857 110.291 632.103 111.212 632.103 112.265C632.103 112.597 632.08 112.957 632.034 113.346C632 113.724 631.943 114.113 631.862 114.514L629.476 125.809H624.601L626.816 115.321C626.884 115.034 626.93 114.771 626.953 114.531C626.976 114.279 626.987 114.05 626.987 113.844C626.987 112.997 626.696 112.322 626.112 111.819C625.54 111.304 624.779 111.046 623.829 111.046C623.142 111.046 622.496 111.207 621.889 111.527C621.294 111.836 620.785 112.277 620.362 112.849C619.95 113.421 619.658 114.096 619.486 114.874L617.169 125.809H612.277ZM634.926 107.339H639.818L640.882 121.088H640.985L647.749 107.339H653.018L642.839 125.809H637.243L634.926 107.339ZM657.267 114.6H665.266C665.277 114.531 665.283 114.451 665.283 114.359C665.294 114.256 665.3 114.165 665.3 114.085C665.3 113.478 665.168 112.923 664.905 112.42C664.642 111.905 664.253 111.493 663.738 111.184C663.234 110.863 662.594 110.703 661.815 110.703C661.06 110.703 660.373 110.875 659.756 111.218C659.149 111.55 658.628 112.008 658.193 112.591C657.77 113.175 657.461 113.844 657.267 114.6ZM660.339 126.221C658.634 126.221 657.169 125.877 655.945 125.191C654.732 124.504 653.799 123.543 653.147 122.307C652.506 121.059 652.186 119.595 652.186 117.912C652.186 116.356 652.42 114.914 652.889 113.587C653.359 112.259 654.028 111.098 654.898 110.102C655.767 109.107 656.803 108.334 658.005 107.785C659.206 107.224 660.534 106.944 661.987 106.944C663.578 106.944 664.962 107.27 666.141 107.922C667.331 108.563 668.252 109.473 668.905 110.652C669.568 111.83 669.9 113.226 669.9 114.84C669.9 115.286 669.877 115.767 669.832 116.282C669.797 116.797 669.734 117.272 669.643 117.707H656.769C656.757 117.81 656.746 117.912 656.734 118.015C656.734 118.107 656.734 118.199 656.734 118.29C656.734 119.103 656.889 119.818 657.198 120.436C657.507 121.054 657.942 121.54 658.502 121.895C659.075 122.238 659.75 122.41 660.528 122.41C661.501 122.41 662.33 122.187 663.017 121.74C663.704 121.283 664.19 120.682 664.476 119.938H669.094C668.785 121.162 668.218 122.25 667.394 123.199C666.582 124.138 665.575 124.876 664.373 125.414C663.171 125.952 661.827 126.221 660.339 126.221ZM670.938 125.809L674.852 107.356H679.573L678.972 110.188H679.075C679.704 109.158 680.545 108.363 681.598 107.802C682.651 107.23 683.813 106.944 685.083 106.944C686.193 106.944 687.171 107.173 688.018 107.63C688.876 108.077 689.546 108.7 690.026 109.501C690.519 110.291 690.765 111.212 690.765 112.265C690.765 112.597 690.742 112.957 690.696 113.346C690.662 113.724 690.604 114.113 690.524 114.514L688.138 125.809H683.263L685.478 115.321C685.546 115.034 685.592 114.771 685.615 114.531C685.638 114.279 685.649 114.05 685.649 113.844C685.649 112.997 685.357 112.322 684.774 111.819C684.202 111.304 683.441 111.046 682.491 111.046C681.804 111.046 681.158 111.207 680.551 111.527C679.956 111.836 679.447 112.277 679.023 112.849C678.611 113.421 678.32 114.096 678.148 114.874L675.831 125.809H670.938ZM692.489 125.809L696.403 107.356H701.312L697.399 125.809H692.489ZM699.956 104.918C699.235 104.918 698.617 104.661 698.102 104.146C697.599 103.619 697.347 102.996 697.347 102.275C697.347 101.554 697.599 100.936 698.102 100.421C698.617 99.8945 699.235 99.6313 699.956 99.6313C700.689 99.6313 701.307 99.8945 701.81 100.421C702.314 100.936 702.565 101.554 702.565 102.275C702.565 102.996 702.314 103.619 701.81 104.146C701.307 104.661 700.689 104.918 699.956 104.918ZM708.067 114.6H716.066C716.077 114.531 716.083 114.451 716.083 114.359C716.094 114.256 716.1 114.165 716.1 114.085C716.1 113.478 715.968 112.923 715.705 112.42C715.442 111.905 715.053 111.493 714.538 111.184C714.034 110.863 713.394 110.703 712.615 110.703C711.86 110.703 711.174 110.875 710.556 111.218C709.949 111.55 709.428 112.008 708.994 112.591C708.57 113.175 708.261 113.844 708.067 114.6ZM711.139 126.221C709.434 126.221 707.969 125.877 706.745 125.191C705.532 124.504 704.599 123.543 703.947 122.307C703.306 121.059 702.986 119.595 702.986 117.912C702.986 116.356 703.22 114.914 703.689 113.587C704.159 112.259 704.828 111.098 705.698 110.102C706.568 109.107 707.603 108.334 708.805 107.785C710.006 107.224 711.334 106.944 712.787 106.944C714.378 106.944 715.762 107.27 716.941 107.922C718.131 108.563 719.053 109.473 719.705 110.652C720.369 111.83 720.7 113.226 720.7 114.84C720.7 115.286 720.677 115.767 720.632 116.282C720.597 116.797 720.534 117.272 720.443 117.707H707.569C707.557 117.81 707.546 117.912 707.535 118.015C707.535 118.107 707.535 118.199 707.535 118.29C707.535 119.103 707.689 119.818 707.998 120.436C708.307 121.054 708.742 121.54 709.303 121.895C709.875 122.238 710.55 122.41 711.328 122.41C712.301 122.41 713.13 122.187 713.817 121.74C714.504 121.283 714.99 120.682 715.276 119.938H719.894C719.585 121.162 719.018 122.25 718.194 123.199C717.382 124.138 716.375 124.876 715.173 125.414C713.972 125.952 712.627 126.221 711.139 126.221ZM721.739 125.809L725.652 107.356H730.373L729.772 110.188H729.875C730.504 109.158 731.345 108.363 732.398 107.802C733.451 107.23 734.613 106.944 735.883 106.944C736.993 106.944 737.971 107.173 738.818 107.63C739.676 108.077 740.346 108.7 740.827 109.501C741.319 110.291 741.565 111.212 741.565 112.265C741.565 112.597 741.542 112.957 741.496 113.346C741.462 113.724 741.404 114.113 741.324 114.514L738.938 125.809H734.063L736.278 115.321C736.346 115.034 736.392 114.771 736.415 114.531C736.438 114.279 736.449 114.05 736.449 113.844C736.449 112.997 736.158 112.322 735.574 111.819C735.002 111.304 734.241 111.046 733.291 111.046C732.604 111.046 731.958 111.207 731.351 111.527C730.756 111.836 730.247 112.277 729.823 112.849C729.412 113.421 729.12 114.096 728.948 114.874L726.631 125.809H721.739ZM753.76 106.944C755.362 106.944 756.747 107.247 757.914 107.854C759.093 108.449 759.997 109.255 760.626 110.274C761.256 111.281 761.571 112.397 761.571 113.621C761.571 113.839 761.571 113.976 761.571 114.033C761.571 114.09 761.571 114.142 761.571 114.188H756.867C756.844 113.306 756.547 112.574 755.975 111.99C755.402 111.395 754.601 111.098 753.572 111.098C752.851 111.098 752.193 111.269 751.597 111.613C751.014 111.945 750.505 112.42 750.07 113.038C749.646 113.644 749.314 114.371 749.074 115.218C748.845 116.064 748.731 116.997 748.731 118.015C748.731 118.839 748.868 119.555 749.143 120.161C749.417 120.768 749.807 121.237 750.31 121.569C750.814 121.889 751.403 122.049 752.078 122.049C753.039 122.049 753.852 121.786 754.516 121.26C755.191 120.733 755.666 120.012 755.94 119.097H760.661C760.421 120.482 759.894 121.712 759.082 122.787C758.269 123.852 757.245 124.693 756.009 125.311C754.785 125.917 753.417 126.221 751.906 126.221C750.213 126.221 748.759 125.889 747.546 125.225C746.333 124.55 745.406 123.611 744.766 122.41C744.125 121.208 743.804 119.812 743.804 118.221C743.804 115.99 744.216 114.027 745.04 112.334C745.864 110.64 747.02 109.318 748.508 108.369C750.007 107.419 751.758 106.944 753.76 106.944ZM768.411 114.6H776.41C776.421 114.531 776.427 114.451 776.427 114.359C776.438 114.256 776.444 114.165 776.444 114.085C776.444 113.478 776.313 112.923 776.049 112.42C775.786 111.905 775.397 111.493 774.882 111.184C774.379 110.863 773.738 110.703 772.96 110.703C772.204 110.703 771.518 110.875 770.9 111.218C770.293 111.55 769.772 112.008 769.338 112.591C768.914 113.175 768.605 113.844 768.411 114.6ZM771.483 126.221C769.778 126.221 768.313 125.877 767.089 125.191C765.876 124.504 764.943 123.543 764.291 122.307C763.65 121.059 763.33 119.595 763.33 117.912C763.33 116.356 763.564 114.914 764.033 113.587C764.503 112.259 765.172 111.098 766.042 110.102C766.912 109.107 767.947 108.334 769.149 107.785C770.35 107.224 771.678 106.944 773.131 106.944C774.722 106.944 776.107 107.27 777.285 107.922C778.475 108.563 779.397 109.473 780.049 110.652C780.713 111.83 781.044 113.226 781.044 114.84C781.044 115.286 781.022 115.767 780.976 116.282C780.941 116.797 780.879 117.272 780.787 117.707H767.913C767.901 117.81 767.89 117.912 767.879 118.015C767.879 118.107 767.879 118.199 767.879 118.29C767.879 119.103 768.033 119.818 768.342 120.436C768.651 121.054 769.086 121.54 769.647 121.895C770.219 122.238 770.894 122.41 771.672 122.41C772.645 122.41 773.474 122.187 774.161 121.74C774.848 121.283 775.334 120.682 775.62 119.938H780.238C779.929 121.162 779.362 122.25 778.538 123.199C777.726 124.138 776.719 124.876 775.517 125.414C774.316 125.952 772.971 126.221 771.483 126.221ZM217.635 169.809L220.708 155.355H217.79L218.579 151.527H221.446L221.858 149.45C222.213 147.7 222.945 146.429 224.055 145.64C225.165 144.839 226.704 144.438 228.673 144.438C229.302 144.438 229.886 144.484 230.423 144.575C230.961 144.656 231.402 144.736 231.745 144.816L231.024 148.266C230.853 148.209 230.612 148.163 230.303 148.129C230.006 148.083 229.668 148.06 229.29 148.06C228.524 148.06 227.917 148.226 227.471 148.558C227.036 148.89 226.75 149.387 226.613 150.051L226.304 151.527H230.2L229.393 155.355H225.6L222.544 169.809H217.635ZM229.007 169.809L232.938 151.356H237.675L237.16 153.931H237.263C237.756 153.084 238.408 152.397 239.22 151.871C240.044 151.344 240.988 151.081 242.053 151.081C242.545 151.081 242.985 151.127 243.374 151.218C243.763 151.299 244.101 151.407 244.387 151.545L243.426 156.042C243.117 155.893 242.739 155.767 242.293 155.664C241.847 155.55 241.377 155.493 240.885 155.493C240.016 155.493 239.255 155.659 238.602 155.99C237.962 156.311 237.429 156.791 237.006 157.432C236.583 158.073 236.262 158.868 236.045 159.818L233.916 169.809H229.007ZM252.549 166.17C253.533 166.17 254.409 165.872 255.175 165.277C255.942 164.67 256.543 163.852 256.978 162.822C257.424 161.781 257.647 160.614 257.647 159.321C257.647 158.016 257.327 156.969 256.686 156.179C256.056 155.39 255.21 154.995 254.145 154.995C253.161 154.995 252.28 155.292 251.502 155.887C250.735 156.482 250.129 157.301 249.682 158.342C249.247 159.372 249.03 160.539 249.03 161.844C249.03 163.137 249.35 164.184 249.991 164.985C250.632 165.775 251.485 166.17 252.549 166.17ZM254.317 150.944C255.988 150.944 257.447 151.287 258.694 151.974C259.942 152.66 260.908 153.627 261.595 154.875C262.293 156.111 262.642 157.552 262.642 159.2C262.642 160.78 262.385 162.244 261.87 163.595C261.366 164.934 260.651 166.095 259.724 167.079C258.809 168.063 257.727 168.836 256.48 169.397C255.244 169.946 253.882 170.221 252.394 170.221C250.724 170.221 249.265 169.877 248.017 169.191C246.77 168.493 245.797 167.526 245.099 166.29C244.413 165.042 244.069 163.595 244.069 161.947C244.069 160.379 244.321 158.926 244.824 157.587C245.339 156.236 246.055 155.069 246.97 154.085C247.897 153.089 248.979 152.317 250.214 151.768C251.462 151.218 252.829 150.944 254.317 150.944ZM263.698 169.809L267.611 151.356H272.332L271.697 154.291H271.8C272.326 153.318 273.081 152.517 274.065 151.888C275.05 151.258 276.12 150.944 277.275 150.944C278.5 150.944 279.53 151.258 280.365 151.888C281.201 152.517 281.75 153.301 282.013 154.24H282.099C282.522 153.622 283.032 153.067 283.627 152.575C284.233 152.071 284.92 151.676 285.686 151.39C286.453 151.093 287.306 150.944 288.244 150.944C289.24 150.944 290.121 151.167 290.888 151.613C291.666 152.048 292.278 152.649 292.724 153.416C293.171 154.182 293.394 155.069 293.394 156.076C293.394 156.408 293.371 156.757 293.325 157.123C293.291 157.49 293.234 157.867 293.153 158.256L290.716 169.809H285.841L288.107 159.012C288.164 158.748 288.204 158.502 288.227 158.273C288.261 158.045 288.278 157.821 288.278 157.604C288.278 156.872 288.05 156.265 287.592 155.784C287.134 155.292 286.505 155.046 285.704 155.046C285.131 155.046 284.588 155.189 284.073 155.475C283.558 155.75 283.112 156.151 282.734 156.677C282.368 157.203 282.105 157.833 281.944 158.565L279.576 169.809H274.855L277.121 159.012C277.178 158.748 277.218 158.502 277.241 158.273C277.275 158.045 277.293 157.821 277.293 157.604C277.293 156.872 277.064 156.265 276.606 155.784C276.16 155.292 275.53 155.046 274.718 155.046C274.146 155.046 273.602 155.195 273.087 155.493C272.572 155.779 272.126 156.185 271.748 156.711C271.382 157.226 271.124 157.844 270.976 158.565L268.59 169.809H263.698ZM317.064 150.068L311.794 159.904H318.214L317.184 150.068H317.064ZM319.141 169.809L318.523 163.904H309.803L306.576 169.809H301.049L315.039 145.039H321.15L324.342 169.809H319.141ZM332.367 169.809H327.149L332.418 145.039H337.637L332.367 169.809ZM352.621 166.427C353.308 166.427 353.943 166.295 354.527 166.032C355.11 165.769 355.602 165.409 356.003 164.951C356.415 164.482 356.69 163.955 356.827 163.372L357.17 161.81L353.274 161.964C352.221 161.998 351.391 162.227 350.785 162.651C350.178 163.074 349.875 163.64 349.875 164.35C349.875 164.979 350.127 165.483 350.63 165.861C351.145 166.238 351.809 166.427 352.621 166.427ZM350.647 170.1C349.617 170.1 348.679 169.883 347.832 169.448C346.985 169.013 346.316 168.418 345.824 167.663C345.332 166.896 345.086 166.021 345.086 165.037C345.086 163.171 345.795 161.701 347.214 160.625C348.645 159.549 350.602 158.971 353.085 158.891L357.822 158.72L358.046 157.604C358.08 157.455 358.097 157.329 358.097 157.226C358.109 157.123 358.114 157.02 358.114 156.917C358.114 156.277 357.857 155.767 357.342 155.39C356.827 155.001 356.112 154.806 355.196 154.806C354.578 154.806 354.035 154.898 353.565 155.081C353.108 155.252 352.73 155.498 352.433 155.819C352.135 156.128 351.929 156.5 351.815 156.935H347.18C347.397 155.721 347.884 154.669 348.639 153.776C349.394 152.883 350.361 152.191 351.54 151.699C352.719 151.196 354.058 150.944 355.557 150.944C357.033 150.944 358.32 151.178 359.419 151.648C360.529 152.105 361.393 152.746 362.011 153.57C362.629 154.383 362.938 155.332 362.938 156.42C362.938 156.683 362.921 156.952 362.886 157.226C362.863 157.501 362.835 157.741 362.8 157.947L360.277 169.809H355.539L356.02 167.594H355.917C355.562 168.098 355.116 168.538 354.578 168.916C354.052 169.294 353.457 169.585 352.793 169.791C352.129 169.997 351.414 170.1 350.647 170.1ZM384.866 151.356L380.953 169.809H376.232L376.833 166.976H376.73C376.398 167.583 375.935 168.132 375.339 168.624C374.756 169.116 374.075 169.505 373.297 169.791C372.53 170.078 371.7 170.221 370.808 170.221C369.641 170.221 368.628 169.992 367.769 169.534C366.911 169.076 366.247 168.453 365.778 167.663C365.321 166.862 365.092 165.941 365.092 164.899C365.092 164.522 365.109 164.11 365.143 163.663C365.189 163.217 365.252 162.811 365.332 162.445L367.666 151.356H372.576L370.379 161.638C370.333 161.867 370.293 162.124 370.258 162.41C370.236 162.685 370.224 162.92 370.224 163.114C370.224 164.052 370.482 164.768 370.997 165.26C371.512 165.74 372.273 165.981 373.28 165.981C374.023 165.981 374.693 165.82 375.288 165.5C375.894 165.18 376.398 164.733 376.799 164.161C377.21 163.578 377.502 162.897 377.674 162.118L379.957 151.356H384.866ZM392.616 170.015C390.945 170.015 389.606 169.683 388.599 169.019C387.604 168.355 387.106 167.36 387.106 166.032C387.106 165.803 387.117 165.529 387.14 165.208C387.175 164.888 387.226 164.55 387.295 164.195L389.166 155.51H386.419L387.226 151.665H389.973L390.9 147.185H395.809L394.848 151.665H398.624L397.834 155.51H394.075L392.341 163.457C392.296 163.64 392.261 163.841 392.238 164.058C392.216 164.264 392.204 164.442 392.204 164.59C392.204 165.174 392.393 165.592 392.771 165.843C393.16 166.084 393.72 166.204 394.453 166.204C394.67 166.204 394.848 166.204 394.985 166.204C395.134 166.192 395.265 166.181 395.38 166.17C395.494 166.158 395.597 166.141 395.689 166.118L394.916 169.809C394.642 169.866 394.293 169.912 393.869 169.946C393.457 169.992 393.04 170.015 392.616 170.015ZM407.421 166.17C408.405 166.17 409.281 165.872 410.047 165.277C410.814 164.67 411.415 163.852 411.85 162.822C412.296 161.781 412.519 160.614 412.519 159.321C412.519 158.016 412.199 156.969 411.558 156.179C410.928 155.39 410.082 154.995 409.017 154.995C408.033 154.995 407.152 155.292 406.374 155.887C405.607 156.482 405.001 157.301 404.554 158.342C404.119 159.372 403.902 160.539 403.902 161.844C403.902 163.137 404.222 164.184 404.863 164.985C405.504 165.775 406.357 166.17 407.421 166.17ZM409.189 150.944C410.86 150.944 412.319 151.287 413.566 151.974C414.814 152.66 415.781 153.627 416.467 154.875C417.165 156.111 417.514 157.552 417.514 159.2C417.514 160.78 417.257 162.244 416.742 163.595C416.238 164.934 415.523 166.095 414.596 167.079C413.681 168.063 412.599 168.836 411.352 169.397C410.116 169.946 408.754 170.221 407.266 170.221C405.596 170.221 404.137 169.877 402.889 169.191C401.642 168.493 400.669 167.526 399.971 166.29C399.285 165.042 398.941 163.595 398.941 161.947C398.941 160.379 399.193 158.926 399.697 157.587C400.211 156.236 400.927 155.069 401.842 154.085C402.769 153.089 403.851 152.317 405.086 151.768C406.334 151.218 407.701 150.944 409.189 150.944ZM418.57 169.809L422.483 151.356H427.204L426.569 154.291H426.672C427.198 153.318 427.953 152.517 428.937 151.888C429.922 151.258 430.992 150.944 432.147 150.944C433.372 150.944 434.402 151.258 435.237 151.888C436.073 152.517 436.622 153.301 436.885 154.24H436.971C437.394 153.622 437.904 153.067 438.499 152.575C439.105 152.071 439.792 151.676 440.558 151.39C441.325 151.093 442.178 150.944 443.116 150.944C444.112 150.944 444.993 151.167 445.76 151.613C446.538 152.048 447.15 152.649 447.596 153.416C448.043 154.182 448.266 155.069 448.266 156.076C448.266 156.408 448.243 156.757 448.197 157.123C448.163 157.49 448.106 157.867 448.025 158.256L445.588 169.809H440.713L442.979 159.012C443.036 158.748 443.076 158.502 443.099 158.273C443.133 158.045 443.15 157.821 443.15 157.604C443.15 156.872 442.922 156.265 442.464 155.784C442.006 155.292 441.377 155.046 440.576 155.046C440.003 155.046 439.46 155.189 438.945 155.475C438.43 155.75 437.984 156.151 437.606 156.677C437.24 157.203 436.977 157.833 436.816 158.565L434.448 169.809H429.727L431.993 159.012C432.05 158.748 432.09 158.502 432.113 158.273C432.147 158.045 432.165 157.821 432.165 157.604C432.165 156.872 431.936 156.265 431.478 155.784C431.032 155.292 430.402 155.046 429.59 155.046C429.018 155.046 428.474 155.195 427.959 155.493C427.444 155.779 426.998 156.185 426.62 156.711C426.254 157.226 425.996 157.844 425.848 158.565L423.462 169.809H418.57ZM457.166 166.427C457.852 166.427 458.487 166.295 459.071 166.032C459.655 165.769 460.147 165.409 460.547 164.951C460.959 164.482 461.234 163.955 461.371 163.372L461.715 161.81L457.818 161.964C456.765 161.998 455.935 162.227 455.329 162.651C454.722 163.074 454.419 163.64 454.419 164.35C454.419 164.979 454.671 165.483 455.174 165.861C455.689 166.238 456.353 166.427 457.166 166.427ZM455.192 170.1C454.162 170.1 453.223 169.883 452.377 169.448C451.53 169.013 450.86 168.418 450.368 167.663C449.876 166.896 449.63 166.021 449.63 165.037C449.63 163.171 450.34 161.701 451.759 160.625C453.189 159.549 455.146 158.971 457.629 158.891L462.367 158.72L462.59 157.604C462.624 157.455 462.641 157.329 462.641 157.226C462.653 157.123 462.659 157.02 462.659 156.917C462.659 156.277 462.401 155.767 461.886 155.39C461.371 155.001 460.656 154.806 459.74 154.806C459.123 154.806 458.579 154.898 458.11 155.081C457.652 155.252 457.274 155.498 456.977 155.819C456.679 156.128 456.473 156.5 456.359 156.935H451.724C451.942 155.721 452.428 154.669 453.183 153.776C453.939 152.883 454.906 152.191 456.084 151.699C457.263 151.196 458.602 150.944 460.101 150.944C461.577 150.944 462.865 151.178 463.963 151.648C465.073 152.105 465.937 152.746 466.555 153.57C467.173 154.383 467.482 155.332 467.482 156.42C467.482 156.683 467.465 156.952 467.431 157.226C467.408 157.501 467.379 157.741 467.345 157.947L464.821 169.809H460.084L460.564 167.594H460.461C460.107 168.098 459.66 168.538 459.123 168.916C458.596 169.294 458.001 169.585 457.337 169.791C456.674 169.997 455.958 170.1 455.192 170.1ZM476.382 170.015C474.711 170.015 473.372 169.683 472.365 169.019C471.37 168.355 470.872 167.36 470.872 166.032C470.872 165.803 470.883 165.529 470.906 165.208C470.941 164.888 470.992 164.55 471.061 164.195L472.932 155.51H470.185L470.992 151.665H473.739L474.666 147.185H479.575L478.614 151.665H482.39L481.6 155.51H477.841L476.107 163.457C476.062 163.64 476.027 163.841 476.004 164.058C475.982 164.264 475.97 164.442 475.97 164.59C475.97 165.174 476.159 165.592 476.537 165.843C476.926 166.084 477.486 166.204 478.219 166.204C478.436 166.204 478.614 166.204 478.751 166.204C478.9 166.192 479.031 166.181 479.146 166.17C479.26 166.158 479.363 166.141 479.455 166.118L478.682 169.809C478.408 169.866 478.059 169.912 477.635 169.946C477.223 169.992 476.805 170.015 476.382 170.015ZM482.33 169.809L486.243 151.356H491.153L487.239 169.809H482.33ZM489.797 148.918C489.076 148.918 488.458 148.661 487.943 148.146C487.439 147.619 487.187 146.996 487.187 146.275C487.187 145.554 487.439 144.936 487.943 144.421C488.458 143.895 489.076 143.631 489.797 143.631C490.529 143.631 491.147 143.895 491.65 144.421C492.154 144.936 492.406 145.554 492.406 146.275C492.406 146.996 492.154 147.619 491.65 148.146C491.147 148.661 490.529 148.918 489.797 148.918ZM501.288 166.17C502.273 166.17 503.148 165.872 503.915 165.277C504.681 164.67 505.282 163.852 505.717 162.822C506.163 161.781 506.387 160.614 506.387 159.321C506.387 158.016 506.066 156.969 505.425 156.179C504.796 155.39 503.949 154.995 502.885 154.995C501.901 154.995 501.019 155.292 500.241 155.887C499.475 156.482 498.868 157.301 498.422 158.342C497.987 159.372 497.769 160.539 497.769 161.844C497.769 163.137 498.09 164.184 498.731 164.985C499.372 165.775 500.224 166.17 501.288 166.17ZM503.056 150.944C504.727 150.944 506.186 151.287 507.434 151.974C508.681 152.66 509.648 153.627 510.335 154.875C511.033 156.111 511.382 157.552 511.382 159.2C511.382 160.78 511.124 162.244 510.609 163.595C510.106 164.934 509.39 166.095 508.464 167.079C507.548 168.063 506.467 168.836 505.219 169.397C503.983 169.946 502.622 170.221 501.134 170.221C499.463 170.221 498.004 169.877 496.757 169.191C495.509 168.493 494.537 167.526 493.839 166.29C493.152 165.042 492.809 163.595 492.809 161.947C492.809 160.379 493.06 158.926 493.564 157.587C494.079 156.236 494.794 155.069 495.71 154.085C496.637 153.089 497.718 152.317 498.954 151.768C500.201 151.218 501.569 150.944 503.056 150.944ZM512.437 169.809L516.351 151.356H521.071L520.47 154.188H520.573C521.203 153.158 522.044 152.363 523.097 151.802C524.15 151.23 525.311 150.944 526.581 150.944C527.691 150.944 528.67 151.173 529.517 151.63C530.375 152.077 531.044 152.7 531.525 153.501C532.017 154.291 532.263 155.212 532.263 156.265C532.263 156.597 532.24 156.957 532.194 157.346C532.16 157.724 532.103 158.113 532.023 158.514L529.637 169.809H524.762L526.976 159.321C527.045 159.034 527.091 158.771 527.113 158.531C527.136 158.279 527.148 158.05 527.148 157.844C527.148 156.997 526.856 156.322 526.272 155.819C525.7 155.304 524.939 155.046 523.989 155.046C523.303 155.046 522.656 155.207 522.05 155.527C521.455 155.836 520.945 156.277 520.522 156.849C520.11 157.421 519.818 158.096 519.646 158.874L517.329 169.809H512.437ZM549.428 170.169C547.54 170.169 546.132 169.757 545.205 168.933C544.29 168.109 543.832 166.759 543.832 164.882V154.909H541.257V151.613H543.832V146.996H548.175V151.613H551.556V154.909H548.175V164.539C548.175 165.42 548.369 166.032 548.758 166.376C549.159 166.707 549.743 166.873 550.509 166.873C550.727 166.873 550.915 166.868 551.076 166.856C551.247 166.833 551.408 166.816 551.556 166.805V170.015C551.305 170.049 550.996 170.083 550.629 170.118C550.275 170.152 549.874 170.169 549.428 170.169ZM562.55 170.169C560.765 170.169 559.215 169.791 557.899 169.036C556.583 168.269 555.558 167.182 554.826 165.775C554.105 164.356 553.745 162.668 553.745 160.711V160.677C553.745 158.731 554.111 157.055 554.843 155.647C555.576 154.228 556.6 153.141 557.916 152.386C559.232 151.619 560.771 151.236 562.533 151.236C564.307 151.236 565.852 151.619 567.168 152.386C568.495 153.141 569.525 154.222 570.258 155.63C570.99 157.038 571.356 158.72 571.356 160.677V160.711C571.356 162.679 570.99 164.373 570.258 165.792C569.537 167.199 568.518 168.281 567.202 169.036C565.886 169.791 564.336 170.169 562.55 170.169ZM562.568 166.719C563.472 166.719 564.256 166.484 564.919 166.015C565.583 165.546 566.092 164.865 566.447 163.972C566.813 163.068 566.996 161.981 566.996 160.711V160.677C566.996 159.418 566.813 158.342 566.447 157.449C566.081 156.557 565.56 155.876 564.885 155.407C564.221 154.938 563.437 154.703 562.533 154.703C561.652 154.703 560.874 154.938 560.199 155.407C559.535 155.876 559.014 156.557 558.637 157.449C558.271 158.342 558.087 159.418 558.087 160.677V160.711C558.087 161.981 558.271 163.068 558.637 163.972C559.014 164.865 559.535 165.546 560.199 166.015C560.874 166.484 561.664 166.719 562.568 166.719ZM581.218 170.169C579.684 170.169 578.351 169.791 577.218 169.036C576.096 168.269 575.227 167.177 574.609 165.758C574.002 164.339 573.699 162.656 573.699 160.711V160.694C573.699 158.737 574.008 157.055 574.626 155.647C575.244 154.228 576.114 153.141 577.235 152.386C578.357 151.619 579.678 151.236 581.2 151.236C582.07 151.236 582.865 151.379 583.586 151.665C584.319 151.939 584.965 152.34 585.526 152.866C586.087 153.381 586.539 154.005 586.882 154.737H586.985V145.039H591.242V169.809H586.985V166.719H586.882C586.55 167.44 586.104 168.058 585.543 168.573C584.994 169.076 584.353 169.471 583.621 169.757C582.9 170.032 582.099 170.169 581.218 170.169ZM582.505 166.581C583.386 166.581 584.164 166.341 584.839 165.861C585.515 165.38 586.041 164.699 586.419 163.818C586.796 162.937 586.985 161.901 586.985 160.711V160.694C586.985 159.504 586.791 158.474 586.401 157.604C586.024 156.723 585.497 156.042 584.822 155.561C584.159 155.081 583.386 154.84 582.505 154.84C581.589 154.84 580.794 155.081 580.119 155.561C579.455 156.03 578.94 156.7 578.574 157.57C578.219 158.439 578.042 159.481 578.042 160.694V160.711C578.042 161.912 578.219 162.954 578.574 163.835C578.94 164.716 579.455 165.397 580.119 165.878C580.794 166.347 581.589 166.581 582.505 166.581ZM600.571 170.118C599.37 170.118 598.305 169.889 597.378 169.431C596.463 168.962 595.748 168.315 595.233 167.491C594.729 166.656 594.477 165.7 594.477 164.625V164.59C594.477 163.503 594.746 162.576 595.284 161.81C595.834 161.031 596.623 160.419 597.653 159.973C598.683 159.515 599.93 159.24 601.395 159.149L608.347 158.72V161.552L601.996 161.947C600.943 162.015 600.136 162.267 599.576 162.702C599.015 163.137 598.734 163.715 598.734 164.436V164.453C598.734 165.197 599.015 165.786 599.576 166.221C600.148 166.644 600.903 166.856 601.841 166.856C602.665 166.856 603.398 166.69 604.039 166.358C604.691 166.026 605.206 165.574 605.584 165.002C605.961 164.43 606.15 163.784 606.15 163.063V157.604C606.15 156.688 605.858 155.968 605.275 155.441C604.702 154.903 603.873 154.634 602.786 154.634C601.778 154.634 600.972 154.852 600.365 155.287C599.759 155.71 599.381 156.259 599.232 156.935L599.198 157.089H595.25L595.267 156.883C595.359 155.807 595.719 154.846 596.348 153.999C596.978 153.141 597.848 152.466 598.958 151.974C600.079 151.482 601.407 151.236 602.94 151.236C604.462 151.236 605.778 151.487 606.888 151.991C608.01 152.494 608.874 153.198 609.48 154.102C610.098 155.006 610.407 156.071 610.407 157.295V169.809H606.15V167.011H606.047C605.704 167.64 605.257 168.189 604.708 168.659C604.159 169.128 603.529 169.488 602.82 169.74C602.122 169.992 601.372 170.118 600.571 170.118ZM616.595 175.851C616.183 175.851 615.777 175.828 615.376 175.782C614.987 175.748 614.661 175.708 614.398 175.662V172.418C614.558 172.441 614.758 172.469 614.998 172.504C615.239 172.538 615.513 172.555 615.822 172.555C616.646 172.555 617.299 172.412 617.779 172.126C618.26 171.851 618.637 171.331 618.912 170.564L619.17 169.826L612.63 151.613H617.281L621.813 167.062L621.161 166.17H622.071L621.418 167.062L625.95 151.613H630.447L623.89 170.427C623.432 171.754 622.877 172.813 622.225 173.602C621.573 174.403 620.783 174.975 619.856 175.319C618.941 175.673 617.854 175.851 616.595 175.851ZM632.687 170.083C631.989 170.083 631.4 169.843 630.919 169.362C630.438 168.882 630.198 168.298 630.198 167.611C630.198 166.913 630.438 166.324 630.919 165.843C631.4 165.363 631.989 165.122 632.687 165.122C633.374 165.122 633.957 165.363 634.438 165.843C634.919 166.324 635.159 166.913 635.159 167.611C635.159 168.298 634.919 168.882 634.438 169.362C633.957 169.843 633.374 170.083 632.687 170.083Z" fill="black"/>
</g>
<g filter="url(#filter0_d_2165_4789)">
<circle cx="108.832" cy="113.049" r="61.0217" fill="url(#paint0_linear_2165_4789)"/>
<circle cx="108.832" cy="113.049" r="61.0217" fill="url(#paint1_linear_2165_4789)"/>
</g>
<path d="M113.575 142.32C110.098 142.32 107.715 139.977 107.715 136.422V96.0703H107.481L99.2388 101.812C98.145 102.594 97.3247 102.867 96.1138 102.867C93.731 102.867 91.9731 101.148 91.9731 98.6484C91.9731 96.8516 92.6763 95.5234 94.5122 94.2344L105.684 86.5C108.418 84.625 110.293 84.2734 112.715 84.2734C116.895 84.2734 119.395 86.8125 119.395 90.875V136.422C119.395 139.977 117.051 142.32 113.575 142.32Z" fill="white"/>
<defs>
<filter id="filter0_d_2165_4789" x="36.9354" y="45.9856" width="146.21" height="146.211" filterUnits="userSpaceOnUse" color-interpolation-filters="sRGB">
<feFlood flood-opacity="0" result="BackgroundImageFix"/>
<feColorMatrix in="SourceAlpha" type="matrix" values="0 0 0 0 0 0 0 0 0 0 0 0 0 0 0 0 0 0 127 0" result="hardAlpha"/>
<feOffset dx="1.20835" dy="6.04176"/>
<feGaussianBlur stdDeviation="6.04176"/>
<feComposite in2="hardAlpha" operator="out"/>
<feColorMatrix type="matrix" values="0 0 0 0 0 0 0 0 0 0 0 0 0 0 0 0 0 0 0.1 0"/>
<feBlend mode="normal" in2="BackgroundImageFix" result="effect1_dropShadow_2165_4789"/>
<feBlend mode="normal" in="SourceGraphic" in2="effect1_dropShadow_2165_4789" result="shape"/>
</filter>
<linearGradient id="paint0_linear_2165_4789" x1="62.5105" y1="52.3661" x2="108.832" y2="174.071" gradientUnits="userSpaceOnUse">
<stop stop-color="#FDFDFD"/>
<stop offset="1" stop-color="#979797"/>
</linearGradient>
<linearGradient id="paint1_linear_2165_4789" x1="61.3709" y1="52.0273" x2="156.91" y2="211.67" gradientUnits="userSpaceOnUse">
<stop offset="0.00742078" stop-color="#82E4FF"/>
<stop offset="1" stop-color="#0055FF"/>
</linearGradient>
</defs>
</svg>
