<svg width="936" height="237" viewBox="0 0 936 237" fill="none" xmlns="http://www.w3.org/2000/svg">
<mask id="path-1-inside-1_2358_980" fill="white">
<path d="M0 80.5083C0 52.3278 0 38.2375 5.48431 27.474C10.3084 18.0061 18.0061 10.3084 27.474 5.48431C38.2375 0 52.3278 0 80.5084 0H854.913C883.094 0 897.184 0 907.948 5.48431C917.416 10.3084 925.113 18.0061 929.937 27.474C935.422 38.2375 935.422 52.3278 935.422 80.5084V156.148C935.422 184.328 935.422 198.419 929.937 209.182C925.113 218.65 917.416 226.348 907.948 231.172C897.184 236.656 883.094 236.656 854.913 236.656H80.5083C52.3278 236.656 38.2375 236.656 27.474 231.172C18.0061 226.348 10.3084 218.65 5.48431 209.182C0 198.419 0 184.328 0 156.148V80.5083Z"/>
</mask>
<path d="M0 80.5083C0 52.3278 0 38.2375 5.48431 27.474C10.3084 18.0061 18.0061 10.3084 27.474 5.48431C38.2375 0 52.3278 0 80.5084 0H854.913C883.094 0 897.184 0 907.948 5.48431C917.416 10.3084 925.113 18.0061 929.937 27.474C935.422 38.2375 935.422 52.3278 935.422 80.5084V156.148C935.422 184.328 935.422 198.419 929.937 209.182C925.113 218.65 917.416 226.348 907.948 231.172C897.184 236.656 883.094 236.656 854.913 236.656H80.5083C52.3278 236.656 38.2375 236.656 27.474 231.172C18.0061 226.348 10.3084 218.65 5.48431 209.182C0 198.419 0 184.328 0 156.148V80.5083Z" fill="white"/>
<path d="M0 0H935.422H0ZM939.447 186.338C939.447 215.795 915.567 239.675 886.11 239.675H53.3368C23.8797 239.675 0 215.795 0 186.338V186.338C0 212.461 22.528 233.637 50.3177 233.637H885.104C910.67 233.637 931.396 212.461 931.396 186.338L939.447 186.338ZM0 236.656V0V236.656ZM885.104 0C915.117 0 939.447 24.3303 939.447 54.3432V186.338C939.447 215.795 915.567 239.675 886.11 239.675L885.104 233.637C910.67 233.637 931.396 212.461 931.396 186.338V50.3177C931.396 22.528 910.67 0 885.104 0H885.104Z" fill="white" style="mix-blend-mode:overlay" mask="url(#path-1-inside-1_2358_980)"/>
<g opacity="0.8">
<path d="M223.121 84.8965L216.506 60.23H221.087L225.378 78.8452H225.463L230.403 60.23H234.403L239.343 78.8452H239.429L243.72 60.23H248.284L241.685 84.8965H237.429L232.455 67.1872H232.352L227.378 84.8965H223.121ZM251.249 84.8965V60.23H255.505V69.8197H255.591C256.07 68.7257 256.782 67.8824 257.728 67.2898C258.685 66.6972 259.836 66.4009 261.181 66.4009C262.491 66.4009 263.625 66.7029 264.582 67.3069C265.54 67.8995 266.28 68.7371 266.804 69.8197C267.329 70.8909 267.591 72.1558 267.591 73.6145V84.8965H263.334V74.4521C263.334 73.0618 262.998 71.9735 262.326 71.1872C261.654 70.3895 260.708 69.9906 259.488 69.9906C258.691 69.9906 257.99 70.1843 257.386 70.5718C256.793 70.9479 256.332 71.4721 256.001 72.1444C255.671 72.8054 255.505 73.5746 255.505 74.4521V84.8965H251.249ZM279.343 85.2555C277.531 85.2555 275.969 84.8737 274.659 84.1102C273.36 83.3466 272.363 82.264 271.667 80.8623C270.972 79.4606 270.625 77.8025 270.625 75.888V75.8709C270.625 73.9678 270.972 72.3097 271.667 70.8966C272.374 69.4721 273.36 68.3667 274.625 67.5804C275.901 66.794 277.405 66.4009 279.137 66.4009C280.858 66.4009 282.345 66.7827 283.599 67.5462C284.864 68.2983 285.832 69.3581 286.505 70.7256C287.189 72.0932 287.53 73.6886 287.53 75.5119V76.8794H272.727V74.0419H285.496L283.445 76.6914V75.0504C283.445 73.8652 283.263 72.8795 282.898 72.0932C282.533 71.3068 282.032 70.7199 281.394 70.3325C280.756 69.9336 280.021 69.7342 279.189 69.7342C278.345 69.7342 277.593 69.9393 276.932 70.3496C276.283 70.7484 275.77 71.3467 275.394 72.1444C275.029 72.9422 274.847 73.9108 274.847 75.0504V76.6914C274.847 77.7968 275.029 78.7427 275.394 79.529C275.77 80.3039 276.3 80.9022 276.984 81.3239C277.667 81.7341 278.482 81.9392 279.428 81.9392C280.135 81.9392 280.756 81.831 281.291 81.6145C281.827 81.3865 282.266 81.0959 282.607 80.7427C282.961 80.3894 283.206 80.0076 283.342 79.5974L283.377 79.4777H287.342L287.308 79.6658C287.16 80.3609 286.887 81.0447 286.488 81.717C286.089 82.378 285.553 82.9763 284.881 83.5119C284.209 84.0475 283.411 84.4748 282.488 84.7939C281.565 85.1016 280.516 85.2555 279.343 85.2555ZM297.316 85.2555C295.436 85.2555 294.034 84.8452 293.111 84.0247C292.2 83.2042 291.744 81.8595 291.744 79.9905V70.059H289.18V66.777H291.744V62.1787H296.069V66.777H299.436V70.059H296.069V79.6487C296.069 80.5261 296.262 81.1358 296.65 81.4777C297.049 81.8082 297.63 81.9734 298.393 81.9734C298.61 81.9734 298.798 81.9677 298.957 81.9563C299.128 81.9335 299.288 81.9164 299.436 81.9051V85.1016C299.185 85.1358 298.878 85.17 298.513 85.2042C298.16 85.2384 297.761 85.2555 297.316 85.2555ZM302.829 84.8965V60.23H307.085V69.8197H307.171C307.649 68.7257 308.362 67.8824 309.307 67.2898C310.265 66.6972 311.416 66.4009 312.76 66.4009C314.071 66.4009 315.205 66.7029 316.162 67.3069C317.119 67.8995 317.86 68.7371 318.384 69.8197C318.908 70.8909 319.171 72.1558 319.171 73.6145V84.8965H314.914V74.4521C314.914 73.0618 314.578 71.9735 313.906 71.1872C313.233 70.3895 312.287 69.9906 311.068 69.9906C310.27 69.9906 309.57 70.1843 308.966 70.5718C308.373 70.9479 307.911 71.4721 307.581 72.1444C307.25 72.8054 307.085 73.5746 307.085 74.4521V84.8965H302.829ZM330.922 85.2555C329.11 85.2555 327.549 84.8737 326.239 84.1102C324.939 83.3466 323.942 82.264 323.247 80.8623C322.552 79.4606 322.204 77.8025 322.204 75.888V75.8709C322.204 73.9678 322.552 72.3097 323.247 70.8966C323.954 69.4721 324.939 68.3667 326.204 67.5804C327.481 66.794 328.985 66.4009 330.717 66.4009C332.438 66.4009 333.925 66.7827 335.179 67.5462C336.444 68.2983 337.412 69.3581 338.085 70.7256C338.768 72.0932 339.11 73.6886 339.11 75.5119V76.8794H324.307V74.0419H337.076L335.025 76.6914V75.0504C335.025 73.8652 334.843 72.8795 334.478 72.0932C334.113 71.3068 333.612 70.7199 332.974 70.3325C332.335 69.9336 331.6 69.7342 330.768 69.7342C329.925 69.7342 329.173 69.9393 328.512 70.3496C327.862 70.7484 327.35 71.3467 326.974 72.1444C326.609 72.9422 326.427 73.9108 326.427 75.0504V76.6914C326.427 77.7968 326.609 78.7427 326.974 79.529C327.35 80.3039 327.88 80.9022 328.563 81.3239C329.247 81.7341 330.062 81.9392 331.008 81.9392C331.714 81.9392 332.335 81.831 332.871 81.6145C333.407 81.3865 333.845 81.0959 334.187 80.7427C334.541 80.3894 334.786 80.0076 334.922 79.5974L334.956 79.4777H338.922L338.888 79.6658C338.74 80.3609 338.466 81.0447 338.068 81.717C337.669 82.378 337.133 82.9763 336.461 83.5119C335.788 84.0475 334.991 84.4748 334.068 84.7939C333.145 85.1016 332.096 85.2555 330.922 85.2555ZM342.178 84.8965V66.777H346.418V69.9051H346.52C346.794 68.8111 347.289 67.9564 348.007 67.3411C348.737 66.7143 349.626 66.4009 350.674 66.4009C350.936 66.4009 351.187 66.418 351.426 66.4522C351.665 66.4864 351.865 66.5262 352.024 66.5718V70.418C351.853 70.3496 351.608 70.2926 351.289 70.247C350.982 70.2014 350.645 70.1786 350.281 70.1786C349.483 70.1786 348.794 70.3439 348.212 70.6744C347.631 70.9934 347.187 71.4664 346.879 72.0932C346.571 72.7199 346.418 73.4835 346.418 74.3837V84.8965H342.178ZM368.126 85.2555C366.793 85.2555 365.659 84.9877 364.724 84.452C363.801 83.905 363.095 83.1244 362.605 82.1102C362.115 81.0959 361.87 79.8937 361.87 78.5034V66.777H366.109V77.6487C366.109 78.9364 366.411 79.9336 367.015 80.6401C367.619 81.3353 368.531 81.6828 369.75 81.6828C370.354 81.6828 370.901 81.5803 371.391 81.3751C371.892 81.1586 372.32 80.8566 372.673 80.4692C373.026 80.0817 373.294 79.6202 373.477 79.0846C373.659 78.5376 373.75 77.9336 373.75 77.2726V66.777H378.006V84.8965H373.75V82.0589H373.665C373.345 82.6971 372.93 83.2612 372.417 83.7512C371.904 84.2298 371.289 84.6002 370.571 84.8623C369.853 85.1244 369.038 85.2555 368.126 85.2555ZM388.938 85.2555C387.354 85.2555 385.997 85.0218 384.869 84.5546C383.752 84.0874 382.875 83.4321 382.237 82.5888C381.61 81.7341 381.228 80.7484 381.092 79.6316L381.074 79.4777H385.262L385.297 79.6316C385.456 80.4179 385.832 81.0276 386.425 81.4606C387.029 81.8937 387.872 82.1102 388.955 82.1102C389.65 82.1102 390.242 82.0247 390.732 81.8538C391.223 81.6828 391.599 81.4321 391.861 81.1016C392.134 80.7712 392.271 80.3837 392.271 79.9393V79.9222C392.271 79.3866 392.089 78.9535 391.724 78.623C391.359 78.2811 390.704 78.0019 389.758 77.7854L386.75 77.1188C385.599 76.8567 384.636 76.4977 383.861 76.0418C383.086 75.586 382.505 75.0219 382.117 74.3496C381.73 73.6658 381.536 72.8738 381.536 71.9735V71.9564C381.536 70.851 381.838 69.8823 382.442 69.0504C383.046 68.2185 383.895 67.569 384.989 67.1017C386.083 66.6345 387.354 66.4009 388.801 66.4009C390.305 66.4009 391.593 66.6516 392.664 67.153C393.735 67.6544 394.562 68.3268 395.143 69.1701C395.735 70.0134 396.054 70.9593 396.1 72.0077L396.117 72.1957H392.151L392.134 72.059C392.043 71.3296 391.713 70.7313 391.143 70.2641C390.573 69.7855 389.792 69.5462 388.801 69.5462C388.174 69.5462 387.627 69.6373 387.16 69.8197C386.704 70.002 386.351 70.2584 386.1 70.5889C385.861 70.9194 385.741 71.3068 385.741 71.7513V71.7684C385.741 72.1103 385.827 72.4179 385.997 72.6914C386.168 72.9649 386.442 73.2043 386.818 73.4094C387.194 73.6031 387.695 73.7741 388.322 73.9222L391.331 74.5889C393.211 75.0105 394.55 75.6145 395.348 76.4008C396.146 77.1757 396.544 78.2185 396.544 79.529V79.5461C396.544 80.6857 396.22 81.6885 395.57 82.5546C394.92 83.4093 394.02 84.076 392.869 84.5546C391.73 85.0218 390.419 85.2555 388.938 85.2555ZM407.578 85.2555C405.766 85.2555 404.205 84.8737 402.894 84.1102C401.595 83.3466 400.598 82.264 399.903 80.8623C399.208 79.4606 398.86 77.8025 398.86 75.888V75.8709C398.86 73.9678 399.208 72.3097 399.903 70.8966C400.61 69.4721 401.595 68.3667 402.86 67.5804C404.137 66.794 405.641 66.4009 407.373 66.4009C409.094 66.4009 410.581 66.7827 411.835 67.5462C413.099 68.2983 414.068 69.3581 414.741 70.7256C415.424 72.0932 415.766 73.6886 415.766 75.5119V76.8794H400.963V74.0419H413.732L411.681 76.6914V75.0504C411.681 73.8652 411.498 72.8795 411.134 72.0932C410.769 71.3068 410.268 70.7199 409.629 70.3325C408.991 69.9336 408.256 69.7342 407.424 69.7342C406.581 69.7342 405.829 69.9393 405.168 70.3496C404.518 70.7484 404.006 71.3467 403.629 72.1444C403.265 72.9422 403.082 73.9108 403.082 75.0504V76.6914C403.082 77.7968 403.265 78.7427 403.629 79.529C404.006 80.3039 404.535 80.9022 405.219 81.3239C405.903 81.7341 406.718 81.9392 407.664 81.9392C408.37 81.9392 408.991 81.831 409.527 81.6145C410.062 81.3865 410.501 81.0959 410.843 80.7427C411.196 80.3894 411.441 80.0076 411.578 79.5974L411.612 79.4777H415.578L415.544 79.6658C415.396 80.3609 415.122 81.0447 414.723 81.717C414.325 82.378 413.789 82.9763 413.117 83.5119C412.444 84.0475 411.647 84.4748 410.723 84.7939C409.8 85.1016 408.752 85.2555 407.578 85.2555ZM418.834 84.8965V66.777H423.073V69.9051H423.176C423.45 68.8111 423.945 67.9564 424.663 67.3411C425.393 66.7143 426.281 66.4009 427.33 66.4009C427.592 66.4009 427.843 66.418 428.082 66.4522C428.321 66.4864 428.521 66.5262 428.68 66.5718V70.418C428.509 70.3496 428.264 70.2926 427.945 70.247C427.638 70.2014 427.301 70.1786 426.937 70.1786C426.139 70.1786 425.45 70.3439 424.868 70.6744C424.287 70.9934 423.843 71.4664 423.535 72.0932C423.227 72.7199 423.073 73.4835 423.073 74.3837V84.8965H418.834ZM438.295 85.2555C436.711 85.2555 435.355 85.0218 434.227 84.5546C433.11 84.0874 432.233 83.4321 431.594 82.5888C430.968 81.7341 430.586 80.7484 430.449 79.6316L430.432 79.4777H434.62L434.654 79.6316C434.814 80.4179 435.19 81.0276 435.782 81.4606C436.386 81.8937 437.23 82.1102 438.312 82.1102C439.007 82.1102 439.6 82.0247 440.09 81.8538C440.58 81.6828 440.956 81.4321 441.218 81.1016C441.492 80.7712 441.629 80.3837 441.629 79.9393V79.9222C441.629 79.3866 441.446 78.9535 441.082 78.623C440.717 78.2811 440.062 78.0019 439.116 77.7854L436.107 77.1188C434.956 76.8567 433.993 76.4977 433.218 76.0418C432.443 75.586 431.862 75.0219 431.475 74.3496C431.087 73.6658 430.894 72.8738 430.894 71.9735V71.9564C430.894 70.851 431.196 69.8823 431.8 69.0504C432.404 68.2185 433.253 67.569 434.347 67.1017C435.441 66.6345 436.711 66.4009 438.158 66.4009C439.663 66.4009 440.95 66.6516 442.022 67.153C443.093 67.6544 443.919 68.3268 444.5 69.1701C445.093 70.0134 445.412 70.9593 445.458 72.0077L445.475 72.1957H441.509L441.492 72.059C441.401 71.3296 441.07 70.7313 440.5 70.2641C439.931 69.7855 439.15 69.5462 438.158 69.5462C437.532 69.5462 436.985 69.6373 436.517 69.8197C436.062 70.002 435.708 70.2584 435.458 70.5889C435.218 70.9194 435.099 71.3068 435.099 71.7513V71.7684C435.099 72.1103 435.184 72.4179 435.355 72.6914C435.526 72.9649 435.8 73.2043 436.176 73.4094C436.552 73.6031 437.053 73.7741 437.68 73.9222L440.688 74.5889C442.569 75.0105 443.908 75.6145 444.705 76.4008C445.503 77.1757 445.902 78.2185 445.902 79.529V79.5461C445.902 80.6857 445.577 81.6885 444.928 82.5546C444.278 83.4093 443.378 84.076 442.227 84.5546C441.087 85.0218 439.777 85.2555 438.295 85.2555ZM461.713 85.2042C460.517 85.2042 459.457 84.9763 458.534 84.5204C457.622 84.0532 456.91 83.4093 456.397 82.5888C455.896 81.7569 455.645 80.8053 455.645 79.7341V79.6999C455.645 78.6173 455.913 77.6943 456.448 76.9307C456.995 76.1558 457.782 75.5461 458.807 75.1017C459.833 74.6458 461.075 74.3723 462.534 74.2812L469.457 73.8538V76.6743L463.132 77.0675C462.084 77.1359 461.28 77.3866 460.722 77.8196C460.163 78.2527 459.884 78.8282 459.884 79.5461V79.5632C459.884 80.3039 460.163 80.8908 460.722 81.3239C461.292 81.7455 462.044 81.9563 462.978 81.9563C463.799 81.9563 464.528 81.7911 465.166 81.4606C465.816 81.1301 466.329 80.68 466.705 80.1102C467.081 79.5404 467.269 78.8965 467.269 78.1786V72.7427C467.269 71.8311 466.978 71.1131 466.397 70.5889C465.827 70.0533 465.001 69.7855 463.918 69.7855C462.915 69.7855 462.112 70.002 461.508 70.435C460.904 70.8567 460.528 71.4037 460.38 72.0761L460.346 72.2299H456.414L456.431 72.0248C456.522 70.9536 456.881 69.9963 457.508 69.153C458.135 68.2983 459.001 67.626 460.106 67.1359C461.223 66.6459 462.545 66.4009 464.072 66.4009C465.588 66.4009 466.898 66.6516 468.004 67.153C469.121 67.6544 469.981 68.3553 470.585 69.2556C471.2 70.1558 471.508 71.2157 471.508 72.435V84.8965H467.269V82.1102H467.166C466.824 82.737 466.38 83.284 465.833 83.7512C465.286 84.2184 464.659 84.5774 463.952 84.8281C463.257 85.0788 462.511 85.2042 461.713 85.2042ZM475.311 84.8965V66.777H479.55V69.9051H479.653C479.926 68.8111 480.422 67.9564 481.14 67.3411C481.869 66.7143 482.758 66.4009 483.807 66.4009C484.069 66.4009 484.32 66.418 484.559 66.4522C484.798 66.4864 484.998 66.5262 485.157 66.5718V70.418C484.986 70.3496 484.741 70.2926 484.422 70.247C484.114 70.2014 483.778 70.1786 483.414 70.1786C482.616 70.1786 481.926 70.3439 481.345 70.6744C480.764 70.9934 480.32 71.4664 480.012 72.0932C479.704 72.7199 479.55 73.4835 479.55 74.3837V84.8965H475.311ZM494.977 85.2555C493.165 85.2555 491.604 84.8737 490.293 84.1102C488.994 83.3466 487.997 82.264 487.302 80.8623C486.607 79.4606 486.259 77.8025 486.259 75.888V75.8709C486.259 73.9678 486.607 72.3097 487.302 70.8966C488.009 69.4721 488.994 68.3667 490.259 67.5804C491.536 66.794 493.04 66.4009 494.772 66.4009C496.493 66.4009 497.98 66.7827 499.234 67.5462C500.499 68.2983 501.467 69.3581 502.14 70.7256C502.823 72.0932 503.165 73.6886 503.165 75.5119V76.8794H488.362V74.0419H501.131L499.08 76.6914V75.0504C499.08 73.8652 498.897 72.8795 498.533 72.0932C498.168 71.3068 497.667 70.7199 497.028 70.3325C496.39 69.9336 495.655 69.7342 494.823 69.7342C493.98 69.7342 493.228 69.9393 492.567 70.3496C491.917 70.7484 491.405 71.3467 491.029 72.1444C490.664 72.9422 490.482 73.9108 490.482 75.0504V76.6914C490.482 77.7968 490.664 78.7427 491.029 79.529C491.405 80.3039 491.935 80.9022 492.618 81.3239C493.302 81.7341 494.117 81.9392 495.063 81.9392C495.769 81.9392 496.39 81.831 496.926 81.6145C497.462 81.3865 497.9 81.0959 498.242 80.7427C498.595 80.3894 498.84 80.0076 498.977 79.5974L499.011 79.4777H502.977L502.943 79.6658C502.795 80.3609 502.521 81.0447 502.122 81.717C501.724 82.378 501.188 82.9763 500.516 83.5119C499.843 84.0475 499.046 84.4748 498.122 84.7939C497.199 85.1016 496.151 85.2555 494.977 85.2555ZM518.976 85.2042C517.78 85.2042 516.72 84.9763 515.797 84.5204C514.885 84.0532 514.173 83.4093 513.66 82.5888C513.159 81.7569 512.908 80.8053 512.908 79.7341V79.6999C512.908 78.6173 513.176 77.6943 513.711 76.9307C514.258 76.1558 515.045 75.5461 516.07 75.1017C517.096 74.6458 518.338 74.3723 519.797 74.2812L526.72 73.8538V76.6743L520.395 77.0675C519.347 77.1359 518.543 77.3866 517.985 77.8196C517.427 78.2527 517.147 78.8282 517.147 79.5461V79.5632C517.147 80.3039 517.427 80.8908 517.985 81.3239C518.555 81.7455 519.307 81.9563 520.241 81.9563C521.062 81.9563 521.791 81.7911 522.429 81.4606C523.079 81.1301 523.592 80.68 523.968 80.1102C524.344 79.5404 524.532 78.8965 524.532 78.1786V72.7427C524.532 71.8311 524.241 71.1131 523.66 70.5889C523.09 70.0533 522.264 69.7855 521.181 69.7855C520.179 69.7855 519.375 70.002 518.771 70.435C518.167 70.8567 517.791 71.4037 517.643 72.0761L517.609 72.2299H513.677L513.694 72.0248C513.786 70.9536 514.144 69.9963 514.771 69.153C515.398 68.2983 516.264 67.626 517.37 67.1359C518.486 66.6459 519.808 66.4009 521.335 66.4009C522.851 66.4009 524.161 66.6516 525.267 67.153C526.384 67.6544 527.244 68.3553 527.848 69.2556C528.463 70.1558 528.771 71.2157 528.771 72.435V84.8965H524.532V82.1102H524.429C524.087 82.737 523.643 83.284 523.096 83.7512C522.549 84.2184 521.922 84.5774 521.216 84.8281C520.521 85.0788 519.774 85.2042 518.976 85.2042ZM536.061 84.8965L531.138 66.777H535.412L538.472 80.6914H538.557L542.095 66.777H546.164L549.719 80.6914H549.805L552.865 66.777H557.07L552.181 84.8965H547.702L544.13 71.6487H544.044L540.489 84.8965H536.061ZM564.394 85.2042C563.198 85.2042 562.138 84.9763 561.215 84.5204C560.303 84.0532 559.591 83.4093 559.078 82.5888C558.577 81.7569 558.326 80.8053 558.326 79.7341V79.6999C558.326 78.6173 558.594 77.6943 559.129 76.9307C559.676 76.1558 560.463 75.5461 561.488 75.1017C562.514 74.6458 563.756 74.3723 565.215 74.2812L572.138 73.8538V76.6743L565.813 77.0675C564.765 77.1359 563.961 77.3866 563.403 77.8196C562.844 78.2527 562.565 78.8282 562.565 79.5461V79.5632C562.565 80.3039 562.844 80.8908 563.403 81.3239C563.972 81.7455 564.725 81.9563 565.659 81.9563C566.48 81.9563 567.209 81.7911 567.847 81.4606C568.497 81.1301 569.009 80.68 569.386 80.1102C569.762 79.5404 569.95 78.8965 569.95 78.1786V72.7427C569.95 71.8311 569.659 71.1131 569.078 70.5889C568.508 70.0533 567.682 69.7855 566.599 69.7855C565.596 69.7855 564.793 70.002 564.189 70.435C563.585 70.8567 563.209 71.4037 563.061 72.0761L563.027 72.2299H559.095L559.112 72.0248C559.203 70.9536 559.562 69.9963 560.189 69.153C560.816 68.2983 561.682 67.626 562.787 67.1359C563.904 66.6459 565.226 66.4009 566.753 66.4009C568.269 66.4009 569.579 66.6516 570.685 67.153C571.801 67.6544 572.662 68.3553 573.266 69.2556C573.881 70.1558 574.189 71.2157 574.189 72.435V84.8965H569.95V82.1102H569.847C569.505 82.737 569.061 83.284 568.514 83.7512C567.967 84.2184 567.34 84.5774 566.633 84.8281C565.938 85.0788 565.192 85.2042 564.394 85.2042ZM577.992 84.8965V66.777H582.231V69.9051H582.334C582.607 68.8111 583.103 67.9564 583.821 67.3411C584.55 66.7143 585.439 66.4009 586.488 66.4009C586.75 66.4009 587 66.418 587.24 66.4522C587.479 66.4864 587.679 66.5262 587.838 66.5718V70.418C587.667 70.3496 587.422 70.2926 587.103 70.247C586.795 70.2014 586.459 70.1786 586.094 70.1786C585.297 70.1786 584.607 70.3439 584.026 70.6744C583.445 70.9934 583.001 71.4664 582.693 72.0932C582.385 72.7199 582.231 73.4835 582.231 74.3837V84.8965H577.992ZM597.658 85.2555C595.846 85.2555 594.285 84.8737 592.974 84.1102C591.675 83.3466 590.678 82.264 589.983 80.8623C589.288 79.4606 588.94 77.8025 588.94 75.888V75.8709C588.94 73.9678 589.288 72.3097 589.983 70.8966C590.69 69.4721 591.675 68.3667 592.94 67.5804C594.217 66.794 595.721 66.4009 597.453 66.4009C599.174 66.4009 600.661 66.7827 601.915 67.5462C603.18 68.2983 604.148 69.3581 604.821 70.7256C605.504 72.0932 605.846 73.6886 605.846 75.5119V76.8794H591.043V74.0419H603.812L601.761 76.6914V75.0504C601.761 73.8652 601.578 72.8795 601.214 72.0932C600.849 71.3068 600.348 70.7199 599.709 70.3325C599.071 69.9336 598.336 69.7342 597.504 69.7342C596.661 69.7342 595.909 69.9393 595.248 70.3496C594.598 70.7484 594.086 71.3467 593.709 72.1444C593.345 72.9422 593.162 73.9108 593.162 75.0504V76.6914C593.162 77.7968 593.345 78.7427 593.709 79.529C594.086 80.3039 594.615 80.9022 595.299 81.3239C595.983 81.7341 596.798 81.9392 597.744 81.9392C598.45 81.9392 599.071 81.831 599.607 81.6145C600.142 81.3865 600.581 81.0959 600.923 80.7427C601.276 80.3894 601.521 80.0076 601.658 79.5974L601.692 79.4777H605.658L605.624 79.6658C605.476 80.3609 605.202 81.0447 604.803 81.717C604.405 82.378 603.869 82.9763 603.197 83.5119C602.524 84.0475 601.727 84.4748 600.803 84.7939C599.88 85.1016 598.832 85.2555 597.658 85.2555ZM621.657 85.2042C620.461 85.2042 619.401 84.9763 618.478 84.5204C617.566 84.0532 616.854 83.4093 616.341 82.5888C615.84 81.7569 615.589 80.8053 615.589 79.7341V79.6999C615.589 78.6173 615.857 77.6943 616.392 76.9307C616.939 76.1558 617.726 75.5461 618.751 75.1017C619.777 74.6458 621.019 74.3723 622.478 74.2812L629.401 73.8538V76.6743L623.076 77.0675C622.028 77.1359 621.224 77.3866 620.666 77.8196C620.107 78.2527 619.828 78.8282 619.828 79.5461V79.5632C619.828 80.3039 620.107 80.8908 620.666 81.3239C621.236 81.7455 621.988 81.9563 622.922 81.9563C623.743 81.9563 624.472 81.7911 625.11 81.4606C625.76 81.1301 626.273 80.68 626.649 80.1102C627.025 79.5404 627.213 78.8965 627.213 78.1786V72.7427C627.213 71.8311 626.922 71.1131 626.341 70.5889C625.771 70.0533 624.945 69.7855 623.862 69.7855C622.86 69.7855 622.056 70.002 621.452 70.435C620.848 70.8567 620.472 71.4037 620.324 72.0761L620.29 72.2299H616.358L616.375 72.0248C616.466 70.9536 616.825 69.9963 617.452 69.153C618.079 68.2983 618.945 67.626 620.05 67.1359C621.167 66.6459 622.489 66.4009 624.016 66.4009C625.532 66.4009 626.842 66.6516 627.948 67.153C629.065 67.6544 629.925 68.3553 630.529 69.2556C631.144 70.1558 631.452 71.2157 631.452 72.435V84.8965H627.213V82.1102H627.11C626.768 82.737 626.324 83.284 625.777 83.7512C625.23 84.2184 624.603 84.5774 623.897 84.8281C623.201 85.0788 622.455 85.2042 621.657 85.2042ZM635.255 84.8965V66.777H639.494V69.6145H639.597C640.064 68.6345 640.759 67.8539 641.682 67.2727C642.617 66.6915 643.768 66.4009 645.135 66.4009C647.13 66.4009 648.668 67.0049 649.751 68.2128C650.845 69.4208 651.392 71.0732 651.392 73.1701V84.8965H647.135V74.0248C647.135 72.737 646.833 71.7456 646.229 71.0504C645.625 70.3439 644.719 69.9906 643.512 69.9906C642.702 69.9906 641.996 70.1786 641.392 70.5547C640.788 70.9194 640.321 71.4322 639.99 72.0932C639.66 72.7427 639.494 73.5063 639.494 74.3837V84.8965H635.255ZM661.896 85.2555C660.369 85.2555 659.041 84.8794 657.913 84.1273C656.796 83.3637 655.93 82.2754 655.315 80.8623C654.711 79.4492 654.409 77.774 654.409 75.8367V75.8196C654.409 73.8709 654.716 72.1957 655.332 70.794C655.947 69.3809 656.813 68.2983 657.93 67.5462C659.047 66.7827 660.363 66.4009 661.879 66.4009C662.745 66.4009 663.537 66.5433 664.255 66.8282C664.984 67.1017 665.628 67.5006 666.186 68.0248C666.745 68.5376 667.195 69.1587 667.537 69.888H667.639V60.23H671.879V84.8965H667.639V81.8196H667.537C667.206 82.5375 666.762 83.1529 666.203 83.6657C665.656 84.1671 665.018 84.5603 664.289 84.8452C663.571 85.1187 662.773 85.2555 661.896 85.2555ZM663.178 81.6828C664.055 81.6828 664.83 81.4435 665.502 80.9649C666.175 80.4863 666.699 79.8082 667.075 78.9307C667.451 78.0532 667.639 77.0219 667.639 75.8367V75.8196C667.639 74.6344 667.446 73.6088 667.058 72.7427C666.682 71.8652 666.158 71.1872 665.485 70.7086C664.824 70.2299 664.055 69.9906 663.178 69.9906C662.266 69.9906 661.474 70.2299 660.802 70.7086C660.141 71.1758 659.628 71.8424 659.263 72.7085C658.91 73.5746 658.733 74.6117 658.733 75.8196V75.8367C658.733 77.0333 658.91 78.0703 659.263 78.9478C659.628 79.8253 660.141 80.5034 660.802 80.982C661.474 81.4492 662.266 81.6828 663.178 81.6828ZM222.865 129.204C221.668 129.204 220.609 128.976 219.685 128.52C218.774 128.053 218.062 127.409 217.549 126.589C217.047 125.757 216.797 124.805 216.797 123.734V123.7C216.797 122.617 217.064 121.694 217.6 120.931C218.147 120.156 218.933 119.546 219.959 119.102C220.985 118.646 222.227 118.372 223.685 118.281L230.608 117.854V120.674L224.284 121.067C223.235 121.136 222.432 121.387 221.874 121.82C221.315 122.253 221.036 122.828 221.036 123.546V123.563C221.036 124.304 221.315 124.891 221.874 125.324C222.443 125.746 223.195 125.956 224.13 125.956C224.95 125.956 225.68 125.791 226.318 125.461C226.967 125.13 227.48 124.68 227.856 124.11C228.232 123.54 228.42 122.897 228.42 122.179V116.743C228.42 115.831 228.13 115.113 227.549 114.589C226.979 114.053 226.153 113.785 225.07 113.785C224.067 113.785 223.264 114.002 222.66 114.435C222.056 114.857 221.68 115.404 221.532 116.076L221.497 116.23H217.566L217.583 116.025C217.674 114.954 218.033 113.996 218.66 113.153C219.287 112.298 220.153 111.626 221.258 111.136C222.375 110.646 223.697 110.401 225.224 110.401C226.74 110.401 228.05 110.652 229.156 111.153C230.272 111.654 231.133 112.355 231.737 113.256C232.352 114.156 232.66 115.216 232.66 116.435V128.896H228.42V126.11H228.318C227.976 126.737 227.532 127.284 226.985 127.751C226.438 128.218 225.811 128.577 225.104 128.828C224.409 129.079 223.663 129.204 222.865 129.204ZM236.463 128.896V110.777H240.702V113.905H240.805C241.078 112.811 241.574 111.956 242.292 111.341C243.021 110.714 243.91 110.401 244.958 110.401C245.221 110.401 245.471 110.418 245.711 110.452C245.95 110.486 246.149 110.526 246.309 110.572V114.418C246.138 114.35 245.893 114.293 245.574 114.247C245.266 114.201 244.93 114.179 244.565 114.179C243.768 114.179 243.078 114.344 242.497 114.674C241.916 114.993 241.471 115.466 241.164 116.093C240.856 116.72 240.702 117.483 240.702 118.384V128.896H236.463ZM256.129 129.255C254.317 129.255 252.756 128.874 251.445 128.11C250.146 127.347 249.149 126.264 248.454 124.862C247.759 123.461 247.411 121.803 247.411 119.888V119.871C247.411 117.968 247.759 116.31 248.454 114.897C249.16 113.472 250.146 112.367 251.411 111.58C252.687 110.794 254.192 110.401 255.924 110.401C257.645 110.401 259.132 110.783 260.385 111.546C261.65 112.298 262.619 113.358 263.291 114.726C263.975 116.093 264.317 117.689 264.317 119.512V120.879H249.514V118.042H262.283L260.232 120.691V119.05C260.232 117.865 260.049 116.879 259.685 116.093C259.32 115.307 258.818 114.72 258.18 114.332C257.542 113.934 256.807 113.734 255.975 113.734C255.132 113.734 254.38 113.939 253.719 114.35C253.069 114.748 252.556 115.347 252.18 116.144C251.816 116.942 251.633 117.911 251.633 119.05V120.691C251.633 121.797 251.816 122.743 252.18 123.529C252.556 124.304 253.086 124.902 253.77 125.324C254.454 125.734 255.269 125.939 256.214 125.939C256.921 125.939 257.542 125.831 258.078 125.614C258.613 125.387 259.052 125.096 259.394 124.743C259.747 124.389 259.992 124.008 260.129 123.597L260.163 123.478H264.129L264.095 123.666C263.947 124.361 263.673 125.045 263.274 125.717C262.875 126.378 262.34 126.976 261.667 127.512C260.995 128.047 260.197 128.475 259.274 128.794C258.351 129.102 257.303 129.255 256.129 129.255ZM282.778 129.255C280.989 129.255 279.439 128.874 278.128 128.11C276.818 127.347 275.803 126.258 275.085 124.845C274.379 123.432 274.026 121.757 274.026 119.82V119.803C274.026 117.877 274.385 116.213 275.103 114.811C275.82 113.398 276.829 112.31 278.128 111.546C279.439 110.783 280.971 110.401 282.726 110.401C284.322 110.401 285.701 110.709 286.863 111.324C288.026 111.928 288.937 112.731 289.598 113.734C290.259 114.737 290.635 115.842 290.726 117.05V117.17H286.726L286.692 117.033C286.521 116.156 286.105 115.409 285.444 114.794C284.795 114.167 283.906 113.854 282.778 113.854C281.889 113.854 281.108 114.099 280.436 114.589C279.775 115.068 279.262 115.751 278.897 116.64C278.533 117.529 278.35 118.595 278.35 119.837V119.854C278.35 121.107 278.533 122.179 278.897 123.067C279.273 123.956 279.792 124.64 280.453 125.119C281.125 125.586 281.906 125.82 282.795 125.82C283.877 125.82 284.749 125.529 285.41 124.948C286.083 124.355 286.516 123.586 286.709 122.64L286.743 122.486H290.761L290.743 122.606C290.629 123.859 290.231 124.988 289.547 125.991C288.863 126.993 287.946 127.791 286.795 128.384C285.644 128.965 284.305 129.255 282.778 129.255ZM301.675 129.255C299.897 129.255 298.353 128.879 297.042 128.127C295.732 127.364 294.712 126.281 293.982 124.879C293.264 123.466 292.905 121.785 292.905 119.837V119.803C292.905 117.865 293.27 116.196 293.999 114.794C294.729 113.381 295.749 112.298 297.059 111.546C298.37 110.783 299.903 110.401 301.658 110.401C303.424 110.401 304.962 110.783 306.273 111.546C307.595 112.298 308.62 113.375 309.35 114.777C310.079 116.179 310.444 117.854 310.444 119.803V119.837C310.444 121.797 310.079 123.483 309.35 124.897C308.632 126.298 307.618 127.375 306.307 128.127C304.997 128.879 303.452 129.255 301.675 129.255ZM301.692 125.82C302.592 125.82 303.373 125.586 304.034 125.119C304.695 124.652 305.202 123.973 305.555 123.085C305.92 122.184 306.102 121.102 306.102 119.837V119.803C306.102 118.549 305.92 117.478 305.555 116.589C305.19 115.7 304.672 115.022 303.999 114.555C303.338 114.087 302.558 113.854 301.658 113.854C300.78 113.854 300.005 114.087 299.333 114.555C298.672 115.022 298.153 115.7 297.777 116.589C297.413 117.478 297.23 118.549 297.23 119.803V119.837C297.23 121.102 297.413 122.184 297.777 123.085C298.153 123.973 298.672 124.652 299.333 125.119C300.005 125.586 300.791 125.82 301.692 125.82ZM313.529 128.896V110.777H317.768V113.615H317.871C318.338 112.634 319.033 111.854 319.956 111.273C320.891 110.691 322.042 110.401 323.409 110.401C325.403 110.401 326.942 111.005 328.025 112.213C329.119 113.421 329.666 115.073 329.666 117.17V128.896H325.409V118.025C325.409 116.737 325.107 115.746 324.503 115.05C323.899 114.344 322.993 113.991 321.785 113.991C320.976 113.991 320.27 114.179 319.666 114.555C319.062 114.919 318.594 115.432 318.264 116.093C317.933 116.743 317.768 117.506 317.768 118.384V128.896H313.529ZM341.434 129.255C339.645 129.255 338.095 128.874 336.785 128.11C335.474 127.347 334.46 126.258 333.742 124.845C333.036 123.432 332.682 121.757 332.682 119.82V119.803C332.682 117.877 333.041 116.213 333.759 114.811C334.477 113.398 335.486 112.31 336.785 111.546C338.095 110.783 339.628 110.401 341.383 110.401C342.979 110.401 344.357 110.709 345.52 111.324C346.682 111.928 347.594 112.731 348.255 113.734C348.916 114.737 349.292 115.842 349.383 117.05V117.17H345.383L345.349 117.033C345.178 116.156 344.762 115.409 344.101 114.794C343.451 114.167 342.563 113.854 341.434 113.854C340.545 113.854 339.765 114.099 339.093 114.589C338.432 115.068 337.919 115.751 337.554 116.64C337.189 117.529 337.007 118.595 337.007 119.837V119.854C337.007 121.107 337.189 122.179 337.554 123.067C337.93 123.956 338.449 124.64 339.11 125.119C339.782 125.586 340.563 125.82 341.451 125.82C342.534 125.82 343.406 125.529 344.067 124.948C344.739 124.355 345.172 123.586 345.366 122.64L345.4 122.486H349.417L349.4 122.606C349.286 123.859 348.887 124.988 348.204 125.991C347.52 126.993 346.602 127.791 345.451 128.384C344.3 128.965 342.961 129.255 341.434 129.255ZM360.28 129.255C358.468 129.255 356.907 128.874 355.596 128.11C354.297 127.347 353.3 126.264 352.605 124.862C351.91 123.461 351.562 121.803 351.562 119.888V119.871C351.562 117.968 351.91 116.31 352.605 114.897C353.311 113.472 354.297 112.367 355.562 111.58C356.838 110.794 358.343 110.401 360.075 110.401C361.796 110.401 363.283 110.783 364.536 111.546C365.801 112.298 366.77 113.358 367.442 114.726C368.126 116.093 368.468 117.689 368.468 119.512V120.879H353.665V118.042H366.434L364.383 120.691V119.05C364.383 117.865 364.2 116.879 363.836 116.093C363.471 115.307 362.969 114.72 362.331 114.332C361.693 113.934 360.958 113.734 360.126 113.734C359.283 113.734 358.531 113.939 357.87 114.35C357.22 114.748 356.707 115.347 356.331 116.144C355.967 116.942 355.784 117.911 355.784 119.05V120.691C355.784 121.797 355.967 122.743 356.331 123.529C356.707 124.304 357.237 124.902 357.921 125.324C358.605 125.734 359.42 125.939 360.366 125.939C361.072 125.939 361.693 125.831 362.229 125.614C362.764 125.387 363.203 125.096 363.545 124.743C363.898 124.389 364.143 124.008 364.28 123.597L364.314 123.478H368.28L368.246 123.666C368.098 124.361 367.824 125.045 367.425 125.717C367.026 126.378 366.491 126.976 365.818 127.512C365.146 128.047 364.348 128.475 363.425 128.794C362.502 129.102 361.454 129.255 360.28 129.255ZM371.536 128.896V110.777H375.775V113.905H375.878C376.151 112.811 376.647 111.956 377.365 111.341C378.094 110.714 378.983 110.401 380.032 110.401C380.294 110.401 380.545 110.418 380.784 110.452C381.023 110.486 381.223 110.526 381.382 110.572V114.418C381.211 114.35 380.966 114.293 380.647 114.247C380.339 114.201 380.003 114.179 379.639 114.179C378.841 114.179 378.151 114.344 377.57 114.674C376.989 114.993 376.545 115.466 376.237 116.093C375.929 116.72 375.775 117.483 375.775 118.384V128.896H371.536ZM383.92 128.896V110.777H388.16V113.615H388.262C388.729 112.634 389.424 111.854 390.348 111.273C391.282 110.691 392.433 110.401 393.8 110.401C395.795 110.401 397.333 111.005 398.416 112.213C399.51 113.421 400.057 115.073 400.057 117.17V128.896H395.8V118.025C395.8 116.737 395.498 115.746 394.895 115.05C394.291 114.344 393.385 113.991 392.177 113.991C391.367 113.991 390.661 114.179 390.057 114.555C389.453 114.919 388.986 115.432 388.655 116.093C388.325 116.743 388.16 117.506 388.16 118.384V128.896H383.92ZM411.791 129.255C409.98 129.255 408.418 128.874 407.108 128.11C405.809 127.347 404.811 126.264 404.116 124.862C403.421 123.461 403.074 121.803 403.074 119.888V119.871C403.074 117.968 403.421 116.31 404.116 114.897C404.823 113.472 405.809 112.367 407.074 111.58C408.35 110.794 409.854 110.401 411.586 110.401C413.307 110.401 414.794 110.783 416.048 111.546C417.313 112.298 418.281 113.358 418.954 114.726C419.638 116.093 419.979 117.689 419.979 119.512V120.879H405.176V118.042H417.945L415.894 120.691V119.05C415.894 117.865 415.712 116.879 415.347 116.093C414.982 115.307 414.481 114.72 413.843 114.332C413.205 113.934 412.47 113.734 411.638 113.734C410.794 113.734 410.042 113.939 409.381 114.35C408.732 114.748 408.219 115.347 407.843 116.144C407.478 116.942 407.296 117.911 407.296 119.05V120.691C407.296 121.797 407.478 122.743 407.843 123.529C408.219 124.304 408.749 124.902 409.433 125.324C410.116 125.734 410.931 125.939 411.877 125.939C412.583 125.939 413.205 125.831 413.74 125.614C414.276 125.387 414.715 125.096 415.056 124.743C415.41 124.389 415.655 124.008 415.791 123.597L415.826 123.478H419.791L419.757 123.666C419.609 124.361 419.336 125.045 418.937 125.717C418.538 126.378 418.002 126.976 417.33 127.512C416.658 128.047 415.86 128.475 414.937 128.794C414.014 129.102 412.965 129.255 411.791 129.255ZM429.782 129.255C428.255 129.255 426.928 128.879 425.8 128.127C424.683 127.364 423.817 126.275 423.201 124.862C422.597 123.449 422.295 121.774 422.295 119.837V119.82C422.295 117.871 422.603 116.196 423.218 114.794C423.834 113.381 424.7 112.298 425.817 111.546C426.933 110.783 428.25 110.401 429.765 110.401C430.631 110.401 431.423 110.543 432.141 110.828C432.871 111.102 433.515 111.501 434.073 112.025C434.631 112.538 435.082 113.159 435.423 113.888H435.526V104.23H439.765V128.896H435.526V125.82H435.423C435.093 126.538 434.649 127.153 434.09 127.666C433.543 128.167 432.905 128.56 432.176 128.845C431.458 129.119 430.66 129.255 429.782 129.255ZM431.065 125.683C431.942 125.683 432.717 125.444 433.389 124.965C434.062 124.486 434.586 123.808 434.962 122.931C435.338 122.053 435.526 121.022 435.526 119.837V119.82C435.526 118.634 435.332 117.609 434.945 116.743C434.569 115.865 434.045 115.187 433.372 114.709C432.711 114.23 431.942 113.991 431.065 113.991C430.153 113.991 429.361 114.23 428.688 114.709C428.027 115.176 427.515 115.842 427.15 116.709C426.797 117.575 426.62 118.612 426.62 119.82V119.837C426.62 121.033 426.797 122.07 427.15 122.948C427.515 123.825 428.027 124.503 428.688 124.982C429.361 125.449 430.153 125.683 431.065 125.683ZM459.115 129.255C457.337 129.255 455.793 128.879 454.482 128.127C453.172 127.364 452.152 126.281 451.423 124.879C450.705 123.466 450.346 121.785 450.346 119.837V119.803C450.346 117.865 450.71 116.196 451.44 114.794C452.169 113.381 453.189 112.298 454.5 111.546C455.81 110.783 457.343 110.401 459.098 110.401C460.864 110.401 462.403 110.783 463.713 111.546C465.035 112.298 466.061 113.375 466.79 114.777C467.519 116.179 467.884 117.854 467.884 119.803V119.837C467.884 121.797 467.519 123.483 466.79 124.897C466.072 126.298 465.058 127.375 463.747 128.127C462.437 128.879 460.893 129.255 459.115 129.255ZM459.132 125.82C460.032 125.82 460.813 125.586 461.474 125.119C462.135 124.652 462.642 123.973 462.995 123.085C463.36 122.184 463.542 121.102 463.542 119.837V119.803C463.542 118.549 463.36 117.478 462.995 116.589C462.631 115.7 462.112 115.022 461.44 114.555C460.779 114.087 459.998 113.854 459.098 113.854C458.22 113.854 457.445 114.087 456.773 114.555C456.112 115.022 455.594 115.7 455.217 116.589C454.853 117.478 454.67 118.549 454.67 119.803V119.837C454.67 121.102 454.853 122.184 455.217 123.085C455.594 123.973 456.112 124.652 456.773 125.119C457.445 125.586 458.232 125.82 459.132 125.82ZM472.149 128.896V114.059H469.67V110.777H472.149V109.05C472.149 107.865 472.342 106.891 472.73 106.127C473.129 105.364 473.738 104.8 474.559 104.435C475.379 104.059 476.445 103.871 477.755 103.871C478.177 103.871 478.593 103.888 479.003 103.922C479.425 103.956 479.767 103.996 480.029 104.042V107.016C479.847 106.994 479.641 106.976 479.414 106.965C479.197 106.942 478.975 106.931 478.747 106.931C477.915 106.931 477.3 107.119 476.901 107.495C476.513 107.871 476.32 108.429 476.32 109.17V110.777H479.961V114.059H476.405V128.896H472.149ZM497.225 129.255C495.344 129.255 493.943 128.845 493.02 128.025C492.108 127.204 491.652 125.859 491.652 123.991V114.059H489.088V110.777H491.652V106.179H495.977V110.777H499.344V114.059H495.977V123.649C495.977 124.526 496.171 125.136 496.558 125.478C496.957 125.808 497.538 125.973 498.302 125.973C498.518 125.973 498.706 125.968 498.866 125.956C499.037 125.934 499.196 125.916 499.344 125.905V129.102C499.094 129.136 498.786 129.17 498.421 129.204C498.068 129.238 497.669 129.255 497.225 129.255ZM502.737 128.896V104.23H506.994V113.82H507.079C507.558 112.726 508.27 111.882 509.216 111.29C510.173 110.697 511.324 110.401 512.669 110.401C513.979 110.401 515.113 110.703 516.07 111.307C517.028 111.899 517.768 112.737 518.293 113.82C518.817 114.891 519.079 116.156 519.079 117.615V128.896H514.823V118.452C514.823 117.062 514.486 115.973 513.814 115.187C513.142 114.389 512.196 113.991 510.976 113.991C510.179 113.991 509.478 114.184 508.874 114.572C508.281 114.948 507.82 115.472 507.489 116.144C507.159 116.805 506.994 117.575 506.994 118.452V128.896H502.737ZM530.831 129.255C529.019 129.255 527.457 128.874 526.147 128.11C524.848 127.347 523.851 126.264 523.155 124.862C522.46 123.461 522.113 121.803 522.113 119.888V119.871C522.113 117.968 522.46 116.31 523.155 114.897C523.862 113.472 524.848 112.367 526.113 111.58C527.389 110.794 528.893 110.401 530.626 110.401C532.346 110.401 533.833 110.783 535.087 111.546C536.352 112.298 537.321 113.358 537.993 114.726C538.677 116.093 539.019 117.689 539.019 119.512V120.879H524.215V118.042H536.984L534.933 120.691V119.05C534.933 117.865 534.751 116.879 534.386 116.093C534.022 115.307 533.52 114.72 532.882 114.332C532.244 113.934 531.509 113.734 530.677 113.734C529.833 113.734 529.081 113.939 528.42 114.35C527.771 114.748 527.258 115.347 526.882 116.144C526.517 116.942 526.335 117.911 526.335 119.05V120.691C526.335 121.797 526.517 122.743 526.882 123.529C527.258 124.304 527.788 124.902 528.472 125.324C529.155 125.734 529.97 125.939 530.916 125.939C531.623 125.939 532.244 125.831 532.779 125.614C533.315 125.387 533.754 125.096 534.096 124.743C534.449 124.389 534.694 124.008 534.831 123.597L534.865 123.478H538.831L538.796 123.666C538.648 124.361 538.375 125.045 537.976 125.717C537.577 126.378 537.041 126.976 536.369 127.512C535.697 128.047 534.899 128.475 533.976 128.794C533.053 129.102 532.004 129.255 530.831 129.255ZM218.694 172.896V158.059H216.215V154.777H218.694V153.05C218.694 151.865 218.888 150.891 219.275 150.127C219.674 149.364 220.284 148.8 221.104 148.435C221.925 148.059 222.99 147.871 224.301 147.871C224.722 147.871 225.138 147.888 225.549 147.922C225.97 147.956 226.312 147.996 226.574 148.042V151.016C226.392 150.994 226.187 150.976 225.959 150.965C225.742 150.942 225.52 150.931 225.292 150.931C224.46 150.931 223.845 151.119 223.446 151.495C223.059 151.871 222.865 152.429 222.865 153.17V154.777H226.506V158.059H222.95V172.896H218.694ZM229.659 172.896V154.777H233.899V157.905H234.001C234.275 156.811 234.771 155.956 235.488 155.341C236.218 154.714 237.107 154.401 238.155 154.401C238.417 154.401 238.668 154.418 238.907 154.452C239.147 154.486 239.346 154.526 239.506 154.572V158.418C239.335 158.35 239.09 158.293 238.77 158.247C238.463 158.201 238.127 158.179 237.762 158.179C236.964 158.179 236.275 158.344 235.694 158.674C235.112 158.993 234.668 159.466 234.36 160.093C234.053 160.72 233.899 161.483 233.899 162.384V172.896H229.659ZM249.377 173.255C247.599 173.255 246.055 172.879 244.744 172.127C243.434 171.364 242.414 170.281 241.685 168.879C240.967 167.466 240.608 165.785 240.608 163.837V163.803C240.608 161.865 240.972 160.196 241.702 158.794C242.431 157.381 243.451 156.298 244.762 155.546C246.072 154.783 247.605 154.401 249.36 154.401C251.126 154.401 252.665 154.783 253.975 155.546C255.297 156.298 256.323 157.375 257.052 158.777C257.781 160.179 258.146 161.854 258.146 163.803V163.837C258.146 165.797 257.781 167.483 257.052 168.897C256.334 170.298 255.32 171.375 254.009 172.127C252.699 172.879 251.155 173.255 249.377 173.255ZM249.394 169.82C250.294 169.82 251.075 169.586 251.736 169.119C252.397 168.652 252.904 167.973 253.257 167.085C253.622 166.184 253.804 165.102 253.804 163.837V163.803C253.804 162.549 253.622 161.478 253.257 160.589C252.893 159.7 252.374 159.022 251.702 158.555C251.041 158.087 250.26 157.854 249.36 157.854C248.482 157.854 247.707 158.087 247.035 158.555C246.374 159.022 245.856 159.7 245.48 160.589C245.115 161.478 244.932 162.549 244.932 163.803V163.837C244.932 165.102 245.115 166.184 245.48 167.085C245.856 167.973 246.374 168.652 247.035 169.119C247.707 169.586 248.494 169.82 249.394 169.82ZM261.231 172.896V154.777H265.47V157.683H265.573C265.949 156.691 266.582 155.899 267.47 155.307C268.359 154.703 269.402 154.401 270.599 154.401C271.442 154.401 272.2 154.549 272.872 154.845C273.544 155.13 274.114 155.546 274.582 156.093C275.06 156.629 275.408 157.284 275.624 158.059H275.71C276.006 157.307 276.428 156.663 276.975 156.127C277.533 155.58 278.183 155.159 278.923 154.862C279.675 154.555 280.485 154.401 281.351 154.401C282.547 154.401 283.584 154.657 284.462 155.17C285.351 155.672 286.04 156.378 286.53 157.29C287.032 158.19 287.282 159.25 287.282 160.469V172.896H283.026V161.512C283.026 160.76 282.901 160.122 282.65 159.597C282.399 159.073 282.034 158.674 281.556 158.401C281.077 158.127 280.485 157.991 279.778 157.991C279.094 157.991 278.49 158.15 277.966 158.469C277.453 158.777 277.049 159.21 276.752 159.768C276.468 160.327 276.325 160.971 276.325 161.7V172.896H272.188V161.29C272.188 160.606 272.057 160.019 271.795 159.529C271.533 159.039 271.163 158.663 270.684 158.401C270.205 158.127 269.636 157.991 268.975 157.991C268.291 157.991 267.687 158.156 267.163 158.486C266.639 158.817 266.223 159.267 265.915 159.837C265.619 160.407 265.47 161.062 265.47 161.803V172.896H261.231ZM305.162 173.255C303.281 173.255 301.88 172.845 300.957 172.025C300.045 171.204 299.589 169.859 299.589 167.991V158.059H297.025V154.777H299.589V150.179H303.914V154.777H307.281V158.059H303.914V167.649C303.914 168.526 304.108 169.136 304.495 169.478C304.894 169.808 305.475 169.973 306.239 169.973C306.455 169.973 306.643 169.968 306.803 169.956C306.974 169.934 307.133 169.916 307.281 169.905V173.102C307.031 173.136 306.723 173.17 306.358 173.204C306.005 173.238 305.606 173.255 305.162 173.255ZM310.674 172.896V148.23H314.931V157.82H315.016C315.495 156.726 316.207 155.882 317.153 155.29C318.11 154.697 319.261 154.401 320.606 154.401C321.916 154.401 323.05 154.703 324.007 155.307C324.965 155.899 325.705 156.737 326.23 157.82C326.754 158.891 327.016 160.156 327.016 161.615V172.896H322.76V162.452C322.76 161.062 322.423 159.973 321.751 159.187C321.079 158.389 320.133 157.991 318.914 157.991C318.116 157.991 317.415 158.184 316.811 158.572C316.218 158.948 315.757 159.472 315.426 160.144C315.096 160.805 314.931 161.575 314.931 162.452V172.896H310.674ZM330.922 172.896V154.777H335.178V172.896H330.922ZM333.041 152.179C332.38 152.179 331.822 151.951 331.366 151.495C330.91 151.039 330.682 150.492 330.682 149.854C330.682 149.204 330.91 148.657 331.366 148.213C331.822 147.757 332.38 147.529 333.041 147.529C333.714 147.529 334.278 147.757 334.734 148.213C335.189 148.657 335.417 149.204 335.417 149.854C335.417 150.492 335.189 151.039 334.734 151.495C334.278 151.951 333.714 152.179 333.041 152.179ZM346.229 173.255C344.645 173.255 343.289 173.022 342.161 172.555C341.044 172.087 340.166 171.432 339.528 170.589C338.901 169.734 338.52 168.748 338.383 167.632L338.366 167.478H342.554L342.588 167.632C342.747 168.418 343.123 169.028 343.716 169.461C344.32 169.894 345.163 170.11 346.246 170.11C346.941 170.11 347.534 170.025 348.024 169.854C348.514 169.683 348.89 169.432 349.152 169.102C349.425 168.771 349.562 168.384 349.562 167.939V167.922C349.562 167.387 349.38 166.954 349.015 166.623C348.651 166.281 347.995 166.002 347.049 165.785L344.041 165.119C342.89 164.857 341.927 164.498 341.152 164.042C340.377 163.586 339.796 163.022 339.408 162.35C339.021 161.666 338.827 160.874 338.827 159.973V159.956C338.827 158.851 339.129 157.882 339.733 157.05C340.337 156.219 341.186 155.569 342.28 155.102C343.374 154.635 344.645 154.401 346.092 154.401C347.596 154.401 348.884 154.652 349.955 155.153C351.027 155.654 351.853 156.327 352.434 157.17C353.027 158.013 353.346 158.959 353.391 160.008L353.408 160.196H349.443L349.425 160.059C349.334 159.33 349.004 158.731 348.434 158.264C347.864 157.785 347.084 157.546 346.092 157.546C345.465 157.546 344.918 157.637 344.451 157.82C343.995 158.002 343.642 158.258 343.391 158.589C343.152 158.919 343.032 159.307 343.032 159.751V159.768C343.032 160.11 343.118 160.418 343.289 160.691C343.46 160.965 343.733 161.204 344.109 161.409C344.485 161.603 344.987 161.774 345.613 161.922L348.622 162.589C350.502 163.011 351.841 163.614 352.639 164.401C353.437 165.176 353.836 166.218 353.836 167.529V167.546C353.836 168.686 353.511 169.689 352.861 170.555C352.212 171.409 351.311 172.076 350.16 172.555C349.021 173.022 347.71 173.255 346.229 173.255ZM371.014 173.255C369.134 173.255 367.732 172.845 366.809 172.025C365.898 171.204 365.442 169.859 365.442 167.991V158.059H362.878V154.777H365.442V150.179H369.766V154.777H373.134V158.059H369.766V167.649C369.766 168.526 369.96 169.136 370.348 169.478C370.747 169.808 371.328 169.973 372.091 169.973C372.308 169.973 372.496 169.968 372.655 169.956C372.826 169.934 372.986 169.916 373.134 169.905V173.102C372.883 173.136 372.576 173.17 372.211 173.204C371.858 173.238 371.459 173.255 371.014 173.255ZM376.407 172.896V154.777H380.646V157.905H380.749C381.022 156.811 381.518 155.956 382.236 155.341C382.965 154.714 383.854 154.401 384.903 154.401C385.165 154.401 385.416 154.418 385.655 154.452C385.894 154.486 386.094 154.526 386.253 154.572V158.418C386.082 158.35 385.837 158.293 385.518 158.247C385.21 158.201 384.874 158.179 384.51 158.179C383.712 158.179 383.022 158.344 382.441 158.674C381.86 158.993 381.416 159.466 381.108 160.093C380.8 160.72 380.646 161.483 380.646 162.384V172.896H376.407ZM393.731 173.204C392.535 173.204 391.475 172.976 390.552 172.52C389.64 172.053 388.928 171.409 388.415 170.589C387.914 169.757 387.663 168.805 387.663 167.734V167.7C387.663 166.617 387.931 165.694 388.467 164.931C389.014 164.156 389.8 163.546 390.825 163.102C391.851 162.646 393.093 162.372 394.552 162.281L401.475 161.854V164.674L395.15 165.067C394.102 165.136 393.298 165.387 392.74 165.82C392.182 166.253 391.902 166.828 391.902 167.546V167.563C391.902 168.304 392.182 168.891 392.74 169.324C393.31 169.746 394.062 169.956 394.996 169.956C395.817 169.956 396.546 169.791 397.184 169.461C397.834 169.13 398.347 168.68 398.723 168.11C399.099 167.54 399.287 166.897 399.287 166.179V160.743C399.287 159.831 398.996 159.113 398.415 158.589C397.845 158.053 397.019 157.785 395.937 157.785C394.934 157.785 394.13 158.002 393.526 158.435C392.922 158.857 392.546 159.404 392.398 160.076L392.364 160.23H388.432L388.449 160.025C388.541 158.954 388.9 157.996 389.526 157.153C390.153 156.298 391.019 155.626 392.125 155.136C393.241 154.646 394.563 154.401 396.09 154.401C397.606 154.401 398.917 154.652 400.022 155.153C401.139 155.654 401.999 156.355 402.603 157.256C403.219 158.156 403.526 159.216 403.526 160.435V172.896H399.287V170.11H399.184C398.843 170.737 398.398 171.284 397.851 171.751C397.304 172.218 396.677 172.577 395.971 172.828C395.276 173.079 394.529 173.204 393.731 173.204ZM414.064 173.255C412.537 173.255 411.21 172.879 410.081 172.127C408.965 171.364 408.099 170.275 407.483 168.862C406.879 167.449 406.577 165.774 406.577 163.837V163.82C406.577 161.871 406.885 160.196 407.5 158.794C408.116 157.381 408.982 156.298 410.098 155.546C411.215 154.783 412.532 154.401 414.047 154.401C414.913 154.401 415.705 154.543 416.423 154.828C417.153 155.102 417.796 155.501 418.355 156.025C418.913 156.538 419.363 157.159 419.705 157.888H419.808V148.23H424.047V172.896H419.808V169.82H419.705C419.375 170.538 418.93 171.153 418.372 171.666C417.825 172.167 417.187 172.56 416.457 172.845C415.739 173.119 414.942 173.255 414.064 173.255ZM415.346 169.683C416.224 169.683 416.999 169.444 417.671 168.965C418.343 168.486 418.868 167.808 419.244 166.931C419.62 166.053 419.808 165.022 419.808 163.837V163.82C419.808 162.634 419.614 161.609 419.227 160.743C418.851 159.865 418.326 159.187 417.654 158.709C416.993 158.23 416.224 157.991 415.346 157.991C414.435 157.991 413.643 158.23 412.97 158.709C412.309 159.176 411.796 159.842 411.432 160.709C411.079 161.575 410.902 162.612 410.902 163.82V163.837C410.902 165.033 411.079 166.07 411.432 166.948C411.796 167.825 412.309 168.503 412.97 168.982C413.643 169.449 414.435 169.683 415.346 169.683ZM435.953 173.255C434.141 173.255 432.579 172.874 431.269 172.11C429.97 171.347 428.973 170.264 428.278 168.862C427.582 167.461 427.235 165.803 427.235 163.888V163.871C427.235 161.968 427.582 160.31 428.278 158.897C428.984 157.472 429.97 156.367 431.235 155.58C432.511 154.794 434.015 154.401 435.748 154.401C437.468 154.401 438.955 154.783 440.209 155.546C441.474 156.298 442.443 157.358 443.115 158.726C443.799 160.093 444.141 161.689 444.141 163.512V164.879H429.337V162.042H442.106L440.055 164.691V163.05C440.055 161.865 439.873 160.879 439.508 160.093C439.144 159.307 438.642 158.72 438.004 158.332C437.366 157.934 436.631 157.734 435.799 157.734C434.956 157.734 434.203 157.939 433.542 158.35C432.893 158.748 432.38 159.347 432.004 160.144C431.639 160.942 431.457 161.911 431.457 163.05V164.691C431.457 165.797 431.639 166.743 432.004 167.529C432.38 168.304 432.91 168.902 433.594 169.324C434.277 169.734 435.092 169.939 436.038 169.939C436.745 169.939 437.366 169.831 437.901 169.614C438.437 169.387 438.876 169.096 439.218 168.743C439.571 168.389 439.816 168.008 439.953 167.597L439.987 167.478H443.953L443.918 167.666C443.77 168.361 443.497 169.045 443.098 169.717C442.699 170.378 442.163 170.976 441.491 171.512C440.819 172.047 440.021 172.475 439.098 172.794C438.175 173.102 437.126 173.255 435.953 173.255ZM447.585 164.76V160.999H458.61V164.76H447.585ZM470.858 173.255C469.08 173.255 467.536 172.879 466.225 172.127C464.915 171.364 463.895 170.281 463.165 168.879C462.448 167.466 462.089 165.785 462.089 163.837V163.803C462.089 161.865 462.453 160.196 463.183 158.794C463.912 157.381 464.932 156.298 466.242 155.546C467.553 154.783 469.086 154.401 470.841 154.401C472.607 154.401 474.145 154.783 475.456 155.546C476.778 156.298 477.804 157.375 478.533 158.777C479.262 160.179 479.627 161.854 479.627 163.803V163.837C479.627 165.797 479.262 167.483 478.533 168.897C477.815 170.298 476.801 171.375 475.49 172.127C474.18 172.879 472.635 173.255 470.858 173.255ZM470.875 169.82C471.775 169.82 472.556 169.586 473.217 169.119C473.878 168.652 474.385 167.973 474.738 167.085C475.103 166.184 475.285 165.102 475.285 163.837V163.803C475.285 162.549 475.103 161.478 474.738 160.589C474.373 159.7 473.855 159.022 473.182 158.555C472.522 158.087 471.741 157.854 470.841 157.854C469.963 157.854 469.188 158.087 468.516 158.555C467.855 159.022 467.336 159.7 466.96 160.589C466.596 161.478 466.413 162.549 466.413 163.803V163.837C466.413 165.102 466.596 166.184 466.96 167.085C467.336 167.973 467.855 168.652 468.516 169.119C469.188 169.586 469.975 169.82 470.875 169.82ZM483.891 172.896V158.059H481.413V154.777H483.891V153.05C483.891 151.865 484.085 150.891 484.473 150.127C484.872 149.364 485.481 148.8 486.302 148.435C487.122 148.059 488.188 147.871 489.498 147.871C489.92 147.871 490.336 147.888 490.746 147.922C491.168 147.956 491.51 147.996 491.772 148.042V151.016C491.589 150.994 491.384 150.976 491.156 150.965C490.94 150.942 490.718 150.931 490.49 150.931C489.658 150.931 489.042 151.119 488.644 151.495C488.256 151.871 488.062 152.429 488.062 153.17V154.777H491.703V158.059H488.148V172.896H483.891ZM496.036 172.896V158.059H493.558V154.777H496.036V153.05C496.036 151.865 496.23 150.891 496.618 150.127C497.016 149.364 497.626 148.8 498.447 148.435C499.267 148.059 500.333 147.871 501.643 147.871C502.065 147.871 502.481 147.888 502.891 147.922C503.313 147.956 503.655 147.996 503.917 148.042V151.016C503.734 150.994 503.529 150.976 503.301 150.965C503.085 150.942 502.862 150.931 502.635 150.931C501.803 150.931 501.187 151.119 500.788 151.495C500.401 151.871 500.207 152.429 500.207 153.17V154.777H503.848V158.059H500.293V172.896H496.036ZM508.318 173.17C507.623 173.17 507.036 172.931 506.557 172.452C506.079 171.973 505.839 171.392 505.839 170.708C505.839 170.013 506.079 169.426 506.557 168.948C507.036 168.469 507.623 168.23 508.318 168.23C509.002 168.23 509.583 168.469 510.062 168.948C510.54 169.426 510.779 170.013 510.779 170.708C510.779 171.392 510.54 171.973 510.062 172.452C509.583 172.931 509.002 173.17 508.318 173.17Z" fill="black" fill-opacity="0.8"/>
<path d="M547.445 128.896L551.36 110.521H556.078L555.565 113.085H555.667C556.157 112.241 556.807 111.558 557.616 111.033C558.437 110.509 559.377 110.247 560.437 110.247C560.927 110.247 561.365 110.293 561.753 110.384C562.14 110.464 562.476 110.572 562.761 110.709L561.804 115.187C561.496 115.039 561.12 114.914 560.676 114.811C560.231 114.697 559.764 114.64 559.274 114.64C558.408 114.64 557.65 114.805 557.001 115.136C556.363 115.455 555.833 115.934 555.411 116.572C554.989 117.21 554.67 118.002 554.454 118.948L552.334 128.896H547.445ZM562.171 128.896L566.069 110.521H570.958L567.06 128.896H562.171ZM569.607 108.093C568.889 108.093 568.274 107.837 567.761 107.324C567.26 106.8 567.009 106.179 567.009 105.461C567.009 104.743 567.26 104.127 567.761 103.615C568.274 103.09 568.889 102.828 569.607 102.828C570.336 102.828 570.952 103.09 571.453 103.615C571.955 104.127 572.205 104.743 572.205 105.461C572.205 106.179 571.955 106.8 571.453 107.324C570.952 107.837 570.336 108.093 569.607 108.093ZM573.906 115.991C573.906 114.828 574.219 113.808 574.846 112.931C575.484 112.042 576.373 111.352 577.513 110.862C578.652 110.372 579.986 110.127 581.513 110.127C582.971 110.127 584.259 110.378 585.376 110.88C586.493 111.381 587.37 112.082 588.008 112.982C588.658 113.871 589 114.897 589.034 116.059H584.59C584.555 115.592 584.396 115.176 584.111 114.811C583.837 114.446 583.473 114.167 583.017 113.974C582.561 113.768 582.037 113.666 581.444 113.666C580.852 113.666 580.339 113.746 579.906 113.905C579.484 114.065 579.154 114.287 578.914 114.572C578.686 114.845 578.573 115.17 578.573 115.546C578.573 116.025 578.761 116.412 579.137 116.709C579.513 117.005 580.202 117.313 581.205 117.632L583.034 118.247C584.743 118.805 585.963 119.472 586.692 120.247C587.421 121.011 587.786 122.002 587.786 123.221C587.786 124.418 587.45 125.478 586.778 126.401C586.117 127.312 585.194 128.025 584.008 128.538C582.823 129.05 581.444 129.307 579.872 129.307C578.265 129.307 576.857 129.05 575.649 128.538C574.441 128.025 573.496 127.307 572.812 126.384C572.14 125.461 571.781 124.395 571.735 123.187H576.419C576.51 123.939 576.869 124.555 577.496 125.033C578.134 125.512 578.977 125.751 580.025 125.751C580.607 125.751 581.114 125.666 581.547 125.495C581.991 125.324 582.333 125.085 582.572 124.777C582.812 124.469 582.931 124.122 582.931 123.734C582.931 123.301 582.755 122.948 582.402 122.674C582.048 122.401 581.382 122.11 580.402 121.803L578.778 121.256C577.091 120.697 575.855 119.996 575.068 119.153C574.293 118.31 573.906 117.256 573.906 115.991ZM594.683 128.896H589.794L595.059 104.23H599.931L597.076 117.546H597.179L604.786 110.521H610.563L601.931 118.384L607.128 128.896H601.811L598.016 121.17L595.982 122.914L594.683 128.896ZM610.811 115.991C610.811 114.828 611.124 113.808 611.751 112.931C612.389 112.042 613.278 111.352 614.418 110.862C615.557 110.372 616.891 110.127 618.418 110.127C619.876 110.127 621.164 110.378 622.281 110.88C623.398 111.381 624.275 112.082 624.913 112.982C625.563 113.871 625.905 114.897 625.939 116.059H621.495C621.46 115.592 621.301 115.176 621.016 114.811C620.742 114.446 620.378 114.167 619.922 113.974C619.466 113.768 618.942 113.666 618.349 113.666C617.757 113.666 617.244 113.746 616.811 113.905C616.389 114.065 616.059 114.287 615.819 114.572C615.591 114.845 615.478 115.17 615.478 115.546C615.478 116.025 615.666 116.412 616.042 116.709C616.418 117.005 617.107 117.313 618.11 117.632L619.939 118.247C621.648 118.805 622.868 119.472 623.597 120.247C624.326 121.011 624.691 122.002 624.691 123.221C624.691 124.418 624.355 125.478 623.683 126.401C623.022 127.312 622.099 128.025 620.913 128.538C619.728 129.05 618.349 129.307 616.777 129.307C615.17 129.307 613.762 129.05 612.554 128.538C611.347 128.025 610.401 127.307 609.717 126.384C609.045 125.461 608.686 124.395 608.64 123.187H613.324C613.415 123.939 613.774 124.555 614.401 125.033C615.039 125.512 615.882 125.751 616.931 125.751C617.512 125.751 618.019 125.666 618.452 125.495C618.896 125.324 619.238 125.085 619.478 124.777C619.717 124.469 619.836 124.122 619.836 123.734C619.836 123.301 619.66 122.948 619.307 122.674C618.953 122.401 618.287 122.11 617.307 121.803L615.683 121.256C613.996 120.697 612.76 119.996 611.973 119.153C611.198 118.31 610.811 117.256 610.811 115.991Z" fill="black"/>
</g>
<g filter="url(#filter0_d_2358_980)">
<circle cx="107.378" cy="115.781" r="60.7674" fill="url(#paint0_linear_2358_980)"/>
<circle cx="107.378" cy="115.781" r="60.7674" fill="url(#paint1_linear_2358_980)"/>
</g>
<rect x="102.794" y="96.7891" width="16.0548" height="36.4488" transform="rotate(7.16173 102.794 96.7891)" fill="#F65372"/>
<path d="M115.492 88.0118L138.685 128.273C139.456 129.621 139.88 131.124 139.88 132.549C139.88 137.442 136.605 141.179 131.249 141.179H84.9397C79.5844 141.179 76.3096 137.442 76.3096 132.549C76.3096 131.124 76.6948 129.66 77.5039 128.273L100.697 88.0118C102.315 85.1608 105.166 83.6582 108.095 83.6582C111.023 83.6582 113.835 85.1608 115.492 88.0118ZM104.396 127.81C104.396 129.775 106.13 131.316 108.095 131.316C110.059 131.316 111.755 129.814 111.755 127.81C111.755 125.846 110.059 124.266 108.095 124.266C106.091 124.266 104.396 125.846 104.396 127.81ZM104.858 101.689L105.282 118.102C105.321 119.874 106.322 120.876 108.095 120.876C109.79 120.876 110.753 119.912 110.791 118.102L111.292 101.727C111.331 99.9167 109.905 98.6068 108.056 98.6068C106.168 98.6068 104.82 99.8782 104.858 101.689Z" fill="white"/>
<defs>
<filter id="filter0_d_2358_980" x="35.781" y="48.9971" width="145.601" height="145.601" filterUnits="userSpaceOnUse" color-interpolation-filters="sRGB">
<feFlood flood-opacity="0" result="BackgroundImageFix"/>
<feColorMatrix in="SourceAlpha" type="matrix" values="0 0 0 0 0 0 0 0 0 0 0 0 0 0 0 0 0 0 127 0" result="hardAlpha"/>
<feOffset dx="1.20332" dy="6.01658"/>
<feGaussianBlur stdDeviation="6.01658"/>
<feComposite in2="hardAlpha" operator="out"/>
<feColorMatrix type="matrix" values="0 0 0 0 0 0 0 0 0 0 0 0 0 0 0 0 0 0 0.1 0"/>
<feBlend mode="normal" in2="BackgroundImageFix" result="effect1_dropShadow_2358_980"/>
<feBlend mode="normal" in="SourceGraphic" in2="effect1_dropShadow_2358_980" result="shape"/>
</filter>
<linearGradient id="paint0_linear_2358_980" x1="61.2496" y1="55.3511" x2="107.378" y2="176.549" gradientUnits="userSpaceOnUse">
<stop stop-color="#FDFDFD"/>
<stop offset="1" stop-color="#979797"/>
</linearGradient>
<linearGradient id="paint1_linear_2358_980" x1="63.4148" y1="50.1125" x2="152.336" y2="192.946" gradientUnits="userSpaceOnUse">
<stop offset="0.00742078" stop-color="#FFC1A8"/>
<stop offset="1" stop-color="#FF004D"/>
</linearGradient>
</defs>
</svg>
