<svg width="30" height="35" viewBox="0 0 30 35" fill="none" xmlns="http://www.w3.org/2000/svg">
<path d="M16.8485 34.8715C22.3178 34.8715 25.6581 32.9261 25.6581 29.5307V22.538C27.9156 20.5191 29.237 17.3073 29.237 13.8018C29.237 5.52438 23.8411 0 15.8207 0C7.81856 0 2.45936 5.41426 2.45936 13.4898C2.45936 13.9303 2.47771 14.2973 2.51442 14.646L0.752491 17.7845C0.256948 18.6838 0 19.5831 0 20.3907C0 21.914 0.917672 23.162 2.45936 23.6209V26.3555C2.45936 29.1085 4.44153 30.4484 6.90089 30.173L10.0577 29.861L8.18563 27.8605V29.5307C8.18563 32.9077 11.4525 34.8715 16.8485 34.8715ZM16.8485 32.2286C12.9759 32.2286 10.6817 31.0357 10.6817 29.0718V27.365C10.6817 27.1814 10.5899 27.0897 10.4248 27.108L6.53382 27.5485C5.61615 27.6403 5.10226 27.2732 5.10226 26.1904V21.6571C5.10226 21.5286 5.01049 21.4368 4.82695 21.4368H4.0194C3.15679 21.4368 2.66125 21.0147 2.66125 20.354C2.66125 19.9869 2.78972 19.5648 3.04667 19.1059L5.24908 15.1783C5.15732 14.6093 5.10226 14.022 5.10226 13.4531C5.10226 6.97431 9.37861 2.66125 15.8207 2.66125C22.2627 2.66125 26.5941 7.10278 26.5941 13.8018C26.5941 17.0136 25.236 19.8401 22.9969 21.2349V29.0718C22.9969 31.0357 20.7027 32.2286 16.8485 32.2286Z" fill="white"/>
<path d="M11.1038 15.4915C12.7373 15.4915 13.8752 14.3903 13.8752 12.8486C13.8752 12.298 13.7284 11.8942 13.4714 11.6189C13.1961 11.362 13.086 11.0867 13.086 10.9031C13.086 10.4994 13.4347 10.2057 13.8385 10.2057C14.0037 10.2057 14.2239 10.2424 14.3891 10.4076C14.4258 10.4443 14.4625 10.4994 14.4809 10.5361C15.6004 10.4076 16.1694 9.76522 16.1694 8.71908C16.1694 8.3153 16.4997 7.96659 16.9035 7.96659C17.3073 7.96659 17.656 8.33365 17.656 8.71908C17.6743 10.3892 16.8301 11.4354 15.215 11.8025C15.3251 12.1328 15.3618 12.4999 15.3618 12.867C15.3618 14.2618 14.6827 15.3997 13.5632 16.0421C14.1872 16.3358 14.903 16.4826 15.6738 16.4826C16.0409 16.4826 16.4263 16.4459 16.8117 16.3725C16.7383 16.1889 16.72 15.987 16.72 15.8219C16.72 12.0961 22.0608 11.4721 22.0608 8.18683C22.0608 6.53502 20.8128 5.26863 19.2527 5.26863C18.6471 5.26863 18.537 5.28698 18.4085 5.30534C17.8028 4.66297 16.9402 4.2959 16.2061 4.2959C14.8663 4.2959 13.9486 5.14016 13.9486 6.38819C13.9486 6.82867 13.6366 7.12233 13.1961 7.12233C12.7556 7.12233 12.4436 6.79197 12.462 6.35148C12.462 5.76417 12.6455 5.3971 12.7556 5.04839C12.5354 5.01168 12.3151 4.99333 12.1133 4.99333C10.388 4.99333 9.04823 6.05783 9.04823 7.36092C9.04823 8.20518 9.61719 8.88426 10.3697 8.88426C10.7918 8.88426 11.1222 9.21462 11.1222 9.60004C11.1222 10.0222 10.7735 10.3709 10.3697 10.3709C9.21341 10.3709 8.3141 9.83864 7.87361 8.99438C7.45149 9.67345 7.21289 10.4627 7.21289 11.2702C7.21289 13.6378 8.73623 15.4915 11.1038 15.4915ZM21.7672 19.1989C23.3089 19.1989 24.4284 17.4737 24.4284 15.1428C24.4284 14.9776 24.4284 14.7941 24.4284 14.5922C23.8595 14.8491 23.1804 14.9592 22.4095 14.9042C22.0058 14.8491 21.6938 14.5371 21.6938 14.1333C21.6938 13.7296 22.0425 13.3625 22.4462 13.3992C23.9512 13.5277 24.9423 12.7018 24.9423 11.362C24.9423 10.1323 24.3734 9.1045 23.4006 8.46213C22.9601 12.4632 18.0231 12.9954 18.0231 15.7668C18.0231 16.5193 18.5186 17.0515 19.3812 17.0515H19.5831C19.8217 18.3179 20.7027 19.1989 21.7672 19.1989Z" fill="white"/>
</svg>
